<svg width="480" height="336" viewBox="0 0 480 336" fill="none" xmlns="http://www.w3.org/2000/svg">
<rect x="0.499512" y="0.5" width="479" height="335" rx="4.5" stroke="#9747FF" stroke-dasharray="10 5"/>
<rect x="35.9995" y="27" width="42" height="42" rx="21" fill="white"/>
<circle cx="56.9995" cy="48" r="20" fill="#FF7A00" stroke="white" stroke-width="2"/>
<path d="M49.0217 52H47.9138L51.1183 43.2727H52.2092L55.4138 52H54.3058L51.6978 44.6534H51.6297L49.0217 52ZM49.4308 48.5909H53.8967V49.5284H49.4308V48.5909ZM56.7731 43.2727H58.0345L61.0004 50.517H61.1027L64.0686 43.2727H65.3299V52H64.3413V45.3693H64.2561L61.5288 52H60.5743L57.847 45.3693H57.7618V52H56.7731V43.2727Z" fill="white"/>
<path d="M104.362 55.5L102.692 51.1953H97.2559L95.5952 55.5H93.9995L99.3062 41.8809H100.726L105.995 55.5H104.362ZM102.219 49.7944L100.633 45.5176C100.596 45.4062 100.534 45.2238 100.447 44.9702C100.367 44.7166 100.283 44.4538 100.197 44.1816C100.11 43.9095 100.039 43.6899 99.9834 43.5229C99.9215 43.7765 99.8535 44.0301 99.7793 44.2837C99.7113 44.5311 99.6432 44.763 99.5752 44.9795C99.5072 45.1898 99.4484 45.3691 99.3989 45.5176L97.7847 49.7944H102.219ZM112.461 45.1465C113.667 45.1465 114.58 45.4434 115.198 46.0371C115.817 46.6247 116.126 47.571 116.126 48.876V55.5H114.604V48.978C114.604 48.1307 114.41 47.4967 114.02 47.0762C113.637 46.6556 113.046 46.4453 112.248 46.4453C111.122 46.4453 110.331 46.7638 109.873 47.4009C109.415 48.0379 109.187 48.9626 109.187 50.1748V55.5H107.646V45.332H108.89L109.122 46.7979H109.205C109.422 46.4391 109.697 46.1392 110.031 45.8979C110.365 45.6506 110.739 45.465 111.153 45.3413C111.568 45.2114 112.004 45.1465 112.461 45.1465ZM122.583 54.4238C122.837 54.4238 123.096 54.4022 123.362 54.3589C123.628 54.3156 123.845 54.263 124.012 54.2012V55.3979C123.832 55.4784 123.582 55.5464 123.26 55.6021C122.945 55.6577 122.636 55.6855 122.333 55.6855C121.794 55.6855 121.306 55.5928 120.867 55.4072C120.428 55.2155 120.075 54.8939 119.809 54.4424C119.549 53.9909 119.419 53.3662 119.419 52.5684V46.5381H117.972V45.7866L119.429 45.1836L120.041 42.9756H120.969V45.332H123.947V46.5381H120.969V52.522C120.969 53.159 121.114 53.6353 121.405 53.9507C121.702 54.2661 122.094 54.4238 122.583 54.4238ZM134.838 50.3975C134.838 51.2324 134.73 51.9777 134.514 52.6333C134.297 53.2889 133.985 53.8424 133.577 54.2939C133.168 54.7454 132.674 55.0918 132.092 55.333C131.517 55.568 130.865 55.6855 130.135 55.6855C129.454 55.6855 128.83 55.568 128.261 55.333C127.698 55.0918 127.209 54.7454 126.795 54.2939C126.387 53.8424 126.068 53.2889 125.839 52.6333C125.617 51.9777 125.505 51.2324 125.505 50.3975C125.505 49.2842 125.694 48.3379 126.071 47.5586C126.449 46.7731 126.987 46.1763 127.686 45.7681C128.391 45.3537 129.229 45.1465 130.2 45.1465C131.127 45.1465 131.938 45.3537 132.63 45.7681C133.329 46.1825 133.87 46.7824 134.254 47.5679C134.644 48.3472 134.838 49.2904 134.838 50.3975ZM127.101 50.3975C127.101 51.2139 127.209 51.922 127.426 52.522C127.642 53.1219 127.976 53.5858 128.428 53.9136C128.879 54.2414 129.461 54.4053 130.172 54.4053C130.877 54.4053 131.455 54.2414 131.907 53.9136C132.364 53.5858 132.701 53.1219 132.918 52.522C133.134 51.922 133.243 51.2139 133.243 50.3975C133.243 49.5872 133.134 48.8883 132.918 48.3008C132.701 47.707 132.368 47.2493 131.916 46.9277C131.465 46.6061 130.88 46.4453 130.163 46.4453C129.105 46.4453 128.329 46.7948 127.834 47.4937C127.345 48.1925 127.101 49.1605 127.101 50.3975ZM142.316 45.1465C143.522 45.1465 144.434 45.4434 145.053 46.0371C145.671 46.6247 145.98 47.571 145.98 48.876V55.5H144.459V48.978C144.459 48.1307 144.264 47.4967 143.875 47.0762C143.491 46.6556 142.9 46.4453 142.103 46.4453C140.977 46.4453 140.185 46.7638 139.728 47.4009C139.27 48.0379 139.041 48.9626 139.041 50.1748V55.5H137.501V45.332H138.744L138.976 46.7979H139.06C139.276 46.4391 139.551 46.1392 139.885 45.8979C140.219 45.6506 140.593 45.465 141.008 45.3413C141.422 45.2114 141.858 45.1465 142.316 45.1465ZM160.286 55.5L155.731 43.4951H155.657C155.681 43.7487 155.703 44.0579 155.722 44.4229C155.74 44.7878 155.756 45.1867 155.768 45.6196C155.78 46.0464 155.787 46.4824 155.787 46.9277V55.5H154.321V41.9365H156.659L160.954 53.2178H161.019L165.379 41.9365H167.699V55.5H166.14V46.8164C166.14 46.4144 166.146 46.0124 166.159 45.6104C166.171 45.2021 166.187 44.8187 166.205 44.46C166.224 44.0951 166.242 43.7796 166.261 43.5137H166.187L161.576 55.5H160.286ZM174.981 45.165C176.194 45.165 177.094 45.4372 177.681 45.9814C178.269 46.5257 178.562 47.3947 178.562 48.5884V55.5H177.44L177.143 53.9971H177.069C176.784 54.3682 176.487 54.6805 176.178 54.9341C175.869 55.1815 175.51 55.3701 175.102 55.5C174.7 55.6237 174.205 55.6855 173.618 55.6855C172.999 55.6855 172.449 55.5773 171.966 55.3608C171.49 55.1444 171.113 54.8166 170.834 54.3774C170.562 53.9383 170.426 53.3817 170.426 52.7075C170.426 51.6932 170.828 50.9139 171.632 50.3696C172.436 49.8254 173.661 49.5285 175.306 49.479L177.06 49.4048V48.7832C177.06 47.9049 176.871 47.2896 176.494 46.937C176.116 46.5845 175.584 46.4082 174.898 46.4082C174.366 46.4082 173.859 46.4855 173.376 46.6401C172.894 46.7948 172.436 46.9772 172.003 47.1875L171.53 46.0186C171.988 45.7835 172.514 45.5825 173.107 45.4155C173.701 45.2485 174.326 45.165 174.981 45.165ZM177.041 50.4902L175.492 50.5552C174.224 50.6047 173.33 50.8118 172.811 51.1768C172.291 51.5417 172.031 52.0581 172.031 52.7261C172.031 53.3075 172.208 53.7373 172.56 54.0156C172.913 54.2939 173.38 54.4331 173.961 54.4331C174.864 54.4331 175.603 54.1826 176.178 53.6816C176.753 53.1807 177.041 52.4292 177.041 51.4272V50.4902ZM180.13 45.332H181.782L184.027 51.2324C184.157 51.5788 184.277 51.9128 184.389 52.2344C184.5 52.5498 184.599 52.8529 184.686 53.1436C184.772 53.4342 184.84 53.7157 184.89 53.9878H184.955C185.041 53.6785 185.165 53.2734 185.326 52.7725C185.486 52.2653 185.66 51.7489 185.845 51.2231L187.97 45.332H189.63L185.205 56.9937C184.97 57.6183 184.695 58.1626 184.379 58.6265C184.07 59.0903 183.693 59.446 183.248 59.6934C182.802 59.9469 182.264 60.0737 181.633 60.0737C181.343 60.0737 181.086 60.0552 180.863 60.0181C180.641 59.9871 180.449 59.95 180.288 59.9067V58.6729C180.424 58.7038 180.588 58.7316 180.78 58.7563C180.978 58.7811 181.182 58.7935 181.392 58.7935C181.776 58.7935 182.106 58.7192 182.385 58.5708C182.669 58.4285 182.914 58.2183 183.118 57.9399C183.322 57.6616 183.498 57.3307 183.646 56.9473L184.203 55.5186L180.13 45.332ZM195.169 45.1465C196.035 45.1465 196.777 45.3382 197.396 45.7217C198.014 46.1051 198.487 46.6432 198.815 47.3359C199.143 48.0225 199.307 48.8265 199.307 49.748V50.7036H192.284C192.302 51.8973 192.599 52.8065 193.174 53.4312C193.75 54.0558 194.56 54.3682 195.605 54.3682C196.248 54.3682 196.817 54.3094 197.312 54.1919C197.807 54.0744 198.32 53.9012 198.852 53.6724V55.0269C198.339 55.2557 197.828 55.4227 197.321 55.5278C196.82 55.633 196.227 55.6855 195.54 55.6855C194.563 55.6855 193.709 55.4876 192.979 55.0918C192.256 54.6898 191.693 54.1022 191.291 53.3291C190.889 52.556 190.688 51.6097 190.688 50.4902C190.688 49.3955 190.87 48.4492 191.235 47.6514C191.606 46.8473 192.126 46.2288 192.794 45.7959C193.468 45.363 194.26 45.1465 195.169 45.1465ZM195.15 46.4082C194.328 46.4082 193.672 46.6772 193.184 47.2153C192.695 47.7534 192.404 48.5049 192.312 49.4697H197.692C197.686 48.8636 197.59 48.3317 197.405 47.874C197.225 47.4102 196.95 47.0514 196.579 46.7979C196.208 46.5381 195.732 46.4082 195.15 46.4082ZM206.543 45.1465C206.747 45.1465 206.96 45.1589 207.183 45.1836C207.406 45.2021 207.604 45.23 207.777 45.2671L207.582 46.6958C207.415 46.6525 207.229 46.6185 207.025 46.5938C206.821 46.569 206.63 46.5566 206.45 46.5566C206.042 46.5566 205.655 46.6401 205.291 46.8071C204.932 46.9679 204.616 47.203 204.344 47.5122C204.072 47.8153 203.859 48.1833 203.704 48.6162C203.549 49.043 203.472 49.5192 203.472 50.0449V55.5H201.923V45.332H203.203L203.37 47.2061H203.435C203.645 46.8288 203.899 46.4855 204.196 46.1763C204.493 45.8608 204.836 45.6104 205.226 45.4248C205.621 45.2393 206.061 45.1465 206.543 45.1465Z" fill="black"/>
<rect x="424" y="40" width="16" height="16" rx="3" stroke="#4589FF" stroke-width="2"/>
<rect x="19.9995" y="100" width="440" height="56" rx="10" fill="#D2E3FF"/>
<rect x="35.9995" y="107" width="42" height="42" rx="21" fill="white"/>
<circle cx="56.9995" cy="128" r="20" fill="#FF7A00" stroke="white" stroke-width="2"/>
<path d="M49.0217 132H47.9138L51.1183 123.273H52.2092L55.4138 132H54.3058L51.6978 124.653H51.6297L49.0217 132ZM49.4308 128.591H53.8967V129.528H49.4308V128.591ZM56.7731 123.273H58.0345L61.0004 130.517H61.1027L64.0686 123.273H65.3299V132H64.3413V125.369H64.2561L61.5288 132H60.5743L57.847 125.369H57.7618V132H56.7731V123.273Z" fill="white"/>
<path d="M104.362 135.5L102.692 131.195H97.2559L95.5952 135.5H93.9995L99.3062 121.881H100.726L105.995 135.5H104.362ZM102.219 129.794L100.633 125.518C100.596 125.406 100.534 125.224 100.447 124.97C100.367 124.717 100.283 124.454 100.197 124.182C100.11 123.91 100.039 123.69 99.9834 123.523C99.9215 123.777 99.8535 124.03 99.7793 124.284C99.7113 124.531 99.6432 124.763 99.5752 124.979C99.5072 125.19 99.4484 125.369 99.3989 125.518L97.7847 129.794H102.219ZM112.461 125.146C113.667 125.146 114.58 125.443 115.198 126.037C115.817 126.625 116.126 127.571 116.126 128.876V135.5H114.604V128.978C114.604 128.131 114.41 127.497 114.02 127.076C113.637 126.656 113.046 126.445 112.248 126.445C111.122 126.445 110.331 126.764 109.873 127.401C109.415 128.038 109.187 128.963 109.187 130.175V135.5H107.646V125.332H108.89L109.122 126.798H109.205C109.422 126.439 109.697 126.139 110.031 125.898C110.365 125.651 110.739 125.465 111.153 125.341C111.568 125.211 112.004 125.146 112.461 125.146ZM122.583 134.424C122.837 134.424 123.096 134.402 123.362 134.359C123.628 134.316 123.845 134.263 124.012 134.201V135.398C123.832 135.478 123.582 135.546 123.26 135.602C122.945 135.658 122.636 135.686 122.333 135.686C121.794 135.686 121.306 135.593 120.867 135.407C120.428 135.215 120.075 134.894 119.809 134.442C119.549 133.991 119.419 133.366 119.419 132.568V126.538H117.972V125.787L119.429 125.184L120.041 122.976H120.969V125.332H123.947V126.538H120.969V132.522C120.969 133.159 121.114 133.635 121.405 133.951C121.702 134.266 122.094 134.424 122.583 134.424ZM134.838 130.397C134.838 131.232 134.73 131.978 134.514 132.633C134.297 133.289 133.985 133.842 133.577 134.294C133.168 134.745 132.674 135.092 132.092 135.333C131.517 135.568 130.865 135.686 130.135 135.686C129.454 135.686 128.83 135.568 128.261 135.333C127.698 135.092 127.209 134.745 126.795 134.294C126.387 133.842 126.068 133.289 125.839 132.633C125.617 131.978 125.505 131.232 125.505 130.397C125.505 129.284 125.694 128.338 126.071 127.559C126.449 126.773 126.987 126.176 127.686 125.768C128.391 125.354 129.229 125.146 130.2 125.146C131.127 125.146 131.938 125.354 132.63 125.768C133.329 126.182 133.87 126.782 134.254 127.568C134.644 128.347 134.838 129.29 134.838 130.397ZM127.101 130.397C127.101 131.214 127.209 131.922 127.426 132.522C127.642 133.122 127.976 133.586 128.428 133.914C128.879 134.241 129.461 134.405 130.172 134.405C130.877 134.405 131.455 134.241 131.907 133.914C132.364 133.586 132.701 133.122 132.918 132.522C133.134 131.922 133.243 131.214 133.243 130.397C133.243 129.587 133.134 128.888 132.918 128.301C132.701 127.707 132.368 127.249 131.916 126.928C131.465 126.606 130.88 126.445 130.163 126.445C129.105 126.445 128.329 126.795 127.834 127.494C127.345 128.193 127.101 129.16 127.101 130.397ZM142.316 125.146C143.522 125.146 144.434 125.443 145.053 126.037C145.671 126.625 145.98 127.571 145.98 128.876V135.5H144.459V128.978C144.459 128.131 144.264 127.497 143.875 127.076C143.491 126.656 142.9 126.445 142.103 126.445C140.977 126.445 140.185 126.764 139.728 127.401C139.27 128.038 139.041 128.963 139.041 130.175V135.5H137.501V125.332H138.744L138.976 126.798H139.06C139.276 126.439 139.551 126.139 139.885 125.898C140.219 125.651 140.593 125.465 141.008 125.341C141.422 125.211 141.858 125.146 142.316 125.146ZM160.286 135.5L155.731 123.495H155.657C155.681 123.749 155.703 124.058 155.722 124.423C155.74 124.788 155.756 125.187 155.768 125.62C155.78 126.046 155.787 126.482 155.787 126.928V135.5H154.321V121.937H156.659L160.954 133.218H161.019L165.379 121.937H167.699V135.5H166.14V126.816C166.14 126.414 166.146 126.012 166.159 125.61C166.171 125.202 166.187 124.819 166.205 124.46C166.224 124.095 166.242 123.78 166.261 123.514H166.187L161.576 135.5H160.286ZM174.981 125.165C176.194 125.165 177.094 125.437 177.681 125.981C178.269 126.526 178.562 127.395 178.562 128.588V135.5H177.44L177.143 133.997H177.069C176.784 134.368 176.487 134.681 176.178 134.934C175.869 135.181 175.51 135.37 175.102 135.5C174.7 135.624 174.205 135.686 173.618 135.686C172.999 135.686 172.449 135.577 171.966 135.361C171.49 135.144 171.113 134.817 170.834 134.377C170.562 133.938 170.426 133.382 170.426 132.708C170.426 131.693 170.828 130.914 171.632 130.37C172.436 129.825 173.661 129.528 175.306 129.479L177.06 129.405V128.783C177.06 127.905 176.871 127.29 176.494 126.937C176.116 126.584 175.584 126.408 174.898 126.408C174.366 126.408 173.859 126.486 173.376 126.64C172.894 126.795 172.436 126.977 172.003 127.188L171.53 126.019C171.988 125.784 172.514 125.583 173.107 125.416C173.701 125.249 174.326 125.165 174.981 125.165ZM177.041 130.49L175.492 130.555C174.224 130.605 173.33 130.812 172.811 131.177C172.291 131.542 172.031 132.058 172.031 132.726C172.031 133.307 172.208 133.737 172.56 134.016C172.913 134.294 173.38 134.433 173.961 134.433C174.864 134.433 175.603 134.183 176.178 133.682C176.753 133.181 177.041 132.429 177.041 131.427V130.49ZM180.13 125.332H181.782L184.027 131.232C184.157 131.579 184.277 131.913 184.389 132.234C184.5 132.55 184.599 132.853 184.686 133.144C184.772 133.434 184.84 133.716 184.89 133.988H184.955C185.041 133.679 185.165 133.273 185.326 132.772C185.486 132.265 185.66 131.749 185.845 131.223L187.97 125.332H189.63L185.205 136.994C184.97 137.618 184.695 138.163 184.379 138.626C184.07 139.09 183.693 139.446 183.248 139.693C182.802 139.947 182.264 140.074 181.633 140.074C181.343 140.074 181.086 140.055 180.863 140.018C180.641 139.987 180.449 139.95 180.288 139.907V138.673C180.424 138.704 180.588 138.732 180.78 138.756C180.978 138.781 181.182 138.793 181.392 138.793C181.776 138.793 182.106 138.719 182.385 138.571C182.669 138.429 182.914 138.218 183.118 137.94C183.322 137.662 183.498 137.331 183.646 136.947L184.203 135.519L180.13 125.332ZM195.169 125.146C196.035 125.146 196.777 125.338 197.396 125.722C198.014 126.105 198.487 126.643 198.815 127.336C199.143 128.022 199.307 128.826 199.307 129.748V130.704H192.284C192.302 131.897 192.599 132.806 193.174 133.431C193.75 134.056 194.56 134.368 195.605 134.368C196.248 134.368 196.817 134.309 197.312 134.192C197.807 134.074 198.32 133.901 198.852 133.672V135.027C198.339 135.256 197.828 135.423 197.321 135.528C196.82 135.633 196.227 135.686 195.54 135.686C194.563 135.686 193.709 135.488 192.979 135.092C192.256 134.69 191.693 134.102 191.291 133.329C190.889 132.556 190.688 131.61 190.688 130.49C190.688 129.396 190.87 128.449 191.235 127.651C191.606 126.847 192.126 126.229 192.794 125.796C193.468 125.363 194.26 125.146 195.169 125.146ZM195.15 126.408C194.328 126.408 193.672 126.677 193.184 127.215C192.695 127.753 192.404 128.505 192.312 129.47H197.692C197.686 128.864 197.59 128.332 197.405 127.874C197.225 127.41 196.95 127.051 196.579 126.798C196.208 126.538 195.732 126.408 195.15 126.408ZM206.543 125.146C206.747 125.146 206.96 125.159 207.183 125.184C207.406 125.202 207.604 125.23 207.777 125.267L207.582 126.696C207.415 126.653 207.229 126.618 207.025 126.594C206.821 126.569 206.63 126.557 206.45 126.557C206.042 126.557 205.655 126.64 205.291 126.807C204.932 126.968 204.616 127.203 204.344 127.512C204.072 127.815 203.859 128.183 203.704 128.616C203.549 129.043 203.472 129.519 203.472 130.045V135.5H201.923V125.332H203.203L203.37 127.206H203.435C203.645 126.829 203.899 126.486 204.196 126.176C204.493 125.861 204.836 125.61 205.226 125.425C205.621 125.239 206.061 125.146 206.543 125.146Z" fill="black"/>
<rect x="424" y="120" width="16" height="16" rx="3" stroke="#4589FF" stroke-width="2"/>
<rect x="19.9995" y="180" width="440" height="56" rx="10" fill="#4589FF"/>
<rect x="35.9995" y="187" width="42" height="42" rx="21" fill="white"/>
<circle cx="56.9995" cy="208" r="20" fill="#FF7A00" stroke="white" stroke-width="2"/>
<path d="M49.0217 212H47.9138L51.1183 203.273H52.2092L55.4138 212H54.3058L51.6978 204.653H51.6297L49.0217 212ZM49.4308 208.591H53.8967V209.528H49.4308V208.591ZM56.7731 203.273H58.0345L61.0004 210.517H61.1027L64.0686 203.273H65.3299V212H64.3413V205.369H64.2561L61.5288 212H60.5743L57.847 205.369H57.7618V212H56.7731V203.273Z" fill="white"/>
<path d="M104.362 215.5L102.692 211.195H97.2559L95.5952 215.5H93.9995L99.3062 201.881H100.726L105.995 215.5H104.362ZM102.219 209.794L100.633 205.518C100.596 205.406 100.534 205.224 100.447 204.97C100.367 204.717 100.283 204.454 100.197 204.182C100.11 203.91 100.039 203.69 99.9834 203.523C99.9215 203.777 99.8535 204.03 99.7793 204.284C99.7113 204.531 99.6432 204.763 99.5752 204.979C99.5072 205.19 99.4484 205.369 99.3989 205.518L97.7847 209.794H102.219ZM112.461 205.146C113.667 205.146 114.58 205.443 115.198 206.037C115.817 206.625 116.126 207.571 116.126 208.876V215.5H114.604V208.978C114.604 208.131 114.41 207.497 114.02 207.076C113.637 206.656 113.046 206.445 112.248 206.445C111.122 206.445 110.331 206.764 109.873 207.401C109.415 208.038 109.187 208.963 109.187 210.175V215.5H107.646V205.332H108.89L109.122 206.798H109.205C109.422 206.439 109.697 206.139 110.031 205.898C110.365 205.651 110.739 205.465 111.153 205.341C111.568 205.211 112.004 205.146 112.461 205.146ZM122.583 214.424C122.837 214.424 123.096 214.402 123.362 214.359C123.628 214.316 123.845 214.263 124.012 214.201V215.398C123.832 215.478 123.582 215.546 123.26 215.602C122.945 215.658 122.636 215.686 122.333 215.686C121.794 215.686 121.306 215.593 120.867 215.407C120.428 215.215 120.075 214.894 119.809 214.442C119.549 213.991 119.419 213.366 119.419 212.568V206.538H117.972V205.787L119.429 205.184L120.041 202.976H120.969V205.332H123.947V206.538H120.969V212.522C120.969 213.159 121.114 213.635 121.405 213.951C121.702 214.266 122.094 214.424 122.583 214.424ZM134.838 210.397C134.838 211.232 134.73 211.978 134.514 212.633C134.297 213.289 133.985 213.842 133.577 214.294C133.168 214.745 132.674 215.092 132.092 215.333C131.517 215.568 130.865 215.686 130.135 215.686C129.454 215.686 128.83 215.568 128.261 215.333C127.698 215.092 127.209 214.745 126.795 214.294C126.387 213.842 126.068 213.289 125.839 212.633C125.617 211.978 125.505 211.232 125.505 210.397C125.505 209.284 125.694 208.338 126.071 207.559C126.449 206.773 126.987 206.176 127.686 205.768C128.391 205.354 129.229 205.146 130.2 205.146C131.127 205.146 131.938 205.354 132.63 205.768C133.329 206.182 133.87 206.782 134.254 207.568C134.644 208.347 134.838 209.29 134.838 210.397ZM127.101 210.397C127.101 211.214 127.209 211.922 127.426 212.522C127.642 213.122 127.976 213.586 128.428 213.914C128.879 214.241 129.461 214.405 130.172 214.405C130.877 214.405 131.455 214.241 131.907 213.914C132.364 213.586 132.701 213.122 132.918 212.522C133.134 211.922 133.243 211.214 133.243 210.397C133.243 209.587 133.134 208.888 132.918 208.301C132.701 207.707 132.368 207.249 131.916 206.928C131.465 206.606 130.88 206.445 130.163 206.445C129.105 206.445 128.329 206.795 127.834 207.494C127.345 208.193 127.101 209.16 127.101 210.397ZM142.316 205.146C143.522 205.146 144.434 205.443 145.053 206.037C145.671 206.625 145.98 207.571 145.98 208.876V215.5H144.459V208.978C144.459 208.131 144.264 207.497 143.875 207.076C143.491 206.656 142.9 206.445 142.103 206.445C140.977 206.445 140.185 206.764 139.728 207.401C139.27 208.038 139.041 208.963 139.041 210.175V215.5H137.501V205.332H138.744L138.976 206.798H139.06C139.276 206.439 139.551 206.139 139.885 205.898C140.219 205.651 140.593 205.465 141.008 205.341C141.422 205.211 141.858 205.146 142.316 205.146ZM160.286 215.5L155.731 203.495H155.657C155.681 203.749 155.703 204.058 155.722 204.423C155.74 204.788 155.756 205.187 155.768 205.62C155.78 206.046 155.787 206.482 155.787 206.928V215.5H154.321V201.937H156.659L160.954 213.218H161.019L165.379 201.937H167.699V215.5H166.14V206.816C166.14 206.414 166.146 206.012 166.159 205.61C166.171 205.202 166.187 204.819 166.205 204.46C166.224 204.095 166.242 203.78 166.261 203.514H166.187L161.576 215.5H160.286ZM174.981 205.165C176.194 205.165 177.094 205.437 177.681 205.981C178.269 206.526 178.562 207.395 178.562 208.588V215.5H177.44L177.143 213.997H177.069C176.784 214.368 176.487 214.681 176.178 214.934C175.869 215.181 175.51 215.37 175.102 215.5C174.7 215.624 174.205 215.686 173.618 215.686C172.999 215.686 172.449 215.577 171.966 215.361C171.49 215.144 171.113 214.817 170.834 214.377C170.562 213.938 170.426 213.382 170.426 212.708C170.426 211.693 170.828 210.914 171.632 210.37C172.436 209.825 173.661 209.528 175.306 209.479L177.06 209.405V208.783C177.06 207.905 176.871 207.29 176.494 206.937C176.116 206.584 175.584 206.408 174.898 206.408C174.366 206.408 173.859 206.486 173.376 206.64C172.894 206.795 172.436 206.977 172.003 207.188L171.53 206.019C171.988 205.784 172.514 205.583 173.107 205.416C173.701 205.249 174.326 205.165 174.981 205.165ZM177.041 210.49L175.492 210.555C174.224 210.605 173.33 210.812 172.811 211.177C172.291 211.542 172.031 212.058 172.031 212.726C172.031 213.307 172.208 213.737 172.56 214.016C172.913 214.294 173.38 214.433 173.961 214.433C174.864 214.433 175.603 214.183 176.178 213.682C176.753 213.181 177.041 212.429 177.041 211.427V210.49ZM180.13 205.332H181.782L184.027 211.232C184.157 211.579 184.277 211.913 184.389 212.234C184.5 212.55 184.599 212.853 184.686 213.144C184.772 213.434 184.84 213.716 184.89 213.988H184.955C185.041 213.679 185.165 213.273 185.326 212.772C185.486 212.265 185.66 211.749 185.845 211.223L187.97 205.332H189.63L185.205 216.994C184.97 217.618 184.695 218.163 184.379 218.626C184.07 219.09 183.693 219.446 183.248 219.693C182.802 219.947 182.264 220.074 181.633 220.074C181.343 220.074 181.086 220.055 180.863 220.018C180.641 219.987 180.449 219.95 180.288 219.907V218.673C180.424 218.704 180.588 218.732 180.78 218.756C180.978 218.781 181.182 218.793 181.392 218.793C181.776 218.793 182.106 218.719 182.385 218.571C182.669 218.429 182.914 218.218 183.118 217.94C183.322 217.662 183.498 217.331 183.646 216.947L184.203 215.519L180.13 205.332ZM195.169 205.146C196.035 205.146 196.777 205.338 197.396 205.722C198.014 206.105 198.487 206.643 198.815 207.336C199.143 208.022 199.307 208.826 199.307 209.748V210.704H192.284C192.302 211.897 192.599 212.806 193.174 213.431C193.75 214.056 194.56 214.368 195.605 214.368C196.248 214.368 196.817 214.309 197.312 214.192C197.807 214.074 198.32 213.901 198.852 213.672V215.027C198.339 215.256 197.828 215.423 197.321 215.528C196.82 215.633 196.227 215.686 195.54 215.686C194.563 215.686 193.709 215.488 192.979 215.092C192.256 214.69 191.693 214.102 191.291 213.329C190.889 212.556 190.688 211.61 190.688 210.49C190.688 209.396 190.87 208.449 191.235 207.651C191.606 206.847 192.126 206.229 192.794 205.796C193.468 205.363 194.26 205.146 195.169 205.146ZM195.15 206.408C194.328 206.408 193.672 206.677 193.184 207.215C192.695 207.753 192.404 208.505 192.312 209.47H197.692C197.686 208.864 197.59 208.332 197.405 207.874C197.225 207.41 196.95 207.051 196.579 206.798C196.208 206.538 195.732 206.408 195.15 206.408ZM206.543 205.146C206.747 205.146 206.96 205.159 207.183 205.184C207.406 205.202 207.604 205.23 207.777 205.267L207.582 206.696C207.415 206.653 207.229 206.618 207.025 206.594C206.821 206.569 206.63 206.557 206.45 206.557C206.042 206.557 205.655 206.64 205.291 206.807C204.932 206.968 204.616 207.203 204.344 207.512C204.072 207.815 203.859 208.183 203.704 208.616C203.549 209.043 203.472 209.519 203.472 210.045V215.5H201.923V205.332H203.203L203.37 207.206H203.435C203.645 206.829 203.899 206.486 204.196 206.176C204.493 205.861 204.836 205.61 205.226 205.425C205.621 205.239 206.061 205.146 206.543 205.146Z" fill="white"/>
<path d="M440 207V213C440 214.657 438.656 216 437 216H427C425.343 216 424 214.657 424 213V203C424 201.343 425.343 200 427 200H435" stroke="white" stroke-width="2" stroke-linecap="round"/>
<path d="M428 208L432 212L440 200.5" stroke="white" stroke-width="2" stroke-linecap="round" stroke-linejoin="round"/>
<rect x="19.9995" y="260" width="440" height="56" rx="10" fill="#005DFF"/>
<rect x="35.9995" y="267" width="42" height="42" rx="21" fill="white"/>
<circle cx="56.9995" cy="288" r="20" fill="#FF7A00" stroke="white" stroke-width="2"/>
<path d="M49.0217 292H47.9138L51.1183 283.273H52.2092L55.4138 292H54.3058L51.6978 284.653H51.6297L49.0217 292ZM49.4308 288.591H53.8967V289.528H49.4308V288.591ZM56.7731 283.273H58.0345L61.0004 290.517H61.1027L64.0686 283.273H65.3299V292H64.3413V285.369H64.2561L61.5288 292H60.5743L57.847 285.369H57.7618V292H56.7731V283.273Z" fill="white"/>
<path d="M104.362 295.5L102.692 291.195H97.2559L95.5952 295.5H93.9995L99.3062 281.881H100.726L105.995 295.5H104.362ZM102.219 289.794L100.633 285.518C100.596 285.406 100.534 285.224 100.447 284.97C100.367 284.717 100.283 284.454 100.197 284.182C100.11 283.91 100.039 283.69 99.9834 283.523C99.9215 283.777 99.8535 284.03 99.7793 284.284C99.7113 284.531 99.6432 284.763 99.5752 284.979C99.5072 285.19 99.4484 285.369 99.3989 285.518L97.7847 289.794H102.219ZM112.461 285.146C113.667 285.146 114.58 285.443 115.198 286.037C115.817 286.625 116.126 287.571 116.126 288.876V295.5H114.604V288.978C114.604 288.131 114.41 287.497 114.02 287.076C113.637 286.656 113.046 286.445 112.248 286.445C111.122 286.445 110.331 286.764 109.873 287.401C109.415 288.038 109.187 288.963 109.187 290.175V295.5H107.646V285.332H108.89L109.122 286.798H109.205C109.422 286.439 109.697 286.139 110.031 285.898C110.365 285.651 110.739 285.465 111.153 285.341C111.568 285.211 112.004 285.146 112.461 285.146ZM122.583 294.424C122.837 294.424 123.096 294.402 123.362 294.359C123.628 294.316 123.845 294.263 124.012 294.201V295.398C123.832 295.478 123.582 295.546 123.26 295.602C122.945 295.658 122.636 295.686 122.333 295.686C121.794 295.686 121.306 295.593 120.867 295.407C120.428 295.215 120.075 294.894 119.809 294.442C119.549 293.991 119.419 293.366 119.419 292.568V286.538H117.972V285.787L119.429 285.184L120.041 282.976H120.969V285.332H123.947V286.538H120.969V292.522C120.969 293.159 121.114 293.635 121.405 293.951C121.702 294.266 122.094 294.424 122.583 294.424ZM134.838 290.397C134.838 291.232 134.73 291.978 134.514 292.633C134.297 293.289 133.985 293.842 133.577 294.294C133.168 294.745 132.674 295.092 132.092 295.333C131.517 295.568 130.865 295.686 130.135 295.686C129.454 295.686 128.83 295.568 128.261 295.333C127.698 295.092 127.209 294.745 126.795 294.294C126.387 293.842 126.068 293.289 125.839 292.633C125.617 291.978 125.505 291.232 125.505 290.397C125.505 289.284 125.694 288.338 126.071 287.559C126.449 286.773 126.987 286.176 127.686 285.768C128.391 285.354 129.229 285.146 130.2 285.146C131.127 285.146 131.938 285.354 132.63 285.768C133.329 286.182 133.87 286.782 134.254 287.568C134.644 288.347 134.838 289.29 134.838 290.397ZM127.101 290.397C127.101 291.214 127.209 291.922 127.426 292.522C127.642 293.122 127.976 293.586 128.428 293.914C128.879 294.241 129.461 294.405 130.172 294.405C130.877 294.405 131.455 294.241 131.907 293.914C132.364 293.586 132.701 293.122 132.918 292.522C133.134 291.922 133.243 291.214 133.243 290.397C133.243 289.587 133.134 288.888 132.918 288.301C132.701 287.707 132.368 287.249 131.916 286.928C131.465 286.606 130.88 286.445 130.163 286.445C129.105 286.445 128.329 286.795 127.834 287.494C127.345 288.193 127.101 289.16 127.101 290.397ZM142.316 285.146C143.522 285.146 144.434 285.443 145.053 286.037C145.671 286.625 145.98 287.571 145.98 288.876V295.5H144.459V288.978C144.459 288.131 144.264 287.497 143.875 287.076C143.491 286.656 142.9 286.445 142.103 286.445C140.977 286.445 140.185 286.764 139.728 287.401C139.27 288.038 139.041 288.963 139.041 290.175V295.5H137.501V285.332H138.744L138.976 286.798H139.06C139.276 286.439 139.551 286.139 139.885 285.898C140.219 285.651 140.593 285.465 141.008 285.341C141.422 285.211 141.858 285.146 142.316 285.146ZM160.286 295.5L155.731 283.495H155.657C155.681 283.749 155.703 284.058 155.722 284.423C155.74 284.788 155.756 285.187 155.768 285.62C155.78 286.046 155.787 286.482 155.787 286.928V295.5H154.321V281.937H156.659L160.954 293.218H161.019L165.379 281.937H167.699V295.5H166.14V286.816C166.14 286.414 166.146 286.012 166.159 285.61C166.171 285.202 166.187 284.819 166.205 284.46C166.224 284.095 166.242 283.78 166.261 283.514H166.187L161.576 295.5H160.286ZM174.981 285.165C176.194 285.165 177.094 285.437 177.681 285.981C178.269 286.526 178.562 287.395 178.562 288.588V295.5H177.44L177.143 293.997H177.069C176.784 294.368 176.487 294.681 176.178 294.934C175.869 295.181 175.51 295.37 175.102 295.5C174.7 295.624 174.205 295.686 173.618 295.686C172.999 295.686 172.449 295.577 171.966 295.361C171.49 295.144 171.113 294.817 170.834 294.377C170.562 293.938 170.426 293.382 170.426 292.708C170.426 291.693 170.828 290.914 171.632 290.37C172.436 289.825 173.661 289.528 175.306 289.479L177.06 289.405V288.783C177.06 287.905 176.871 287.29 176.494 286.937C176.116 286.584 175.584 286.408 174.898 286.408C174.366 286.408 173.859 286.486 173.376 286.64C172.894 286.795 172.436 286.977 172.003 287.188L171.53 286.019C171.988 285.784 172.514 285.583 173.107 285.416C173.701 285.249 174.326 285.165 174.981 285.165ZM177.041 290.49L175.492 290.555C174.224 290.605 173.33 290.812 172.811 291.177C172.291 291.542 172.031 292.058 172.031 292.726C172.031 293.307 172.208 293.737 172.56 294.016C172.913 294.294 173.38 294.433 173.961 294.433C174.864 294.433 175.603 294.183 176.178 293.682C176.753 293.181 177.041 292.429 177.041 291.427V290.49ZM180.13 285.332H181.782L184.027 291.232C184.157 291.579 184.277 291.913 184.389 292.234C184.5 292.55 184.599 292.853 184.686 293.144C184.772 293.434 184.84 293.716 184.89 293.988H184.955C185.041 293.679 185.165 293.273 185.326 292.772C185.486 292.265 185.66 291.749 185.845 291.223L187.97 285.332H189.63L185.205 296.994C184.97 297.618 184.695 298.163 184.379 298.626C184.07 299.09 183.693 299.446 183.248 299.693C182.802 299.947 182.264 300.074 181.633 300.074C181.343 300.074 181.086 300.055 180.863 300.018C180.641 299.987 180.449 299.95 180.288 299.907V298.673C180.424 298.704 180.588 298.732 180.78 298.756C180.978 298.781 181.182 298.793 181.392 298.793C181.776 298.793 182.106 298.719 182.385 298.571C182.669 298.429 182.914 298.218 183.118 297.94C183.322 297.662 183.498 297.331 183.646 296.947L184.203 295.519L180.13 285.332ZM195.169 285.146C196.035 285.146 196.777 285.338 197.396 285.722C198.014 286.105 198.487 286.643 198.815 287.336C199.143 288.022 199.307 288.826 199.307 289.748V290.704H192.284C192.302 291.897 192.599 292.806 193.174 293.431C193.75 294.056 194.56 294.368 195.605 294.368C196.248 294.368 196.817 294.309 197.312 294.192C197.807 294.074 198.32 293.901 198.852 293.672V295.027C198.339 295.256 197.828 295.423 197.321 295.528C196.82 295.633 196.227 295.686 195.54 295.686C194.563 295.686 193.709 295.488 192.979 295.092C192.256 294.69 191.693 294.102 191.291 293.329C190.889 292.556 190.688 291.61 190.688 290.49C190.688 289.396 190.87 288.449 191.235 287.651C191.606 286.847 192.126 286.229 192.794 285.796C193.468 285.363 194.26 285.146 195.169 285.146ZM195.15 286.408C194.328 286.408 193.672 286.677 193.184 287.215C192.695 287.753 192.404 288.505 192.312 289.47H197.692C197.686 288.864 197.59 288.332 197.405 287.874C197.225 287.41 196.95 287.051 196.579 286.798C196.208 286.538 195.732 286.408 195.15 286.408ZM206.543 285.146C206.747 285.146 206.96 285.159 207.183 285.184C207.406 285.202 207.604 285.23 207.777 285.267L207.582 286.696C207.415 286.653 207.229 286.618 207.025 286.594C206.821 286.569 206.63 286.557 206.45 286.557C206.042 286.557 205.655 286.64 205.291 286.807C204.932 286.968 204.616 287.203 204.344 287.512C204.072 287.815 203.859 288.183 203.704 288.616C203.549 289.043 203.472 289.519 203.472 290.045V295.5H201.923V285.332H203.203L203.37 287.206H203.435C203.645 286.829 203.899 286.486 204.196 286.176C204.493 285.861 204.836 285.61 205.226 285.425C205.621 285.239 206.061 285.146 206.543 285.146Z" fill="white"/>
<path d="M440 287V293C440 294.657 438.656 296 437 296H427C425.343 296 424 294.657 424 293V283C424 281.343 425.343 280 427 280H435" stroke="white" stroke-width="2" stroke-linecap="round"/>
<path d="M428 288L432 292L440 280.5" stroke="white" stroke-width="2" stroke-linecap="round" stroke-linejoin="round"/>
</svg>
