<svg width="480" height="541" viewBox="0 0 480 541" fill="none" xmlns="http://www.w3.org/2000/svg">
<rect x="0.499512" y="0.5" width="479" height="540" rx="4.5" stroke="#9747FF" stroke-dasharray="10 5"/>
<path d="M32.96 32.0884C32.96 34.3211 32.3229 36.0312 31.0488 37.2188C29.7809 38.4062 27.9471 39 25.5474 39H21.7065V25.4365H25.9648C28.179 25.4365 29.8984 26.021 31.123 27.1899C32.3477 28.3589 32.96 29.9917 32.96 32.0884ZM29.9727 32.1626C29.9727 29.2495 28.6862 27.793 26.1133 27.793H24.5825V36.625H25.8164C28.5872 36.625 29.9727 35.1375 29.9727 32.1626ZM39.8438 30.4463C39.2438 30.4463 38.7738 30.638 38.4336 31.0215C38.0934 31.3988 37.8986 31.9368 37.8491 32.6357H41.8198C41.8075 31.9368 41.625 31.3988 41.2725 31.0215C40.9199 30.638 40.4437 30.4463 39.8438 30.4463ZM40.2427 39.1855C38.5728 39.1855 37.2677 38.7248 36.3276 37.8032C35.3875 36.8817 34.9175 35.5767 34.9175 33.8882C34.9175 32.1502 35.3504 30.8081 36.2163 29.8618C37.0884 28.9093 38.2913 28.4331 39.8252 28.4331C41.291 28.4331 42.4321 28.8506 43.2485 29.6855C44.0649 30.5205 44.4731 31.674 44.4731 33.146V34.519H37.7842C37.8151 35.3231 38.0532 35.9508 38.4985 36.4023C38.9438 36.8538 39.5685 37.0796 40.3726 37.0796C40.9972 37.0796 41.5879 37.0146 42.1445 36.8848C42.7012 36.7549 43.2826 36.5477 43.8887 36.2632V38.4526C43.3939 38.7 42.8651 38.8825 42.3022 39C41.7394 39.1237 41.0529 39.1855 40.2427 39.1855ZM54.0103 35.9199C54.0103 36.9837 53.6392 37.7939 52.897 38.3506C52.161 38.9072 51.057 39.1855 49.585 39.1855C48.8304 39.1855 48.1872 39.133 47.6553 39.0278C47.1234 38.9289 46.6255 38.7804 46.1616 38.5825V36.2446C46.6873 36.492 47.278 36.6992 47.9336 36.8662C48.5954 37.0332 49.1768 37.1167 49.6777 37.1167C50.7044 37.1167 51.2178 36.8198 51.2178 36.2261C51.2178 36.0034 51.1497 35.8241 51.0137 35.688C50.8776 35.5457 50.6426 35.388 50.3086 35.2148C49.9746 35.0355 49.5293 34.8283 48.9727 34.5933C48.1748 34.2593 47.5872 33.95 47.21 33.6655C46.8389 33.381 46.5667 33.0563 46.3936 32.6914C46.2266 32.3203 46.1431 31.8657 46.1431 31.3276C46.1431 30.4061 46.4987 29.6948 47.21 29.1938C47.9274 28.6867 48.9417 28.4331 50.2529 28.4331C51.5023 28.4331 52.7176 28.7052 53.8989 29.2495L53.0454 31.2905C52.5259 31.0679 52.0404 30.8854 51.5889 30.7432C51.1374 30.6009 50.6766 30.5298 50.2065 30.5298C49.3716 30.5298 48.9541 30.7555 48.9541 31.207C48.9541 31.4606 49.0871 31.6802 49.353 31.8657C49.6252 32.0513 50.2158 32.3265 51.125 32.6914C51.9352 33.0192 52.529 33.3254 52.9062 33.6099C53.2835 33.8944 53.5618 34.2222 53.7412 34.5933C53.9206 34.9644 54.0103 35.4066 54.0103 35.9199ZM60.4302 39.1855C57.2017 39.1855 55.5874 37.4136 55.5874 33.8696C55.5874 32.1069 56.0265 30.7617 56.9048 29.834C57.783 28.9001 59.0417 28.4331 60.6807 28.4331C61.8805 28.4331 62.9567 28.6681 63.9092 29.1382L63.0742 31.3276C62.6289 31.1483 62.2145 31.0029 61.8311 30.8916C61.4476 30.7741 61.0641 30.7153 60.6807 30.7153C59.2087 30.7153 58.4727 31.7606 58.4727 33.8511C58.4727 35.8797 59.2087 36.894 60.6807 36.894C61.2249 36.894 61.729 36.8229 62.1929 36.6807C62.6567 36.5322 63.1206 36.3034 63.5845 35.9941V38.4155C63.1268 38.7062 62.6629 38.9072 62.1929 39.0186C61.729 39.1299 61.1414 39.1855 60.4302 39.1855ZM71.7856 28.4331C72.1691 28.4331 72.4876 28.4609 72.7412 28.5166L72.5278 31.1699C72.299 31.1081 72.0207 31.0771 71.6929 31.0771C70.7899 31.0771 70.0848 31.3091 69.5776 31.7729C69.0767 32.2368 68.8262 32.8862 68.8262 33.7212V39H65.9966V28.6279H68.1396L68.5571 30.3721H68.6963C69.0179 29.7907 69.4508 29.3237 69.9951 28.9712C70.5456 28.6125 71.1424 28.4331 71.7856 28.4331ZM74.5039 25.9468C74.5039 25.0252 75.0173 24.5645 76.0439 24.5645C77.0706 24.5645 77.584 25.0252 77.584 25.9468C77.584 26.3859 77.4541 26.7292 77.1943 26.9766C76.9408 27.2178 76.5573 27.3384 76.0439 27.3384C75.0173 27.3384 74.5039 26.8745 74.5039 25.9468ZM77.4541 39H74.6245V28.6279H77.4541V39ZM86.1284 39.1855C84.91 39.1855 83.9544 38.7433 83.2617 37.8589H83.1133C83.2122 38.7248 83.2617 39.2257 83.2617 39.3618V43.5645H80.4321V28.6279H82.7329L83.1318 29.9731H83.2617C83.9235 28.9465 84.9038 28.4331 86.2026 28.4331C87.4272 28.4331 88.3859 28.9062 89.0786 29.8525C89.7713 30.7988 90.1177 32.1131 90.1177 33.7954C90.1177 34.9025 89.9538 35.8643 89.626 36.6807C89.3044 37.4971 88.8436 38.1187 88.2437 38.5454C87.6437 38.9722 86.9386 39.1855 86.1284 39.1855ZM85.2935 30.6968C84.5946 30.6968 84.0843 30.9132 83.7627 31.3462C83.4411 31.7729 83.2741 32.4811 83.2617 33.4707V33.7769C83.2617 34.8901 83.4256 35.688 83.7534 36.1704C84.0874 36.6528 84.6131 36.894 85.3306 36.894C86.5985 36.894 87.2324 35.8488 87.2324 33.7583C87.2324 32.7378 87.0747 31.974 86.7593 31.4668C86.45 30.9535 85.9614 30.6968 85.2935 30.6968ZM96.8252 36.9312C97.32 36.9312 97.9137 36.8229 98.6064 36.6064V38.7124C97.9014 39.0278 97.0355 39.1855 96.0088 39.1855C94.877 39.1855 94.0513 38.901 93.5317 38.332C93.0184 37.7568 92.7617 36.8971 92.7617 35.7529V30.7524H91.4072V29.5557L92.9658 28.6094L93.7822 26.4199H95.5913V28.6279H98.4951V30.7524H95.5913V35.7529C95.5913 36.1549 95.7026 36.4518 95.9253 36.6436C96.1541 36.8353 96.4541 36.9312 96.8252 36.9312ZM100.592 25.9468C100.592 25.0252 101.105 24.5645 102.132 24.5645C103.159 24.5645 103.672 25.0252 103.672 25.9468C103.672 26.3859 103.542 26.7292 103.282 26.9766C103.029 27.2178 102.645 27.3384 102.132 27.3384C101.105 27.3384 100.592 26.8745 100.592 25.9468ZM103.542 39H100.712V28.6279H103.542V39ZM108.774 33.7954C108.774 34.8221 108.941 35.5983 109.275 36.124C109.616 36.6497 110.166 36.9126 110.927 36.9126C111.681 36.9126 112.222 36.6528 112.55 36.1333C112.884 35.6076 113.051 34.8283 113.051 33.7954C113.051 32.7687 112.884 31.9987 112.55 31.4854C112.216 30.972 111.669 30.7153 110.908 30.7153C110.154 30.7153 109.609 30.972 109.275 31.4854C108.941 31.9925 108.774 32.7625 108.774 33.7954ZM115.946 33.7954C115.946 35.4839 115.5 36.8044 114.61 37.7568C113.719 38.7093 112.479 39.1855 110.89 39.1855C109.894 39.1855 109.016 38.9691 108.255 38.5361C107.494 38.097 106.91 37.4692 106.501 36.6528C106.093 35.8364 105.889 34.884 105.889 33.7954C105.889 32.1007 106.331 30.7834 107.216 29.8433C108.1 28.9032 109.343 28.4331 110.945 28.4331C111.941 28.4331 112.819 28.6496 113.58 29.0825C114.341 29.5155 114.925 30.137 115.333 30.9473C115.742 31.7575 115.946 32.7069 115.946 33.7954ZM127.858 39H125.028V32.9419C125.028 32.1935 124.895 31.6338 124.629 31.2627C124.363 30.8854 123.94 30.6968 123.358 30.6968C122.567 30.6968 121.995 30.9627 121.642 31.4946C121.29 32.0203 121.113 32.8955 121.113 34.1201V39H118.284V28.6279H120.445L120.826 29.9546H120.983C121.299 29.4536 121.732 29.0763 122.282 28.8228C122.839 28.563 123.47 28.4331 124.175 28.4331C125.381 28.4331 126.296 28.7609 126.921 29.4165C127.546 30.0659 127.858 31.006 127.858 32.2368V39Z" fill="#42526E"/>
<path d="M444 51.5C446.808 51.5 448.884 51.5006 450.527 51.6348C452.163 51.7685 453.325 52.0322 454.312 52.5352C456.1 53.446 457.554 54.9 458.464 56.6875C458.967 57.6747 459.231 58.8363 459.365 60.4727C459.499 62.1151 459.5 64.1915 459.5 67V138C459.5 140.809 459.499 142.885 459.365 144.527C459.231 146.164 458.967 147.325 458.464 148.312C457.554 150.1 456.1 151.554 454.312 152.465C453.325 152.968 452.163 153.232 450.527 153.365C448.884 153.499 446.808 153.5 444 153.5H35.9995C33.191 153.5 31.1146 153.499 29.4722 153.365C27.8359 153.232 26.6742 152.968 25.687 152.465C23.8995 151.554 22.4455 150.1 21.5347 148.312C21.0318 147.325 20.768 146.164 20.6343 144.527C20.5001 142.885 20.4995 140.809 20.4995 138V51.5H444Z" fill="white"/>
<path d="M444 51.5C446.808 51.5 448.884 51.5006 450.527 51.6348C452.163 51.7685 453.325 52.0322 454.312 52.5352C456.1 53.446 457.554 54.9 458.464 56.6875C458.967 57.6747 459.231 58.8363 459.365 60.4727C459.499 62.1151 459.5 64.1915 459.5 67V138C459.5 140.809 459.499 142.885 459.365 144.527C459.231 146.164 458.967 147.325 458.464 148.312C457.554 150.1 456.1 151.554 454.312 152.465C453.325 152.968 452.163 153.232 450.527 153.365C448.884 153.499 446.808 153.5 444 153.5H35.9995C33.191 153.5 31.1146 153.499 29.4722 153.365C27.8359 153.232 26.6742 152.968 25.687 152.465C23.8995 151.554 22.4455 150.1 21.5347 148.312C21.0318 147.325 20.768 146.164 20.6343 144.527C20.5001 142.885 20.4995 140.809 20.4995 138V51.5H444Z" stroke="#D1D1D1"/>
<path d="M45.4067 88H37.855V74.4365H45.4067V75.8281H39.4321V80.2163H45.0635V81.5894H39.4321V86.6084H45.4067V88ZM52.9956 77.6465C54.2017 77.6465 55.1139 77.9434 55.7324 78.5371C56.3509 79.1247 56.6602 80.071 56.6602 81.376V88H55.1387V81.478C55.1387 80.6307 54.9438 79.9967 54.5542 79.5762C54.1707 79.1556 53.5801 78.9453 52.7822 78.9453C51.6566 78.9453 50.8649 79.2638 50.4072 79.9009C49.9495 80.5379 49.7207 81.4626 49.7207 82.6748V88H48.1807V77.832H49.4238L49.6558 79.2979H49.7393C49.9557 78.9391 50.231 78.6392 50.5649 78.3979C50.8989 78.1506 51.2731 77.965 51.6875 77.8413C52.1019 77.7114 52.5379 77.6465 52.9956 77.6465ZM63.1172 86.9238C63.3708 86.9238 63.6305 86.9022 63.8965 86.8589C64.1624 86.8156 64.3789 86.763 64.5459 86.7012V87.8979C64.3665 87.9784 64.116 88.0464 63.7944 88.1021C63.479 88.1577 63.1698 88.1855 62.8667 88.1855C62.3286 88.1855 61.84 88.0928 61.4009 87.9072C60.9618 87.7155 60.6092 87.3939 60.3433 86.9424C60.0835 86.4909 59.9536 85.8662 59.9536 85.0684V79.0381H58.5063V78.2866L59.9629 77.6836L60.5752 75.4756H61.5029V77.832H64.481V79.0381H61.5029V85.022C61.5029 85.659 61.6483 86.1353 61.939 86.4507C62.2358 86.7661 62.6286 86.9238 63.1172 86.9238ZM70.5205 77.6465C71.3864 77.6465 72.1286 77.8382 72.7471 78.2217C73.3656 78.6051 73.8387 79.1432 74.1665 79.8359C74.4943 80.5225 74.6582 81.3265 74.6582 82.248V83.2036H67.6353C67.6538 84.3973 67.9507 85.3065 68.5259 85.9312C69.1011 86.5558 69.9113 86.8682 70.9565 86.8682C71.5998 86.8682 72.1688 86.8094 72.6636 86.6919C73.1584 86.5744 73.6717 86.4012 74.2036 86.1724V87.5269C73.6903 87.7557 73.18 87.9227 72.6729 88.0278C72.1719 88.133 71.5781 88.1855 70.8916 88.1855C69.9144 88.1855 69.0609 87.9876 68.3311 87.5918C67.6074 87.1898 67.0446 86.6022 66.6426 85.8291C66.2406 85.056 66.0396 84.1097 66.0396 82.9902C66.0396 81.8955 66.222 80.9492 66.5869 80.1514C66.958 79.3473 67.4775 78.7288 68.1455 78.2959C68.8197 77.863 69.6113 77.6465 70.5205 77.6465ZM70.502 78.9082C69.6794 78.9082 69.0238 79.1772 68.5352 79.7153C68.0465 80.2534 67.7559 81.0049 67.6631 81.9697H73.0439C73.0378 81.3636 72.9419 80.8317 72.7563 80.374C72.577 79.9102 72.3018 79.5514 71.9307 79.2979C71.5596 79.0381 71.0833 78.9082 70.502 78.9082ZM81.8945 77.6465C82.0986 77.6465 82.312 77.6589 82.5347 77.6836C82.7573 77.7021 82.9552 77.73 83.1284 77.7671L82.9336 79.1958C82.7666 79.1525 82.5811 79.1185 82.377 79.0938C82.1729 79.069 81.9811 79.0566 81.8018 79.0566C81.3936 79.0566 81.007 79.1401 80.6421 79.3071C80.2834 79.4679 79.9679 79.703 79.6958 80.0122C79.4237 80.3153 79.2103 80.6833 79.0557 81.1162C78.901 81.543 78.8237 82.0192 78.8237 82.5449V88H77.2744V77.832H78.5547L78.7217 79.7061H78.7866C78.9969 79.3288 79.2505 78.9855 79.5474 78.6763C79.8442 78.3608 80.1875 78.1104 80.5771 77.9248C80.973 77.7393 81.4121 77.6465 81.8945 77.6465ZM93.7881 77.665C95.0003 77.665 95.9002 77.9372 96.4878 78.4814C97.0754 79.0257 97.3691 79.8947 97.3691 81.0884V88H96.2466L95.9497 86.4971H95.8755C95.591 86.8682 95.2941 87.1805 94.9849 87.4341C94.6756 87.6815 94.3169 87.8701 93.9087 88C93.5067 88.1237 93.0119 88.1855 92.4243 88.1855C91.8058 88.1855 91.2554 88.0773 90.7729 87.8608C90.2967 87.6444 89.9194 87.3166 89.6411 86.8774C89.369 86.4383 89.2329 85.8817 89.2329 85.2075C89.2329 84.1932 89.6349 83.4139 90.439 82.8696C91.243 82.3254 92.4676 82.0285 94.1128 81.979L95.8662 81.9048V81.2832C95.8662 80.4049 95.6776 79.7896 95.3003 79.437C94.923 79.0845 94.3911 78.9082 93.7046 78.9082C93.1727 78.9082 92.6655 78.9855 92.1831 79.1401C91.7007 79.2948 91.243 79.4772 90.8101 79.6875L90.3369 78.5186C90.7946 78.2835 91.3203 78.0825 91.9141 77.9155C92.5078 77.7485 93.1325 77.665 93.7881 77.665ZM95.8477 82.9902L94.2983 83.0552C93.0304 83.1047 92.1367 83.3118 91.6172 83.6768C91.0977 84.0417 90.8379 84.5581 90.8379 85.2261C90.8379 85.8075 91.0142 86.2373 91.3667 86.5156C91.7192 86.7939 92.1862 86.9331 92.7676 86.9331C93.6706 86.9331 94.4097 86.6826 94.9849 86.1816C95.5601 85.6807 95.8477 84.9292 95.8477 83.9272V82.9902ZM116.48 81.0884C116.48 82.616 116.202 83.8932 115.646 84.9199C115.089 85.9404 114.282 86.7104 113.224 87.23C112.173 87.7433 110.896 88 109.393 88H105.709V74.4365H109.801C111.18 74.4365 112.368 74.6901 113.363 75.1973C114.359 75.6982 115.126 76.4435 115.664 77.4331C116.208 78.4165 116.48 79.6349 116.48 81.0884ZM114.82 81.144C114.82 79.9256 114.616 78.9206 114.208 78.1289C113.806 77.3372 113.212 76.7497 112.426 76.3662C111.647 75.9766 110.691 75.7817 109.56 75.7817H107.287V86.6455H109.207C111.075 86.6455 112.476 86.1847 113.41 85.2632C114.35 84.3416 114.82 82.9686 114.82 81.144ZM123.179 77.6465C124.045 77.6465 124.787 77.8382 125.405 78.2217C126.024 78.6051 126.497 79.1432 126.825 79.8359C127.153 80.5225 127.316 81.3265 127.316 82.248V83.2036H120.293C120.312 84.3973 120.609 85.3065 121.184 85.9312C121.759 86.5558 122.569 86.8682 123.615 86.8682C124.258 86.8682 124.827 86.8094 125.322 86.6919C125.817 86.5744 126.33 86.4012 126.862 86.1724V87.5269C126.348 87.7557 125.838 87.9227 125.331 88.0278C124.83 88.133 124.236 88.1855 123.55 88.1855C122.573 88.1855 121.719 87.9876 120.989 87.5918C120.266 87.1898 119.703 86.6022 119.301 85.8291C118.899 85.056 118.698 84.1097 118.698 82.9902C118.698 81.8955 118.88 80.9492 119.245 80.1514C119.616 79.3473 120.136 78.7288 120.804 78.2959C121.478 77.863 122.27 77.6465 123.179 77.6465ZM123.16 78.9082C122.338 78.9082 121.682 79.1772 121.193 79.7153C120.705 80.2534 120.414 81.0049 120.321 81.9697H125.702C125.696 81.3636 125.6 80.8317 125.415 80.374C125.235 79.9102 124.96 79.5514 124.589 79.2979C124.218 79.0381 123.742 78.9082 123.16 78.9082ZM136.51 85.2168C136.51 85.8662 136.346 86.4136 136.019 86.8589C135.697 87.298 135.233 87.6289 134.627 87.8516C134.027 88.0742 133.31 88.1855 132.475 88.1855C131.763 88.1855 131.148 88.1299 130.628 88.0186C130.109 87.9072 129.654 87.7495 129.265 87.5454V86.126C129.679 86.3301 130.174 86.5156 130.749 86.6826C131.324 86.8496 131.912 86.9331 132.512 86.9331C133.39 86.9331 134.027 86.7909 134.423 86.5063C134.819 86.2218 135.017 85.8353 135.017 85.3467C135.017 85.0684 134.936 84.8241 134.775 84.6138C134.621 84.3973 134.358 84.1901 133.987 83.9922C133.616 83.7881 133.102 83.5654 132.447 83.3242C131.797 83.0768 131.235 82.8325 130.758 82.5913C130.288 82.3439 129.923 82.0439 129.664 81.6914C129.41 81.3389 129.283 80.8812 129.283 80.3184C129.283 79.4587 129.63 78.8 130.322 78.3423C131.021 77.8784 131.937 77.6465 133.068 77.6465C133.681 77.6465 134.253 77.7083 134.785 77.832C135.323 77.9495 135.824 78.1104 136.288 78.3145L135.768 79.5483C135.347 79.369 134.899 79.2174 134.423 79.0938C133.947 78.9701 133.461 78.9082 132.966 78.9082C132.255 78.9082 131.708 79.0257 131.324 79.2607C130.947 79.4958 130.758 79.8174 130.758 80.2256C130.758 80.541 130.845 80.8008 131.018 81.0049C131.197 81.209 131.482 81.4007 131.872 81.5801C132.261 81.7594 132.775 81.9697 133.412 82.2109C134.049 82.446 134.599 82.6903 135.063 82.9438C135.527 83.1912 135.882 83.4943 136.13 83.853C136.383 84.2056 136.51 84.6602 136.51 85.2168ZM143.06 88.1855C142.145 88.1855 141.338 87.9969 140.639 87.6196C139.94 87.2424 139.396 86.6672 139.006 85.894C138.616 85.1209 138.421 84.1468 138.421 82.9717C138.421 81.7409 138.625 80.7358 139.034 79.9565C139.448 79.1711 140.017 78.5897 140.741 78.2124C141.464 77.8351 142.287 77.6465 143.208 77.6465C143.716 77.6465 144.204 77.6991 144.674 77.8042C145.151 77.9032 145.54 78.0299 145.843 78.1846L145.379 79.4741C145.07 79.3504 144.711 79.2391 144.303 79.1401C143.901 79.0412 143.524 78.9917 143.171 78.9917C142.466 78.9917 141.879 79.1432 141.409 79.4463C140.945 79.7493 140.595 80.1947 140.36 80.7822C140.132 81.3698 140.017 82.0934 140.017 82.9531C140.017 83.7757 140.128 84.4777 140.351 85.0591C140.58 85.6405 140.917 86.0858 141.362 86.395C141.814 86.6981 142.377 86.8496 143.051 86.8496C143.589 86.8496 144.074 86.7939 144.507 86.6826C144.94 86.5651 145.333 86.429 145.686 86.2744V87.6475C145.345 87.8206 144.965 87.9536 144.544 88.0464C144.13 88.1392 143.635 88.1855 143.06 88.1855ZM152.718 77.6465C152.922 77.6465 153.135 77.6589 153.358 77.6836C153.581 77.7021 153.778 77.73 153.952 77.7671L153.757 79.1958C153.59 79.1525 153.404 79.1185 153.2 79.0938C152.996 79.069 152.804 79.0566 152.625 79.0566C152.217 79.0566 151.83 79.1401 151.465 79.3071C151.107 79.4679 150.791 79.703 150.519 80.0122C150.247 80.3153 150.034 80.6833 149.879 81.1162C149.724 81.543 149.647 82.0192 149.647 82.5449V88H148.098V77.832H149.378L149.545 79.7061H149.61C149.82 79.3288 150.074 78.9855 150.371 78.6763C150.667 78.3608 151.011 78.1104 151.4 77.9248C151.796 77.7393 152.235 77.6465 152.718 77.6465ZM157.412 77.832V88H155.872V77.832H157.412ZM156.661 74.0283C156.914 74.0283 157.131 74.1118 157.31 74.2788C157.496 74.4396 157.588 74.6932 157.588 75.0396C157.588 75.3797 157.496 75.6333 157.31 75.8003C157.131 75.9673 156.914 76.0508 156.661 76.0508C156.395 76.0508 156.172 75.9673 155.993 75.8003C155.819 75.6333 155.733 75.3797 155.733 75.0396C155.733 74.6932 155.819 74.4396 155.993 74.2788C156.172 74.1118 156.395 74.0283 156.661 74.0283ZM165.456 77.6465C166.723 77.6465 167.735 78.0825 168.489 78.9546C169.244 79.8267 169.621 81.1379 169.621 82.8882C169.621 84.0448 169.448 85.0158 169.102 85.8013C168.755 86.5868 168.267 87.1805 167.636 87.5825C167.011 87.9845 166.272 88.1855 165.418 88.1855C164.88 88.1855 164.407 88.1144 163.999 87.9722C163.591 87.8299 163.241 87.6382 162.951 87.397C162.66 87.1558 162.419 86.8929 162.227 86.6084H162.116C162.134 86.8496 162.156 87.1403 162.181 87.4805C162.212 87.8206 162.227 88.1175 162.227 88.3711V92.5459H160.678V77.832H161.949L162.153 79.335H162.227C162.425 79.0257 162.666 78.7443 162.951 78.4907C163.235 78.231 163.582 78.0269 163.99 77.8784C164.404 77.7238 164.893 77.6465 165.456 77.6465ZM165.187 78.9453C164.481 78.9453 163.912 79.0814 163.479 79.3535C163.053 79.6257 162.74 80.0339 162.542 80.5781C162.345 81.1162 162.239 81.7935 162.227 82.6099V82.9067C162.227 83.7664 162.32 84.4932 162.505 85.0869C162.697 85.6807 163.009 86.1322 163.442 86.4414C163.882 86.7507 164.469 86.9053 165.205 86.9053C165.836 86.9053 166.362 86.7352 166.782 86.395C167.203 86.0549 167.515 85.5817 167.719 84.9756C167.93 84.3633 168.035 83.6613 168.035 82.8696C168.035 81.6698 167.8 80.7173 167.33 80.0122C166.866 79.3009 166.151 78.9453 165.187 78.9453ZM175.596 86.9238C175.849 86.9238 176.109 86.9022 176.375 86.8589C176.641 86.8156 176.857 86.763 177.024 86.7012V87.8979C176.845 87.9784 176.595 88.0464 176.273 88.1021C175.958 88.1577 175.648 88.1855 175.345 88.1855C174.807 88.1855 174.319 88.0928 173.879 87.9072C173.44 87.7155 173.088 87.3939 172.822 86.9424C172.562 86.4909 172.432 85.8662 172.432 85.0684V79.0381H170.985V78.2866L172.441 77.6836L173.054 75.4756H173.981V77.832H176.959V79.0381H173.981V85.022C173.981 85.659 174.127 86.1353 174.417 86.4507C174.714 86.7661 175.107 86.9238 175.596 86.9238ZM180.624 77.832V88H179.084V77.832H180.624ZM179.873 74.0283C180.126 74.0283 180.343 74.1118 180.522 74.2788C180.708 74.4396 180.8 74.6932 180.8 75.0396C180.8 75.3797 180.708 75.6333 180.522 75.8003C180.343 75.9673 180.126 76.0508 179.873 76.0508C179.607 76.0508 179.384 75.9673 179.205 75.8003C179.031 75.6333 178.945 75.3797 178.945 75.0396C178.945 74.6932 179.031 74.4396 179.205 74.2788C179.384 74.1118 179.607 74.0283 179.873 74.0283ZM192.657 82.8975C192.657 83.7324 192.549 84.4777 192.332 85.1333C192.116 85.7889 191.803 86.3424 191.395 86.7939C190.987 87.2454 190.492 87.5918 189.911 87.833C189.335 88.068 188.683 88.1855 187.953 88.1855C187.273 88.1855 186.648 88.068 186.079 87.833C185.516 87.5918 185.028 87.2454 184.613 86.7939C184.205 86.3424 183.887 85.7889 183.658 85.1333C183.435 84.4777 183.324 83.7324 183.324 82.8975C183.324 81.7842 183.512 80.8379 183.89 80.0586C184.267 79.2731 184.805 78.6763 185.504 78.2681C186.209 77.8537 187.047 77.6465 188.018 77.6465C188.946 77.6465 189.756 77.8537 190.449 78.2681C191.148 78.6825 191.689 79.2824 192.072 80.0679C192.462 80.8472 192.657 81.7904 192.657 82.8975ZM184.919 82.8975C184.919 83.7139 185.028 84.422 185.244 85.022C185.461 85.6219 185.795 86.0858 186.246 86.4136C186.698 86.7414 187.279 86.9053 187.99 86.9053C188.695 86.9053 189.274 86.7414 189.725 86.4136C190.183 86.0858 190.52 85.6219 190.736 85.022C190.953 84.422 191.061 83.7139 191.061 82.8975C191.061 82.0872 190.953 81.3883 190.736 80.8008C190.52 80.207 190.186 79.7493 189.734 79.4277C189.283 79.1061 188.698 78.9453 187.981 78.9453C186.923 78.9453 186.147 79.2948 185.652 79.9937C185.164 80.6925 184.919 81.6605 184.919 82.8975ZM200.134 77.6465C201.34 77.6465 202.253 77.9434 202.871 78.5371C203.49 79.1247 203.799 80.071 203.799 81.376V88H202.277V81.478C202.277 80.6307 202.083 79.9967 201.693 79.5762C201.309 79.1556 200.719 78.9453 199.921 78.9453C198.795 78.9453 198.004 79.2638 197.546 79.9009C197.088 80.5379 196.859 81.4626 196.859 82.6748V88H195.319V77.832H196.562L196.794 79.2979H196.878C197.094 78.9391 197.37 78.6392 197.704 78.3979C198.038 78.1506 198.412 77.965 198.826 77.8413C199.241 77.7114 199.677 77.6465 200.134 77.6465Z" fill="#D1D1D1"/>
<g clip-path="url(#clip0_92_394)">
<path d="M450 125.1V126.79C450.001 127.418 449.878 128.04 449.638 128.62C449.398 129.2 449.045 129.727 448.6 130.17L436.17 142.6C435.727 143.045 435.2 143.398 434.62 143.639C434.04 143.879 433.418 144.002 432.79 144H431.1L450 125.1Z" fill="#D1D1D1"/>
<path d="M450 131.41V133.1C450 133.728 449.877 134.35 449.637 134.93C449.396 135.51 449.044 136.037 448.6 136.48L442.48 142.6C442.036 143.044 441.509 143.397 440.929 143.637C440.349 143.877 439.727 144.001 439.1 144H437.41L450 131.41Z" fill="#D1D1D1"/>
<path d="M450 137.53V139.22C450 139.848 449.877 140.47 449.637 141.05C449.396 141.63 449.044 142.156 448.6 142.6C448.156 143.044 447.629 143.397 447.049 143.637C446.469 143.877 445.847 144.001 445.22 144H443.53L450 137.53Z" fill="#D1D1D1"/>
</g>
<path d="M32.96 205.088C32.96 207.321 32.3229 209.031 31.0488 210.219C29.7809 211.406 27.9471 212 25.5474 212H21.7065V198.437H25.9648C28.179 198.437 29.8984 199.021 31.123 200.19C32.3477 201.359 32.96 202.992 32.96 205.088ZM29.9727 205.163C29.9727 202.25 28.6862 200.793 26.1133 200.793H24.5825V209.625H25.8164C28.5872 209.625 29.9727 208.138 29.9727 205.163ZM39.8438 203.446C39.2438 203.446 38.7738 203.638 38.4336 204.021C38.0934 204.399 37.8986 204.937 37.8491 205.636H41.8198C41.8075 204.937 41.625 204.399 41.2725 204.021C40.9199 203.638 40.4437 203.446 39.8438 203.446ZM40.2427 212.186C38.5728 212.186 37.2677 211.725 36.3276 210.803C35.3875 209.882 34.9175 208.577 34.9175 206.888C34.9175 205.15 35.3504 203.808 36.2163 202.862C37.0884 201.909 38.2913 201.433 39.8252 201.433C41.291 201.433 42.4321 201.851 43.2485 202.686C44.0649 203.521 44.4731 204.674 44.4731 206.146V207.519H37.7842C37.8151 208.323 38.0532 208.951 38.4985 209.402C38.9438 209.854 39.5685 210.08 40.3726 210.08C40.9972 210.08 41.5879 210.015 42.1445 209.885C42.7012 209.755 43.2826 209.548 43.8887 209.263V211.453C43.3939 211.7 42.8651 211.882 42.3022 212C41.7394 212.124 41.0529 212.186 40.2427 212.186ZM54.0103 208.92C54.0103 209.984 53.6392 210.794 52.897 211.351C52.161 211.907 51.057 212.186 49.585 212.186C48.8304 212.186 48.1872 212.133 47.6553 212.028C47.1234 211.929 46.6255 211.78 46.1616 211.583V209.245C46.6873 209.492 47.278 209.699 47.9336 209.866C48.5954 210.033 49.1768 210.117 49.6777 210.117C50.7044 210.117 51.2178 209.82 51.2178 209.226C51.2178 209.003 51.1497 208.824 51.0137 208.688C50.8776 208.546 50.6426 208.388 50.3086 208.215C49.9746 208.035 49.5293 207.828 48.9727 207.593C48.1748 207.259 47.5872 206.95 47.21 206.666C46.8389 206.381 46.5667 206.056 46.3936 205.691C46.2266 205.32 46.1431 204.866 46.1431 204.328C46.1431 203.406 46.4987 202.695 47.21 202.194C47.9274 201.687 48.9417 201.433 50.2529 201.433C51.5023 201.433 52.7176 201.705 53.8989 202.25L53.0454 204.291C52.5259 204.068 52.0404 203.885 51.5889 203.743C51.1374 203.601 50.6766 203.53 50.2065 203.53C49.3716 203.53 48.9541 203.756 48.9541 204.207C48.9541 204.461 49.0871 204.68 49.353 204.866C49.6252 205.051 50.2158 205.326 51.125 205.691C51.9352 206.019 52.529 206.325 52.9062 206.61C53.2835 206.894 53.5618 207.222 53.7412 207.593C53.9206 207.964 54.0103 208.407 54.0103 208.92ZM60.4302 212.186C57.2017 212.186 55.5874 210.414 55.5874 206.87C55.5874 205.107 56.0265 203.762 56.9048 202.834C57.783 201.9 59.0417 201.433 60.6807 201.433C61.8805 201.433 62.9567 201.668 63.9092 202.138L63.0742 204.328C62.6289 204.148 62.2145 204.003 61.8311 203.892C61.4476 203.774 61.0641 203.715 60.6807 203.715C59.2087 203.715 58.4727 204.761 58.4727 206.851C58.4727 208.88 59.2087 209.894 60.6807 209.894C61.2249 209.894 61.729 209.823 62.1929 209.681C62.6567 209.532 63.1206 209.303 63.5845 208.994V211.416C63.1268 211.706 62.6629 211.907 62.1929 212.019C61.729 212.13 61.1414 212.186 60.4302 212.186ZM71.7856 201.433C72.1691 201.433 72.4876 201.461 72.7412 201.517L72.5278 204.17C72.299 204.108 72.0207 204.077 71.6929 204.077C70.7899 204.077 70.0848 204.309 69.5776 204.773C69.0767 205.237 68.8262 205.886 68.8262 206.721V212H65.9966V201.628H68.1396L68.5571 203.372H68.6963C69.0179 202.791 69.4508 202.324 69.9951 201.971C70.5456 201.612 71.1424 201.433 71.7856 201.433ZM74.5039 198.947C74.5039 198.025 75.0173 197.564 76.0439 197.564C77.0706 197.564 77.584 198.025 77.584 198.947C77.584 199.386 77.4541 199.729 77.1943 199.977C76.9408 200.218 76.5573 200.338 76.0439 200.338C75.0173 200.338 74.5039 199.875 74.5039 198.947ZM77.4541 212H74.6245V201.628H77.4541V212ZM86.1284 212.186C84.91 212.186 83.9544 211.743 83.2617 210.859H83.1133C83.2122 211.725 83.2617 212.226 83.2617 212.362V216.564H80.4321V201.628H82.7329L83.1318 202.973H83.2617C83.9235 201.946 84.9038 201.433 86.2026 201.433C87.4272 201.433 88.3859 201.906 89.0786 202.853C89.7713 203.799 90.1177 205.113 90.1177 206.795C90.1177 207.903 89.9538 208.864 89.626 209.681C89.3044 210.497 88.8436 211.119 88.2437 211.545C87.6437 211.972 86.9386 212.186 86.1284 212.186ZM85.2935 203.697C84.5946 203.697 84.0843 203.913 83.7627 204.346C83.4411 204.773 83.2741 205.481 83.2617 206.471V206.777C83.2617 207.89 83.4256 208.688 83.7534 209.17C84.0874 209.653 84.6131 209.894 85.3306 209.894C86.5985 209.894 87.2324 208.849 87.2324 206.758C87.2324 205.738 87.0747 204.974 86.7593 204.467C86.45 203.953 85.9614 203.697 85.2935 203.697ZM96.8252 209.931C97.32 209.931 97.9137 209.823 98.6064 209.606V211.712C97.9014 212.028 97.0355 212.186 96.0088 212.186C94.877 212.186 94.0513 211.901 93.5317 211.332C93.0184 210.757 92.7617 209.897 92.7617 208.753V203.752H91.4072V202.556L92.9658 201.609L93.7822 199.42H95.5913V201.628H98.4951V203.752H95.5913V208.753C95.5913 209.155 95.7026 209.452 95.9253 209.644C96.1541 209.835 96.4541 209.931 96.8252 209.931ZM100.592 198.947C100.592 198.025 101.105 197.564 102.132 197.564C103.159 197.564 103.672 198.025 103.672 198.947C103.672 199.386 103.542 199.729 103.282 199.977C103.029 200.218 102.645 200.338 102.132 200.338C101.105 200.338 100.592 199.875 100.592 198.947ZM103.542 212H100.712V201.628H103.542V212ZM108.774 206.795C108.774 207.822 108.941 208.598 109.275 209.124C109.616 209.65 110.166 209.913 110.927 209.913C111.681 209.913 112.222 209.653 112.55 209.133C112.884 208.608 113.051 207.828 113.051 206.795C113.051 205.769 112.884 204.999 112.55 204.485C112.216 203.972 111.669 203.715 110.908 203.715C110.154 203.715 109.609 203.972 109.275 204.485C108.941 204.993 108.774 205.763 108.774 206.795ZM115.946 206.795C115.946 208.484 115.5 209.804 114.61 210.757C113.719 211.709 112.479 212.186 110.89 212.186C109.894 212.186 109.016 211.969 108.255 211.536C107.494 211.097 106.91 210.469 106.501 209.653C106.093 208.836 105.889 207.884 105.889 206.795C105.889 205.101 106.331 203.783 107.216 202.843C108.1 201.903 109.343 201.433 110.945 201.433C111.941 201.433 112.819 201.65 113.58 202.083C114.341 202.515 114.925 203.137 115.333 203.947C115.742 204.757 115.946 205.707 115.946 206.795ZM127.858 212H125.028V205.942C125.028 205.194 124.895 204.634 124.629 204.263C124.363 203.885 123.94 203.697 123.358 203.697C122.567 203.697 121.995 203.963 121.642 204.495C121.29 205.02 121.113 205.896 121.113 207.12V212H118.284V201.628H120.445L120.826 202.955H120.983C121.299 202.454 121.732 202.076 122.282 201.823C122.839 201.563 123.47 201.433 124.175 201.433C125.381 201.433 126.296 201.761 126.921 202.417C127.546 203.066 127.858 204.006 127.858 205.237V212Z" fill="#42526E"/>
<path d="M444 224.5C446.808 224.5 448.884 224.501 450.527 224.635C452.163 224.768 453.325 225.032 454.312 225.535C456.1 226.446 457.554 227.9 458.464 229.688C458.967 230.675 459.231 231.836 459.365 233.473C459.499 235.115 459.5 237.191 459.5 240V311C459.5 313.809 459.499 315.885 459.365 317.527C459.231 319.164 458.967 320.325 458.464 321.312C457.554 323.1 456.1 324.554 454.312 325.465C453.325 325.968 452.163 326.232 450.527 326.365C448.884 326.499 446.808 326.5 444 326.5H35.9995C33.191 326.5 31.1146 326.499 29.4722 326.365C27.8359 326.232 26.6742 325.968 25.687 325.465C23.8995 324.554 22.4455 323.1 21.5347 321.312C21.0318 320.325 20.768 319.164 20.6343 317.527C20.5001 315.885 20.4995 313.809 20.4995 311V224.5H444Z" fill="white"/>
<path d="M444 224.5C446.808 224.5 448.884 224.501 450.527 224.635C452.163 224.768 453.325 225.032 454.312 225.535C456.1 226.446 457.554 227.9 458.464 229.688C458.967 230.675 459.231 231.836 459.365 233.473C459.499 235.115 459.5 237.191 459.5 240V311C459.5 313.809 459.499 315.885 459.365 317.527C459.231 319.164 458.967 320.325 458.464 321.312C457.554 323.1 456.1 324.554 454.312 325.465C453.325 325.968 452.163 326.232 450.527 326.365C448.884 326.499 446.808 326.5 444 326.5H35.9995C33.191 326.5 31.1146 326.499 29.4722 326.365C27.8359 326.232 26.6742 325.968 25.687 325.465C23.8995 324.554 22.4455 323.1 21.5347 321.312C21.0318 320.325 20.768 319.164 20.6343 317.527C20.5001 315.885 20.4995 313.809 20.4995 311V224.5H444Z" stroke="#005DFF"/>
<path d="M43.6533 248.633C42.9049 248.633 42.2308 248.763 41.6309 249.023C41.0371 249.277 40.5299 249.648 40.1094 250.136C39.695 250.619 39.3765 251.203 39.1538 251.89C38.9312 252.576 38.8198 253.349 38.8198 254.209C38.8198 255.347 38.9961 256.337 39.3486 257.178C39.7074 258.013 40.2393 258.659 40.9443 259.117C41.6556 259.574 42.5431 259.803 43.6069 259.803C44.2131 259.803 44.7821 259.754 45.314 259.655C45.8521 259.55 46.3747 259.42 46.8818 259.265V260.638C46.387 260.824 45.8675 260.96 45.3232 261.046C44.779 261.139 44.1326 261.186 43.3843 261.186C42.005 261.186 40.8516 260.901 39.9238 260.332C39.0023 259.757 38.3096 258.947 37.8457 257.901C37.388 256.856 37.1592 255.622 37.1592 254.2C37.1592 253.173 37.3014 252.236 37.5859 251.389C37.8766 250.535 38.2972 249.799 38.8477 249.181C39.4043 248.562 40.0846 248.086 40.8887 247.752C41.6989 247.412 42.6266 247.242 43.6719 247.242C44.3584 247.242 45.0202 247.31 45.6572 247.446C46.2943 247.582 46.8695 247.777 47.3828 248.03L46.752 249.366C46.319 249.168 45.8428 248.998 45.3232 248.856C44.8099 248.708 44.2533 248.633 43.6533 248.633ZM54.2109 250.646C54.415 250.646 54.6284 250.659 54.8511 250.684C55.0737 250.702 55.2716 250.73 55.4448 250.767L55.25 252.196C55.083 252.153 54.8975 252.118 54.6934 252.094C54.4893 252.069 54.2975 252.057 54.1182 252.057C53.71 252.057 53.3234 252.14 52.9585 252.307C52.5998 252.468 52.2843 252.703 52.0122 253.012C51.7401 253.315 51.5267 253.683 51.3721 254.116C51.2174 254.543 51.1401 255.019 51.1401 255.545V261H49.5908V250.832H50.8711L51.0381 252.706H51.103C51.3133 252.329 51.5669 251.986 51.8638 251.676C52.1606 251.361 52.5039 251.11 52.8936 250.925C53.2894 250.739 53.7285 250.646 54.2109 250.646ZM61.2803 250.646C62.1462 250.646 62.8883 250.838 63.5068 251.222C64.1253 251.605 64.5985 252.143 64.9263 252.836C65.2541 253.522 65.418 254.326 65.418 255.248V256.204H58.395C58.4136 257.397 58.7104 258.306 59.2856 258.931C59.8608 259.556 60.6711 259.868 61.7163 259.868C62.3595 259.868 62.9285 259.809 63.4233 259.692C63.9181 259.574 64.4315 259.401 64.9634 259.172V260.527C64.45 260.756 63.9398 260.923 63.4326 261.028C62.9316 261.133 62.3379 261.186 61.6514 261.186C60.6742 261.186 59.8206 260.988 59.0908 260.592C58.3672 260.19 57.8044 259.602 57.4023 258.829C57.0003 258.056 56.7993 257.11 56.7993 255.99C56.7993 254.896 56.9818 253.949 57.3467 253.151C57.7178 252.347 58.2373 251.729 58.9053 251.296C59.5794 250.863 60.3711 250.646 61.2803 250.646ZM61.2617 251.908C60.4391 251.908 59.7835 252.177 59.2949 252.715C58.8063 253.253 58.5156 254.005 58.4229 254.97H63.8037C63.7975 254.364 63.7017 253.832 63.5161 253.374C63.3368 252.91 63.0615 252.551 62.6904 252.298C62.3193 252.038 61.8431 251.908 61.2617 251.908ZM71.8379 250.665C73.0501 250.665 73.95 250.937 74.5376 251.481C75.1252 252.026 75.4189 252.895 75.4189 254.088V261H74.2964L73.9995 259.497H73.9253C73.6408 259.868 73.3439 260.181 73.0347 260.434C72.7254 260.681 72.3667 260.87 71.9585 261C71.5565 261.124 71.0617 261.186 70.4741 261.186C69.8556 261.186 69.3052 261.077 68.8228 260.861C68.3465 260.644 67.9692 260.317 67.6909 259.877C67.4188 259.438 67.2827 258.882 67.2827 258.208C67.2827 257.193 67.6847 256.414 68.4888 255.87C69.2928 255.325 70.5174 255.028 72.1626 254.979L73.916 254.905V254.283C73.916 253.405 73.7274 252.79 73.3501 252.437C72.9728 252.084 72.4409 251.908 71.7544 251.908C71.2225 251.908 70.7153 251.986 70.2329 252.14C69.7505 252.295 69.2928 252.477 68.8599 252.688L68.3867 251.519C68.8444 251.284 69.3701 251.083 69.9639 250.916C70.5576 250.749 71.1823 250.665 71.8379 250.665ZM73.8975 255.99L72.3481 256.055C71.0802 256.105 70.1865 256.312 69.667 256.677C69.1475 257.042 68.8877 257.558 68.8877 258.226C68.8877 258.807 69.064 259.237 69.4165 259.516C69.769 259.794 70.236 259.933 70.8174 259.933C71.7204 259.933 72.4595 259.683 73.0347 259.182C73.6099 258.681 73.8975 257.929 73.8975 256.927V255.99ZM81.876 259.924C82.1296 259.924 82.3893 259.902 82.6553 259.859C82.9212 259.816 83.1377 259.763 83.3047 259.701V260.898C83.1253 260.978 82.8748 261.046 82.5532 261.102C82.2378 261.158 81.9285 261.186 81.6255 261.186C81.0874 261.186 80.5988 261.093 80.1597 260.907C79.7205 260.715 79.368 260.394 79.1021 259.942C78.8423 259.491 78.7124 258.866 78.7124 258.068V252.038H77.2651V251.287L78.7217 250.684L79.334 248.476H80.2617V250.832H83.2397V252.038H80.2617V258.022C80.2617 258.659 80.4071 259.135 80.6978 259.451C80.9946 259.766 81.3874 259.924 81.876 259.924ZM89.2793 250.646C90.1452 250.646 90.8874 250.838 91.5059 251.222C92.1243 251.605 92.5975 252.143 92.9253 252.836C93.2531 253.522 93.417 254.326 93.417 255.248V256.204H86.394C86.4126 257.397 86.7095 258.306 87.2847 258.931C87.8599 259.556 88.6701 259.868 89.7153 259.868C90.3586 259.868 90.9276 259.809 91.4224 259.692C91.9172 259.574 92.4305 259.401 92.9624 259.172V260.527C92.4491 260.756 91.9388 260.923 91.4316 261.028C90.9307 261.133 90.3369 261.186 89.6504 261.186C88.6732 261.186 87.8197 260.988 87.0898 260.592C86.3662 260.19 85.8034 259.602 85.4014 258.829C84.9993 258.056 84.7983 257.11 84.7983 255.99C84.7983 254.896 84.9808 253.949 85.3457 253.151C85.7168 252.347 86.2363 251.729 86.9043 251.296C87.5785 250.863 88.3701 250.646 89.2793 250.646ZM89.2607 251.908C88.4382 251.908 87.7826 252.177 87.2939 252.715C86.8053 253.253 86.5146 254.005 86.4219 254.97H91.8027C91.7965 254.364 91.7007 253.832 91.5151 253.374C91.3358 252.91 91.0605 252.551 90.6895 252.298C90.3184 252.038 89.8421 251.908 89.2607 251.908ZM104.772 250.665C105.985 250.665 106.885 250.937 107.472 251.481C108.06 252.026 108.354 252.895 108.354 254.088V261H107.231L106.934 259.497H106.86C106.575 259.868 106.278 260.181 105.969 260.434C105.66 260.681 105.301 260.87 104.893 261C104.491 261.124 103.996 261.186 103.409 261.186C102.79 261.186 102.24 261.077 101.757 260.861C101.281 260.644 100.904 260.317 100.625 259.877C100.353 259.438 100.217 258.882 100.217 258.208C100.217 257.193 100.619 256.414 101.423 255.87C102.227 255.325 103.452 255.028 105.097 254.979L106.851 254.905V254.283C106.851 253.405 106.662 252.79 106.285 252.437C105.907 252.084 105.375 251.908 104.689 251.908C104.157 251.908 103.65 251.986 103.167 252.14C102.685 252.295 102.227 252.477 101.794 252.688L101.321 251.519C101.779 251.284 102.305 251.083 102.898 250.916C103.492 250.749 104.117 250.665 104.772 250.665ZM106.832 255.99L105.283 256.055C104.015 256.105 103.121 256.312 102.602 256.677C102.082 257.042 101.822 257.558 101.822 258.226C101.822 258.807 101.999 259.237 102.351 259.516C102.704 259.794 103.171 259.933 103.752 259.933C104.655 259.933 105.394 259.683 105.969 259.182C106.544 258.681 106.832 257.929 106.832 256.927V255.99ZM120.535 261.186C119.619 261.186 118.812 260.997 118.113 260.62C117.414 260.242 116.87 259.667 116.48 258.894C116.091 258.121 115.896 257.147 115.896 255.972C115.896 254.741 116.1 253.736 116.508 252.957C116.923 252.171 117.492 251.59 118.215 251.212C118.939 250.835 119.762 250.646 120.683 250.646C121.19 250.646 121.679 250.699 122.149 250.804C122.625 250.903 123.015 251.03 123.318 251.185L122.854 252.474C122.545 252.35 122.186 252.239 121.778 252.14C121.376 252.041 120.999 251.992 120.646 251.992C119.941 251.992 119.353 252.143 118.883 252.446C118.419 252.749 118.07 253.195 117.835 253.782C117.606 254.37 117.492 255.093 117.492 255.953C117.492 256.776 117.603 257.478 117.826 258.059C118.055 258.64 118.392 259.086 118.837 259.395C119.288 259.698 119.851 259.85 120.525 259.85C121.063 259.85 121.549 259.794 121.982 259.683C122.415 259.565 122.808 259.429 123.16 259.274V260.647C122.82 260.821 122.44 260.954 122.019 261.046C121.605 261.139 121.11 261.186 120.535 261.186ZM134.339 255.897C134.339 256.732 134.231 257.478 134.015 258.133C133.798 258.789 133.486 259.342 133.078 259.794C132.669 260.245 132.175 260.592 131.593 260.833C131.018 261.068 130.366 261.186 129.636 261.186C128.955 261.186 128.331 261.068 127.762 260.833C127.199 260.592 126.71 260.245 126.296 259.794C125.888 259.342 125.569 258.789 125.34 258.133C125.118 257.478 125.006 256.732 125.006 255.897C125.006 254.784 125.195 253.838 125.572 253.059C125.95 252.273 126.488 251.676 127.187 251.268C127.892 250.854 128.73 250.646 129.701 250.646C130.628 250.646 131.439 250.854 132.131 251.268C132.83 251.682 133.371 252.282 133.755 253.068C134.145 253.847 134.339 254.79 134.339 255.897ZM126.602 255.897C126.602 256.714 126.71 257.422 126.927 258.022C127.143 258.622 127.477 259.086 127.929 259.414C128.38 259.741 128.962 259.905 129.673 259.905C130.378 259.905 130.956 259.741 131.408 259.414C131.865 259.086 132.202 258.622 132.419 258.022C132.635 257.422 132.744 256.714 132.744 255.897C132.744 255.087 132.635 254.388 132.419 253.801C132.202 253.207 131.868 252.749 131.417 252.428C130.965 252.106 130.381 251.945 129.664 251.945C128.606 251.945 127.83 252.295 127.335 252.994C126.846 253.693 126.602 254.66 126.602 255.897ZM141.817 250.646C143.023 250.646 143.935 250.943 144.554 251.537C145.172 252.125 145.481 253.071 145.481 254.376V261H143.96V254.478C143.96 253.631 143.765 252.997 143.375 252.576C142.992 252.156 142.401 251.945 141.604 251.945C140.478 251.945 139.686 252.264 139.229 252.901C138.771 253.538 138.542 254.463 138.542 255.675V261H137.002V250.832H138.245L138.477 252.298H138.561C138.777 251.939 139.052 251.639 139.386 251.398C139.72 251.151 140.094 250.965 140.509 250.841C140.923 250.711 141.359 250.646 141.817 250.646ZM151.938 259.924C152.192 259.924 152.452 259.902 152.718 259.859C152.984 259.816 153.2 259.763 153.367 259.701V260.898C153.188 260.978 152.937 261.046 152.616 261.102C152.3 261.158 151.991 261.186 151.688 261.186C151.15 261.186 150.661 261.093 150.222 260.907C149.783 260.715 149.431 260.394 149.165 259.942C148.905 259.491 148.775 258.866 148.775 258.068V252.038H147.328V251.287L148.784 250.684L149.396 248.476H150.324V250.832H153.302V252.038H150.324V258.022C150.324 258.659 150.47 259.135 150.76 259.451C151.057 259.766 151.45 259.924 151.938 259.924ZM159.23 250.665C160.443 250.665 161.343 250.937 161.93 251.481C162.518 252.026 162.812 252.895 162.812 254.088V261H161.689L161.392 259.497H161.318C161.033 259.868 160.736 260.181 160.427 260.434C160.118 260.681 159.759 260.87 159.351 261C158.949 261.124 158.454 261.186 157.867 261.186C157.248 261.186 156.698 261.077 156.215 260.861C155.739 260.644 155.362 260.317 155.083 259.877C154.811 259.438 154.675 258.882 154.675 258.208C154.675 257.193 155.077 256.414 155.881 255.87C156.685 255.325 157.91 255.028 159.555 254.979L161.309 254.905V254.283C161.309 253.405 161.12 252.79 160.743 252.437C160.365 252.084 159.833 251.908 159.147 251.908C158.615 251.908 158.108 251.986 157.625 252.14C157.143 252.295 156.685 252.477 156.252 252.688L155.779 251.519C156.237 251.284 156.763 251.083 157.356 250.916C157.95 250.749 158.575 250.665 159.23 250.665ZM161.29 255.99L159.741 256.055C158.473 256.105 157.579 256.312 157.06 256.677C156.54 257.042 156.28 257.558 156.28 258.226C156.28 258.807 156.457 259.237 156.809 259.516C157.162 259.794 157.629 259.933 158.21 259.933C159.113 259.933 159.852 259.683 160.427 259.182C161.002 258.681 161.29 257.929 161.29 256.927V255.99ZM170.057 261.186C169.142 261.186 168.335 260.997 167.636 260.62C166.937 260.242 166.393 259.667 166.003 258.894C165.613 258.121 165.418 257.147 165.418 255.972C165.418 254.741 165.623 253.736 166.031 252.957C166.445 252.171 167.014 251.59 167.738 251.212C168.461 250.835 169.284 250.646 170.206 250.646C170.713 250.646 171.201 250.699 171.671 250.804C172.148 250.903 172.537 251.03 172.84 251.185L172.376 252.474C172.067 252.35 171.708 252.239 171.3 252.14C170.898 252.041 170.521 251.992 170.168 251.992C169.463 251.992 168.876 252.143 168.406 252.446C167.942 252.749 167.592 253.195 167.357 253.782C167.129 254.37 167.014 255.093 167.014 255.953C167.014 256.776 167.125 257.478 167.348 258.059C167.577 258.64 167.914 259.086 168.359 259.395C168.811 259.698 169.374 259.85 170.048 259.85C170.586 259.85 171.071 259.794 171.504 259.683C171.937 259.565 172.33 259.429 172.683 259.274V260.647C172.342 260.821 171.962 260.954 171.542 261.046C171.127 261.139 170.632 261.186 170.057 261.186ZM178.379 259.924C178.632 259.924 178.892 259.902 179.158 259.859C179.424 259.816 179.641 259.763 179.808 259.701V260.898C179.628 260.978 179.378 261.046 179.056 261.102C178.741 261.158 178.431 261.186 178.128 261.186C177.59 261.186 177.102 261.093 176.663 260.907C176.223 260.715 175.871 260.394 175.605 259.942C175.345 259.491 175.215 258.866 175.215 258.068V252.038H173.768V251.287L175.225 250.684L175.837 248.476H176.765V250.832H179.743V252.038H176.765V258.022C176.765 258.659 176.91 259.135 177.201 259.451C177.498 259.766 177.89 259.924 178.379 259.924ZM191.33 252.038H188.797V261H187.257V252.038H185.458V251.296L187.257 250.786V250.108C187.257 249.255 187.384 248.562 187.638 248.03C187.891 247.492 188.259 247.096 188.742 246.843C189.224 246.589 189.812 246.462 190.504 246.462C190.894 246.462 191.25 246.496 191.571 246.564C191.899 246.632 192.187 246.71 192.434 246.796L192.035 248.012C191.825 247.944 191.587 247.882 191.321 247.826C191.061 247.764 190.795 247.733 190.523 247.733C189.935 247.733 189.499 247.925 189.215 248.309C188.937 248.686 188.797 249.28 188.797 250.09V250.832H191.33V252.038ZM201.971 255.897C201.971 256.732 201.863 257.478 201.646 258.133C201.43 258.789 201.118 259.342 200.709 259.794C200.301 260.245 199.806 260.592 199.225 260.833C198.65 261.068 197.997 261.186 197.268 261.186C196.587 261.186 195.963 261.068 195.394 260.833C194.831 260.592 194.342 260.245 193.928 259.794C193.52 259.342 193.201 258.789 192.972 258.133C192.75 257.478 192.638 256.732 192.638 255.897C192.638 254.784 192.827 253.838 193.204 253.059C193.581 252.273 194.119 251.676 194.818 251.268C195.523 250.854 196.361 250.646 197.333 250.646C198.26 250.646 199.07 250.854 199.763 251.268C200.462 251.682 201.003 252.282 201.387 253.068C201.776 253.847 201.971 254.79 201.971 255.897ZM194.234 255.897C194.234 256.714 194.342 257.422 194.559 258.022C194.775 258.622 195.109 259.086 195.561 259.414C196.012 259.741 196.593 259.905 197.305 259.905C198.01 259.905 198.588 259.741 199.04 259.414C199.497 259.086 199.834 258.622 200.051 258.022C200.267 257.422 200.375 256.714 200.375 255.897C200.375 255.087 200.267 254.388 200.051 253.801C199.834 253.207 199.5 252.749 199.049 252.428C198.597 252.106 198.013 251.945 197.295 251.945C196.238 251.945 195.462 252.295 194.967 252.994C194.478 253.693 194.234 254.66 194.234 255.897ZM209.254 250.646C209.458 250.646 209.671 250.659 209.894 250.684C210.117 250.702 210.315 250.73 210.488 250.767L210.293 252.196C210.126 252.153 209.94 252.118 209.736 252.094C209.532 252.069 209.34 252.057 209.161 252.057C208.753 252.057 208.366 252.14 208.001 252.307C207.643 252.468 207.327 252.703 207.055 253.012C206.783 253.315 206.57 253.683 206.415 254.116C206.26 254.543 206.183 255.019 206.183 255.545V261H204.634V250.832H205.914L206.081 252.706H206.146C206.356 252.329 206.61 251.986 206.907 251.676C207.204 251.361 207.547 251.11 207.937 250.925C208.332 250.739 208.771 250.646 209.254 250.646ZM223.448 250.646C224.568 250.646 225.412 250.94 225.981 251.528C226.55 252.109 226.834 253.046 226.834 254.339V261H225.313V254.413C225.313 253.59 225.134 252.975 224.775 252.567C224.422 252.153 223.897 251.945 223.198 251.945C222.214 251.945 221.5 252.23 221.055 252.799C220.609 253.368 220.387 254.206 220.387 255.313V261H218.856V254.413C218.856 253.863 218.776 253.405 218.615 253.04C218.46 252.675 218.225 252.403 217.91 252.224C217.6 252.038 217.208 251.945 216.731 251.945C216.057 251.945 215.516 252.084 215.108 252.363C214.7 252.641 214.403 253.056 214.217 253.606C214.038 254.15 213.948 254.821 213.948 255.619V261H212.408V250.832H213.651L213.883 252.27H213.967C214.171 251.917 214.428 251.621 214.737 251.379C215.046 251.138 215.392 250.956 215.776 250.832C216.159 250.708 216.568 250.646 217 250.646C217.774 250.646 218.42 250.792 218.939 251.083C219.465 251.367 219.846 251.803 220.081 252.391H220.164C220.498 251.803 220.956 251.367 221.537 251.083C222.118 250.792 222.756 250.646 223.448 250.646ZM238.737 250.665C239.95 250.665 240.849 250.937 241.437 251.481C242.025 252.026 242.318 252.895 242.318 254.088V261H241.196L240.899 259.497H240.825C240.54 259.868 240.243 260.181 239.934 260.434C239.625 260.681 239.266 260.87 238.858 261C238.456 261.124 237.961 261.186 237.374 261.186C236.755 261.186 236.205 261.077 235.722 260.861C235.246 260.644 234.869 260.317 234.59 259.877C234.318 259.438 234.182 258.882 234.182 258.208C234.182 257.193 234.584 256.414 235.388 255.87C236.192 255.325 237.417 255.028 239.062 254.979L240.815 254.905V254.283C240.815 253.405 240.627 252.79 240.25 252.437C239.872 252.084 239.34 251.908 238.654 251.908C238.122 251.908 237.615 251.986 237.132 252.14C236.65 252.295 236.192 252.477 235.759 252.688L235.286 251.519C235.744 251.284 236.27 251.083 236.863 250.916C237.457 250.749 238.082 250.665 238.737 250.665ZM240.797 255.99L239.248 256.055C237.98 256.105 237.086 256.312 236.566 256.677C236.047 257.042 235.787 257.558 235.787 258.226C235.787 258.807 235.963 259.237 236.316 259.516C236.668 259.794 237.135 259.933 237.717 259.933C238.62 259.933 239.359 259.683 239.934 259.182C240.509 258.681 240.797 257.929 240.797 256.927V255.99ZM250.306 250.646C251.512 250.646 252.424 250.943 253.043 251.537C253.661 252.125 253.971 253.071 253.971 254.376V261H252.449V254.478C252.449 253.631 252.254 252.997 251.865 252.576C251.481 252.156 250.891 251.945 250.093 251.945C248.967 251.945 248.175 252.264 247.718 252.901C247.26 253.538 247.031 254.463 247.031 255.675V261H245.491V250.832H246.734L246.966 252.298H247.05C247.266 251.939 247.542 251.639 247.875 251.398C248.209 251.151 248.584 250.965 248.998 250.841C249.412 250.711 249.848 250.646 250.306 250.646ZM260.762 261.186C259.475 261.186 258.455 260.746 257.7 259.868C256.952 258.99 256.578 257.685 256.578 255.953C256.578 254.203 256.961 252.882 257.728 251.992C258.495 251.095 259.515 250.646 260.79 250.646C261.328 250.646 261.798 250.718 262.2 250.86C262.602 251.002 262.948 251.194 263.239 251.435C263.529 251.67 263.774 251.939 263.972 252.242H264.083C264.058 252.05 264.034 251.788 264.009 251.454C263.984 251.12 263.972 250.847 263.972 250.637V246.564H265.512V261H264.269L264.037 259.553H263.972C263.78 259.856 263.536 260.131 263.239 260.378C262.948 260.626 262.599 260.824 262.19 260.972C261.788 261.114 261.312 261.186 260.762 261.186ZM261.003 259.905C262.091 259.905 262.861 259.596 263.313 258.978C263.764 258.359 263.99 257.441 263.99 256.222V255.944C263.99 254.651 263.774 253.659 263.341 252.966C262.914 252.273 262.135 251.927 261.003 251.927C260.057 251.927 259.348 252.292 258.878 253.021C258.408 253.745 258.173 254.735 258.173 255.99C258.173 257.24 258.405 258.204 258.869 258.885C259.339 259.565 260.05 259.905 261.003 259.905ZM275.253 250.832V261H273.713V250.832H275.253ZM274.501 247.028C274.755 247.028 274.972 247.112 275.151 247.279C275.336 247.44 275.429 247.693 275.429 248.04C275.429 248.38 275.336 248.633 275.151 248.8C274.972 248.967 274.755 249.051 274.501 249.051C274.236 249.051 274.013 248.967 273.833 248.8C273.66 248.633 273.574 248.38 273.574 248.04C273.574 247.693 273.66 247.44 273.833 247.279C274.013 247.112 274.236 247.028 274.501 247.028ZM289.559 250.646C290.678 250.646 291.522 250.94 292.091 251.528C292.66 252.109 292.945 253.046 292.945 254.339V261H291.423V254.413C291.423 253.59 291.244 252.975 290.885 252.567C290.533 252.153 290.007 251.945 289.308 251.945C288.325 251.945 287.61 252.23 287.165 252.799C286.72 253.368 286.497 254.206 286.497 255.313V261H284.966V254.413C284.966 253.863 284.886 253.405 284.725 253.04C284.57 252.675 284.335 252.403 284.02 252.224C283.711 252.038 283.318 251.945 282.842 251.945C282.168 251.945 281.626 252.084 281.218 252.363C280.81 252.641 280.513 253.056 280.328 253.606C280.148 254.15 280.059 254.821 280.059 255.619V261H278.519V250.832H279.762L279.994 252.27H280.077C280.281 251.917 280.538 251.621 280.847 251.379C281.156 251.138 281.503 250.956 281.886 250.832C282.27 250.708 282.678 250.646 283.111 250.646C283.884 250.646 284.53 250.792 285.05 251.083C285.576 251.367 285.956 251.803 286.191 252.391H286.274C286.608 251.803 287.066 251.367 287.647 251.083C288.229 250.792 288.866 250.646 289.559 250.646ZM300.886 250.646C302.154 250.646 303.165 251.083 303.92 251.955C304.674 252.827 305.052 254.138 305.052 255.888C305.052 257.045 304.879 258.016 304.532 258.801C304.186 259.587 303.697 260.181 303.066 260.583C302.442 260.985 301.703 261.186 300.849 261.186C300.311 261.186 299.838 261.114 299.43 260.972C299.021 260.83 298.672 260.638 298.381 260.397C298.091 260.156 297.849 259.893 297.658 259.608H297.546C297.565 259.85 297.587 260.14 297.611 260.48C297.642 260.821 297.658 261.118 297.658 261.371V265.546H296.108V250.832H297.379L297.583 252.335H297.658C297.856 252.026 298.097 251.744 298.381 251.491C298.666 251.231 299.012 251.027 299.42 250.878C299.835 250.724 300.323 250.646 300.886 250.646ZM300.617 251.945C299.912 251.945 299.343 252.081 298.91 252.354C298.483 252.626 298.171 253.034 297.973 253.578C297.775 254.116 297.67 254.793 297.658 255.61V255.907C297.658 256.766 297.75 257.493 297.936 258.087C298.128 258.681 298.44 259.132 298.873 259.441C299.312 259.751 299.9 259.905 300.636 259.905C301.267 259.905 301.792 259.735 302.213 259.395C302.633 259.055 302.946 258.582 303.15 257.976C303.36 257.363 303.465 256.661 303.465 255.87C303.465 254.67 303.23 253.717 302.76 253.012C302.296 252.301 301.582 251.945 300.617 251.945ZM312.362 250.646C312.566 250.646 312.78 250.659 313.002 250.684C313.225 250.702 313.423 250.73 313.596 250.767L313.401 252.196C313.234 252.153 313.049 252.118 312.845 252.094C312.641 252.069 312.449 252.057 312.27 252.057C311.861 252.057 311.475 252.14 311.11 252.307C310.751 252.468 310.436 252.703 310.164 253.012C309.891 253.315 309.678 253.683 309.523 254.116C309.369 254.543 309.292 255.019 309.292 255.545V261H307.742V250.832H309.022L309.189 252.706H309.254C309.465 252.329 309.718 251.986 310.015 251.676C310.312 251.361 310.655 251.11 311.045 250.925C311.441 250.739 311.88 250.646 312.362 250.646ZM317.057 250.832V261H315.517V250.832H317.057ZM316.305 247.028C316.559 247.028 316.775 247.112 316.955 247.279C317.14 247.44 317.233 247.693 317.233 248.04C317.233 248.38 317.14 248.633 316.955 248.8C316.775 248.967 316.559 249.051 316.305 249.051C316.039 249.051 315.817 248.967 315.637 248.8C315.464 248.633 315.377 248.38 315.377 248.04C315.377 247.693 315.464 247.44 315.637 247.279C315.817 247.112 316.039 247.028 316.305 247.028ZM325.137 250.646C326.343 250.646 327.256 250.943 327.874 251.537C328.493 252.125 328.802 253.071 328.802 254.376V261H327.28V254.478C327.28 253.631 327.085 252.997 326.696 252.576C326.312 252.156 325.722 251.945 324.924 251.945C323.798 251.945 323.007 252.264 322.549 252.901C322.091 253.538 321.862 254.463 321.862 255.675V261H320.322V250.832H321.565L321.797 252.298H321.881C322.097 251.939 322.373 251.639 322.707 251.398C323.041 251.151 323.415 250.965 323.829 250.841C324.243 250.711 324.68 250.646 325.137 250.646ZM335.259 259.924C335.512 259.924 335.772 259.902 336.038 259.859C336.304 259.816 336.521 259.763 336.688 259.701V260.898C336.508 260.978 336.258 261.046 335.936 261.102C335.621 261.158 335.311 261.186 335.008 261.186C334.47 261.186 333.982 261.093 333.542 260.907C333.103 260.715 332.751 260.394 332.485 259.942C332.225 259.491 332.095 258.866 332.095 258.068V252.038H330.648V251.287L332.104 250.684L332.717 248.476H333.645V250.832H336.623V252.038H333.645V258.022C333.645 258.659 333.79 259.135 334.081 259.451C334.377 259.766 334.77 259.924 335.259 259.924ZM348.46 250.646C349.728 250.646 350.74 251.083 351.494 251.955C352.249 252.827 352.626 254.138 352.626 255.888C352.626 257.045 352.453 258.016 352.106 258.801C351.76 259.587 351.271 260.181 350.641 260.583C350.016 260.985 349.277 261.186 348.423 261.186C347.885 261.186 347.412 261.114 347.004 260.972C346.596 260.83 346.246 260.638 345.956 260.397C345.665 260.156 345.424 259.893 345.232 259.608H345.121C345.139 259.85 345.161 260.14 345.186 260.48C345.216 260.821 345.232 261.118 345.232 261.371V265.546H343.683V250.832H344.954L345.158 252.335H345.232C345.43 252.026 345.671 251.744 345.956 251.491C346.24 251.231 346.586 251.027 346.995 250.878C347.409 250.724 347.898 250.646 348.46 250.646ZM348.191 251.945C347.486 251.945 346.917 252.081 346.484 252.354C346.058 252.626 345.745 253.034 345.547 253.578C345.349 254.116 345.244 254.793 345.232 255.61V255.907C345.232 256.766 345.325 257.493 345.51 258.087C345.702 258.681 346.014 259.132 346.447 259.441C346.886 259.751 347.474 259.905 348.21 259.905C348.841 259.905 349.367 259.735 349.787 259.395C350.208 259.055 350.52 258.582 350.724 257.976C350.934 257.363 351.04 256.661 351.04 255.87C351.04 254.67 350.805 253.717 350.334 253.012C349.871 252.301 349.156 251.945 348.191 251.945ZM359.12 250.665C360.332 250.665 361.232 250.937 361.82 251.481C362.407 252.026 362.701 252.895 362.701 254.088V261H361.579L361.282 259.497H361.208C360.923 259.868 360.626 260.181 360.317 260.434C360.008 260.681 359.649 260.87 359.241 261C358.839 261.124 358.344 261.186 357.756 261.186C357.138 261.186 356.587 261.077 356.105 260.861C355.629 260.644 355.251 260.317 354.973 259.877C354.701 259.438 354.565 258.882 354.565 258.208C354.565 257.193 354.967 256.414 355.771 255.87C356.575 255.325 357.8 255.028 359.445 254.979L361.198 254.905V254.283C361.198 253.405 361.01 252.79 360.632 252.437C360.255 252.084 359.723 251.908 359.037 251.908C358.505 251.908 357.998 251.986 357.515 252.14C357.033 252.295 356.575 252.477 356.142 252.688L355.669 251.519C356.127 251.284 356.652 251.083 357.246 250.916C357.84 250.749 358.465 250.665 359.12 250.665ZM361.18 255.99L359.63 256.055C358.362 256.105 357.469 256.312 356.949 256.677C356.43 257.042 356.17 257.558 356.17 258.226C356.17 258.807 356.346 259.237 356.699 259.516C357.051 259.794 357.518 259.933 358.1 259.933C359.003 259.933 359.742 259.683 360.317 259.182C360.892 258.681 361.18 257.929 361.18 256.927V255.99ZM368.713 265.564C367.377 265.564 366.347 265.314 365.624 264.813C364.9 264.318 364.538 263.622 364.538 262.726C364.538 262.089 364.739 261.544 365.141 261.093C365.549 260.641 366.112 260.341 366.83 260.193C366.564 260.069 366.335 259.884 366.143 259.636C365.958 259.389 365.865 259.104 365.865 258.783C365.865 258.412 365.967 258.087 366.171 257.809C366.381 257.524 366.7 257.252 367.126 256.992C366.595 256.776 366.162 256.411 365.828 255.897C365.5 255.378 365.336 254.775 365.336 254.088C365.336 253.359 365.487 252.737 365.791 252.224C366.094 251.704 366.533 251.308 367.108 251.036C367.683 250.764 368.379 250.628 369.195 250.628C369.375 250.628 369.554 250.637 369.733 250.656C369.919 250.668 370.095 250.69 370.262 250.721C370.429 250.745 370.575 250.776 370.698 250.813H374.187V251.806L372.312 252.038C372.498 252.279 372.653 252.57 372.776 252.91C372.9 253.25 372.962 253.628 372.962 254.042C372.962 255.056 372.619 255.863 371.932 256.463C371.246 257.057 370.302 257.354 369.103 257.354C368.818 257.354 368.527 257.329 368.23 257.28C367.927 257.447 367.695 257.632 367.535 257.836C367.38 258.041 367.303 258.276 367.303 258.542C367.303 258.739 367.361 258.897 367.479 259.015C367.603 259.132 367.779 259.219 368.008 259.274C368.237 259.324 368.512 259.349 368.833 259.349H370.624C371.731 259.349 372.578 259.581 373.166 260.044C373.76 260.508 374.057 261.186 374.057 262.076C374.057 263.202 373.599 264.065 372.684 264.665C371.768 265.264 370.445 265.564 368.713 265.564ZM368.759 264.358C369.6 264.358 370.296 264.272 370.847 264.099C371.403 263.932 371.818 263.687 372.09 263.366C372.368 263.05 372.507 262.673 372.507 262.234C372.507 261.826 372.415 261.516 372.229 261.306C372.043 261.102 371.771 260.966 371.413 260.898C371.054 260.824 370.615 260.787 370.095 260.787H368.333C367.875 260.787 367.476 260.858 367.136 261C366.796 261.142 366.533 261.353 366.347 261.631C366.168 261.909 366.078 262.256 366.078 262.67C366.078 263.22 366.31 263.638 366.774 263.922C367.238 264.213 367.9 264.358 368.759 264.358ZM369.158 256.231C369.894 256.231 370.448 256.046 370.819 255.675C371.19 255.304 371.375 254.763 371.375 254.051C371.375 253.291 371.187 252.722 370.81 252.344C370.432 251.961 369.876 251.769 369.14 251.769C368.435 251.769 367.89 251.967 367.507 252.363C367.13 252.752 366.941 253.325 366.941 254.079C366.941 254.772 367.133 255.304 367.516 255.675C367.9 256.046 368.447 256.231 369.158 256.231ZM380.105 250.646C380.971 250.646 381.714 250.838 382.332 251.222C382.951 251.605 383.424 252.143 383.751 252.836C384.079 253.522 384.243 254.326 384.243 255.248V256.204H377.22C377.239 257.397 377.536 258.306 378.111 258.931C378.686 259.556 379.496 259.868 380.542 259.868C381.185 259.868 381.754 259.809 382.249 259.692C382.743 259.574 383.257 259.401 383.789 259.172V260.527C383.275 260.756 382.765 260.923 382.258 261.028C381.757 261.133 381.163 261.186 380.477 261.186C379.499 261.186 378.646 260.988 377.916 260.592C377.192 260.19 376.63 259.602 376.228 258.829C375.826 258.056 375.625 257.11 375.625 255.99C375.625 254.896 375.807 253.949 376.172 253.151C376.543 252.347 377.062 251.729 377.73 251.296C378.405 250.863 379.196 250.646 380.105 250.646ZM380.087 251.908C379.264 251.908 378.609 252.177 378.12 252.715C377.632 253.253 377.341 254.005 377.248 254.97H382.629C382.623 254.364 382.527 253.832 382.341 253.374C382.162 252.91 381.887 252.551 381.516 252.298C381.145 252.038 380.668 251.908 380.087 251.908ZM389.8 246.555H391.09V265.602H389.8V246.555Z" fill="black"/>
<g clip-path="url(#clip1_92_394)">
<path d="M450 298.1V299.79C450.001 300.418 449.878 301.04 449.638 301.62C449.398 302.2 449.045 302.727 448.6 303.17L436.17 315.6C435.727 316.045 435.2 316.398 434.62 316.639C434.04 316.879 433.418 317.002 432.79 317H431.1L450 298.1Z" fill="#D1D1D1"/>
<path d="M450 304.41V306.1C450 306.728 449.877 307.35 449.637 307.93C449.396 308.51 449.044 309.037 448.6 309.48L442.48 315.6C442.036 316.044 441.509 316.397 440.929 316.637C440.349 316.877 439.727 317.001 439.1 317H437.41L450 304.41Z" fill="#D1D1D1"/>
<path d="M450 310.53V312.22C450 312.848 449.877 313.47 449.637 314.05C449.396 314.63 449.044 315.156 448.6 315.6C448.156 316.044 447.629 316.397 447.049 316.637C446.469 316.877 445.847 317.001 445.22 317H443.53L450 310.53Z" fill="#D1D1D1"/>
</g>
<path d="M32.96 378.088C32.96 380.321 32.3229 382.031 31.0488 383.219C29.7809 384.406 27.9471 385 25.5474 385H21.7065V371.437H25.9648C28.179 371.437 29.8984 372.021 31.123 373.19C32.3477 374.359 32.96 375.992 32.96 378.088ZM29.9727 378.163C29.9727 375.25 28.6862 373.793 26.1133 373.793H24.5825V382.625H25.8164C28.5872 382.625 29.9727 381.138 29.9727 378.163ZM39.8438 376.446C39.2438 376.446 38.7738 376.638 38.4336 377.021C38.0934 377.399 37.8986 377.937 37.8491 378.636H41.8198C41.8075 377.937 41.625 377.399 41.2725 377.021C40.9199 376.638 40.4437 376.446 39.8438 376.446ZM40.2427 385.186C38.5728 385.186 37.2677 384.725 36.3276 383.803C35.3875 382.882 34.9175 381.577 34.9175 379.888C34.9175 378.15 35.3504 376.808 36.2163 375.862C37.0884 374.909 38.2913 374.433 39.8252 374.433C41.291 374.433 42.4321 374.851 43.2485 375.686C44.0649 376.521 44.4731 377.674 44.4731 379.146V380.519H37.7842C37.8151 381.323 38.0532 381.951 38.4985 382.402C38.9438 382.854 39.5685 383.08 40.3726 383.08C40.9972 383.08 41.5879 383.015 42.1445 382.885C42.7012 382.755 43.2826 382.548 43.8887 382.263V384.453C43.3939 384.7 42.8651 384.882 42.3022 385C41.7394 385.124 41.0529 385.186 40.2427 385.186ZM54.0103 381.92C54.0103 382.984 53.6392 383.794 52.897 384.351C52.161 384.907 51.057 385.186 49.585 385.186C48.8304 385.186 48.1872 385.133 47.6553 385.028C47.1234 384.929 46.6255 384.78 46.1616 384.583V382.245C46.6873 382.492 47.278 382.699 47.9336 382.866C48.5954 383.033 49.1768 383.117 49.6777 383.117C50.7044 383.117 51.2178 382.82 51.2178 382.226C51.2178 382.003 51.1497 381.824 51.0137 381.688C50.8776 381.546 50.6426 381.388 50.3086 381.215C49.9746 381.035 49.5293 380.828 48.9727 380.593C48.1748 380.259 47.5872 379.95 47.21 379.666C46.8389 379.381 46.5667 379.056 46.3936 378.691C46.2266 378.32 46.1431 377.866 46.1431 377.328C46.1431 376.406 46.4987 375.695 47.21 375.194C47.9274 374.687 48.9417 374.433 50.2529 374.433C51.5023 374.433 52.7176 374.705 53.8989 375.25L53.0454 377.291C52.5259 377.068 52.0404 376.885 51.5889 376.743C51.1374 376.601 50.6766 376.53 50.2065 376.53C49.3716 376.53 48.9541 376.756 48.9541 377.207C48.9541 377.461 49.0871 377.68 49.353 377.866C49.6252 378.051 50.2158 378.326 51.125 378.691C51.9352 379.019 52.529 379.325 52.9062 379.61C53.2835 379.894 53.5618 380.222 53.7412 380.593C53.9206 380.964 54.0103 381.407 54.0103 381.92ZM60.4302 385.186C57.2017 385.186 55.5874 383.414 55.5874 379.87C55.5874 378.107 56.0265 376.762 56.9048 375.834C57.783 374.9 59.0417 374.433 60.6807 374.433C61.8805 374.433 62.9567 374.668 63.9092 375.138L63.0742 377.328C62.6289 377.148 62.2145 377.003 61.8311 376.892C61.4476 376.774 61.0641 376.715 60.6807 376.715C59.2087 376.715 58.4727 377.761 58.4727 379.851C58.4727 381.88 59.2087 382.894 60.6807 382.894C61.2249 382.894 61.729 382.823 62.1929 382.681C62.6567 382.532 63.1206 382.303 63.5845 381.994V384.416C63.1268 384.706 62.6629 384.907 62.1929 385.019C61.729 385.13 61.1414 385.186 60.4302 385.186ZM71.7856 374.433C72.1691 374.433 72.4876 374.461 72.7412 374.517L72.5278 377.17C72.299 377.108 72.0207 377.077 71.6929 377.077C70.7899 377.077 70.0848 377.309 69.5776 377.773C69.0767 378.237 68.8262 378.886 68.8262 379.721V385H65.9966V374.628H68.1396L68.5571 376.372H68.6963C69.0179 375.791 69.4508 375.324 69.9951 374.971C70.5456 374.612 71.1424 374.433 71.7856 374.433ZM74.5039 371.947C74.5039 371.025 75.0173 370.564 76.0439 370.564C77.0706 370.564 77.584 371.025 77.584 371.947C77.584 372.386 77.4541 372.729 77.1943 372.977C76.9408 373.218 76.5573 373.338 76.0439 373.338C75.0173 373.338 74.5039 372.875 74.5039 371.947ZM77.4541 385H74.6245V374.628H77.4541V385ZM86.1284 385.186C84.91 385.186 83.9544 384.743 83.2617 383.859H83.1133C83.2122 384.725 83.2617 385.226 83.2617 385.362V389.564H80.4321V374.628H82.7329L83.1318 375.973H83.2617C83.9235 374.946 84.9038 374.433 86.2026 374.433C87.4272 374.433 88.3859 374.906 89.0786 375.853C89.7713 376.799 90.1177 378.113 90.1177 379.795C90.1177 380.903 89.9538 381.864 89.626 382.681C89.3044 383.497 88.8436 384.119 88.2437 384.545C87.6437 384.972 86.9386 385.186 86.1284 385.186ZM85.2935 376.697C84.5946 376.697 84.0843 376.913 83.7627 377.346C83.4411 377.773 83.2741 378.481 83.2617 379.471V379.777C83.2617 380.89 83.4256 381.688 83.7534 382.17C84.0874 382.653 84.6131 382.894 85.3306 382.894C86.5985 382.894 87.2324 381.849 87.2324 379.758C87.2324 378.738 87.0747 377.974 86.7593 377.467C86.45 376.953 85.9614 376.697 85.2935 376.697ZM96.8252 382.931C97.32 382.931 97.9137 382.823 98.6064 382.606V384.712C97.9014 385.028 97.0355 385.186 96.0088 385.186C94.877 385.186 94.0513 384.901 93.5317 384.332C93.0184 383.757 92.7617 382.897 92.7617 381.753V376.752H91.4072V375.556L92.9658 374.609L93.7822 372.42H95.5913V374.628H98.4951V376.752H95.5913V381.753C95.5913 382.155 95.7026 382.452 95.9253 382.644C96.1541 382.835 96.4541 382.931 96.8252 382.931ZM100.592 371.947C100.592 371.025 101.105 370.564 102.132 370.564C103.159 370.564 103.672 371.025 103.672 371.947C103.672 372.386 103.542 372.729 103.282 372.977C103.029 373.218 102.645 373.338 102.132 373.338C101.105 373.338 100.592 372.875 100.592 371.947ZM103.542 385H100.712V374.628H103.542V385ZM108.774 379.795C108.774 380.822 108.941 381.598 109.275 382.124C109.616 382.65 110.166 382.913 110.927 382.913C111.681 382.913 112.222 382.653 112.55 382.133C112.884 381.608 113.051 380.828 113.051 379.795C113.051 378.769 112.884 377.999 112.55 377.485C112.216 376.972 111.669 376.715 110.908 376.715C110.154 376.715 109.609 376.972 109.275 377.485C108.941 377.993 108.774 378.763 108.774 379.795ZM115.946 379.795C115.946 381.484 115.5 382.804 114.61 383.757C113.719 384.709 112.479 385.186 110.89 385.186C109.894 385.186 109.016 384.969 108.255 384.536C107.494 384.097 106.91 383.469 106.501 382.653C106.093 381.836 105.889 380.884 105.889 379.795C105.889 378.101 106.331 376.783 107.216 375.843C108.1 374.903 109.343 374.433 110.945 374.433C111.941 374.433 112.819 374.65 113.58 375.083C114.341 375.515 114.925 376.137 115.333 376.947C115.742 377.757 115.946 378.707 115.946 379.795ZM127.858 385H125.028V378.942C125.028 378.194 124.895 377.634 124.629 377.263C124.363 376.885 123.94 376.697 123.358 376.697C122.567 376.697 121.995 376.963 121.642 377.495C121.29 378.02 121.113 378.896 121.113 380.12V385H118.284V374.628H120.445L120.826 375.955H120.983C121.299 375.454 121.732 375.076 122.282 374.823C122.839 374.563 123.47 374.433 124.175 374.433C125.381 374.433 126.296 374.761 126.921 375.417C127.546 376.066 127.858 377.006 127.858 378.237V385Z" fill="#42526E"/>
<path d="M444 397.5C446.808 397.5 448.884 397.501 450.527 397.635C452.163 397.768 453.325 398.032 454.312 398.535C456.1 399.446 457.554 400.9 458.464 402.688C458.967 403.675 459.231 404.836 459.365 406.473C459.499 408.115 459.5 410.191 459.5 413V484C459.5 486.809 459.499 488.885 459.365 490.527C459.231 492.164 458.967 493.325 458.464 494.312C457.554 496.1 456.1 497.554 454.312 498.465C453.325 498.968 452.163 499.232 450.527 499.365C448.884 499.499 446.808 499.5 444 499.5H35.9995C33.191 499.5 31.1146 499.499 29.4722 499.365C27.8359 499.232 26.6742 498.968 25.687 498.465C23.8995 497.554 22.4455 496.1 21.5347 494.312C21.0318 493.325 20.768 492.164 20.6343 490.527C20.5001 488.885 20.4995 486.809 20.4995 484V397.5H444Z" fill="white"/>
<path d="M444 397.5C446.808 397.5 448.884 397.501 450.527 397.635C452.163 397.768 453.325 398.032 454.312 398.535C456.1 399.446 457.554 400.9 458.464 402.688C458.967 403.675 459.231 404.836 459.365 406.473C459.499 408.115 459.5 410.191 459.5 413V484C459.5 486.809 459.499 488.885 459.365 490.527C459.231 492.164 458.967 493.325 458.464 494.312C457.554 496.1 456.1 497.554 454.312 498.465C453.325 498.968 452.163 499.232 450.527 499.365C448.884 499.499 446.808 499.5 444 499.5H35.9995C33.191 499.5 31.1146 499.499 29.4722 499.365C27.8359 499.232 26.6742 498.968 25.687 498.465C23.8995 497.554 22.4455 496.1 21.5347 494.312C21.0318 493.325 20.768 492.164 20.6343 490.527C20.5001 488.885 20.4995 486.809 20.4995 484V397.5H444Z" stroke="#D1D1D1"/>
<path d="M43.6533 421.633C42.9049 421.633 42.2308 421.763 41.6309 422.023C41.0371 422.277 40.5299 422.648 40.1094 423.136C39.695 423.619 39.3765 424.203 39.1538 424.89C38.9312 425.576 38.8198 426.349 38.8198 427.209C38.8198 428.347 38.9961 429.337 39.3486 430.178C39.7074 431.013 40.2393 431.659 40.9443 432.117C41.6556 432.574 42.5431 432.803 43.6069 432.803C44.2131 432.803 44.7821 432.754 45.314 432.655C45.8521 432.55 46.3747 432.42 46.8818 432.265V433.638C46.387 433.824 45.8675 433.96 45.3232 434.046C44.779 434.139 44.1326 434.186 43.3843 434.186C42.005 434.186 40.8516 433.901 39.9238 433.332C39.0023 432.757 38.3096 431.947 37.8457 430.901C37.388 429.856 37.1592 428.622 37.1592 427.2C37.1592 426.173 37.3014 425.236 37.5859 424.389C37.8766 423.535 38.2972 422.799 38.8477 422.181C39.4043 421.562 40.0846 421.086 40.8887 420.752C41.6989 420.412 42.6266 420.242 43.6719 420.242C44.3584 420.242 45.0202 420.31 45.6572 420.446C46.2943 420.582 46.8695 420.777 47.3828 421.03L46.752 422.366C46.319 422.168 45.8428 421.998 45.3232 421.856C44.8099 421.708 44.2533 421.633 43.6533 421.633ZM54.2109 423.646C54.415 423.646 54.6284 423.659 54.8511 423.684C55.0737 423.702 55.2716 423.73 55.4448 423.767L55.25 425.196C55.083 425.153 54.8975 425.118 54.6934 425.094C54.4893 425.069 54.2975 425.057 54.1182 425.057C53.71 425.057 53.3234 425.14 52.9585 425.307C52.5998 425.468 52.2843 425.703 52.0122 426.012C51.7401 426.315 51.5267 426.683 51.3721 427.116C51.2174 427.543 51.1401 428.019 51.1401 428.545V434H49.5908V423.832H50.8711L51.0381 425.706H51.103C51.3133 425.329 51.5669 424.986 51.8638 424.676C52.1606 424.361 52.5039 424.11 52.8936 423.925C53.2894 423.739 53.7285 423.646 54.2109 423.646ZM61.2803 423.646C62.1462 423.646 62.8883 423.838 63.5068 424.222C64.1253 424.605 64.5985 425.143 64.9263 425.836C65.2541 426.522 65.418 427.326 65.418 428.248V429.204H58.395C58.4136 430.397 58.7104 431.306 59.2856 431.931C59.8608 432.556 60.6711 432.868 61.7163 432.868C62.3595 432.868 62.9285 432.809 63.4233 432.692C63.9181 432.574 64.4315 432.401 64.9634 432.172V433.527C64.45 433.756 63.9398 433.923 63.4326 434.028C62.9316 434.133 62.3379 434.186 61.6514 434.186C60.6742 434.186 59.8206 433.988 59.0908 433.592C58.3672 433.19 57.8044 432.602 57.4023 431.829C57.0003 431.056 56.7993 430.11 56.7993 428.99C56.7993 427.896 56.9818 426.949 57.3467 426.151C57.7178 425.347 58.2373 424.729 58.9053 424.296C59.5794 423.863 60.3711 423.646 61.2803 423.646ZM61.2617 424.908C60.4391 424.908 59.7835 425.177 59.2949 425.715C58.8063 426.253 58.5156 427.005 58.4229 427.97H63.8037C63.7975 427.364 63.7017 426.832 63.5161 426.374C63.3368 425.91 63.0615 425.551 62.6904 425.298C62.3193 425.038 61.8431 424.908 61.2617 424.908ZM71.8379 423.665C73.0501 423.665 73.95 423.937 74.5376 424.481C75.1252 425.026 75.4189 425.895 75.4189 427.088V434H74.2964L73.9995 432.497H73.9253C73.6408 432.868 73.3439 433.181 73.0347 433.434C72.7254 433.681 72.3667 433.87 71.9585 434C71.5565 434.124 71.0617 434.186 70.4741 434.186C69.8556 434.186 69.3052 434.077 68.8228 433.861C68.3465 433.644 67.9692 433.317 67.6909 432.877C67.4188 432.438 67.2827 431.882 67.2827 431.208C67.2827 430.193 67.6847 429.414 68.4888 428.87C69.2928 428.325 70.5174 428.028 72.1626 427.979L73.916 427.905V427.283C73.916 426.405 73.7274 425.79 73.3501 425.437C72.9728 425.084 72.4409 424.908 71.7544 424.908C71.2225 424.908 70.7153 424.986 70.2329 425.14C69.7505 425.295 69.2928 425.477 68.8599 425.688L68.3867 424.519C68.8444 424.284 69.3701 424.083 69.9639 423.916C70.5576 423.749 71.1823 423.665 71.8379 423.665ZM73.8975 428.99L72.3481 429.055C71.0802 429.105 70.1865 429.312 69.667 429.677C69.1475 430.042 68.8877 430.558 68.8877 431.226C68.8877 431.807 69.064 432.237 69.4165 432.516C69.769 432.794 70.236 432.933 70.8174 432.933C71.7204 432.933 72.4595 432.683 73.0347 432.182C73.6099 431.681 73.8975 430.929 73.8975 429.927V428.99ZM81.876 432.924C82.1296 432.924 82.3893 432.902 82.6553 432.859C82.9212 432.816 83.1377 432.763 83.3047 432.701V433.898C83.1253 433.978 82.8748 434.046 82.5532 434.102C82.2378 434.158 81.9285 434.186 81.6255 434.186C81.0874 434.186 80.5988 434.093 80.1597 433.907C79.7205 433.715 79.368 433.394 79.1021 432.942C78.8423 432.491 78.7124 431.866 78.7124 431.068V425.038H77.2651V424.287L78.7217 423.684L79.334 421.476H80.2617V423.832H83.2397V425.038H80.2617V431.022C80.2617 431.659 80.4071 432.135 80.6978 432.451C80.9946 432.766 81.3874 432.924 81.876 432.924ZM89.2793 423.646C90.1452 423.646 90.8874 423.838 91.5059 424.222C92.1243 424.605 92.5975 425.143 92.9253 425.836C93.2531 426.522 93.417 427.326 93.417 428.248V429.204H86.394C86.4126 430.397 86.7095 431.306 87.2847 431.931C87.8599 432.556 88.6701 432.868 89.7153 432.868C90.3586 432.868 90.9276 432.809 91.4224 432.692C91.9172 432.574 92.4305 432.401 92.9624 432.172V433.527C92.4491 433.756 91.9388 433.923 91.4316 434.028C90.9307 434.133 90.3369 434.186 89.6504 434.186C88.6732 434.186 87.8197 433.988 87.0898 433.592C86.3662 433.19 85.8034 432.602 85.4014 431.829C84.9993 431.056 84.7983 430.11 84.7983 428.99C84.7983 427.896 84.9808 426.949 85.3457 426.151C85.7168 425.347 86.2363 424.729 86.9043 424.296C87.5785 423.863 88.3701 423.646 89.2793 423.646ZM89.2607 424.908C88.4382 424.908 87.7826 425.177 87.2939 425.715C86.8053 426.253 86.5146 427.005 86.4219 427.97H91.8027C91.7965 427.364 91.7007 426.832 91.5151 426.374C91.3358 425.91 91.0605 425.551 90.6895 425.298C90.3184 425.038 89.8421 424.908 89.2607 424.908ZM104.772 423.665C105.985 423.665 106.885 423.937 107.472 424.481C108.06 425.026 108.354 425.895 108.354 427.088V434H107.231L106.934 432.497H106.86C106.575 432.868 106.278 433.181 105.969 433.434C105.66 433.681 105.301 433.87 104.893 434C104.491 434.124 103.996 434.186 103.409 434.186C102.79 434.186 102.24 434.077 101.757 433.861C101.281 433.644 100.904 433.317 100.625 432.877C100.353 432.438 100.217 431.882 100.217 431.208C100.217 430.193 100.619 429.414 101.423 428.87C102.227 428.325 103.452 428.028 105.097 427.979L106.851 427.905V427.283C106.851 426.405 106.662 425.79 106.285 425.437C105.907 425.084 105.375 424.908 104.689 424.908C104.157 424.908 103.65 424.986 103.167 425.14C102.685 425.295 102.227 425.477 101.794 425.688L101.321 424.519C101.779 424.284 102.305 424.083 102.898 423.916C103.492 423.749 104.117 423.665 104.772 423.665ZM106.832 428.99L105.283 429.055C104.015 429.105 103.121 429.312 102.602 429.677C102.082 430.042 101.822 430.558 101.822 431.226C101.822 431.807 101.999 432.237 102.351 432.516C102.704 432.794 103.171 432.933 103.752 432.933C104.655 432.933 105.394 432.683 105.969 432.182C106.544 431.681 106.832 430.929 106.832 429.927V428.99ZM120.535 434.186C119.619 434.186 118.812 433.997 118.113 433.62C117.414 433.242 116.87 432.667 116.48 431.894C116.091 431.121 115.896 430.147 115.896 428.972C115.896 427.741 116.1 426.736 116.508 425.957C116.923 425.171 117.492 424.59 118.215 424.212C118.939 423.835 119.762 423.646 120.683 423.646C121.19 423.646 121.679 423.699 122.149 423.804C122.625 423.903 123.015 424.03 123.318 424.185L122.854 425.474C122.545 425.35 122.186 425.239 121.778 425.14C121.376 425.041 120.999 424.992 120.646 424.992C119.941 424.992 119.353 425.143 118.883 425.446C118.419 425.749 118.07 426.195 117.835 426.782C117.606 427.37 117.492 428.093 117.492 428.953C117.492 429.776 117.603 430.478 117.826 431.059C118.055 431.64 118.392 432.086 118.837 432.395C119.288 432.698 119.851 432.85 120.525 432.85C121.063 432.85 121.549 432.794 121.982 432.683C122.415 432.565 122.808 432.429 123.16 432.274V433.647C122.82 433.821 122.44 433.954 122.019 434.046C121.605 434.139 121.11 434.186 120.535 434.186ZM134.339 428.897C134.339 429.732 134.231 430.478 134.015 431.133C133.798 431.789 133.486 432.342 133.078 432.794C132.669 433.245 132.175 433.592 131.593 433.833C131.018 434.068 130.366 434.186 129.636 434.186C128.955 434.186 128.331 434.068 127.762 433.833C127.199 433.592 126.71 433.245 126.296 432.794C125.888 432.342 125.569 431.789 125.34 431.133C125.118 430.478 125.006 429.732 125.006 428.897C125.006 427.784 125.195 426.838 125.572 426.059C125.95 425.273 126.488 424.676 127.187 424.268C127.892 423.854 128.73 423.646 129.701 423.646C130.628 423.646 131.439 423.854 132.131 424.268C132.83 424.682 133.371 425.282 133.755 426.068C134.145 426.847 134.339 427.79 134.339 428.897ZM126.602 428.897C126.602 429.714 126.71 430.422 126.927 431.022C127.143 431.622 127.477 432.086 127.929 432.414C128.38 432.741 128.962 432.905 129.673 432.905C130.378 432.905 130.956 432.741 131.408 432.414C131.865 432.086 132.202 431.622 132.419 431.022C132.635 430.422 132.744 429.714 132.744 428.897C132.744 428.087 132.635 427.388 132.419 426.801C132.202 426.207 131.868 425.749 131.417 425.428C130.965 425.106 130.381 424.945 129.664 424.945C128.606 424.945 127.83 425.295 127.335 425.994C126.846 426.693 126.602 427.66 126.602 428.897ZM141.817 423.646C143.023 423.646 143.935 423.943 144.554 424.537C145.172 425.125 145.481 426.071 145.481 427.376V434H143.96V427.478C143.96 426.631 143.765 425.997 143.375 425.576C142.992 425.156 142.401 424.945 141.604 424.945C140.478 424.945 139.686 425.264 139.229 425.901C138.771 426.538 138.542 427.463 138.542 428.675V434H137.002V423.832H138.245L138.477 425.298H138.561C138.777 424.939 139.052 424.639 139.386 424.398C139.72 424.151 140.094 423.965 140.509 423.841C140.923 423.711 141.359 423.646 141.817 423.646ZM151.938 432.924C152.192 432.924 152.452 432.902 152.718 432.859C152.984 432.816 153.2 432.763 153.367 432.701V433.898C153.188 433.978 152.937 434.046 152.616 434.102C152.3 434.158 151.991 434.186 151.688 434.186C151.15 434.186 150.661 434.093 150.222 433.907C149.783 433.715 149.431 433.394 149.165 432.942C148.905 432.491 148.775 431.866 148.775 431.068V425.038H147.328V424.287L148.784 423.684L149.396 421.476H150.324V423.832H153.302V425.038H150.324V431.022C150.324 431.659 150.47 432.135 150.76 432.451C151.057 432.766 151.45 432.924 151.938 432.924ZM159.23 423.665C160.443 423.665 161.343 423.937 161.93 424.481C162.518 425.026 162.812 425.895 162.812 427.088V434H161.689L161.392 432.497H161.318C161.033 432.868 160.736 433.181 160.427 433.434C160.118 433.681 159.759 433.87 159.351 434C158.949 434.124 158.454 434.186 157.867 434.186C157.248 434.186 156.698 434.077 156.215 433.861C155.739 433.644 155.362 433.317 155.083 432.877C154.811 432.438 154.675 431.882 154.675 431.208C154.675 430.193 155.077 429.414 155.881 428.87C156.685 428.325 157.91 428.028 159.555 427.979L161.309 427.905V427.283C161.309 426.405 161.12 425.79 160.743 425.437C160.365 425.084 159.833 424.908 159.147 424.908C158.615 424.908 158.108 424.986 157.625 425.14C157.143 425.295 156.685 425.477 156.252 425.688L155.779 424.519C156.237 424.284 156.763 424.083 157.356 423.916C157.95 423.749 158.575 423.665 159.23 423.665ZM161.29 428.99L159.741 429.055C158.473 429.105 157.579 429.312 157.06 429.677C156.54 430.042 156.28 430.558 156.28 431.226C156.28 431.807 156.457 432.237 156.809 432.516C157.162 432.794 157.629 432.933 158.21 432.933C159.113 432.933 159.852 432.683 160.427 432.182C161.002 431.681 161.29 430.929 161.29 429.927V428.99ZM170.057 434.186C169.142 434.186 168.335 433.997 167.636 433.62C166.937 433.242 166.393 432.667 166.003 431.894C165.613 431.121 165.418 430.147 165.418 428.972C165.418 427.741 165.623 426.736 166.031 425.957C166.445 425.171 167.014 424.59 167.738 424.212C168.461 423.835 169.284 423.646 170.206 423.646C170.713 423.646 171.201 423.699 171.671 423.804C172.148 423.903 172.537 424.03 172.84 424.185L172.376 425.474C172.067 425.35 171.708 425.239 171.3 425.14C170.898 425.041 170.521 424.992 170.168 424.992C169.463 424.992 168.876 425.143 168.406 425.446C167.942 425.749 167.592 426.195 167.357 426.782C167.129 427.37 167.014 428.093 167.014 428.953C167.014 429.776 167.125 430.478 167.348 431.059C167.577 431.64 167.914 432.086 168.359 432.395C168.811 432.698 169.374 432.85 170.048 432.85C170.586 432.85 171.071 432.794 171.504 432.683C171.937 432.565 172.33 432.429 172.683 432.274V433.647C172.342 433.821 171.962 433.954 171.542 434.046C171.127 434.139 170.632 434.186 170.057 434.186ZM178.379 432.924C178.632 432.924 178.892 432.902 179.158 432.859C179.424 432.816 179.641 432.763 179.808 432.701V433.898C179.628 433.978 179.378 434.046 179.056 434.102C178.741 434.158 178.431 434.186 178.128 434.186C177.59 434.186 177.102 434.093 176.663 433.907C176.223 433.715 175.871 433.394 175.605 432.942C175.345 432.491 175.215 431.866 175.215 431.068V425.038H173.768V424.287L175.225 423.684L175.837 421.476H176.765V423.832H179.743V425.038H176.765V431.022C176.765 431.659 176.91 432.135 177.201 432.451C177.498 432.766 177.89 432.924 178.379 432.924ZM191.33 425.038H188.797V434H187.257V425.038H185.458V424.296L187.257 423.786V423.108C187.257 422.255 187.384 421.562 187.638 421.03C187.891 420.492 188.259 420.096 188.742 419.843C189.224 419.589 189.812 419.462 190.504 419.462C190.894 419.462 191.25 419.496 191.571 419.564C191.899 419.632 192.187 419.71 192.434 419.796L192.035 421.012C191.825 420.944 191.587 420.882 191.321 420.826C191.061 420.764 190.795 420.733 190.523 420.733C189.935 420.733 189.499 420.925 189.215 421.309C188.937 421.686 188.797 422.28 188.797 423.09V423.832H191.33V425.038ZM201.971 428.897C201.971 429.732 201.863 430.478 201.646 431.133C201.43 431.789 201.118 432.342 200.709 432.794C200.301 433.245 199.806 433.592 199.225 433.833C198.65 434.068 197.997 434.186 197.268 434.186C196.587 434.186 195.963 434.068 195.394 433.833C194.831 433.592 194.342 433.245 193.928 432.794C193.52 432.342 193.201 431.789 192.972 431.133C192.75 430.478 192.638 429.732 192.638 428.897C192.638 427.784 192.827 426.838 193.204 426.059C193.581 425.273 194.119 424.676 194.818 424.268C195.523 423.854 196.361 423.646 197.333 423.646C198.26 423.646 199.07 423.854 199.763 424.268C200.462 424.682 201.003 425.282 201.387 426.068C201.776 426.847 201.971 427.79 201.971 428.897ZM194.234 428.897C194.234 429.714 194.342 430.422 194.559 431.022C194.775 431.622 195.109 432.086 195.561 432.414C196.012 432.741 196.593 432.905 197.305 432.905C198.01 432.905 198.588 432.741 199.04 432.414C199.497 432.086 199.834 431.622 200.051 431.022C200.267 430.422 200.375 429.714 200.375 428.897C200.375 428.087 200.267 427.388 200.051 426.801C199.834 426.207 199.5 425.749 199.049 425.428C198.597 425.106 198.013 424.945 197.295 424.945C196.238 424.945 195.462 425.295 194.967 425.994C194.478 426.693 194.234 427.66 194.234 428.897ZM209.254 423.646C209.458 423.646 209.671 423.659 209.894 423.684C210.117 423.702 210.315 423.73 210.488 423.767L210.293 425.196C210.126 425.153 209.94 425.118 209.736 425.094C209.532 425.069 209.34 425.057 209.161 425.057C208.753 425.057 208.366 425.14 208.001 425.307C207.643 425.468 207.327 425.703 207.055 426.012C206.783 426.315 206.57 426.683 206.415 427.116C206.26 427.543 206.183 428.019 206.183 428.545V434H204.634V423.832H205.914L206.081 425.706H206.146C206.356 425.329 206.61 424.986 206.907 424.676C207.204 424.361 207.547 424.11 207.937 423.925C208.332 423.739 208.771 423.646 209.254 423.646ZM223.448 423.646C224.568 423.646 225.412 423.94 225.981 424.528C226.55 425.109 226.834 426.046 226.834 427.339V434H225.313V427.413C225.313 426.59 225.134 425.975 224.775 425.567C224.422 425.153 223.897 424.945 223.198 424.945C222.214 424.945 221.5 425.23 221.055 425.799C220.609 426.368 220.387 427.206 220.387 428.313V434H218.856V427.413C218.856 426.863 218.776 426.405 218.615 426.04C218.46 425.675 218.225 425.403 217.91 425.224C217.6 425.038 217.208 424.945 216.731 424.945C216.057 424.945 215.516 425.084 215.108 425.363C214.7 425.641 214.403 426.056 214.217 426.606C214.038 427.15 213.948 427.821 213.948 428.619V434H212.408V423.832H213.651L213.883 425.27H213.967C214.171 424.917 214.428 424.621 214.737 424.379C215.046 424.138 215.392 423.956 215.776 423.832C216.159 423.708 216.568 423.646 217 423.646C217.774 423.646 218.42 423.792 218.939 424.083C219.465 424.367 219.846 424.803 220.081 425.391H220.164C220.498 424.803 220.956 424.367 221.537 424.083C222.118 423.792 222.756 423.646 223.448 423.646ZM238.737 423.665C239.95 423.665 240.849 423.937 241.437 424.481C242.025 425.026 242.318 425.895 242.318 427.088V434H241.196L240.899 432.497H240.825C240.54 432.868 240.243 433.181 239.934 433.434C239.625 433.681 239.266 433.87 238.858 434C238.456 434.124 237.961 434.186 237.374 434.186C236.755 434.186 236.205 434.077 235.722 433.861C235.246 433.644 234.869 433.317 234.59 432.877C234.318 432.438 234.182 431.882 234.182 431.208C234.182 430.193 234.584 429.414 235.388 428.87C236.192 428.325 237.417 428.028 239.062 427.979L240.815 427.905V427.283C240.815 426.405 240.627 425.79 240.25 425.437C239.872 425.084 239.34 424.908 238.654 424.908C238.122 424.908 237.615 424.986 237.132 425.14C236.65 425.295 236.192 425.477 235.759 425.688L235.286 424.519C235.744 424.284 236.27 424.083 236.863 423.916C237.457 423.749 238.082 423.665 238.737 423.665ZM240.797 428.99L239.248 429.055C237.98 429.105 237.086 429.312 236.566 429.677C236.047 430.042 235.787 430.558 235.787 431.226C235.787 431.807 235.963 432.237 236.316 432.516C236.668 432.794 237.135 432.933 237.717 432.933C238.62 432.933 239.359 432.683 239.934 432.182C240.509 431.681 240.797 430.929 240.797 429.927V428.99ZM250.306 423.646C251.512 423.646 252.424 423.943 253.043 424.537C253.661 425.125 253.971 426.071 253.971 427.376V434H252.449V427.478C252.449 426.631 252.254 425.997 251.865 425.576C251.481 425.156 250.891 424.945 250.093 424.945C248.967 424.945 248.175 425.264 247.718 425.901C247.26 426.538 247.031 427.463 247.031 428.675V434H245.491V423.832H246.734L246.966 425.298H247.05C247.266 424.939 247.542 424.639 247.875 424.398C248.209 424.151 248.584 423.965 248.998 423.841C249.412 423.711 249.848 423.646 250.306 423.646ZM260.762 434.186C259.475 434.186 258.455 433.746 257.7 432.868C256.952 431.99 256.578 430.685 256.578 428.953C256.578 427.203 256.961 425.882 257.728 424.992C258.495 424.095 259.515 423.646 260.79 423.646C261.328 423.646 261.798 423.718 262.2 423.86C262.602 424.002 262.948 424.194 263.239 424.435C263.529 424.67 263.774 424.939 263.972 425.242H264.083C264.058 425.05 264.034 424.788 264.009 424.454C263.984 424.12 263.972 423.847 263.972 423.637V419.564H265.512V434H264.269L264.037 432.553H263.972C263.78 432.856 263.536 433.131 263.239 433.378C262.948 433.626 262.599 433.824 262.19 433.972C261.788 434.114 261.312 434.186 260.762 434.186ZM261.003 432.905C262.091 432.905 262.861 432.596 263.313 431.978C263.764 431.359 263.99 430.441 263.99 429.222V428.944C263.99 427.651 263.774 426.659 263.341 425.966C262.914 425.273 262.135 424.927 261.003 424.927C260.057 424.927 259.348 425.292 258.878 426.021C258.408 426.745 258.173 427.735 258.173 428.99C258.173 430.24 258.405 431.204 258.869 431.885C259.339 432.565 260.05 432.905 261.003 432.905ZM275.253 423.832V434H273.713V423.832H275.253ZM274.501 420.028C274.755 420.028 274.972 420.112 275.151 420.279C275.336 420.44 275.429 420.693 275.429 421.04C275.429 421.38 275.336 421.633 275.151 421.8C274.972 421.967 274.755 422.051 274.501 422.051C274.236 422.051 274.013 421.967 273.833 421.8C273.66 421.633 273.574 421.38 273.574 421.04C273.574 420.693 273.66 420.44 273.833 420.279C274.013 420.112 274.236 420.028 274.501 420.028ZM289.559 423.646C290.678 423.646 291.522 423.94 292.091 424.528C292.66 425.109 292.945 426.046 292.945 427.339V434H291.423V427.413C291.423 426.59 291.244 425.975 290.885 425.567C290.533 425.153 290.007 424.945 289.308 424.945C288.325 424.945 287.61 425.23 287.165 425.799C286.72 426.368 286.497 427.206 286.497 428.313V434H284.966V427.413C284.966 426.863 284.886 426.405 284.725 426.04C284.57 425.675 284.335 425.403 284.02 425.224C283.711 425.038 283.318 424.945 282.842 424.945C282.168 424.945 281.626 425.084 281.218 425.363C280.81 425.641 280.513 426.056 280.328 426.606C280.148 427.15 280.059 427.821 280.059 428.619V434H278.519V423.832H279.762L279.994 425.27H280.077C280.281 424.917 280.538 424.621 280.847 424.379C281.156 424.138 281.503 423.956 281.886 423.832C282.27 423.708 282.678 423.646 283.111 423.646C283.884 423.646 284.53 423.792 285.05 424.083C285.576 424.367 285.956 424.803 286.191 425.391H286.274C286.608 424.803 287.066 424.367 287.647 424.083C288.229 423.792 288.866 423.646 289.559 423.646ZM300.886 423.646C302.154 423.646 303.165 424.083 303.92 424.955C304.674 425.827 305.052 427.138 305.052 428.888C305.052 430.045 304.879 431.016 304.532 431.801C304.186 432.587 303.697 433.181 303.066 433.583C302.442 433.985 301.703 434.186 300.849 434.186C300.311 434.186 299.838 434.114 299.43 433.972C299.021 433.83 298.672 433.638 298.381 433.397C298.091 433.156 297.849 432.893 297.658 432.608H297.546C297.565 432.85 297.587 433.14 297.611 433.48C297.642 433.821 297.658 434.118 297.658 434.371V438.546H296.108V423.832H297.379L297.583 425.335H297.658C297.856 425.026 298.097 424.744 298.381 424.491C298.666 424.231 299.012 424.027 299.42 423.878C299.835 423.724 300.323 423.646 300.886 423.646ZM300.617 424.945C299.912 424.945 299.343 425.081 298.91 425.354C298.483 425.626 298.171 426.034 297.973 426.578C297.775 427.116 297.67 427.793 297.658 428.61V428.907C297.658 429.766 297.75 430.493 297.936 431.087C298.128 431.681 298.44 432.132 298.873 432.441C299.312 432.751 299.9 432.905 300.636 432.905C301.267 432.905 301.792 432.735 302.213 432.395C302.633 432.055 302.946 431.582 303.15 430.976C303.36 430.363 303.465 429.661 303.465 428.87C303.465 427.67 303.23 426.717 302.76 426.012C302.296 425.301 301.582 424.945 300.617 424.945ZM312.362 423.646C312.566 423.646 312.78 423.659 313.002 423.684C313.225 423.702 313.423 423.73 313.596 423.767L313.401 425.196C313.234 425.153 313.049 425.118 312.845 425.094C312.641 425.069 312.449 425.057 312.27 425.057C311.861 425.057 311.475 425.14 311.11 425.307C310.751 425.468 310.436 425.703 310.164 426.012C309.891 426.315 309.678 426.683 309.523 427.116C309.369 427.543 309.292 428.019 309.292 428.545V434H307.742V423.832H309.022L309.189 425.706H309.254C309.465 425.329 309.718 424.986 310.015 424.676C310.312 424.361 310.655 424.11 311.045 423.925C311.441 423.739 311.88 423.646 312.362 423.646ZM317.057 423.832V434H315.517V423.832H317.057ZM316.305 420.028C316.559 420.028 316.775 420.112 316.955 420.279C317.14 420.44 317.233 420.693 317.233 421.04C317.233 421.38 317.14 421.633 316.955 421.8C316.775 421.967 316.559 422.051 316.305 422.051C316.039 422.051 315.817 421.967 315.637 421.8C315.464 421.633 315.377 421.38 315.377 421.04C315.377 420.693 315.464 420.44 315.637 420.279C315.817 420.112 316.039 420.028 316.305 420.028ZM325.137 423.646C326.343 423.646 327.256 423.943 327.874 424.537C328.493 425.125 328.802 426.071 328.802 427.376V434H327.28V427.478C327.28 426.631 327.085 425.997 326.696 425.576C326.312 425.156 325.722 424.945 324.924 424.945C323.798 424.945 323.007 425.264 322.549 425.901C322.091 426.538 321.862 427.463 321.862 428.675V434H320.322V423.832H321.565L321.797 425.298H321.881C322.097 424.939 322.373 424.639 322.707 424.398C323.041 424.151 323.415 423.965 323.829 423.841C324.243 423.711 324.68 423.646 325.137 423.646ZM335.259 432.924C335.512 432.924 335.772 432.902 336.038 432.859C336.304 432.816 336.521 432.763 336.688 432.701V433.898C336.508 433.978 336.258 434.046 335.936 434.102C335.621 434.158 335.311 434.186 335.008 434.186C334.47 434.186 333.982 434.093 333.542 433.907C333.103 433.715 332.751 433.394 332.485 432.942C332.225 432.491 332.095 431.866 332.095 431.068V425.038H330.648V424.287L332.104 423.684L332.717 421.476H333.645V423.832H336.623V425.038H333.645V431.022C333.645 431.659 333.79 432.135 334.081 432.451C334.377 432.766 334.77 432.924 335.259 432.924ZM348.46 423.646C349.728 423.646 350.74 424.083 351.494 424.955C352.249 425.827 352.626 427.138 352.626 428.888C352.626 430.045 352.453 431.016 352.106 431.801C351.76 432.587 351.271 433.181 350.641 433.583C350.016 433.985 349.277 434.186 348.423 434.186C347.885 434.186 347.412 434.114 347.004 433.972C346.596 433.83 346.246 433.638 345.956 433.397C345.665 433.156 345.424 432.893 345.232 432.608H345.121C345.139 432.85 345.161 433.14 345.186 433.48C345.216 433.821 345.232 434.118 345.232 434.371V438.546H343.683V423.832H344.954L345.158 425.335H345.232C345.43 425.026 345.671 424.744 345.956 424.491C346.24 424.231 346.586 424.027 346.995 423.878C347.409 423.724 347.898 423.646 348.46 423.646ZM348.191 424.945C347.486 424.945 346.917 425.081 346.484 425.354C346.058 425.626 345.745 426.034 345.547 426.578C345.349 427.116 345.244 427.793 345.232 428.61V428.907C345.232 429.766 345.325 430.493 345.51 431.087C345.702 431.681 346.014 432.132 346.447 432.441C346.886 432.751 347.474 432.905 348.21 432.905C348.841 432.905 349.367 432.735 349.787 432.395C350.208 432.055 350.52 431.582 350.724 430.976C350.934 430.363 351.04 429.661 351.04 428.87C351.04 427.67 350.805 426.717 350.334 426.012C349.871 425.301 349.156 424.945 348.191 424.945ZM359.12 423.665C360.332 423.665 361.232 423.937 361.82 424.481C362.407 425.026 362.701 425.895 362.701 427.088V434H361.579L361.282 432.497H361.208C360.923 432.868 360.626 433.181 360.317 433.434C360.008 433.681 359.649 433.87 359.241 434C358.839 434.124 358.344 434.186 357.756 434.186C357.138 434.186 356.587 434.077 356.105 433.861C355.629 433.644 355.251 433.317 354.973 432.877C354.701 432.438 354.565 431.882 354.565 431.208C354.565 430.193 354.967 429.414 355.771 428.87C356.575 428.325 357.8 428.028 359.445 427.979L361.198 427.905V427.283C361.198 426.405 361.01 425.79 360.632 425.437C360.255 425.084 359.723 424.908 359.037 424.908C358.505 424.908 357.998 424.986 357.515 425.14C357.033 425.295 356.575 425.477 356.142 425.688L355.669 424.519C356.127 424.284 356.652 424.083 357.246 423.916C357.84 423.749 358.465 423.665 359.12 423.665ZM361.18 428.99L359.63 429.055C358.362 429.105 357.469 429.312 356.949 429.677C356.43 430.042 356.17 430.558 356.17 431.226C356.17 431.807 356.346 432.237 356.699 432.516C357.051 432.794 357.518 432.933 358.1 432.933C359.003 432.933 359.742 432.683 360.317 432.182C360.892 431.681 361.18 430.929 361.18 429.927V428.99ZM368.713 438.564C367.377 438.564 366.347 438.314 365.624 437.813C364.9 437.318 364.538 436.622 364.538 435.726C364.538 435.089 364.739 434.544 365.141 434.093C365.549 433.641 366.112 433.341 366.83 433.193C366.564 433.069 366.335 432.884 366.143 432.636C365.958 432.389 365.865 432.104 365.865 431.783C365.865 431.412 365.967 431.087 366.171 430.809C366.381 430.524 366.7 430.252 367.126 429.992C366.595 429.776 366.162 429.411 365.828 428.897C365.5 428.378 365.336 427.775 365.336 427.088C365.336 426.359 365.487 425.737 365.791 425.224C366.094 424.704 366.533 424.308 367.108 424.036C367.683 423.764 368.379 423.628 369.195 423.628C369.375 423.628 369.554 423.637 369.733 423.656C369.919 423.668 370.095 423.69 370.262 423.721C370.429 423.745 370.575 423.776 370.698 423.813H374.187V424.806L372.312 425.038C372.498 425.279 372.653 425.57 372.776 425.91C372.9 426.25 372.962 426.628 372.962 427.042C372.962 428.056 372.619 428.863 371.932 429.463C371.246 430.057 370.302 430.354 369.103 430.354C368.818 430.354 368.527 430.329 368.23 430.28C367.927 430.447 367.695 430.632 367.535 430.836C367.38 431.041 367.303 431.276 367.303 431.542C367.303 431.739 367.361 431.897 367.479 432.015C367.603 432.132 367.779 432.219 368.008 432.274C368.237 432.324 368.512 432.349 368.833 432.349H370.624C371.731 432.349 372.578 432.581 373.166 433.044C373.76 433.508 374.057 434.186 374.057 435.076C374.057 436.202 373.599 437.065 372.684 437.665C371.768 438.264 370.445 438.564 368.713 438.564ZM368.759 437.358C369.6 437.358 370.296 437.272 370.847 437.099C371.403 436.932 371.818 436.687 372.09 436.366C372.368 436.05 372.507 435.673 372.507 435.234C372.507 434.826 372.415 434.516 372.229 434.306C372.043 434.102 371.771 433.966 371.413 433.898C371.054 433.824 370.615 433.787 370.095 433.787H368.333C367.875 433.787 367.476 433.858 367.136 434C366.796 434.142 366.533 434.353 366.347 434.631C366.168 434.909 366.078 435.256 366.078 435.67C366.078 436.22 366.31 436.638 366.774 436.922C367.238 437.213 367.9 437.358 368.759 437.358ZM369.158 429.231C369.894 429.231 370.448 429.046 370.819 428.675C371.19 428.304 371.375 427.763 371.375 427.051C371.375 426.291 371.187 425.722 370.81 425.344C370.432 424.961 369.876 424.769 369.14 424.769C368.435 424.769 367.89 424.967 367.507 425.363C367.13 425.752 366.941 426.325 366.941 427.079C366.941 427.772 367.133 428.304 367.516 428.675C367.9 429.046 368.447 429.231 369.158 429.231ZM380.105 423.646C380.971 423.646 381.714 423.838 382.332 424.222C382.951 424.605 383.424 425.143 383.751 425.836C384.079 426.522 384.243 427.326 384.243 428.248V429.204H377.22C377.239 430.397 377.536 431.306 378.111 431.931C378.686 432.556 379.496 432.868 380.542 432.868C381.185 432.868 381.754 432.809 382.249 432.692C382.743 432.574 383.257 432.401 383.789 432.172V433.527C383.275 433.756 382.765 433.923 382.258 434.028C381.757 434.133 381.163 434.186 380.477 434.186C379.499 434.186 378.646 433.988 377.916 433.592C377.192 433.19 376.63 432.602 376.228 431.829C375.826 431.056 375.625 430.11 375.625 428.99C375.625 427.896 375.807 426.949 376.172 426.151C376.543 425.347 377.062 424.729 377.73 424.296C378.405 423.863 379.196 423.646 380.105 423.646ZM380.087 424.908C379.264 424.908 378.609 425.177 378.12 425.715C377.632 426.253 377.341 427.005 377.248 427.97H382.629C382.623 427.364 382.527 426.832 382.341 426.374C382.162 425.91 381.887 425.551 381.516 425.298C381.145 425.038 380.668 424.908 380.087 424.908ZM386.627 433.035C386.627 432.602 386.733 432.296 386.943 432.117C387.153 431.931 387.41 431.838 387.713 431.838C388.028 431.838 388.294 431.931 388.511 432.117C388.727 432.296 388.835 432.602 388.835 433.035C388.835 433.462 388.727 433.774 388.511 433.972C388.294 434.164 388.028 434.26 387.713 434.26C387.41 434.26 387.153 434.164 386.943 433.972C386.733 433.774 386.627 433.462 386.627 433.035Z" fill="black"/>
<g clip-path="url(#clip2_92_394)">
<path d="M450 471.1V472.79C450.001 473.418 449.878 474.04 449.638 474.62C449.398 475.2 449.045 475.727 448.6 476.17L436.17 488.6C435.727 489.045 435.2 489.398 434.62 489.639C434.04 489.879 433.418 490.002 432.79 490H431.1L450 471.1Z" fill="#D1D1D1"/>
<path d="M450 477.41V479.1C450 479.728 449.877 480.35 449.637 480.93C449.396 481.51 449.044 482.037 448.6 482.48L442.48 488.6C442.036 489.044 441.509 489.397 440.929 489.637C440.349 489.877 439.727 490.001 439.1 490H437.41L450 477.41Z" fill="#D1D1D1"/>
<path d="M450 483.53V485.22C450 485.848 449.877 486.47 449.637 487.05C449.396 487.63 449.044 488.156 448.6 488.6C448.156 489.044 447.629 489.397 447.049 489.637C446.469 489.877 445.847 490.001 445.22 490H443.53L450 483.53Z" fill="#D1D1D1"/>
</g>
<defs>
<clipPath id="clip0_92_394">
<rect width="18.9" height="18.9" fill="white" transform="translate(431.1 125.1)"/>
</clipPath>
<clipPath id="clip1_92_394">
<rect width="18.9" height="18.9" fill="white" transform="translate(431.1 298.1)"/>
</clipPath>
<clipPath id="clip2_92_394">
<rect width="18.9" height="18.9" fill="white" transform="translate(431.1 471.1)"/>
</clipPath>
</defs>
</svg>
