<svg width="480" height="512" viewBox="0 0 480 512" fill="none" xmlns="http://www.w3.org/2000/svg">
<rect x="0.499512" y="0.5" width="479" height="511" rx="4.5" stroke="#9747FF" stroke-dasharray="10 5"/>
<path d="M32.96 32.0884C32.96 33.616 32.6662 34.8932 32.0786 35.9199C31.4972 36.9404 30.653 37.7104 29.5459 38.23C28.4388 38.7433 27.106 39 25.5474 39H21.7065V25.4365H25.9648C27.3874 25.4365 28.6213 25.6901 29.6665 26.1973C30.7118 26.6982 31.522 27.4435 32.0972 28.4331C32.6724 29.4165 32.96 30.6349 32.96 32.0884ZM29.9727 32.1626C29.9727 31.1606 29.8242 30.3381 29.5273 29.6948C29.2367 29.0454 28.8037 28.5661 28.2285 28.2568C27.6595 27.9476 26.9544 27.793 26.1133 27.793H24.5825V36.625H25.8164C27.2204 36.625 28.2625 36.2508 28.9429 35.5024C29.6294 34.7541 29.9727 33.6408 29.9727 32.1626ZM45.0669 28.6279V39H42.896L42.5156 37.6733H42.3672C42.1445 38.0259 41.8662 38.3135 41.5322 38.5361C41.1982 38.7588 40.8302 38.9227 40.4282 39.0278C40.0262 39.133 39.6087 39.1855 39.1758 39.1855C38.4336 39.1855 37.7873 39.0557 37.2368 38.7959C36.6864 38.5299 36.2565 38.1187 35.9473 37.562C35.6442 37.0054 35.4927 36.2817 35.4927 35.3911V28.6279H38.3223V34.686C38.3223 35.4282 38.4552 35.988 38.7212 36.3652C38.9871 36.7425 39.4108 36.9312 39.9922 36.9312C40.5674 36.9312 41.0189 36.8013 41.3467 36.5415C41.6745 36.2756 41.9033 35.889 42.0332 35.3818C42.1693 34.8685 42.2373 34.2438 42.2373 33.5078V28.6279H45.0669ZM52.3125 28.4331C53.2712 28.4331 54.0968 28.6187 54.7896 28.9897C55.4823 29.3547 56.0173 29.8866 56.3945 30.5854C56.7718 31.2843 56.9604 32.1379 56.9604 33.146V34.519H50.2715C50.3024 35.3169 50.5405 35.9447 50.9858 36.4023C51.4373 36.8538 52.062 37.0796 52.8599 37.0796C53.5216 37.0796 54.1278 37.0116 54.6782 36.8755C55.2287 36.7394 55.7946 36.5353 56.376 36.2632V38.4526C55.8626 38.7062 55.3245 38.8918 54.7617 39.0093C54.2051 39.1268 53.5278 39.1855 52.73 39.1855C51.6909 39.1855 50.7694 38.9938 49.9653 38.6104C49.1675 38.2269 48.5397 37.6424 48.082 36.8569C47.6305 36.0715 47.4048 35.0819 47.4048 33.8882C47.4048 32.6759 47.6089 31.6678 48.0171 30.8638C48.4315 30.0535 49.0067 29.4474 49.7427 29.0454C50.4787 28.6372 51.3353 28.4331 52.3125 28.4331ZM52.3311 30.4463C51.7806 30.4463 51.3229 30.6226 50.958 30.9751C50.5993 31.3276 50.3921 31.8812 50.3364 32.6357H54.3071C54.3009 32.2152 54.2236 31.841 54.0752 31.5132C53.9329 31.1854 53.7165 30.9256 53.4258 30.7339C53.1413 30.5422 52.7764 30.4463 52.3311 30.4463ZM67.481 39.1855C66.3244 39.1855 65.3812 38.734 64.6514 37.8311C63.9277 36.9219 63.5659 35.589 63.5659 33.8325C63.5659 32.0575 63.9339 30.7153 64.6699 29.8062C65.4059 28.8908 66.3677 28.4331 67.5552 28.4331C68.05 28.4331 68.486 28.5011 68.8633 28.6372C69.2406 28.7733 69.5653 28.9557 69.8374 29.1846C70.1157 29.4134 70.3507 29.6701 70.5425 29.9546H70.6353C70.5981 29.7567 70.5518 29.466 70.4961 29.0825C70.4466 28.6929 70.4219 28.2939 70.4219 27.8857V24.5645H73.2607V39H71.0898L70.5425 37.6548H70.4219C70.2425 37.9393 70.0168 38.1991 69.7446 38.4341C69.4787 38.6629 69.1602 38.8454 68.7891 38.9814C68.418 39.1175 67.9819 39.1855 67.481 39.1855ZM68.4736 36.9312C69.2467 36.9312 69.791 36.7023 70.1064 36.2446C70.4281 35.7808 70.5981 35.085 70.6167 34.1572V33.8511C70.6167 32.8429 70.4621 32.0729 70.1528 31.541C69.8436 31.0029 69.2684 30.7339 68.4272 30.7339C67.8026 30.7339 67.314 31.0029 66.9614 31.541C66.6089 32.0791 66.4326 32.8553 66.4326 33.8696C66.4326 34.884 66.6089 35.6478 66.9614 36.1611C67.3201 36.6745 67.8242 36.9312 68.4736 36.9312ZM80.4692 28.4146C81.8608 28.4146 82.9277 28.7176 83.6699 29.3237C84.4121 29.9299 84.7832 30.8514 84.7832 32.0884V39H82.8071L82.2598 37.5898H82.1855C81.8887 37.9609 81.5856 38.264 81.2764 38.499C80.9671 38.734 80.6115 38.9072 80.2095 39.0186C79.8075 39.1299 79.3188 39.1855 78.7437 39.1855C78.1313 39.1855 77.5809 39.068 77.0923 38.833C76.6099 38.598 76.2295 38.2393 75.9512 37.7568C75.6729 37.2682 75.5337 36.6497 75.5337 35.9014C75.5337 34.8005 75.9202 33.9902 76.6934 33.4707C77.4665 32.945 78.6261 32.6543 80.1724 32.5986L81.9722 32.543V32.0884C81.9722 31.5441 81.8299 31.1452 81.5454 30.8916C81.2609 30.638 80.8651 30.5112 80.3579 30.5112C79.8569 30.5112 79.3652 30.5824 78.8828 30.7246C78.4004 30.8669 77.918 31.0462 77.4355 31.2627L76.4985 29.3516C77.049 29.0609 77.6644 28.832 78.3447 28.665C79.0312 28.498 79.7394 28.4146 80.4692 28.4146ZM81.9722 34.1943L80.8774 34.2314C79.9621 34.2562 79.325 34.4201 78.9663 34.7231C78.6138 35.0262 78.4375 35.4251 78.4375 35.9199C78.4375 36.3529 78.5643 36.6621 78.8179 36.8477C79.0715 37.027 79.4023 37.1167 79.8105 37.1167C80.4167 37.1167 80.9269 36.9373 81.3413 36.5786C81.7619 36.2199 81.9722 35.7096 81.9722 35.0479V34.1943ZM92.0752 36.9312C92.3844 36.9312 92.6844 36.9002 92.9751 36.8384C93.272 36.7765 93.5658 36.6992 93.8564 36.6064V38.7124C93.5534 38.8485 93.1761 38.9598 92.7246 39.0464C92.2793 39.1392 91.7907 39.1855 91.2588 39.1855C90.6403 39.1855 90.0837 39.0866 89.5889 38.8887C89.1003 38.6846 88.7137 38.3351 88.4292 37.8403C88.1509 37.3394 88.0117 36.6436 88.0117 35.7529V30.7524H86.6572V29.5557L88.2158 28.6094L89.0322 26.4199H90.8413V28.6279H93.7451V30.7524H90.8413V35.7529C90.8413 36.1488 90.9526 36.4456 91.1753 36.6436C91.4041 36.8353 91.7041 36.9312 92.0752 36.9312ZM100.239 28.4331C101.198 28.4331 102.024 28.6187 102.716 28.9897C103.409 29.3547 103.944 29.8866 104.321 30.5854C104.699 31.2843 104.887 32.1379 104.887 33.146V34.519H98.1982C98.2292 35.3169 98.4673 35.9447 98.9126 36.4023C99.3641 36.8538 99.9888 37.0796 100.787 37.0796C101.448 37.0796 102.055 37.0116 102.605 36.8755C103.155 36.7394 103.721 36.5353 104.303 36.2632V38.4526C103.789 38.7062 103.251 38.8918 102.688 39.0093C102.132 39.1268 101.455 39.1855 100.657 39.1855C99.6177 39.1855 98.6961 38.9938 97.8921 38.6104C97.0942 38.2269 96.4665 37.6424 96.0088 36.8569C95.5573 36.0715 95.3315 35.0819 95.3315 33.8882C95.3315 32.6759 95.5356 31.6678 95.9438 30.8638C96.3582 30.0535 96.9334 29.4474 97.6694 29.0454C98.4054 28.6372 99.262 28.4331 100.239 28.4331ZM100.258 30.4463C99.7074 30.4463 99.2497 30.6226 98.8848 30.9751C98.526 31.3276 98.3188 31.8812 98.2632 32.6357H102.234C102.228 32.2152 102.15 31.841 102.002 31.5132C101.86 31.1854 101.643 30.9256 101.353 30.7339C101.068 30.5422 100.703 30.4463 100.258 30.4463Z" fill="#42526E"/>
<mask id="path-3-inside-1_94_448" fill="white">
<path d="M19.9995 51H460V99H19.9995V51Z"/>
</mask>
<path d="M19.9995 51H460V99H19.9995V51Z" fill="white"/>
<path d="M460 98H19.9995V100H460V98Z" fill="#D1D1D1" mask="url(#path-3-inside-1_94_448)"/>
<path d="M41.2412 82.6855C39.9548 82.6855 38.9342 82.2464 38.1797 81.3682C37.4313 80.4899 37.0571 79.1849 37.0571 77.4531C37.0571 75.7028 37.4406 74.3823 38.2075 73.4917C38.9744 72.5949 39.995 72.1465 41.269 72.1465C41.8071 72.1465 42.2772 72.2176 42.6792 72.3599C43.0812 72.5021 43.4276 72.6938 43.7183 72.9351C44.009 73.1701 44.2533 73.4391 44.4512 73.7422H44.5625C44.5378 73.5505 44.513 73.2876 44.4883 72.9536C44.4635 72.6196 44.4512 72.3475 44.4512 72.1372V68.0645H45.9912V82.5H44.748L44.5161 81.0527H44.4512C44.2594 81.3558 44.0151 81.631 43.7183 81.8784C43.4276 82.1258 43.0781 82.3237 42.6699 82.4722C42.2679 82.6144 41.7917 82.6855 41.2412 82.6855ZM41.4824 81.4053C42.571 81.4053 43.341 81.096 43.7925 80.4775C44.244 79.859 44.4697 78.9406 44.4697 77.7222V77.4438C44.4697 76.1512 44.2533 75.1585 43.8203 74.4658C43.3936 73.7731 42.6143 73.4268 41.4824 73.4268C40.5361 73.4268 39.828 73.7917 39.3579 74.5215C38.8879 75.2451 38.6528 76.2347 38.6528 77.4902C38.6528 78.7396 38.8848 79.7044 39.3486 80.3848C39.8187 81.0651 40.5299 81.4053 41.4824 81.4053ZM52.875 82.6855C51.5885 82.6855 50.568 82.2464 49.8135 81.3682C49.0651 80.4899 48.6909 79.1849 48.6909 77.4531C48.6909 75.7028 49.0744 74.3823 49.8413 73.4917C50.6082 72.5949 51.6287 72.1465 52.9028 72.1465C53.4409 72.1465 53.911 72.2176 54.313 72.3599C54.715 72.5021 55.0614 72.6938 55.3521 72.9351C55.6427 73.1701 55.887 73.4391 56.085 73.7422H56.1963C56.1715 73.5505 56.1468 73.2876 56.1221 72.9536C56.0973 72.6196 56.085 72.3475 56.085 72.1372V68.0645H57.625V82.5H56.3818L56.1499 81.0527H56.085C55.8932 81.3558 55.6489 81.631 55.3521 81.8784C55.0614 82.1258 54.7119 82.3237 54.3037 82.4722C53.9017 82.6144 53.4255 82.6855 52.875 82.6855ZM53.1162 81.4053C54.2048 81.4053 54.9748 81.096 55.4263 80.4775C55.8778 79.859 56.1035 78.9406 56.1035 77.7222V77.4438C56.1035 76.1512 55.887 75.1585 55.4541 74.4658C55.0273 73.7731 54.248 73.4268 53.1162 73.4268C52.1699 73.4268 51.4618 73.7917 50.9917 74.5215C50.5216 75.2451 50.2866 76.2347 50.2866 77.4902C50.2866 78.7396 50.5186 79.7044 50.9824 80.3848C51.4525 81.0651 52.1637 81.4053 53.1162 81.4053ZM66.0303 68.9365L60.9834 82.5H59.4619L64.5181 68.9365H66.0303ZM78.9072 72.1465C80.0267 72.1465 80.8709 72.4403 81.4399 73.0278C82.009 73.6092 82.2935 74.5462 82.2935 75.8389V82.5H80.772V75.9131C80.772 75.0905 80.5926 74.4751 80.2339 74.0669C79.8813 73.6525 79.3556 73.4453 78.6567 73.4453C77.6733 73.4453 76.959 73.7298 76.5137 74.2988C76.0684 74.8678 75.8457 75.7059 75.8457 76.813V82.5H74.3149V75.9131C74.3149 75.3626 74.2345 74.9049 74.0737 74.54C73.9191 74.1751 73.6841 73.903 73.3687 73.7236C73.0594 73.5381 72.6667 73.4453 72.1904 73.4453C71.5163 73.4453 70.9751 73.5845 70.5669 73.8628C70.1587 74.1411 69.8618 74.5555 69.6763 75.106C69.4969 75.6502 69.4072 76.3213 69.4072 77.1191V82.5H67.8672V72.332H69.1104L69.3423 73.77H69.4258C69.6299 73.4175 69.8866 73.1206 70.1958 72.8794C70.505 72.6382 70.8514 72.4557 71.2349 72.332C71.6183 72.2083 72.0265 72.1465 72.4595 72.1465C73.2326 72.1465 73.8789 72.2918 74.3984 72.5825C74.9242 72.867 75.3045 73.3031 75.5396 73.8906H75.623C75.957 73.3031 76.4147 72.867 76.9961 72.5825C77.5775 72.2918 78.2145 72.1465 78.9072 72.1465ZM96.4971 72.1465C97.6165 72.1465 98.4608 72.4403 99.0298 73.0278C99.5988 73.6092 99.8833 74.5462 99.8833 75.8389V82.5H98.3618V75.9131C98.3618 75.0905 98.1825 74.4751 97.8237 74.0669C97.4712 73.6525 96.9455 73.4453 96.2466 73.4453C95.2632 73.4453 94.5488 73.7298 94.1035 74.2988C93.6582 74.8678 93.4355 75.7059 93.4355 76.813V82.5H91.9048V75.9131C91.9048 75.3626 91.8244 74.9049 91.6636 74.54C91.509 74.1751 91.2739 73.903 90.9585 73.7236C90.6493 73.5381 90.2565 73.4453 89.7803 73.4453C89.1061 73.4453 88.5649 73.5845 88.1567 73.8628C87.7485 74.1411 87.4517 74.5555 87.2661 75.106C87.0868 75.6502 86.9971 76.3213 86.9971 77.1191V82.5H85.457V72.332H86.7002L86.9321 73.77H87.0156C87.2197 73.4175 87.4764 73.1206 87.7856 72.8794C88.0949 72.6382 88.4412 72.4557 88.8247 72.332C89.2082 72.2083 89.6164 72.1465 90.0493 72.1465C90.8224 72.1465 91.4688 72.2918 91.9883 72.5825C92.514 72.867 92.8944 73.3031 93.1294 73.8906H93.2129C93.5469 73.3031 94.0046 72.867 94.5859 72.5825C95.1673 72.2918 95.8044 72.1465 96.4971 72.1465ZM108.187 68.9365L103.14 82.5H101.618L106.674 68.9365H108.187ZM108.418 72.332H110.07L112.315 78.2324C112.445 78.5788 112.565 78.9128 112.677 79.2344C112.788 79.5498 112.887 79.8529 112.974 80.1436C113.06 80.4342 113.128 80.7157 113.178 80.9878H113.243C113.329 80.6785 113.453 80.2734 113.614 79.7725C113.775 79.2653 113.948 78.7489 114.133 78.2231L116.258 72.332H117.918L113.493 83.9937C113.258 84.6183 112.983 85.1626 112.667 85.6265C112.358 86.0903 111.981 86.446 111.536 86.6934C111.09 86.9469 110.552 87.0737 109.921 87.0737C109.631 87.0737 109.374 87.0552 109.151 87.0181C108.929 86.9871 108.737 86.95 108.576 86.9067V85.6729C108.712 85.7038 108.876 85.7316 109.068 85.7563C109.266 85.7811 109.47 85.7935 109.68 85.7935C110.064 85.7935 110.395 85.7192 110.673 85.5708C110.957 85.4285 111.202 85.2183 111.406 84.9399C111.61 84.6616 111.786 84.3307 111.935 83.9473L112.491 82.5186L108.418 72.332ZM117.937 72.332H119.588L121.833 78.2324C121.963 78.5788 122.084 78.9128 122.195 79.2344C122.307 79.5498 122.406 79.8529 122.492 80.1436C122.579 80.4342 122.647 80.7157 122.696 80.9878H122.761C122.848 80.6785 122.972 80.2734 123.132 79.7725C123.293 79.2653 123.466 78.7489 123.652 78.2231L125.776 72.332H127.437L123.012 83.9937C122.777 84.6183 122.501 85.1626 122.186 85.6265C121.877 86.0903 121.5 86.446 121.054 86.6934C120.609 86.9469 120.071 87.0737 119.44 87.0737C119.149 87.0737 118.893 87.0552 118.67 87.0181C118.447 86.9871 118.256 86.95 118.095 86.9067V85.6729C118.231 85.7038 118.395 85.7316 118.586 85.7563C118.784 85.7811 118.988 85.7935 119.199 85.7935C119.582 85.7935 119.913 85.7192 120.191 85.5708C120.476 85.4285 120.72 85.2183 120.924 84.9399C121.128 84.6616 121.305 84.3307 121.453 83.9473L122.01 82.5186L117.937 72.332ZM127.456 72.332H129.107L131.352 78.2324C131.482 78.5788 131.603 78.9128 131.714 79.2344C131.825 79.5498 131.924 79.8529 132.011 80.1436C132.097 80.4342 132.165 80.7157 132.215 80.9878H132.28C132.366 80.6785 132.49 80.2734 132.651 79.7725C132.812 79.2653 132.985 78.7489 133.17 78.2231L135.295 72.332H136.956L132.53 83.9937C132.295 84.6183 132.02 85.1626 131.705 85.6265C131.395 86.0903 131.018 86.446 130.573 86.6934C130.127 86.9469 129.589 87.0737 128.958 87.0737C128.668 87.0737 128.411 87.0552 128.188 87.0181C127.966 86.9871 127.774 86.95 127.613 86.9067V85.6729C127.749 85.7038 127.913 85.7316 128.105 85.7563C128.303 85.7811 128.507 85.7935 128.717 85.7935C129.101 85.7935 129.432 85.7192 129.71 85.5708C129.994 85.4285 130.239 85.2183 130.443 84.9399C130.647 84.6616 130.823 84.3307 130.972 83.9473L131.528 82.5186L127.456 72.332ZM136.974 72.332H138.625L140.871 78.2324C141 78.5788 141.121 78.9128 141.232 79.2344C141.344 79.5498 141.443 79.8529 141.529 80.1436C141.616 80.4342 141.684 80.7157 141.733 80.9878H141.798C141.885 80.6785 142.009 80.2734 142.169 79.7725C142.33 79.2653 142.503 78.7489 142.689 78.2231L144.813 72.332H146.474L142.049 83.9937C141.814 84.6183 141.539 85.1626 141.223 85.6265C140.914 86.0903 140.537 86.446 140.091 86.6934C139.646 86.9469 139.108 87.0737 138.477 87.0737C138.186 87.0737 137.93 87.0552 137.707 87.0181C137.484 86.9871 137.293 86.95 137.132 86.9067V85.6729C137.268 85.7038 137.432 85.7316 137.624 85.7563C137.821 85.7811 138.026 85.7935 138.236 85.7935C138.619 85.7935 138.95 85.7192 139.229 85.5708C139.513 85.4285 139.757 85.2183 139.961 84.9399C140.166 84.6616 140.342 84.3307 140.49 83.9473L141.047 82.5186L136.974 72.332Z" fill="#D1D1D1"/>
<mask id="mask0_94_448" style="mask-type:alpha" maskUnits="userSpaceOnUse" x="419" y="63" width="25" height="24">
<rect x="420" y="63" width="24" height="24" fill="#D9D9D9"/>
</mask>
<g mask="url(#mask0_94_448)">
<path d="M434.5 81C433.8 81 433.208 80.7583 432.725 80.275C432.241 79.7917 432 79.2 432 78.5C432 77.8 432.241 77.2083 432.725 76.725C433.208 76.2417 433.8 76 434.5 76C435.2 76 435.791 76.2417 436.275 76.725C436.758 77.2083 437 77.8 437 78.5C437 79.2 436.758 79.7917 436.275 80.275C435.791 80.7583 435.2 81 434.5 81ZM425 85C424.45 85 423.979 84.8042 423.587 84.4125C423.195 84.0208 423 83.55 423 83V69C423 68.45 423.195 67.9792 423.587 67.5875C423.979 67.1958 424.45 67 425 67H426V66C426 65.7167 426.095 65.4792 426.287 65.2875C426.479 65.0958 426.716 65 427 65C427.283 65 427.52 65.0958 427.712 65.2875C427.904 65.4792 428 65.7167 428 66V67H436V66C436 65.7167 436.095 65.4792 436.287 65.2875C436.479 65.0958 436.716 65 437 65C437.283 65 437.52 65.0958 437.712 65.2875C437.904 65.4792 438 65.7167 438 66V67H439C439.55 67 440.02 67.1958 440.412 67.5875C440.804 67.9792 441 68.45 441 69V83C441 83.55 440.804 84.0208 440.412 84.4125C440.02 84.8042 439.55 85 439 85H425ZM425 83H439V73H425V83ZM425 71H439V69H425V71Z" fill="#4589FF"/>
</g>
<path d="M32.96 156.088C32.96 157.616 32.6662 158.893 32.0786 159.92C31.4972 160.94 30.653 161.71 29.5459 162.23C28.4388 162.743 27.106 163 25.5474 163H21.7065V149.437H25.9648C27.3874 149.437 28.6213 149.69 29.6665 150.197C30.7118 150.698 31.522 151.444 32.0972 152.433C32.6724 153.417 32.96 154.635 32.96 156.088ZM29.9727 156.163C29.9727 155.161 29.8242 154.338 29.5273 153.695C29.2367 153.045 28.8037 152.566 28.2285 152.257C27.6595 151.948 26.9544 151.793 26.1133 151.793H24.5825V160.625H25.8164C27.2204 160.625 28.2625 160.251 28.9429 159.502C29.6294 158.754 29.9727 157.641 29.9727 156.163ZM45.0669 152.628V163H42.896L42.5156 161.673H42.3672C42.1445 162.026 41.8662 162.313 41.5322 162.536C41.1982 162.759 40.8302 162.923 40.4282 163.028C40.0262 163.133 39.6087 163.186 39.1758 163.186C38.4336 163.186 37.7873 163.056 37.2368 162.796C36.6864 162.53 36.2565 162.119 35.9473 161.562C35.6442 161.005 35.4927 160.282 35.4927 159.391V152.628H38.3223V158.686C38.3223 159.428 38.4552 159.988 38.7212 160.365C38.9871 160.743 39.4108 160.931 39.9922 160.931C40.5674 160.931 41.0189 160.801 41.3467 160.542C41.6745 160.276 41.9033 159.889 42.0332 159.382C42.1693 158.868 42.2373 158.244 42.2373 157.508V152.628H45.0669ZM52.3125 152.433C53.2712 152.433 54.0968 152.619 54.7896 152.99C55.4823 153.355 56.0173 153.887 56.3945 154.585C56.7718 155.284 56.9604 156.138 56.9604 157.146V158.519H50.2715C50.3024 159.317 50.5405 159.945 50.9858 160.402C51.4373 160.854 52.062 161.08 52.8599 161.08C53.5216 161.08 54.1278 161.012 54.6782 160.875C55.2287 160.739 55.7946 160.535 56.376 160.263V162.453C55.8626 162.706 55.3245 162.892 54.7617 163.009C54.2051 163.127 53.5278 163.186 52.73 163.186C51.6909 163.186 50.7694 162.994 49.9653 162.61C49.1675 162.227 48.5397 161.642 48.082 160.857C47.6305 160.071 47.4048 159.082 47.4048 157.888C47.4048 156.676 47.6089 155.668 48.0171 154.864C48.4315 154.054 49.0067 153.447 49.7427 153.045C50.4787 152.637 51.3353 152.433 52.3125 152.433ZM52.3311 154.446C51.7806 154.446 51.3229 154.623 50.958 154.975C50.5993 155.328 50.3921 155.881 50.3364 156.636H54.3071C54.3009 156.215 54.2236 155.841 54.0752 155.513C53.9329 155.185 53.7165 154.926 53.4258 154.734C53.1413 154.542 52.7764 154.446 52.3311 154.446ZM67.481 163.186C66.3244 163.186 65.3812 162.734 64.6514 161.831C63.9277 160.922 63.5659 159.589 63.5659 157.833C63.5659 156.057 63.9339 154.715 64.6699 153.806C65.4059 152.891 66.3677 152.433 67.5552 152.433C68.05 152.433 68.486 152.501 68.8633 152.637C69.2406 152.773 69.5653 152.956 69.8374 153.185C70.1157 153.413 70.3507 153.67 70.5425 153.955H70.6353C70.5981 153.757 70.5518 153.466 70.4961 153.083C70.4466 152.693 70.4219 152.294 70.4219 151.886V148.564H73.2607V163H71.0898L70.5425 161.655H70.4219C70.2425 161.939 70.0168 162.199 69.7446 162.434C69.4787 162.663 69.1602 162.845 68.7891 162.981C68.418 163.118 67.9819 163.186 67.481 163.186ZM68.4736 160.931C69.2467 160.931 69.791 160.702 70.1064 160.245C70.4281 159.781 70.5981 159.085 70.6167 158.157V157.851C70.6167 156.843 70.4621 156.073 70.1528 155.541C69.8436 155.003 69.2684 154.734 68.4272 154.734C67.8026 154.734 67.314 155.003 66.9614 155.541C66.6089 156.079 66.4326 156.855 66.4326 157.87C66.4326 158.884 66.6089 159.648 66.9614 160.161C67.3201 160.674 67.8242 160.931 68.4736 160.931ZM80.4692 152.415C81.8608 152.415 82.9277 152.718 83.6699 153.324C84.4121 153.93 84.7832 154.851 84.7832 156.088V163H82.8071L82.2598 161.59H82.1855C81.8887 161.961 81.5856 162.264 81.2764 162.499C80.9671 162.734 80.6115 162.907 80.2095 163.019C79.8075 163.13 79.3188 163.186 78.7437 163.186C78.1313 163.186 77.5809 163.068 77.0923 162.833C76.6099 162.598 76.2295 162.239 75.9512 161.757C75.6729 161.268 75.5337 160.65 75.5337 159.901C75.5337 158.8 75.9202 157.99 76.6934 157.471C77.4665 156.945 78.6261 156.654 80.1724 156.599L81.9722 156.543V156.088C81.9722 155.544 81.8299 155.145 81.5454 154.892C81.2609 154.638 80.8651 154.511 80.3579 154.511C79.8569 154.511 79.3652 154.582 78.8828 154.725C78.4004 154.867 77.918 155.046 77.4355 155.263L76.4985 153.352C77.049 153.061 77.6644 152.832 78.3447 152.665C79.0312 152.498 79.7394 152.415 80.4692 152.415ZM81.9722 158.194L80.8774 158.231C79.9621 158.256 79.325 158.42 78.9663 158.723C78.6138 159.026 78.4375 159.425 78.4375 159.92C78.4375 160.353 78.5643 160.662 78.8179 160.848C79.0715 161.027 79.4023 161.117 79.8105 161.117C80.4167 161.117 80.9269 160.937 81.3413 160.579C81.7619 160.22 81.9722 159.71 81.9722 159.048V158.194ZM92.0752 160.931C92.3844 160.931 92.6844 160.9 92.9751 160.838C93.272 160.777 93.5658 160.699 93.8564 160.606V162.712C93.5534 162.848 93.1761 162.96 92.7246 163.046C92.2793 163.139 91.7907 163.186 91.2588 163.186C90.6403 163.186 90.0837 163.087 89.5889 162.889C89.1003 162.685 88.7137 162.335 88.4292 161.84C88.1509 161.339 88.0117 160.644 88.0117 159.753V154.752H86.6572V153.556L88.2158 152.609L89.0322 150.42H90.8413V152.628H93.7451V154.752H90.8413V159.753C90.8413 160.149 90.9526 160.446 91.1753 160.644C91.4041 160.835 91.7041 160.931 92.0752 160.931ZM100.239 152.433C101.198 152.433 102.024 152.619 102.716 152.99C103.409 153.355 103.944 153.887 104.321 154.585C104.699 155.284 104.887 156.138 104.887 157.146V158.519H98.1982C98.2292 159.317 98.4673 159.945 98.9126 160.402C99.3641 160.854 99.9888 161.08 100.787 161.08C101.448 161.08 102.055 161.012 102.605 160.875C103.155 160.739 103.721 160.535 104.303 160.263V162.453C103.789 162.706 103.251 162.892 102.688 163.009C102.132 163.127 101.455 163.186 100.657 163.186C99.6177 163.186 98.6961 162.994 97.8921 162.61C97.0942 162.227 96.4665 161.642 96.0088 160.857C95.5573 160.071 95.3315 159.082 95.3315 157.888C95.3315 156.676 95.5356 155.668 95.9438 154.864C96.3582 154.054 96.9334 153.447 97.6694 153.045C98.4054 152.637 99.262 152.433 100.239 152.433ZM100.258 154.446C99.7074 154.446 99.2497 154.623 98.8848 154.975C98.526 155.328 98.3188 155.881 98.2632 156.636H102.234C102.228 156.215 102.15 155.841 102.002 155.513C101.86 155.185 101.643 154.926 101.353 154.734C101.068 154.542 100.703 154.446 100.258 154.446Z" fill="#42526E"/>
<mask id="path-9-inside-2_94_448" fill="white">
<path d="M19.9995 175H460V223H19.9995V175Z"/>
</mask>
<path d="M19.9995 175H460V223H19.9995V175Z" fill="white"/>
<path d="M460 222H19.9995V224H460V222Z" fill="#E60026" mask="url(#path-9-inside-2_94_448)"/>
<path d="M41.2412 206.686C39.9548 206.686 38.9342 206.246 38.1797 205.368C37.4313 204.49 37.0571 203.185 37.0571 201.453C37.0571 199.703 37.4406 198.382 38.2075 197.492C38.9744 196.595 39.995 196.146 41.269 196.146C41.8071 196.146 42.2772 196.218 42.6792 196.36C43.0812 196.502 43.4276 196.694 43.7183 196.935C44.009 197.17 44.2533 197.439 44.4512 197.742H44.5625C44.5378 197.55 44.513 197.288 44.4883 196.954C44.4635 196.62 44.4512 196.347 44.4512 196.137V192.064H45.9912V206.5H44.748L44.5161 205.053H44.4512C44.2594 205.356 44.0151 205.631 43.7183 205.878C43.4276 206.126 43.0781 206.324 42.6699 206.472C42.2679 206.614 41.7917 206.686 41.2412 206.686ZM41.4824 205.405C42.571 205.405 43.341 205.096 43.7925 204.478C44.244 203.859 44.4697 202.941 44.4697 201.722V201.444C44.4697 200.151 44.2533 199.159 43.8203 198.466C43.3936 197.773 42.6143 197.427 41.4824 197.427C40.5361 197.427 39.828 197.792 39.3579 198.521C38.8879 199.245 38.6528 200.235 38.6528 201.49C38.6528 202.74 38.8848 203.704 39.3486 204.385C39.8187 205.065 40.5299 205.405 41.4824 205.405ZM52.875 206.686C51.5885 206.686 50.568 206.246 49.8135 205.368C49.0651 204.49 48.6909 203.185 48.6909 201.453C48.6909 199.703 49.0744 198.382 49.8413 197.492C50.6082 196.595 51.6287 196.146 52.9028 196.146C53.4409 196.146 53.911 196.218 54.313 196.36C54.715 196.502 55.0614 196.694 55.3521 196.935C55.6427 197.17 55.887 197.439 56.085 197.742H56.1963C56.1715 197.55 56.1468 197.288 56.1221 196.954C56.0973 196.62 56.085 196.347 56.085 196.137V192.064H57.625V206.5H56.3818L56.1499 205.053H56.085C55.8932 205.356 55.6489 205.631 55.3521 205.878C55.0614 206.126 54.7119 206.324 54.3037 206.472C53.9017 206.614 53.4255 206.686 52.875 206.686ZM53.1162 205.405C54.2048 205.405 54.9748 205.096 55.4263 204.478C55.8778 203.859 56.1035 202.941 56.1035 201.722V201.444C56.1035 200.151 55.887 199.159 55.4541 198.466C55.0273 197.773 54.248 197.427 53.1162 197.427C52.1699 197.427 51.4618 197.792 50.9917 198.521C50.5216 199.245 50.2866 200.235 50.2866 201.49C50.2866 202.74 50.5186 203.704 50.9824 204.385C51.4525 205.065 52.1637 205.405 53.1162 205.405ZM66.0303 192.937L60.9834 206.5H59.4619L64.5181 192.937H66.0303ZM78.9072 196.146C80.0267 196.146 80.8709 196.44 81.4399 197.028C82.009 197.609 82.2935 198.546 82.2935 199.839V206.5H80.772V199.913C80.772 199.09 80.5926 198.475 80.2339 198.067C79.8813 197.653 79.3556 197.445 78.6567 197.445C77.6733 197.445 76.959 197.73 76.5137 198.299C76.0684 198.868 75.8457 199.706 75.8457 200.813V206.5H74.3149V199.913C74.3149 199.363 74.2345 198.905 74.0737 198.54C73.9191 198.175 73.6841 197.903 73.3687 197.724C73.0594 197.538 72.6667 197.445 72.1904 197.445C71.5163 197.445 70.9751 197.584 70.5669 197.863C70.1587 198.141 69.8618 198.556 69.6763 199.106C69.4969 199.65 69.4072 200.321 69.4072 201.119V206.5H67.8672V196.332H69.1104L69.3423 197.77H69.4258C69.6299 197.417 69.8866 197.121 70.1958 196.879C70.505 196.638 70.8514 196.456 71.2349 196.332C71.6183 196.208 72.0265 196.146 72.4595 196.146C73.2326 196.146 73.8789 196.292 74.3984 196.583C74.9242 196.867 75.3045 197.303 75.5396 197.891H75.623C75.957 197.303 76.4147 196.867 76.9961 196.583C77.5775 196.292 78.2145 196.146 78.9072 196.146ZM96.4971 196.146C97.6165 196.146 98.4608 196.44 99.0298 197.028C99.5988 197.609 99.8833 198.546 99.8833 199.839V206.5H98.3618V199.913C98.3618 199.09 98.1825 198.475 97.8237 198.067C97.4712 197.653 96.9455 197.445 96.2466 197.445C95.2632 197.445 94.5488 197.73 94.1035 198.299C93.6582 198.868 93.4355 199.706 93.4355 200.813V206.5H91.9048V199.913C91.9048 199.363 91.8244 198.905 91.6636 198.54C91.509 198.175 91.2739 197.903 90.9585 197.724C90.6493 197.538 90.2565 197.445 89.7803 197.445C89.1061 197.445 88.5649 197.584 88.1567 197.863C87.7485 198.141 87.4517 198.556 87.2661 199.106C87.0868 199.65 86.9971 200.321 86.9971 201.119V206.5H85.457V196.332H86.7002L86.9321 197.77H87.0156C87.2197 197.417 87.4764 197.121 87.7856 196.879C88.0949 196.638 88.4412 196.456 88.8247 196.332C89.2082 196.208 89.6164 196.146 90.0493 196.146C90.8224 196.146 91.4688 196.292 91.9883 196.583C92.514 196.867 92.8944 197.303 93.1294 197.891H93.2129C93.5469 197.303 94.0046 196.867 94.5859 196.583C95.1673 196.292 95.8044 196.146 96.4971 196.146ZM108.187 192.937L103.14 206.5H101.618L106.674 192.937H108.187ZM108.418 196.332H110.07L112.315 202.232C112.445 202.579 112.565 202.913 112.677 203.234C112.788 203.55 112.887 203.853 112.974 204.144C113.06 204.434 113.128 204.716 113.178 204.988H113.243C113.329 204.679 113.453 204.273 113.614 203.772C113.775 203.265 113.948 202.749 114.133 202.223L116.258 196.332H117.918L113.493 207.994C113.258 208.618 112.983 209.163 112.667 209.626C112.358 210.09 111.981 210.446 111.536 210.693C111.09 210.947 110.552 211.074 109.921 211.074C109.631 211.074 109.374 211.055 109.151 211.018C108.929 210.987 108.737 210.95 108.576 210.907V209.673C108.712 209.704 108.876 209.732 109.068 209.756C109.266 209.781 109.47 209.793 109.68 209.793C110.064 209.793 110.395 209.719 110.673 209.571C110.957 209.429 111.202 209.218 111.406 208.94C111.61 208.662 111.786 208.331 111.935 207.947L112.491 206.519L108.418 196.332ZM117.937 196.332H119.588L121.833 202.232C121.963 202.579 122.084 202.913 122.195 203.234C122.307 203.55 122.406 203.853 122.492 204.144C122.579 204.434 122.647 204.716 122.696 204.988H122.761C122.848 204.679 122.972 204.273 123.132 203.772C123.293 203.265 123.466 202.749 123.652 202.223L125.776 196.332H127.437L123.012 207.994C122.777 208.618 122.501 209.163 122.186 209.626C121.877 210.09 121.5 210.446 121.054 210.693C120.609 210.947 120.071 211.074 119.44 211.074C119.149 211.074 118.893 211.055 118.67 211.018C118.447 210.987 118.256 210.95 118.095 210.907V209.673C118.231 209.704 118.395 209.732 118.586 209.756C118.784 209.781 118.988 209.793 119.199 209.793C119.582 209.793 119.913 209.719 120.191 209.571C120.476 209.429 120.72 209.218 120.924 208.94C121.128 208.662 121.305 208.331 121.453 207.947L122.01 206.519L117.937 196.332ZM127.456 196.332H129.107L131.352 202.232C131.482 202.579 131.603 202.913 131.714 203.234C131.825 203.55 131.924 203.853 132.011 204.144C132.097 204.434 132.165 204.716 132.215 204.988H132.28C132.366 204.679 132.49 204.273 132.651 203.772C132.812 203.265 132.985 202.749 133.17 202.223L135.295 196.332H136.956L132.53 207.994C132.295 208.618 132.02 209.163 131.705 209.626C131.395 210.09 131.018 210.446 130.573 210.693C130.127 210.947 129.589 211.074 128.958 211.074C128.668 211.074 128.411 211.055 128.188 211.018C127.966 210.987 127.774 210.95 127.613 210.907V209.673C127.749 209.704 127.913 209.732 128.105 209.756C128.303 209.781 128.507 209.793 128.717 209.793C129.101 209.793 129.432 209.719 129.71 209.571C129.994 209.429 130.239 209.218 130.443 208.94C130.647 208.662 130.823 208.331 130.972 207.947L131.528 206.519L127.456 196.332ZM136.974 196.332H138.625L140.871 202.232C141 202.579 141.121 202.913 141.232 203.234C141.344 203.55 141.443 203.853 141.529 204.144C141.616 204.434 141.684 204.716 141.733 204.988H141.798C141.885 204.679 142.009 204.273 142.169 203.772C142.33 203.265 142.503 202.749 142.689 202.223L144.813 196.332H146.474L142.049 207.994C141.814 208.618 141.539 209.163 141.223 209.626C140.914 210.09 140.537 210.446 140.091 210.693C139.646 210.947 139.108 211.074 138.477 211.074C138.186 211.074 137.93 211.055 137.707 211.018C137.484 210.987 137.293 210.95 137.132 210.907V209.673C137.268 209.704 137.432 209.732 137.624 209.756C137.821 209.781 138.026 209.793 138.236 209.793C138.619 209.793 138.95 209.719 139.229 209.571C139.513 209.429 139.757 209.218 139.961 208.94C140.166 208.662 140.342 208.331 140.49 207.947L141.047 206.519L136.974 196.332Z" fill="#D1D1D1"/>
<mask id="mask1_94_448" style="mask-type:alpha" maskUnits="userSpaceOnUse" x="419" y="187" width="25" height="24">
<rect x="420" y="187" width="24" height="24" fill="#D9D9D9"/>
</mask>
<g mask="url(#mask1_94_448)">
<path d="M434.5 205C433.8 205 433.208 204.758 432.725 204.275C432.241 203.792 432 203.2 432 202.5C432 201.8 432.241 201.208 432.725 200.725C433.208 200.242 433.8 200 434.5 200C435.2 200 435.791 200.242 436.275 200.725C436.758 201.208 437 201.8 437 202.5C437 203.2 436.758 203.792 436.275 204.275C435.791 204.758 435.2 205 434.5 205ZM425 209C424.45 209 423.979 208.804 423.587 208.413C423.195 208.021 423 207.55 423 207V193C423 192.45 423.195 191.979 423.587 191.588C423.979 191.196 424.45 191 425 191H426V190C426 189.717 426.095 189.479 426.287 189.287C426.479 189.096 426.716 189 427 189C427.283 189 427.52 189.096 427.712 189.287C427.904 189.479 428 189.717 428 190V191H436V190C436 189.717 436.095 189.479 436.287 189.287C436.479 189.096 436.716 189 437 189C437.283 189 437.52 189.096 437.712 189.287C437.904 189.479 438 189.717 438 190V191H439C439.55 191 440.02 191.196 440.412 191.588C440.804 191.979 441 192.45 441 193V207C441 207.55 440.804 208.021 440.412 208.413C440.02 208.804 439.55 209 439 209H425ZM425 207H439V197H425V207ZM425 195H439V193H425V195Z" fill="#4589FF"/>
</g>
<path d="M20.6756 231.912V230.818H28.312V231.912H25.1103V241H23.8774V231.912H20.6756ZM31.2291 236.406V241H30.0558V230.818H31.2291V234.557H31.3285C31.5075 234.162 31.776 233.849 32.1339 233.617C32.4952 233.382 32.9758 233.264 33.5757 233.264C34.096 233.264 34.5518 233.369 34.9429 233.577C35.334 233.783 35.6372 234.099 35.8527 234.527C36.0714 234.951 36.1808 235.491 36.1808 236.148V241H35.0075V236.227C35.0075 235.621 34.8501 235.152 34.5352 234.82C34.2236 234.486 33.7911 234.318 33.2376 234.318C32.8531 234.318 32.5084 234.399 32.2035 234.562C31.9019 234.724 31.6633 234.961 31.4876 235.273C31.3153 235.584 31.2291 235.962 31.2291 236.406ZM38.3273 241V233.364H39.5006V241H38.3273ZM38.9239 232.091C38.6952 232.091 38.498 232.013 38.3323 231.857C38.1698 231.701 38.0886 231.514 38.0886 231.295C38.0886 231.077 38.1698 230.889 38.3323 230.734C38.498 230.578 38.6952 230.5 38.9239 230.5C39.1526 230.5 39.3481 230.578 39.5105 230.734C39.6762 230.889 39.7591 231.077 39.7591 231.295C39.7591 231.514 39.6762 231.701 39.5105 231.857C39.3481 232.013 39.1526 232.091 38.9239 232.091ZM47.0586 235.074L46.0047 235.372C45.9384 235.196 45.8406 235.026 45.7113 234.86C45.5854 234.691 45.413 234.552 45.1943 234.442C44.9755 234.333 44.6955 234.278 44.3541 234.278C43.8868 234.278 43.4973 234.386 43.1858 234.602C42.8775 234.814 42.7234 235.084 42.7234 235.412C42.7234 235.704 42.8295 235.934 43.0416 236.103C43.2537 236.272 43.5852 236.413 44.0359 236.526L45.1694 236.804C45.8522 236.97 46.361 237.223 46.6957 237.565C47.0305 237.903 47.1978 238.339 47.1978 238.872C47.1978 239.31 47.0719 239.701 46.82 240.045C46.5714 240.39 46.2234 240.662 45.776 240.861C45.3285 241.06 44.8082 241.159 44.2149 241.159C43.436 241.159 42.7914 240.99 42.2809 240.652C41.7705 240.314 41.4474 239.82 41.3115 239.17L42.4251 238.892C42.5312 239.303 42.7317 239.611 43.0267 239.817C43.325 240.022 43.7144 240.125 44.195 240.125C44.7419 240.125 45.1761 240.009 45.4976 239.777C45.8224 239.542 45.9848 239.26 45.9848 238.932C45.9848 238.667 45.892 238.445 45.7064 238.266C45.5208 238.083 45.2357 237.947 44.8513 237.858L43.5785 237.56C42.8792 237.394 42.3655 237.137 42.0373 236.789C41.7125 236.438 41.5501 235.999 41.5501 235.472C41.5501 235.041 41.6711 234.66 41.913 234.328C42.1583 233.997 42.4914 233.737 42.9123 233.548C43.3366 233.359 43.8172 233.264 44.3541 233.264C45.1098 233.264 45.7031 233.43 46.1339 233.761C46.5681 234.093 46.8763 234.53 47.0586 235.074ZM56.3021 233.364V234.358H52.1856V233.364H56.3021ZM53.4185 241V232.31C53.4185 231.872 53.5213 231.508 53.7268 231.216C53.9323 230.924 54.1991 230.705 54.5272 230.56C54.8553 230.414 55.2017 230.341 55.5663 230.341C55.8546 230.341 56.0899 230.364 56.2722 230.411C56.4545 230.457 56.5904 230.5 56.6799 230.54L56.3418 231.554C56.2822 231.534 56.1993 231.509 56.0933 231.479C55.9905 231.45 55.8546 231.435 55.6856 231.435C55.2978 231.435 55.0177 231.532 54.8454 231.728C54.6764 231.924 54.5918 232.21 54.5918 232.588V241H53.4185ZM57.9464 241V233.364H59.1197V241H57.9464ZM58.543 232.091C58.3143 232.091 58.1171 232.013 57.9514 231.857C57.789 231.701 57.7078 231.514 57.7078 231.295C57.7078 231.077 57.789 230.889 57.9514 230.734C58.1171 230.578 58.3143 230.5 58.543 230.5C58.7717 230.5 58.9673 230.578 59.1297 230.734C59.2954 230.889 59.3782 231.077 59.3782 231.295C59.3782 231.514 59.2954 231.701 59.1297 231.857C58.9673 232.013 58.7717 232.091 58.543 232.091ZM64.4704 241.159C63.7346 241.159 63.0999 240.997 62.5663 240.672C62.036 240.344 61.6266 239.886 61.3383 239.3C61.0533 238.71 60.9107 238.024 60.9107 237.241C60.9107 236.459 61.0533 235.77 61.3383 235.173C61.6266 234.573 62.0277 234.106 62.5414 233.771C63.0585 233.433 63.6617 233.264 64.3511 233.264C64.7488 233.264 65.1416 233.33 65.5293 233.463C65.9171 233.596 66.2701 233.811 66.5883 234.109C66.9065 234.404 67.16 234.795 67.3489 235.283C67.5379 235.77 67.6323 236.37 67.6323 237.082V237.58H61.746V236.565H66.4391C66.4391 236.134 66.353 235.75 66.1806 235.412C66.0116 235.074 65.7696 234.807 65.4548 234.612C65.1432 234.416 64.7753 234.318 64.3511 234.318C63.8837 234.318 63.4794 234.434 63.138 234.666C62.7999 234.895 62.5398 235.193 62.3575 235.561C62.1752 235.929 62.084 236.323 62.084 236.744V237.42C62.084 237.997 62.1835 238.486 62.3823 238.887C62.5845 239.285 62.8646 239.588 63.2225 239.797C63.5805 240.002 63.9964 240.105 64.4704 240.105C64.7786 240.105 65.057 240.062 65.3056 239.976C65.5575 239.886 65.7746 239.754 65.9569 239.578C66.1392 239.399 66.2801 239.177 66.3795 238.912L67.513 239.23C67.3937 239.615 67.1932 239.953 66.9114 240.244C66.6297 240.533 66.2817 240.758 65.8674 240.92C65.4531 241.08 64.9874 241.159 64.4704 241.159ZM70.5904 230.818V241H69.4171V230.818H70.5904ZM75.6229 241.159C74.9866 241.159 74.4248 240.998 73.9375 240.677C73.4503 240.352 73.0692 239.895 72.7941 239.305C72.519 238.711 72.3814 238.01 72.3814 237.202C72.3814 236.4 72.519 235.704 72.7941 235.114C73.0692 234.524 73.452 234.068 73.9425 233.746C74.433 233.425 74.9998 233.264 75.6428 233.264C76.14 233.264 76.5327 233.347 76.8211 233.513C77.1127 233.675 77.3348 233.861 77.4873 234.07C77.643 234.275 77.764 234.444 77.8502 234.577H77.9496V230.818H79.1229V241H77.9894V239.827H77.8502C77.764 239.966 77.6414 240.142 77.4823 240.354C77.3232 240.562 77.0962 240.75 76.8012 240.915C76.5062 241.078 76.1134 241.159 75.6229 241.159ZM75.782 240.105C76.2526 240.105 76.6504 239.982 76.9752 239.737C77.3 239.489 77.5469 239.146 77.716 238.708C77.885 238.267 77.9695 237.759 77.9695 237.182C77.9695 236.612 77.8866 236.113 77.7209 235.685C77.5552 235.254 77.3099 234.92 76.9851 234.681C76.6603 234.439 76.2593 234.318 75.782 234.318C75.2848 234.318 74.8705 234.446 74.5391 234.701C74.211 234.953 73.9641 235.296 73.7983 235.73C73.6359 236.161 73.5547 236.645 73.5547 237.182C73.5547 237.725 73.6376 238.219 73.8033 238.663C73.9723 239.104 74.2209 239.455 74.5491 239.717C74.8805 239.976 75.2915 240.105 75.782 240.105ZM85.3722 241V233.364H86.5455V241H85.3722ZM85.9688 232.091C85.7401 232.091 85.5429 232.013 85.3772 231.857C85.2148 231.701 85.1336 231.514 85.1336 231.295C85.1336 231.077 85.2148 230.889 85.3772 230.734C85.5429 230.578 85.7401 230.5 85.9688 230.5C86.1975 230.5 86.393 230.578 86.5554 230.734C86.7212 230.889 86.804 231.077 86.804 231.295C86.804 231.514 86.7212 231.701 86.5554 231.857C86.393 232.013 86.1975 232.091 85.9688 232.091ZM94.1036 235.074L93.0496 235.372C92.9833 235.196 92.8855 235.026 92.7563 234.86C92.6303 234.691 92.458 234.552 92.2392 234.442C92.0205 234.333 91.7404 234.278 91.399 234.278C90.9317 234.278 90.5422 234.386 90.2307 234.602C89.9225 234.814 89.7683 235.084 89.7683 235.412C89.7683 235.704 89.8744 235.934 90.0865 236.103C90.2986 236.272 90.6301 236.413 91.0808 236.526L92.2144 236.804C92.8971 236.97 93.4059 237.223 93.7406 237.565C94.0754 237.903 94.2428 238.339 94.2428 238.872C94.2428 239.31 94.1168 239.701 93.8649 240.045C93.6163 240.39 93.2683 240.662 92.8209 240.861C92.3734 241.06 91.8531 241.159 91.2598 241.159C90.4809 241.159 89.8363 240.99 89.3259 240.652C88.8154 240.314 88.4923 239.82 88.3564 239.17L89.47 238.892C89.5761 239.303 89.7766 239.611 90.0716 239.817C90.3699 240.022 90.7593 240.125 91.2399 240.125C91.7868 240.125 92.221 240.009 92.5425 239.777C92.8673 239.542 93.0297 239.26 93.0297 238.932C93.0297 238.667 92.9369 238.445 92.7513 238.266C92.5657 238.083 92.2806 237.947 91.8962 237.858L90.6234 237.56C89.9241 237.394 89.4104 237.137 89.0823 236.789C88.7574 236.438 88.595 235.999 88.595 235.472C88.595 235.041 88.716 234.66 88.958 234.328C89.2032 233.997 89.5363 233.737 89.9573 233.548C90.3815 233.359 90.8621 233.264 91.399 233.264C92.1547 233.264 92.748 233.43 93.1788 233.761C93.613 234.093 93.9213 234.53 94.1036 235.074ZM99.9464 241V233.364H101.08V234.517H101.159C101.299 234.139 101.551 233.833 101.915 233.597C102.28 233.362 102.691 233.244 103.148 233.244C103.234 233.244 103.342 233.246 103.471 233.249C103.601 233.253 103.698 233.258 103.765 233.264V234.457C103.725 234.447 103.634 234.433 103.491 234.413C103.352 234.389 103.204 234.378 103.049 234.378C102.677 234.378 102.346 234.456 102.054 234.612C101.766 234.764 101.537 234.976 101.368 235.248C101.203 235.516 101.12 235.823 101.12 236.168V241H99.9464ZM108.125 241.159C107.389 241.159 106.754 240.997 106.221 240.672C105.69 240.344 105.281 239.886 104.993 239.3C104.708 238.71 104.565 238.024 104.565 237.241C104.565 236.459 104.708 235.77 104.993 235.173C105.281 234.573 105.682 234.106 106.196 233.771C106.713 233.433 107.316 233.264 108.005 233.264C108.403 233.264 108.796 233.33 109.184 233.463C109.571 233.596 109.924 233.811 110.243 234.109C110.561 234.404 110.814 234.795 111.003 235.283C111.192 235.77 111.287 236.37 111.287 237.082V237.58H105.4V236.565H110.093C110.093 236.134 110.007 235.75 109.835 235.412C109.666 235.074 109.424 234.807 109.109 234.612C108.798 234.416 108.43 234.318 108.005 234.318C107.538 234.318 107.134 234.434 106.792 234.666C106.454 234.895 106.194 235.193 106.012 235.561C105.829 235.929 105.738 236.323 105.738 236.744V237.42C105.738 237.997 105.838 238.486 106.037 238.887C106.239 239.285 106.519 239.588 106.877 239.797C107.235 240.002 107.651 240.105 108.125 240.105C108.433 240.105 108.711 240.062 108.96 239.976C109.212 239.886 109.429 239.754 109.611 239.578C109.793 239.399 109.934 239.177 110.034 238.912L111.167 239.23C111.048 239.615 110.847 239.953 110.566 240.244C110.284 240.533 109.936 240.758 109.522 240.92C109.107 241.08 108.642 241.159 108.125 241.159ZM118.282 243.864V239.827H118.182C118.096 239.966 117.973 240.142 117.814 240.354C117.655 240.562 117.428 240.75 117.133 240.915C116.838 241.078 116.445 241.159 115.955 241.159C115.319 241.159 114.757 240.998 114.27 240.677C113.782 240.352 113.401 239.895 113.126 239.305C112.851 238.711 112.713 238.01 112.713 237.202C112.713 236.4 112.851 235.704 113.126 235.114C113.401 234.524 113.784 234.068 114.275 233.746C114.765 233.425 115.332 233.264 115.975 233.264C116.472 233.264 116.865 233.347 117.153 233.513C117.445 233.675 117.667 233.861 117.819 234.07C117.975 234.275 118.096 234.444 118.182 234.577H118.321V233.364H119.455V243.864H118.282ZM116.114 240.105C116.585 240.105 116.982 239.982 117.307 239.737C117.632 239.489 117.879 239.146 118.048 238.708C118.217 238.267 118.302 237.759 118.302 237.182C118.302 236.612 118.219 236.113 118.053 235.685C117.887 235.254 117.642 234.92 117.317 234.681C116.992 234.439 116.591 234.318 116.114 234.318C115.617 234.318 115.203 234.446 114.871 234.701C114.543 234.953 114.296 235.296 114.13 235.73C113.968 236.161 113.887 236.645 113.887 237.182C113.887 237.725 113.97 238.219 114.135 238.663C114.304 239.104 114.553 239.455 114.881 239.717C115.213 239.976 115.624 240.105 116.114 240.105ZM126.415 237.878V233.364H127.588V241H126.415V239.707H126.336C126.157 240.095 125.878 240.425 125.5 240.697C125.123 240.965 124.645 241.099 124.069 241.099C123.591 241.099 123.167 240.995 122.796 240.786C122.425 240.574 122.133 240.256 121.921 239.832C121.709 239.404 121.603 238.866 121.603 238.216V233.364H122.776V238.136C122.776 238.693 122.932 239.137 123.243 239.469C123.558 239.8 123.959 239.966 124.446 239.966C124.738 239.966 125.035 239.891 125.336 239.742C125.641 239.593 125.896 239.364 126.102 239.056C126.311 238.748 126.415 238.355 126.415 237.878ZM129.737 241V233.364H130.911V241H129.737ZM130.334 232.091C130.105 232.091 129.908 232.013 129.742 231.857C129.58 231.701 129.499 231.514 129.499 231.295C129.499 231.077 129.58 230.889 129.742 230.734C129.908 230.578 130.105 230.5 130.334 230.5C130.563 230.5 130.758 230.578 130.921 230.734C131.086 230.889 131.169 231.077 131.169 231.295C131.169 231.514 131.086 231.701 130.921 231.857C130.758 232.013 130.563 232.091 130.334 232.091ZM133.06 241V233.364H134.193V234.517H134.273C134.412 234.139 134.664 233.833 135.028 233.597C135.393 233.362 135.804 233.244 136.261 233.244C136.348 233.244 136.455 233.246 136.585 233.249C136.714 233.253 136.812 233.258 136.878 233.264V234.457C136.838 234.447 136.747 234.433 136.604 234.413C136.465 234.389 136.318 234.378 136.162 234.378C135.791 234.378 135.459 234.456 135.168 234.612C134.879 234.764 134.651 234.976 134.482 235.248C134.316 235.516 134.233 235.823 134.233 236.168V241H133.06ZM141.238 241.159C140.502 241.159 139.867 240.997 139.334 240.672C138.804 240.344 138.394 239.886 138.106 239.3C137.821 238.71 137.678 238.024 137.678 237.241C137.678 236.459 137.821 235.77 138.106 235.173C138.394 234.573 138.795 234.106 139.309 233.771C139.826 233.433 140.429 233.264 141.119 233.264C141.516 233.264 141.909 233.33 142.297 233.463C142.685 233.596 143.038 233.811 143.356 234.109C143.674 234.404 143.928 234.795 144.117 235.283C144.305 235.77 144.4 236.37 144.4 237.082V237.58H138.514V236.565H143.207C143.207 236.134 143.121 235.75 142.948 235.412C142.779 235.074 142.537 234.807 142.222 234.612C141.911 234.416 141.543 234.318 141.119 234.318C140.651 234.318 140.247 234.434 139.906 234.666C139.568 234.895 139.307 235.193 139.125 235.561C138.943 235.929 138.852 236.323 138.852 236.744V237.42C138.852 237.997 138.951 238.486 139.15 238.887C139.352 239.285 139.632 239.588 139.99 239.797C140.348 240.002 140.764 240.105 141.238 240.105C141.546 240.105 141.825 240.062 142.073 239.976C142.325 239.886 142.542 239.754 142.724 239.578C142.907 239.399 143.048 239.177 143.147 238.912L144.281 239.23C144.161 239.615 143.961 239.953 143.679 240.244C143.397 240.533 143.049 240.758 142.635 240.92C142.221 241.08 141.755 241.159 141.238 241.159ZM149.068 241.159C148.432 241.159 147.87 240.998 147.383 240.677C146.896 240.352 146.514 239.895 146.239 239.305C145.964 238.711 145.827 238.01 145.827 237.202C145.827 236.4 145.964 235.704 146.239 235.114C146.514 234.524 146.897 234.068 147.388 233.746C147.878 233.425 148.445 233.264 149.088 233.264C149.585 233.264 149.978 233.347 150.266 233.513C150.558 233.675 150.78 233.861 150.933 234.07C151.088 234.275 151.209 234.444 151.295 234.577H151.395V230.818H152.568V241H151.435V239.827H151.295C151.209 239.966 151.087 240.142 150.928 240.354C150.769 240.562 150.541 240.75 150.246 240.915C149.952 241.078 149.559 241.159 149.068 241.159ZM149.227 240.105C149.698 240.105 150.096 239.982 150.42 239.737C150.745 239.489 150.992 239.146 151.161 238.708C151.33 238.267 151.415 237.759 151.415 237.182C151.415 236.612 151.332 236.113 151.166 235.685C151.001 235.254 150.755 234.92 150.43 234.681C150.106 234.439 149.705 234.318 149.227 234.318C148.73 234.318 148.316 234.446 147.984 234.701C147.656 234.953 147.409 235.296 147.244 235.73C147.081 236.161 147 236.645 147 237.182C147 237.725 147.083 238.219 147.249 238.663C147.418 239.104 147.666 239.455 147.994 239.717C148.326 239.976 148.737 240.105 149.227 240.105Z" fill="#E60026"/>
<path d="M32.96 280.088C32.96 281.616 32.6662 282.893 32.0786 283.92C31.4972 284.94 30.653 285.71 29.5459 286.23C28.4388 286.743 27.106 287 25.5474 287H21.7065V273.437H25.9648C27.3874 273.437 28.6213 273.69 29.6665 274.197C30.7118 274.698 31.522 275.444 32.0972 276.433C32.6724 277.417 32.96 278.635 32.96 280.088ZM29.9727 280.163C29.9727 279.161 29.8242 278.338 29.5273 277.695C29.2367 277.045 28.8037 276.566 28.2285 276.257C27.6595 275.948 26.9544 275.793 26.1133 275.793H24.5825V284.625H25.8164C27.2204 284.625 28.2625 284.251 28.9429 283.502C29.6294 282.754 29.9727 281.641 29.9727 280.163ZM45.0669 276.628V287H42.896L42.5156 285.673H42.3672C42.1445 286.026 41.8662 286.313 41.5322 286.536C41.1982 286.759 40.8302 286.923 40.4282 287.028C40.0262 287.133 39.6087 287.186 39.1758 287.186C38.4336 287.186 37.7873 287.056 37.2368 286.796C36.6864 286.53 36.2565 286.119 35.9473 285.562C35.6442 285.005 35.4927 284.282 35.4927 283.391V276.628H38.3223V282.686C38.3223 283.428 38.4552 283.988 38.7212 284.365C38.9871 284.743 39.4108 284.931 39.9922 284.931C40.5674 284.931 41.0189 284.801 41.3467 284.542C41.6745 284.276 41.9033 283.889 42.0332 283.382C42.1693 282.868 42.2373 282.244 42.2373 281.508V276.628H45.0669ZM52.3125 276.433C53.2712 276.433 54.0968 276.619 54.7896 276.99C55.4823 277.355 56.0173 277.887 56.3945 278.585C56.7718 279.284 56.9604 280.138 56.9604 281.146V282.519H50.2715C50.3024 283.317 50.5405 283.945 50.9858 284.402C51.4373 284.854 52.062 285.08 52.8599 285.08C53.5216 285.08 54.1278 285.012 54.6782 284.875C55.2287 284.739 55.7946 284.535 56.376 284.263V286.453C55.8626 286.706 55.3245 286.892 54.7617 287.009C54.2051 287.127 53.5278 287.186 52.73 287.186C51.6909 287.186 50.7694 286.994 49.9653 286.61C49.1675 286.227 48.5397 285.642 48.082 284.857C47.6305 284.071 47.4048 283.082 47.4048 281.888C47.4048 280.676 47.6089 279.668 48.0171 278.864C48.4315 278.054 49.0067 277.447 49.7427 277.045C50.4787 276.637 51.3353 276.433 52.3125 276.433ZM52.3311 278.446C51.7806 278.446 51.3229 278.623 50.958 278.975C50.5993 279.328 50.3921 279.881 50.3364 280.636H54.3071C54.3009 280.215 54.2236 279.841 54.0752 279.513C53.9329 279.185 53.7165 278.926 53.4258 278.734C53.1413 278.542 52.7764 278.446 52.3311 278.446ZM67.481 287.186C66.3244 287.186 65.3812 286.734 64.6514 285.831C63.9277 284.922 63.5659 283.589 63.5659 281.833C63.5659 280.057 63.9339 278.715 64.6699 277.806C65.4059 276.891 66.3677 276.433 67.5552 276.433C68.05 276.433 68.486 276.501 68.8633 276.637C69.2406 276.773 69.5653 276.956 69.8374 277.185C70.1157 277.413 70.3507 277.67 70.5425 277.955H70.6353C70.5981 277.757 70.5518 277.466 70.4961 277.083C70.4466 276.693 70.4219 276.294 70.4219 275.886V272.564H73.2607V287H71.0898L70.5425 285.655H70.4219C70.2425 285.939 70.0168 286.199 69.7446 286.434C69.4787 286.663 69.1602 286.845 68.7891 286.981C68.418 287.118 67.9819 287.186 67.481 287.186ZM68.4736 284.931C69.2467 284.931 69.791 284.702 70.1064 284.245C70.4281 283.781 70.5981 283.085 70.6167 282.157V281.851C70.6167 280.843 70.4621 280.073 70.1528 279.541C69.8436 279.003 69.2684 278.734 68.4272 278.734C67.8026 278.734 67.314 279.003 66.9614 279.541C66.6089 280.079 66.4326 280.855 66.4326 281.87C66.4326 282.884 66.6089 283.648 66.9614 284.161C67.3201 284.674 67.8242 284.931 68.4736 284.931ZM80.4692 276.415C81.8608 276.415 82.9277 276.718 83.6699 277.324C84.4121 277.93 84.7832 278.851 84.7832 280.088V287H82.8071L82.2598 285.59H82.1855C81.8887 285.961 81.5856 286.264 81.2764 286.499C80.9671 286.734 80.6115 286.907 80.2095 287.019C79.8075 287.13 79.3188 287.186 78.7437 287.186C78.1313 287.186 77.5809 287.068 77.0923 286.833C76.6099 286.598 76.2295 286.239 75.9512 285.757C75.6729 285.268 75.5337 284.65 75.5337 283.901C75.5337 282.8 75.9202 281.99 76.6934 281.471C77.4665 280.945 78.6261 280.654 80.1724 280.599L81.9722 280.543V280.088C81.9722 279.544 81.8299 279.145 81.5454 278.892C81.2609 278.638 80.8651 278.511 80.3579 278.511C79.8569 278.511 79.3652 278.582 78.8828 278.725C78.4004 278.867 77.918 279.046 77.4355 279.263L76.4985 277.352C77.049 277.061 77.6644 276.832 78.3447 276.665C79.0312 276.498 79.7394 276.415 80.4692 276.415ZM81.9722 282.194L80.8774 282.231C79.9621 282.256 79.325 282.42 78.9663 282.723C78.6138 283.026 78.4375 283.425 78.4375 283.92C78.4375 284.353 78.5643 284.662 78.8179 284.848C79.0715 285.027 79.4023 285.117 79.8105 285.117C80.4167 285.117 80.9269 284.937 81.3413 284.579C81.7619 284.22 81.9722 283.71 81.9722 283.048V282.194ZM92.0752 284.931C92.3844 284.931 92.6844 284.9 92.9751 284.838C93.272 284.777 93.5658 284.699 93.8564 284.606V286.712C93.5534 286.848 93.1761 286.96 92.7246 287.046C92.2793 287.139 91.7907 287.186 91.2588 287.186C90.6403 287.186 90.0837 287.087 89.5889 286.889C89.1003 286.685 88.7137 286.335 88.4292 285.84C88.1509 285.339 88.0117 284.644 88.0117 283.753V278.752H86.6572V277.556L88.2158 276.609L89.0322 274.42H90.8413V276.628H93.7451V278.752H90.8413V283.753C90.8413 284.149 90.9526 284.446 91.1753 284.644C91.4041 284.835 91.7041 284.931 92.0752 284.931ZM100.239 276.433C101.198 276.433 102.024 276.619 102.716 276.99C103.409 277.355 103.944 277.887 104.321 278.585C104.699 279.284 104.887 280.138 104.887 281.146V282.519H98.1982C98.2292 283.317 98.4673 283.945 98.9126 284.402C99.3641 284.854 99.9888 285.08 100.787 285.08C101.448 285.08 102.055 285.012 102.605 284.875C103.155 284.739 103.721 284.535 104.303 284.263V286.453C103.789 286.706 103.251 286.892 102.688 287.009C102.132 287.127 101.455 287.186 100.657 287.186C99.6177 287.186 98.6961 286.994 97.8921 286.61C97.0942 286.227 96.4665 285.642 96.0088 284.857C95.5573 284.071 95.3315 283.082 95.3315 281.888C95.3315 280.676 95.5356 279.668 95.9438 278.864C96.3582 278.054 96.9334 277.447 97.6694 277.045C98.4054 276.637 99.262 276.433 100.239 276.433ZM100.258 278.446C99.7074 278.446 99.2497 278.623 98.8848 278.975C98.526 279.328 98.3188 279.881 98.2632 280.636H102.234C102.228 280.215 102.15 279.841 102.002 279.513C101.86 279.185 101.643 278.926 101.353 278.734C101.068 278.542 100.703 278.446 100.258 278.446Z" fill="#42526E"/>
<mask id="path-16-inside-3_94_448" fill="white">
<path d="M19.9995 299H460V347H19.9995V299Z"/>
</mask>
<path d="M19.9995 299H460V347H19.9995V299Z" fill="white"/>
<path d="M460 346H19.9995V348H460V346Z" fill="#005DFF" mask="url(#path-16-inside-3_94_448)"/>
<path d="M45.8984 323.7C45.8984 324.801 45.8149 325.784 45.6479 326.65C45.481 327.516 45.2181 328.249 44.8594 328.849C44.5007 329.449 44.0368 329.906 43.4678 330.222C42.8988 330.531 42.2153 330.686 41.4175 330.686C40.4093 330.686 39.5744 330.41 38.9126 329.86C38.257 329.309 37.7653 328.515 37.4375 327.476C37.1159 326.43 36.9551 325.172 36.9551 323.7C36.9551 322.252 37.1004 321.009 37.3911 319.97C37.688 318.925 38.1642 318.124 38.8198 317.567C39.4754 317.005 40.3413 316.723 41.4175 316.723C42.438 316.723 43.2791 317.001 43.9409 317.558C44.6027 318.109 45.0944 318.906 45.416 319.952C45.7376 320.991 45.8984 322.24 45.8984 323.7ZM38.5044 323.7C38.5044 324.961 38.6003 326.013 38.792 326.854C38.9837 327.695 39.293 328.326 39.7197 328.747C40.1527 329.161 40.7186 329.368 41.4175 329.368C42.1164 329.368 42.6792 329.161 43.106 328.747C43.5389 328.332 43.8512 327.704 44.043 326.863C44.2409 326.022 44.3398 324.968 44.3398 323.7C44.3398 322.457 44.244 321.417 44.0522 320.583C43.8605 319.741 43.5513 319.111 43.1245 318.69C42.6978 318.263 42.1287 318.05 41.4175 318.05C40.7062 318.05 40.1372 318.263 39.7104 318.69C39.2837 319.111 38.9744 319.741 38.7827 320.583C38.5972 321.417 38.5044 322.457 38.5044 323.7ZM47.9487 324.702C47.9487 323.885 48.0044 323.087 48.1157 322.308C48.2332 321.529 48.4281 320.805 48.7002 320.137C48.9723 319.463 49.3434 318.872 49.8135 318.365C50.2835 317.858 50.868 317.462 51.5669 317.178C52.272 316.887 53.1162 316.742 54.0996 316.742C54.3779 316.742 54.6779 316.757 54.9995 316.788C55.3211 316.813 55.5871 316.856 55.7974 316.918V318.245C55.5685 318.164 55.3057 318.105 55.0088 318.068C54.7181 318.031 54.4243 318.013 54.1274 318.013C52.9771 318.013 52.071 318.263 51.4092 318.764C50.7536 319.265 50.2804 319.945 49.9897 320.805C49.6991 321.659 49.5321 322.62 49.4888 323.69H49.5908C49.7826 323.381 50.0269 323.103 50.3237 322.855C50.6206 322.602 50.9793 322.401 51.3999 322.252C51.8267 322.104 52.3215 322.03 52.8843 322.03C53.6759 322.03 54.3656 322.191 54.9531 322.512C55.5469 322.834 56.0046 323.301 56.3262 323.913C56.654 324.525 56.8179 325.268 56.8179 326.14C56.8179 327.074 56.6447 327.881 56.2983 328.561C55.952 329.241 55.4572 329.767 54.814 330.138C54.1769 330.503 53.4162 330.686 52.5317 330.686C51.87 330.686 51.2607 330.559 50.7041 330.305C50.1475 330.052 49.6619 329.674 49.2476 329.173C48.8394 328.672 48.5208 328.051 48.292 327.309C48.0632 326.56 47.9487 325.691 47.9487 324.702ZM52.5132 329.387C53.3543 329.387 54.0285 329.118 54.5356 328.58C55.0428 328.042 55.2964 327.228 55.2964 326.14C55.2964 325.249 55.0706 324.544 54.6191 324.024C54.1676 323.505 53.4873 323.245 52.5781 323.245C51.9596 323.245 51.4215 323.375 50.9639 323.635C50.5062 323.888 50.1506 324.21 49.897 324.6C49.6434 324.989 49.5166 325.385 49.5166 325.787C49.5166 326.195 49.5754 326.61 49.6929 327.03C49.8166 327.451 50.0021 327.84 50.2495 328.199C50.4969 328.558 50.8092 328.846 51.1865 329.062C51.5638 329.278 52.006 329.387 52.5132 329.387ZM64.5088 316.937L59.4619 330.5H57.9404L62.9966 316.937H64.5088ZM71.3926 330.5H69.8896V320.889C69.8896 320.524 69.8896 320.211 69.8896 319.952C69.8958 319.686 69.902 319.444 69.9082 319.228C69.9206 319.005 69.936 318.78 69.9546 318.551C69.7629 318.749 69.5835 318.919 69.4165 319.061C69.2495 319.197 69.0423 319.367 68.7949 319.571L67.2456 320.814L66.4385 319.766L70.1123 316.937H71.3926V330.5ZM85.4941 323.7C85.4941 324.801 85.4106 325.784 85.2437 326.65C85.0767 327.516 84.8138 328.249 84.4551 328.849C84.0964 329.449 83.6325 329.906 83.0635 330.222C82.4945 330.531 81.811 330.686 81.0132 330.686C80.005 330.686 79.1701 330.41 78.5083 329.86C77.8527 329.309 77.361 328.515 77.0332 327.476C76.7116 326.43 76.5508 325.172 76.5508 323.7C76.5508 322.252 76.6961 321.009 76.9868 319.97C77.2837 318.925 77.7599 318.124 78.4155 317.567C79.0711 317.005 79.937 316.723 81.0132 316.723C82.0337 316.723 82.8748 317.001 83.5366 317.558C84.1984 318.109 84.6901 318.906 85.0117 319.952C85.3333 320.991 85.4941 322.24 85.4941 323.7ZM78.1001 323.7C78.1001 324.961 78.196 326.013 78.3877 326.854C78.5794 327.695 78.8887 328.326 79.3154 328.747C79.7484 329.161 80.3143 329.368 81.0132 329.368C81.7121 329.368 82.2749 329.161 82.7017 328.747C83.1346 328.332 83.4469 327.704 83.6387 326.863C83.8366 326.022 83.9355 324.968 83.9355 323.7C83.9355 322.457 83.8397 321.417 83.6479 320.583C83.4562 319.741 83.147 319.111 82.7202 318.69C82.2935 318.263 81.7244 318.05 81.0132 318.05C80.3019 318.05 79.7329 318.263 79.3062 318.69C78.8794 319.111 78.5701 319.741 78.3784 320.583C78.1929 321.417 78.1001 322.457 78.1001 323.7ZM93.2314 316.937L88.1846 330.5H86.6631L91.7192 316.937H93.2314ZM103.27 330.5H94.3818V329.21L98.0093 325.527C98.6834 324.847 99.2493 324.241 99.707 323.709C100.171 323.177 100.523 322.654 100.765 322.141C101.006 321.622 101.126 321.053 101.126 320.434C101.126 319.667 100.898 319.083 100.44 318.681C99.9884 318.272 99.3916 318.068 98.6494 318.068C98 318.068 97.4248 318.18 96.9238 318.402C96.4229 318.625 95.9095 318.94 95.3838 319.349L94.5581 318.31C94.9168 318.007 95.3065 317.737 95.7271 317.502C96.1538 317.267 96.6084 317.082 97.0908 316.946C97.5794 316.81 98.099 316.742 98.6494 316.742C99.4844 316.742 100.205 316.887 100.811 317.178C101.417 317.468 101.884 317.883 102.212 318.421C102.546 318.959 102.713 319.599 102.713 320.341C102.713 321.059 102.571 321.727 102.286 322.345C102.002 322.958 101.603 323.567 101.089 324.173C100.576 324.773 99.9761 325.41 99.2896 326.084L96.3394 329.025V329.09H103.27V330.5ZM114.217 323.7C114.217 324.801 114.133 325.784 113.966 326.65C113.799 327.516 113.536 328.249 113.178 328.849C112.819 329.449 112.355 329.906 111.786 330.222C111.217 330.531 110.534 330.686 109.736 330.686C108.728 330.686 107.893 330.41 107.231 329.86C106.575 329.309 106.084 328.515 105.756 327.476C105.434 326.43 105.273 325.172 105.273 323.7C105.273 322.252 105.419 321.009 105.709 319.97C106.006 318.925 106.483 318.124 107.138 317.567C107.794 317.005 108.66 316.723 109.736 316.723C110.756 316.723 111.597 317.001 112.259 317.558C112.921 318.109 113.413 318.906 113.734 319.952C114.056 320.991 114.217 322.24 114.217 323.7ZM106.823 323.7C106.823 324.961 106.919 326.013 107.11 326.854C107.302 327.695 107.611 328.326 108.038 328.747C108.471 329.161 109.037 329.368 109.736 329.368C110.435 329.368 110.998 329.161 111.424 328.747C111.857 328.332 112.17 327.704 112.361 326.863C112.559 326.022 112.658 324.968 112.658 323.7C112.658 322.457 112.562 321.417 112.371 320.583C112.179 319.741 111.87 319.111 111.443 318.69C111.016 318.263 110.447 318.05 109.736 318.05C109.025 318.05 108.456 318.263 108.029 318.69C107.602 319.111 107.293 319.741 107.101 320.583C106.916 321.417 106.823 322.457 106.823 323.7ZM125.016 330.5H116.128V329.21L119.755 325.527C120.43 324.847 120.995 324.241 121.453 323.709C121.917 323.177 122.27 322.654 122.511 322.141C122.752 321.622 122.873 321.053 122.873 320.434C122.873 319.667 122.644 319.083 122.186 318.681C121.735 318.272 121.138 318.068 120.396 318.068C119.746 318.068 119.171 318.18 118.67 318.402C118.169 318.625 117.656 318.94 117.13 319.349L116.304 318.31C116.663 318.007 117.053 317.737 117.473 317.502C117.9 317.267 118.354 317.082 118.837 316.946C119.326 316.81 119.845 316.742 120.396 316.742C121.23 316.742 121.951 316.887 122.557 317.178C123.163 317.468 123.63 317.883 123.958 318.421C124.292 318.959 124.459 319.599 124.459 320.341C124.459 321.059 124.317 321.727 124.032 322.345C123.748 322.958 123.349 323.567 122.835 324.173C122.322 324.773 121.722 325.41 121.036 326.084L118.085 329.025V329.09H125.016V330.5ZM135.889 330.5H127.001V329.21L130.628 325.527C131.303 324.847 131.868 324.241 132.326 323.709C132.79 323.177 133.143 322.654 133.384 322.141C133.625 321.622 133.746 321.053 133.746 320.434C133.746 319.667 133.517 319.083 133.059 318.681C132.608 318.272 132.011 318.068 131.269 318.068C130.619 318.068 130.044 318.18 129.543 318.402C129.042 318.625 128.529 318.94 128.003 319.349L127.177 318.31C127.536 318.007 127.926 317.737 128.346 317.502C128.773 317.267 129.228 317.082 129.71 316.946C130.199 316.81 130.718 316.742 131.269 316.742C132.104 316.742 132.824 316.887 133.43 317.178C134.036 317.468 134.503 317.883 134.831 318.421C135.165 318.959 135.332 319.599 135.332 320.341C135.332 321.059 135.19 321.727 134.905 322.345C134.621 322.958 134.222 323.567 133.708 324.173C133.195 324.773 132.595 325.41 131.909 326.084L128.958 329.025V329.09H135.889V330.5ZM146.261 320.1C146.261 320.706 146.143 321.232 145.908 321.677C145.673 322.123 145.345 322.487 144.925 322.772C144.504 323.05 144.009 323.245 143.44 323.356V323.431C144.517 323.567 145.324 323.913 145.862 324.47C146.406 325.026 146.678 325.756 146.678 326.659C146.678 327.445 146.493 328.14 146.122 328.747C145.757 329.353 145.194 329.829 144.433 330.175C143.679 330.515 142.711 330.686 141.529 330.686C140.812 330.686 140.147 330.627 139.535 330.509C138.929 330.398 138.347 330.209 137.791 329.943V328.496C138.353 328.774 138.966 328.994 139.627 329.155C140.289 329.309 140.929 329.387 141.548 329.387C142.785 329.387 143.679 329.142 144.229 328.654C144.779 328.159 145.055 327.485 145.055 326.631C145.055 326.044 144.9 325.571 144.591 325.212C144.288 324.847 143.849 324.581 143.273 324.414C142.704 324.241 142.018 324.154 141.214 324.154H139.859V322.837H141.223C141.959 322.837 142.584 322.729 143.097 322.512C143.611 322.296 144 321.993 144.266 321.603C144.538 321.207 144.674 320.74 144.674 320.202C144.674 319.516 144.445 318.987 143.988 318.616C143.53 318.238 142.909 318.05 142.123 318.05C141.641 318.05 141.201 318.099 140.806 318.198C140.41 318.297 140.039 318.433 139.692 318.606C139.346 318.78 139 318.981 138.653 319.209L137.874 318.152C138.369 317.768 138.972 317.438 139.683 317.159C140.394 316.881 141.201 316.742 142.104 316.742C143.49 316.742 144.529 317.057 145.222 317.688C145.914 318.319 146.261 319.123 146.261 320.1Z" fill="black"/>
<mask id="mask2_94_448" style="mask-type:alpha" maskUnits="userSpaceOnUse" x="419" y="311" width="25" height="24">
<rect x="420" y="311" width="24" height="24" fill="#D9D9D9"/>
</mask>
<g mask="url(#mask2_94_448)">
<path d="M434.5 329C433.8 329 433.208 328.758 432.725 328.275C432.241 327.792 432 327.2 432 326.5C432 325.8 432.241 325.208 432.725 324.725C433.208 324.242 433.8 324 434.5 324C435.2 324 435.791 324.242 436.275 324.725C436.758 325.208 437 325.8 437 326.5C437 327.2 436.758 327.792 436.275 328.275C435.791 328.758 435.2 329 434.5 329ZM425 333C424.45 333 423.979 332.804 423.587 332.413C423.195 332.021 423 331.55 423 331V317C423 316.45 423.195 315.979 423.587 315.588C423.979 315.196 424.45 315 425 315H426V314C426 313.717 426.095 313.479 426.287 313.287C426.479 313.096 426.716 313 427 313C427.283 313 427.52 313.096 427.712 313.287C427.904 313.479 428 313.717 428 314V315H436V314C436 313.717 436.095 313.479 436.287 313.287C436.479 313.096 436.716 313 437 313C437.283 313 437.52 313.096 437.712 313.287C437.904 313.479 438 313.717 438 314V315H439C439.55 315 440.02 315.196 440.412 315.588C440.804 315.979 441 316.45 441 317V331C441 331.55 440.804 332.021 440.412 332.413C440.02 332.804 439.55 333 439 333H425ZM425 331H439V321H425V331ZM425 319H439V317H425V319Z" fill="#4589FF"/>
</g>
<path d="M32.96 404.088C32.96 405.616 32.6662 406.893 32.0786 407.92C31.4972 408.94 30.653 409.71 29.5459 410.23C28.4388 410.743 27.106 411 25.5474 411H21.7065V397.437H25.9648C27.3874 397.437 28.6213 397.69 29.6665 398.197C30.7118 398.698 31.522 399.444 32.0972 400.433C32.6724 401.417 32.96 402.635 32.96 404.088ZM29.9727 404.163C29.9727 403.161 29.8242 402.338 29.5273 401.695C29.2367 401.045 28.8037 400.566 28.2285 400.257C27.6595 399.948 26.9544 399.793 26.1133 399.793H24.5825V408.625H25.8164C27.2204 408.625 28.2625 408.251 28.9429 407.502C29.6294 406.754 29.9727 405.641 29.9727 404.163ZM45.0669 400.628V411H42.896L42.5156 409.673H42.3672C42.1445 410.026 41.8662 410.313 41.5322 410.536C41.1982 410.759 40.8302 410.923 40.4282 411.028C40.0262 411.133 39.6087 411.186 39.1758 411.186C38.4336 411.186 37.7873 411.056 37.2368 410.796C36.6864 410.53 36.2565 410.119 35.9473 409.562C35.6442 409.005 35.4927 408.282 35.4927 407.391V400.628H38.3223V406.686C38.3223 407.428 38.4552 407.988 38.7212 408.365C38.9871 408.743 39.4108 408.931 39.9922 408.931C40.5674 408.931 41.0189 408.801 41.3467 408.542C41.6745 408.276 41.9033 407.889 42.0332 407.382C42.1693 406.868 42.2373 406.244 42.2373 405.508V400.628H45.0669ZM52.3125 400.433C53.2712 400.433 54.0968 400.619 54.7896 400.99C55.4823 401.355 56.0173 401.887 56.3945 402.585C56.7718 403.284 56.9604 404.138 56.9604 405.146V406.519H50.2715C50.3024 407.317 50.5405 407.945 50.9858 408.402C51.4373 408.854 52.062 409.08 52.8599 409.08C53.5216 409.08 54.1278 409.012 54.6782 408.875C55.2287 408.739 55.7946 408.535 56.376 408.263V410.453C55.8626 410.706 55.3245 410.892 54.7617 411.009C54.2051 411.127 53.5278 411.186 52.73 411.186C51.6909 411.186 50.7694 410.994 49.9653 410.61C49.1675 410.227 48.5397 409.642 48.082 408.857C47.6305 408.071 47.4048 407.082 47.4048 405.888C47.4048 404.676 47.6089 403.668 48.0171 402.864C48.4315 402.054 49.0067 401.447 49.7427 401.045C50.4787 400.637 51.3353 400.433 52.3125 400.433ZM52.3311 402.446C51.7806 402.446 51.3229 402.623 50.958 402.975C50.5993 403.328 50.3921 403.881 50.3364 404.636H54.3071C54.3009 404.215 54.2236 403.841 54.0752 403.513C53.9329 403.185 53.7165 402.926 53.4258 402.734C53.1413 402.542 52.7764 402.446 52.3311 402.446ZM67.481 411.186C66.3244 411.186 65.3812 410.734 64.6514 409.831C63.9277 408.922 63.5659 407.589 63.5659 405.833C63.5659 404.057 63.9339 402.715 64.6699 401.806C65.4059 400.891 66.3677 400.433 67.5552 400.433C68.05 400.433 68.486 400.501 68.8633 400.637C69.2406 400.773 69.5653 400.956 69.8374 401.185C70.1157 401.413 70.3507 401.67 70.5425 401.955H70.6353C70.5981 401.757 70.5518 401.466 70.4961 401.083C70.4466 400.693 70.4219 400.294 70.4219 399.886V396.564H73.2607V411H71.0898L70.5425 409.655H70.4219C70.2425 409.939 70.0168 410.199 69.7446 410.434C69.4787 410.663 69.1602 410.845 68.7891 410.981C68.418 411.118 67.9819 411.186 67.481 411.186ZM68.4736 408.931C69.2467 408.931 69.791 408.702 70.1064 408.245C70.4281 407.781 70.5981 407.085 70.6167 406.157V405.851C70.6167 404.843 70.4621 404.073 70.1528 403.541C69.8436 403.003 69.2684 402.734 68.4272 402.734C67.8026 402.734 67.314 403.003 66.9614 403.541C66.6089 404.079 66.4326 404.855 66.4326 405.87C66.4326 406.884 66.6089 407.648 66.9614 408.161C67.3201 408.674 67.8242 408.931 68.4736 408.931ZM80.4692 400.415C81.8608 400.415 82.9277 400.718 83.6699 401.324C84.4121 401.93 84.7832 402.851 84.7832 404.088V411H82.8071L82.2598 409.59H82.1855C81.8887 409.961 81.5856 410.264 81.2764 410.499C80.9671 410.734 80.6115 410.907 80.2095 411.019C79.8075 411.13 79.3188 411.186 78.7437 411.186C78.1313 411.186 77.5809 411.068 77.0923 410.833C76.6099 410.598 76.2295 410.239 75.9512 409.757C75.6729 409.268 75.5337 408.65 75.5337 407.901C75.5337 406.8 75.9202 405.99 76.6934 405.471C77.4665 404.945 78.6261 404.654 80.1724 404.599L81.9722 404.543V404.088C81.9722 403.544 81.8299 403.145 81.5454 402.892C81.2609 402.638 80.8651 402.511 80.3579 402.511C79.8569 402.511 79.3652 402.582 78.8828 402.725C78.4004 402.867 77.918 403.046 77.4355 403.263L76.4985 401.352C77.049 401.061 77.6644 400.832 78.3447 400.665C79.0312 400.498 79.7394 400.415 80.4692 400.415ZM81.9722 406.194L80.8774 406.231C79.9621 406.256 79.325 406.42 78.9663 406.723C78.6138 407.026 78.4375 407.425 78.4375 407.92C78.4375 408.353 78.5643 408.662 78.8179 408.848C79.0715 409.027 79.4023 409.117 79.8105 409.117C80.4167 409.117 80.9269 408.937 81.3413 408.579C81.7619 408.22 81.9722 407.71 81.9722 407.048V406.194ZM92.0752 408.931C92.3844 408.931 92.6844 408.9 92.9751 408.838C93.272 408.777 93.5658 408.699 93.8564 408.606V410.712C93.5534 410.848 93.1761 410.96 92.7246 411.046C92.2793 411.139 91.7907 411.186 91.2588 411.186C90.6403 411.186 90.0837 411.087 89.5889 410.889C89.1003 410.685 88.7137 410.335 88.4292 409.84C88.1509 409.339 88.0117 408.644 88.0117 407.753V402.752H86.6572V401.556L88.2158 400.609L89.0322 398.42H90.8413V400.628H93.7451V402.752H90.8413V407.753C90.8413 408.149 90.9526 408.446 91.1753 408.644C91.4041 408.835 91.7041 408.931 92.0752 408.931ZM100.239 400.433C101.198 400.433 102.024 400.619 102.716 400.99C103.409 401.355 103.944 401.887 104.321 402.585C104.699 403.284 104.887 404.138 104.887 405.146V406.519H98.1982C98.2292 407.317 98.4673 407.945 98.9126 408.402C99.3641 408.854 99.9888 409.08 100.787 409.08C101.448 409.08 102.055 409.012 102.605 408.875C103.155 408.739 103.721 408.535 104.303 408.263V410.453C103.789 410.706 103.251 410.892 102.688 411.009C102.132 411.127 101.455 411.186 100.657 411.186C99.6177 411.186 98.6961 410.994 97.8921 410.61C97.0942 410.227 96.4665 409.642 96.0088 408.857C95.5573 408.071 95.3315 407.082 95.3315 405.888C95.3315 404.676 95.5356 403.668 95.9438 402.864C96.3582 402.054 96.9334 401.447 97.6694 401.045C98.4054 400.637 99.262 400.433 100.239 400.433ZM100.258 402.446C99.7074 402.446 99.2497 402.623 98.8848 402.975C98.526 403.328 98.3188 403.881 98.2632 404.636H102.234C102.228 404.215 102.15 403.841 102.002 403.513C101.86 403.185 101.643 402.926 101.353 402.734C101.068 402.542 100.703 402.446 100.258 402.446Z" fill="#42526E"/>
<mask id="path-22-inside-4_94_448" fill="white">
<path d="M19.9995 423H460V471H19.9995V423Z"/>
</mask>
<path d="M19.9995 423H460V471H19.9995V423Z" fill="white"/>
<path d="M460 470H19.9995V472H460V470Z" fill="#D1D1D1" mask="url(#path-22-inside-4_94_448)"/>
<path d="M45.8984 447.7C45.8984 448.801 45.8149 449.784 45.6479 450.65C45.481 451.516 45.2181 452.249 44.8594 452.849C44.5007 453.449 44.0368 453.906 43.4678 454.222C42.8988 454.531 42.2153 454.686 41.4175 454.686C40.4093 454.686 39.5744 454.41 38.9126 453.86C38.257 453.309 37.7653 452.515 37.4375 451.476C37.1159 450.43 36.9551 449.172 36.9551 447.7C36.9551 446.252 37.1004 445.009 37.3911 443.97C37.688 442.925 38.1642 442.124 38.8198 441.567C39.4754 441.005 40.3413 440.723 41.4175 440.723C42.438 440.723 43.2791 441.001 43.9409 441.558C44.6027 442.109 45.0944 442.906 45.416 443.952C45.7376 444.991 45.8984 446.24 45.8984 447.7ZM38.5044 447.7C38.5044 448.961 38.6003 450.013 38.792 450.854C38.9837 451.695 39.293 452.326 39.7197 452.747C40.1527 453.161 40.7186 453.368 41.4175 453.368C42.1164 453.368 42.6792 453.161 43.106 452.747C43.5389 452.332 43.8512 451.704 44.043 450.863C44.2409 450.022 44.3398 448.968 44.3398 447.7C44.3398 446.457 44.244 445.417 44.0522 444.583C43.8605 443.741 43.5513 443.111 43.1245 442.69C42.6978 442.263 42.1287 442.05 41.4175 442.05C40.7062 442.05 40.1372 442.263 39.7104 442.69C39.2837 443.111 38.9744 443.741 38.7827 444.583C38.5972 445.417 38.5044 446.457 38.5044 447.7ZM47.9487 448.702C47.9487 447.885 48.0044 447.087 48.1157 446.308C48.2332 445.529 48.4281 444.805 48.7002 444.137C48.9723 443.463 49.3434 442.872 49.8135 442.365C50.2835 441.858 50.868 441.462 51.5669 441.178C52.272 440.887 53.1162 440.742 54.0996 440.742C54.3779 440.742 54.6779 440.757 54.9995 440.788C55.3211 440.813 55.5871 440.856 55.7974 440.918V442.245C55.5685 442.164 55.3057 442.105 55.0088 442.068C54.7181 442.031 54.4243 442.013 54.1274 442.013C52.9771 442.013 52.071 442.263 51.4092 442.764C50.7536 443.265 50.2804 443.945 49.9897 444.805C49.6991 445.659 49.5321 446.62 49.4888 447.69H49.5908C49.7826 447.381 50.0269 447.103 50.3237 446.855C50.6206 446.602 50.9793 446.401 51.3999 446.252C51.8267 446.104 52.3215 446.03 52.8843 446.03C53.6759 446.03 54.3656 446.191 54.9531 446.512C55.5469 446.834 56.0046 447.301 56.3262 447.913C56.654 448.525 56.8179 449.268 56.8179 450.14C56.8179 451.074 56.6447 451.881 56.2983 452.561C55.952 453.241 55.4572 453.767 54.814 454.138C54.1769 454.503 53.4162 454.686 52.5317 454.686C51.87 454.686 51.2607 454.559 50.7041 454.305C50.1475 454.052 49.6619 453.674 49.2476 453.173C48.8394 452.672 48.5208 452.051 48.292 451.309C48.0632 450.56 47.9487 449.691 47.9487 448.702ZM52.5132 453.387C53.3543 453.387 54.0285 453.118 54.5356 452.58C55.0428 452.042 55.2964 451.228 55.2964 450.14C55.2964 449.249 55.0706 448.544 54.6191 448.024C54.1676 447.505 53.4873 447.245 52.5781 447.245C51.9596 447.245 51.4215 447.375 50.9639 447.635C50.5062 447.888 50.1506 448.21 49.897 448.6C49.6434 448.989 49.5166 449.385 49.5166 449.787C49.5166 450.195 49.5754 450.61 49.6929 451.03C49.8166 451.451 50.0021 451.84 50.2495 452.199C50.4969 452.558 50.8092 452.846 51.1865 453.062C51.5638 453.278 52.006 453.387 52.5132 453.387ZM64.5088 440.937L59.4619 454.5H57.9404L62.9966 440.937H64.5088ZM71.3926 454.5H69.8896V444.889C69.8896 444.524 69.8896 444.211 69.8896 443.952C69.8958 443.686 69.902 443.444 69.9082 443.228C69.9206 443.005 69.936 442.78 69.9546 442.551C69.7629 442.749 69.5835 442.919 69.4165 443.061C69.2495 443.197 69.0423 443.367 68.7949 443.571L67.2456 444.814L66.4385 443.766L70.1123 440.937H71.3926V454.5ZM85.4941 447.7C85.4941 448.801 85.4106 449.784 85.2437 450.65C85.0767 451.516 84.8138 452.249 84.4551 452.849C84.0964 453.449 83.6325 453.906 83.0635 454.222C82.4945 454.531 81.811 454.686 81.0132 454.686C80.005 454.686 79.1701 454.41 78.5083 453.86C77.8527 453.309 77.361 452.515 77.0332 451.476C76.7116 450.43 76.5508 449.172 76.5508 447.7C76.5508 446.252 76.6961 445.009 76.9868 443.97C77.2837 442.925 77.7599 442.124 78.4155 441.567C79.0711 441.005 79.937 440.723 81.0132 440.723C82.0337 440.723 82.8748 441.001 83.5366 441.558C84.1984 442.109 84.6901 442.906 85.0117 443.952C85.3333 444.991 85.4941 446.24 85.4941 447.7ZM78.1001 447.7C78.1001 448.961 78.196 450.013 78.3877 450.854C78.5794 451.695 78.8887 452.326 79.3154 452.747C79.7484 453.161 80.3143 453.368 81.0132 453.368C81.7121 453.368 82.2749 453.161 82.7017 452.747C83.1346 452.332 83.4469 451.704 83.6387 450.863C83.8366 450.022 83.9355 448.968 83.9355 447.7C83.9355 446.457 83.8397 445.417 83.6479 444.583C83.4562 443.741 83.147 443.111 82.7202 442.69C82.2935 442.263 81.7244 442.05 81.0132 442.05C80.3019 442.05 79.7329 442.263 79.3062 442.69C78.8794 443.111 78.5701 443.741 78.3784 444.583C78.1929 445.417 78.1001 446.457 78.1001 447.7ZM93.2314 440.937L88.1846 454.5H86.6631L91.7192 440.937H93.2314ZM103.27 454.5H94.3818V453.21L98.0093 449.527C98.6834 448.847 99.2493 448.241 99.707 447.709C100.171 447.177 100.523 446.654 100.765 446.141C101.006 445.622 101.126 445.053 101.126 444.434C101.126 443.667 100.898 443.083 100.44 442.681C99.9884 442.272 99.3916 442.068 98.6494 442.068C98 442.068 97.4248 442.18 96.9238 442.402C96.4229 442.625 95.9095 442.94 95.3838 443.349L94.5581 442.31C94.9168 442.007 95.3065 441.737 95.7271 441.502C96.1538 441.267 96.6084 441.082 97.0908 440.946C97.5794 440.81 98.099 440.742 98.6494 440.742C99.4844 440.742 100.205 440.887 100.811 441.178C101.417 441.468 101.884 441.883 102.212 442.421C102.546 442.959 102.713 443.599 102.713 444.341C102.713 445.059 102.571 445.727 102.286 446.345C102.002 446.958 101.603 447.567 101.089 448.173C100.576 448.773 99.9761 449.41 99.2896 450.084L96.3394 453.025V453.09H103.27V454.5ZM114.217 447.7C114.217 448.801 114.133 449.784 113.966 450.65C113.799 451.516 113.536 452.249 113.178 452.849C112.819 453.449 112.355 453.906 111.786 454.222C111.217 454.531 110.534 454.686 109.736 454.686C108.728 454.686 107.893 454.41 107.231 453.86C106.575 453.309 106.084 452.515 105.756 451.476C105.434 450.43 105.273 449.172 105.273 447.7C105.273 446.252 105.419 445.009 105.709 443.97C106.006 442.925 106.483 442.124 107.138 441.567C107.794 441.005 108.66 440.723 109.736 440.723C110.756 440.723 111.597 441.001 112.259 441.558C112.921 442.109 113.413 442.906 113.734 443.952C114.056 444.991 114.217 446.24 114.217 447.7ZM106.823 447.7C106.823 448.961 106.919 450.013 107.11 450.854C107.302 451.695 107.611 452.326 108.038 452.747C108.471 453.161 109.037 453.368 109.736 453.368C110.435 453.368 110.998 453.161 111.424 452.747C111.857 452.332 112.17 451.704 112.361 450.863C112.559 450.022 112.658 448.968 112.658 447.7C112.658 446.457 112.562 445.417 112.371 444.583C112.179 443.741 111.87 443.111 111.443 442.69C111.016 442.263 110.447 442.05 109.736 442.05C109.025 442.05 108.456 442.263 108.029 442.69C107.602 443.111 107.293 443.741 107.101 444.583C106.916 445.417 106.823 446.457 106.823 447.7ZM125.016 454.5H116.128V453.21L119.755 449.527C120.43 448.847 120.995 448.241 121.453 447.709C121.917 447.177 122.27 446.654 122.511 446.141C122.752 445.622 122.873 445.053 122.873 444.434C122.873 443.667 122.644 443.083 122.186 442.681C121.735 442.272 121.138 442.068 120.396 442.068C119.746 442.068 119.171 442.18 118.67 442.402C118.169 442.625 117.656 442.94 117.13 443.349L116.304 442.31C116.663 442.007 117.053 441.737 117.473 441.502C117.9 441.267 118.354 441.082 118.837 440.946C119.326 440.81 119.845 440.742 120.396 440.742C121.23 440.742 121.951 440.887 122.557 441.178C123.163 441.468 123.63 441.883 123.958 442.421C124.292 442.959 124.459 443.599 124.459 444.341C124.459 445.059 124.317 445.727 124.032 446.345C123.748 446.958 123.349 447.567 122.835 448.173C122.322 448.773 121.722 449.41 121.036 450.084L118.085 453.025V453.09H125.016V454.5ZM135.388 444.1C135.388 444.706 135.27 445.232 135.035 445.677C134.8 446.123 134.472 446.487 134.052 446.772C133.631 447.05 133.136 447.245 132.567 447.356V447.431C133.644 447.567 134.451 447.913 134.989 448.47C135.533 449.026 135.805 449.756 135.805 450.659C135.805 451.445 135.62 452.14 135.249 452.747C134.884 453.353 134.321 453.829 133.56 454.175C132.806 454.515 131.838 454.686 130.656 454.686C129.939 454.686 129.274 454.627 128.662 454.509C128.056 454.398 127.474 454.209 126.917 453.943V452.496C127.48 452.774 128.093 452.994 128.754 453.155C129.416 453.309 130.056 453.387 130.675 453.387C131.912 453.387 132.806 453.142 133.356 452.654C133.906 452.159 134.182 451.485 134.182 450.631C134.182 450.044 134.027 449.571 133.718 449.212C133.415 448.847 132.976 448.581 132.4 448.414C131.831 448.241 131.145 448.154 130.341 448.154H128.986V446.837H130.35C131.086 446.837 131.711 446.729 132.224 446.512C132.737 446.296 133.127 445.993 133.393 445.603C133.665 445.207 133.801 444.74 133.801 444.202C133.801 443.516 133.572 442.987 133.115 442.616C132.657 442.238 132.035 442.05 131.25 442.05C130.768 442.05 130.328 442.099 129.933 442.198C129.537 442.297 129.166 442.433 128.819 442.606C128.473 442.78 128.127 442.981 127.78 443.209L127.001 442.152C127.496 441.768 128.099 441.438 128.81 441.159C129.521 440.881 130.328 440.742 131.231 440.742C132.617 440.742 133.656 441.057 134.349 441.688C135.041 442.319 135.388 443.123 135.388 444.1Z" fill="black"/>
<mask id="mask3_94_448" style="mask-type:alpha" maskUnits="userSpaceOnUse" x="419" y="435" width="25" height="24">
<rect x="420" y="435" width="24" height="24" fill="#D9D9D9"/>
</mask>
<g mask="url(#mask3_94_448)">
<path d="M434.5 453C433.8 453 433.208 452.758 432.725 452.275C432.241 451.792 432 451.2 432 450.5C432 449.8 432.241 449.208 432.725 448.725C433.208 448.242 433.8 448 434.5 448C435.2 448 435.791 448.242 436.275 448.725C436.758 449.208 437 449.8 437 450.5C437 451.2 436.758 451.792 436.275 452.275C435.791 452.758 435.2 453 434.5 453ZM425 457C424.45 457 423.979 456.804 423.587 456.413C423.195 456.021 423 455.55 423 455V441C423 440.45 423.195 439.979 423.587 439.588C423.979 439.196 424.45 439 425 439H426V438C426 437.717 426.095 437.479 426.287 437.287C426.479 437.096 426.716 437 427 437C427.283 437 427.52 437.096 427.712 437.287C427.904 437.479 428 437.717 428 438V439H436V438C436 437.717 436.095 437.479 436.287 437.287C436.479 437.096 436.716 437 437 437C437.283 437 437.52 437.096 437.712 437.287C437.904 437.479 438 437.717 438 438V439H439C439.55 439 440.02 439.196 440.412 439.588C440.804 439.979 441 440.45 441 441V455C441 455.55 440.804 456.021 440.412 456.413C440.02 456.804 439.55 457 439 457H425ZM425 455H439V445H425V455ZM425 443H439V441H425V443Z" fill="#4589FF"/>
</g>
</svg>
