<svg width="214" height="260" viewBox="0 0 214 260" fill="none" xmlns="http://www.w3.org/2000/svg">
<rect x="0.5" y="0.5" width="213" height="259" rx="4.5" stroke="#9747FF" stroke-dasharray="10 5"/>
<rect x="20" y="20" width="174" height="60" rx="10" fill="#4589FF"/>
<path d="M39.2651 44.0298C38.3592 44.0298 37.5431 44.187 36.8169 44.5015C36.0981 44.8084 35.4842 45.2576 34.9751 45.8491C34.4735 46.4331 34.0879 47.1406 33.8184 47.9717C33.5488 48.8027 33.4141 49.7386 33.4141 50.7793C33.4141 52.1569 33.6274 53.3548 34.0542 54.373C34.4884 55.3838 35.1323 56.1662 35.9858 56.7202C36.8468 57.2743 37.9212 57.5513 39.209 57.5513C39.9427 57.5513 40.6315 57.4914 41.2754 57.3716C41.9268 57.2443 42.5594 57.0871 43.1733 56.8999V58.562C42.5744 58.7866 41.9455 58.9513 41.2866 59.0562C40.6278 59.1685 39.8454 59.2246 38.9395 59.2246C37.2699 59.2246 35.8735 58.8802 34.7505 58.1914C33.6349 57.4951 32.7964 56.5143 32.2349 55.249C31.6808 53.9837 31.4038 52.4901 31.4038 50.7681C31.4038 49.5252 31.576 48.391 31.9204 47.3652C32.2723 46.332 32.7814 45.4411 33.4478 44.6924C34.1216 43.9437 34.9451 43.3672 35.9185 42.9629C36.8993 42.5511 38.0223 42.3452 39.2876 42.3452C40.1187 42.3452 40.9198 42.4276 41.6909 42.5923C42.4621 42.757 43.1584 42.9928 43.7798 43.2998L43.0161 44.917C42.492 44.6774 41.9155 44.4715 41.2866 44.2993C40.6652 44.1196 39.9914 44.0298 39.2651 44.0298ZM52.0454 46.4668C52.2925 46.4668 52.5508 46.4818 52.8203 46.5117C53.0898 46.5342 53.3294 46.5679 53.5391 46.6128L53.3032 48.3423C53.1011 48.2899 52.8765 48.2487 52.6294 48.2188C52.3823 48.1888 52.1502 48.1738 51.9331 48.1738C51.439 48.1738 50.971 48.2749 50.5293 48.4771C50.0951 48.6717 49.7132 48.9562 49.3838 49.3306C49.0544 49.6974 48.7961 50.1429 48.6089 50.667C48.4217 51.1836 48.3281 51.7601 48.3281 52.3965V59H46.4526V46.6914H48.0024L48.2046 48.96H48.2832C48.5378 48.5033 48.8447 48.0877 49.2041 47.7134C49.5635 47.3315 49.979 47.0283 50.4507 46.8037C50.9299 46.5791 51.4614 46.4668 52.0454 46.4668ZM60.603 46.4668C61.6512 46.4668 62.5496 46.6989 63.2983 47.1631C64.047 47.6273 64.6198 48.2786 65.0166 49.1172C65.4134 49.9482 65.6118 50.9215 65.6118 52.0371V53.1938H57.1104C57.1328 54.6388 57.4922 55.7394 58.1885 56.4956C58.8848 57.2518 59.8656 57.6299 61.1309 57.6299C61.9095 57.6299 62.5983 57.5588 63.1973 57.4165C63.7962 57.2743 64.4176 57.0646 65.0615 56.7876V58.4272C64.4401 58.7043 63.8224 58.9064 63.2085 59.0337C62.6021 59.161 61.8833 59.2246 61.0522 59.2246C59.8693 59.2246 58.8361 58.985 57.9526 58.5059C57.0767 58.0192 56.3953 57.3079 55.9087 56.3721C55.422 55.4362 55.1787 54.2907 55.1787 52.9355C55.1787 51.6104 55.3996 50.4648 55.8413 49.499C56.2905 48.5257 56.9194 47.777 57.728 47.2529C58.5441 46.7288 59.5024 46.4668 60.603 46.4668ZM60.5806 47.9941C59.5848 47.9941 58.7912 48.3198 58.1997 48.9712C57.6082 49.6226 57.2563 50.5322 57.144 51.7002H63.6577C63.6502 50.9665 63.5342 50.3226 63.3096 49.7686C63.0924 49.207 62.7593 48.7728 62.3101 48.4658C61.8608 48.1514 61.2843 47.9941 60.5806 47.9941ZM73.3833 46.4893C74.8507 46.4893 75.9401 46.8187 76.6514 47.4775C77.3626 48.1364 77.7183 49.1883 77.7183 50.6333V59H76.3594L76 57.1807H75.9102C75.5658 57.6299 75.2064 58.008 74.832 58.3149C74.4577 58.6144 74.0234 58.8428 73.5293 59C73.0426 59.1497 72.4437 59.2246 71.7324 59.2246C70.9837 59.2246 70.3174 59.0936 69.7334 58.8315C69.1569 58.5695 68.7002 58.1727 68.3633 57.6411C68.0339 57.1095 67.8691 56.4357 67.8691 55.6196C67.8691 54.3918 68.3558 53.4484 69.3291 52.7896C70.3024 52.1307 71.7848 51.7713 73.7764 51.7114L75.8989 51.6216V50.8691C75.8989 49.806 75.6706 49.061 75.2139 48.6343C74.7572 48.2075 74.1133 47.9941 73.2822 47.9941C72.6383 47.9941 72.0244 48.0877 71.4404 48.2749C70.8564 48.4621 70.3024 48.6829 69.7783 48.9375L69.2056 47.5225C69.7596 47.238 70.396 46.9946 71.1147 46.7925C71.8335 46.5903 72.5897 46.4893 73.3833 46.4893ZM75.8765 52.9355L74.001 53.0142C72.4661 53.0741 71.3843 53.3249 70.7554 53.7666C70.1265 54.2083 69.812 54.8335 69.812 55.6421C69.812 56.3459 70.0254 56.8662 70.4521 57.2031C70.8789 57.54 71.4442 57.7085 72.1479 57.7085C73.241 57.7085 74.1357 57.4053 74.832 56.7988C75.5283 56.1924 75.8765 55.2827 75.8765 54.0698V52.9355ZM85.5347 57.6973C85.8416 57.6973 86.1561 57.6711 86.478 57.6187C86.8 57.5662 87.062 57.5026 87.2642 57.4277V58.8765C87.047 58.9738 86.7438 59.0562 86.3545 59.1235C85.9727 59.1909 85.5983 59.2246 85.2314 59.2246C84.5801 59.2246 83.9886 59.1123 83.457 58.8877C82.9255 58.6556 82.4987 58.2663 82.1768 57.7197C81.8623 57.1732 81.7051 56.417 81.7051 55.4512V48.1514H79.9531V47.2417L81.7163 46.5117L82.4575 43.8389H83.5806V46.6914H87.1855V48.1514H83.5806V55.395C83.5806 56.1662 83.7565 56.7427 84.1084 57.1245C84.4678 57.5063 84.9432 57.6973 85.5347 57.6973ZM94.4966 46.4668C95.5448 46.4668 96.4432 46.6989 97.1919 47.1631C97.9406 47.6273 98.5133 48.2786 98.9102 49.1172C99.307 49.9482 99.5054 50.9215 99.5054 52.0371V53.1938H91.0039C91.0264 54.6388 91.3857 55.7394 92.082 56.4956C92.7783 57.2518 93.7591 57.6299 95.0244 57.6299C95.8031 57.6299 96.4919 57.5588 97.0908 57.4165C97.6898 57.2743 98.3112 57.0646 98.9551 56.7876V58.4272C98.3337 58.7043 97.716 58.9064 97.1021 59.0337C96.4956 59.161 95.7769 59.2246 94.9458 59.2246C93.7629 59.2246 92.7297 58.985 91.8462 58.5059C90.9702 58.0192 90.2889 57.3079 89.8022 56.3721C89.3156 55.4362 89.0723 54.2907 89.0723 52.9355C89.0723 51.6104 89.2931 50.4648 89.7349 49.499C90.1841 48.5257 90.813 47.777 91.6216 47.2529C92.4377 46.7288 93.396 46.4668 94.4966 46.4668ZM94.4741 47.9941C93.4784 47.9941 92.6847 48.3198 92.0933 48.9712C91.5018 49.6226 91.1499 50.5322 91.0376 51.7002H97.5513C97.5438 50.9665 97.4277 50.3226 97.2031 49.7686C96.986 49.207 96.6528 48.7728 96.2036 48.4658C95.7544 48.1514 95.1779 47.9941 94.4741 47.9941ZM113.97 59H112.05V44.2656H106.884V42.5811H119.114V44.2656H113.97V59ZM125.919 46.4893C127.387 46.4893 128.476 46.8187 129.188 47.4775C129.899 48.1364 130.254 49.1883 130.254 50.6333V59H128.896L128.536 57.1807H128.446C128.102 57.6299 127.743 58.008 127.368 58.3149C126.994 58.6144 126.56 58.8428 126.065 59C125.579 59.1497 124.98 59.2246 124.269 59.2246C123.52 59.2246 122.854 59.0936 122.27 58.8315C121.693 58.5695 121.236 58.1727 120.899 57.6411C120.57 57.1095 120.405 56.4357 120.405 55.6196C120.405 54.3918 120.892 53.4484 121.865 52.7896C122.839 52.1307 124.321 51.7713 126.312 51.7114L128.435 51.6216V50.8691C128.435 49.806 128.207 49.061 127.75 48.6343C127.293 48.2075 126.649 47.9941 125.818 47.9941C125.174 47.9941 124.561 48.0877 123.977 48.2749C123.393 48.4621 122.839 48.6829 122.314 48.9375L121.742 47.5225C122.296 47.238 122.932 46.9946 123.651 46.7925C124.37 46.5903 125.126 46.4893 125.919 46.4893ZM128.413 52.9355L126.537 53.0142C125.002 53.0741 123.92 53.3249 123.292 53.7666C122.663 54.2083 122.348 54.8335 122.348 55.6421C122.348 56.3459 122.562 56.8662 122.988 57.2031C123.415 57.54 123.98 57.7085 124.684 57.7085C125.777 57.7085 126.672 57.4053 127.368 56.7988C128.064 56.1924 128.413 55.2827 128.413 54.0698V52.9355ZM142.058 55.6309C142.058 56.417 141.859 57.0796 141.462 57.6187C141.073 58.1502 140.512 58.5508 139.778 58.8203C139.052 59.0898 138.183 59.2246 137.172 59.2246C136.311 59.2246 135.566 59.1572 134.938 59.0225C134.309 58.8877 133.758 58.6968 133.287 58.4497V56.7314C133.788 56.9785 134.387 57.2031 135.083 57.4053C135.78 57.6074 136.491 57.7085 137.217 57.7085C138.28 57.7085 139.052 57.5363 139.531 57.1919C140.01 56.8475 140.25 56.3796 140.25 55.7881C140.25 55.4512 140.152 55.1554 139.958 54.9009C139.77 54.6388 139.452 54.388 139.003 54.1484C138.554 53.9014 137.932 53.6318 137.139 53.3398C136.353 53.0404 135.671 52.7446 135.095 52.4526C134.526 52.1532 134.084 51.79 133.77 51.3633C133.463 50.9365 133.309 50.3825 133.309 49.7012C133.309 48.6605 133.728 47.8631 134.567 47.3091C135.413 46.7476 136.521 46.4668 137.891 46.4668C138.632 46.4668 139.325 46.5417 139.969 46.6914C140.62 46.8337 141.227 47.0283 141.788 47.2754L141.159 48.769C140.65 48.5519 140.107 48.3685 139.531 48.2188C138.954 48.069 138.367 47.9941 137.768 47.9941C136.907 47.9941 136.244 48.1364 135.78 48.4209C135.323 48.7054 135.095 49.0947 135.095 49.5889C135.095 49.9707 135.2 50.2852 135.409 50.5322C135.626 50.7793 135.971 51.0114 136.442 51.2285C136.914 51.4456 137.535 51.7002 138.307 51.9922C139.078 52.2767 139.744 52.5724 140.306 52.8794C140.867 53.1789 141.298 53.5457 141.597 53.98C141.904 54.4067 142.058 54.957 142.058 55.6309ZM146.909 41.5254V50.5996C146.909 50.8991 146.898 51.266 146.875 51.7002C146.853 52.127 146.834 52.505 146.819 52.8345H146.898C147.055 52.6398 147.284 52.3516 147.583 51.9697C147.89 51.5879 148.148 51.2809 148.358 51.0488L152.446 46.6914H154.636L149.683 51.9473L154.995 59H152.749L148.403 53.1714L146.909 54.5415V59H145.056V41.5254H146.909Z" fill="white"/>
<mask id="mask0_70_783" style="mask-type:alpha" maskUnits="userSpaceOnUse" x="160" y="38" width="24" height="24">
<rect x="160" y="38" width="24" height="24" fill="#D9D9D9"/>
</mask>
<g mask="url(#mask0_70_783)">
<path d="M169.55 53.15L178.025 44.675C178.225 44.475 178.463 44.375 178.738 44.375C179.013 44.375 179.25 44.475 179.45 44.675C179.65 44.875 179.75 45.1125 179.75 45.3875C179.75 45.6625 179.65 45.9 179.45 46.1L170.25 55.3C170.05 55.5 169.817 55.6 169.55 55.6C169.284 55.6 169.05 55.5 168.85 55.3L164.55 51C164.35 50.8 164.254 50.5625 164.263 50.2875C164.271 50.0125 164.375 49.775 164.575 49.575C164.775 49.375 165.013 49.275 165.288 49.275C165.563 49.275 165.8 49.375 166 49.575L169.55 53.15Z" fill="white"/>
</g>
<g filter="url(#filter0_d_70_783)">
<rect x="20" y="100" width="174" height="60" rx="10" fill="#005DFF"/>
<path d="M39.2651 124.03C38.3592 124.03 37.5431 124.187 36.8169 124.501C36.0981 124.808 35.4842 125.258 34.9751 125.849C34.4735 126.433 34.0879 127.141 33.8184 127.972C33.5488 128.803 33.4141 129.739 33.4141 130.779C33.4141 132.157 33.6274 133.355 34.0542 134.373C34.4884 135.384 35.1323 136.166 35.9858 136.72C36.8468 137.274 37.9212 137.551 39.209 137.551C39.9427 137.551 40.6315 137.491 41.2754 137.372C41.9268 137.244 42.5594 137.087 43.1733 136.9V138.562C42.5744 138.787 41.9455 138.951 41.2866 139.056C40.6278 139.168 39.8454 139.225 38.9395 139.225C37.2699 139.225 35.8735 138.88 34.7505 138.191C33.6349 137.495 32.7964 136.514 32.2349 135.249C31.6808 133.984 31.4038 132.49 31.4038 130.768C31.4038 129.525 31.576 128.391 31.9204 127.365C32.2723 126.332 32.7814 125.441 33.4478 124.692C34.1216 123.944 34.9451 123.367 35.9185 122.963C36.8993 122.551 38.0223 122.345 39.2876 122.345C40.1187 122.345 40.9198 122.428 41.6909 122.592C42.4621 122.757 43.1584 122.993 43.7798 123.3L43.0161 124.917C42.492 124.677 41.9155 124.472 41.2866 124.299C40.6652 124.12 39.9914 124.03 39.2651 124.03ZM52.0454 126.467C52.2925 126.467 52.5508 126.482 52.8203 126.512C53.0898 126.534 53.3294 126.568 53.5391 126.613L53.3032 128.342C53.1011 128.29 52.8765 128.249 52.6294 128.219C52.3823 128.189 52.1502 128.174 51.9331 128.174C51.439 128.174 50.971 128.275 50.5293 128.477C50.0951 128.672 49.7132 128.956 49.3838 129.331C49.0544 129.697 48.7961 130.143 48.6089 130.667C48.4217 131.184 48.3281 131.76 48.3281 132.396V139H46.4526V126.691H48.0024L48.2046 128.96H48.2832C48.5378 128.503 48.8447 128.088 49.2041 127.713C49.5635 127.332 49.979 127.028 50.4507 126.804C50.9299 126.579 51.4614 126.467 52.0454 126.467ZM60.603 126.467C61.6512 126.467 62.5496 126.699 63.2983 127.163C64.047 127.627 64.6198 128.279 65.0166 129.117C65.4134 129.948 65.6118 130.922 65.6118 132.037V133.194H57.1104C57.1328 134.639 57.4922 135.739 58.1885 136.496C58.8848 137.252 59.8656 137.63 61.1309 137.63C61.9095 137.63 62.5983 137.559 63.1973 137.417C63.7962 137.274 64.4176 137.065 65.0615 136.788V138.427C64.4401 138.704 63.8224 138.906 63.2085 139.034C62.6021 139.161 61.8833 139.225 61.0522 139.225C59.8693 139.225 58.8361 138.985 57.9526 138.506C57.0767 138.019 56.3953 137.308 55.9087 136.372C55.422 135.436 55.1787 134.291 55.1787 132.936C55.1787 131.61 55.3996 130.465 55.8413 129.499C56.2905 128.526 56.9194 127.777 57.728 127.253C58.5441 126.729 59.5024 126.467 60.603 126.467ZM60.5806 127.994C59.5848 127.994 58.7912 128.32 58.1997 128.971C57.6082 129.623 57.2563 130.532 57.144 131.7H63.6577C63.6502 130.966 63.5342 130.323 63.3096 129.769C63.0924 129.207 62.7593 128.773 62.3101 128.466C61.8608 128.151 61.2843 127.994 60.5806 127.994ZM73.3833 126.489C74.8507 126.489 75.9401 126.819 76.6514 127.478C77.3626 128.136 77.7183 129.188 77.7183 130.633V139H76.3594L76 137.181H75.9102C75.5658 137.63 75.2064 138.008 74.832 138.315C74.4577 138.614 74.0234 138.843 73.5293 139C73.0426 139.15 72.4437 139.225 71.7324 139.225C70.9837 139.225 70.3174 139.094 69.7334 138.832C69.1569 138.569 68.7002 138.173 68.3633 137.641C68.0339 137.11 67.8691 136.436 67.8691 135.62C67.8691 134.392 68.3558 133.448 69.3291 132.79C70.3024 132.131 71.7848 131.771 73.7764 131.711L75.8989 131.622V130.869C75.8989 129.806 75.6706 129.061 75.2139 128.634C74.7572 128.208 74.1133 127.994 73.2822 127.994C72.6383 127.994 72.0244 128.088 71.4404 128.275C70.8564 128.462 70.3024 128.683 69.7783 128.938L69.2056 127.522C69.7596 127.238 70.396 126.995 71.1147 126.792C71.8335 126.59 72.5897 126.489 73.3833 126.489ZM75.8765 132.936L74.001 133.014C72.4661 133.074 71.3843 133.325 70.7554 133.767C70.1265 134.208 69.812 134.833 69.812 135.642C69.812 136.346 70.0254 136.866 70.4521 137.203C70.8789 137.54 71.4442 137.708 72.1479 137.708C73.241 137.708 74.1357 137.405 74.832 136.799C75.5283 136.192 75.8765 135.283 75.8765 134.07V132.936ZM85.5347 137.697C85.8416 137.697 86.1561 137.671 86.478 137.619C86.8 137.566 87.062 137.503 87.2642 137.428V138.876C87.047 138.974 86.7438 139.056 86.3545 139.124C85.9727 139.191 85.5983 139.225 85.2314 139.225C84.5801 139.225 83.9886 139.112 83.457 138.888C82.9255 138.656 82.4987 138.266 82.1768 137.72C81.8623 137.173 81.7051 136.417 81.7051 135.451V128.151H79.9531V127.242L81.7163 126.512L82.4575 123.839H83.5806V126.691H87.1855V128.151H83.5806V135.395C83.5806 136.166 83.7565 136.743 84.1084 137.125C84.4678 137.506 84.9432 137.697 85.5347 137.697ZM94.4966 126.467C95.5448 126.467 96.4432 126.699 97.1919 127.163C97.9406 127.627 98.5133 128.279 98.9102 129.117C99.307 129.948 99.5054 130.922 99.5054 132.037V133.194H91.0039C91.0264 134.639 91.3857 135.739 92.082 136.496C92.7783 137.252 93.7591 137.63 95.0244 137.63C95.8031 137.63 96.4919 137.559 97.0908 137.417C97.6898 137.274 98.3112 137.065 98.9551 136.788V138.427C98.3337 138.704 97.716 138.906 97.1021 139.034C96.4956 139.161 95.7769 139.225 94.9458 139.225C93.7629 139.225 92.7297 138.985 91.8462 138.506C90.9702 138.019 90.2889 137.308 89.8022 136.372C89.3156 135.436 89.0723 134.291 89.0723 132.936C89.0723 131.61 89.2931 130.465 89.7349 129.499C90.1841 128.526 90.813 127.777 91.6216 127.253C92.4377 126.729 93.396 126.467 94.4966 126.467ZM94.4741 127.994C93.4784 127.994 92.6847 128.32 92.0933 128.971C91.5018 129.623 91.1499 130.532 91.0376 131.7H97.5513C97.5438 130.966 97.4277 130.323 97.2031 129.769C96.986 129.207 96.6528 128.773 96.2036 128.466C95.7544 128.151 95.1779 127.994 94.4741 127.994ZM113.97 139H112.05V124.266H106.884V122.581H119.114V124.266H113.97V139ZM125.919 126.489C127.387 126.489 128.476 126.819 129.188 127.478C129.899 128.136 130.254 129.188 130.254 130.633V139H128.896L128.536 137.181H128.446C128.102 137.63 127.743 138.008 127.368 138.315C126.994 138.614 126.56 138.843 126.065 139C125.579 139.15 124.98 139.225 124.269 139.225C123.52 139.225 122.854 139.094 122.27 138.832C121.693 138.569 121.236 138.173 120.899 137.641C120.57 137.11 120.405 136.436 120.405 135.62C120.405 134.392 120.892 133.448 121.865 132.79C122.839 132.131 124.321 131.771 126.312 131.711L128.435 131.622V130.869C128.435 129.806 128.207 129.061 127.75 128.634C127.293 128.208 126.649 127.994 125.818 127.994C125.174 127.994 124.561 128.088 123.977 128.275C123.393 128.462 122.839 128.683 122.314 128.938L121.742 127.522C122.296 127.238 122.932 126.995 123.651 126.792C124.37 126.59 125.126 126.489 125.919 126.489ZM128.413 132.936L126.537 133.014C125.002 133.074 123.92 133.325 123.292 133.767C122.663 134.208 122.348 134.833 122.348 135.642C122.348 136.346 122.562 136.866 122.988 137.203C123.415 137.54 123.98 137.708 124.684 137.708C125.777 137.708 126.672 137.405 127.368 136.799C128.064 136.192 128.413 135.283 128.413 134.07V132.936ZM142.058 135.631C142.058 136.417 141.859 137.08 141.462 137.619C141.073 138.15 140.512 138.551 139.778 138.82C139.052 139.09 138.183 139.225 137.172 139.225C136.311 139.225 135.566 139.157 134.938 139.022C134.309 138.888 133.758 138.697 133.287 138.45V136.731C133.788 136.979 134.387 137.203 135.083 137.405C135.78 137.607 136.491 137.708 137.217 137.708C138.28 137.708 139.052 137.536 139.531 137.192C140.01 136.847 140.25 136.38 140.25 135.788C140.25 135.451 140.152 135.155 139.958 134.901C139.77 134.639 139.452 134.388 139.003 134.148C138.554 133.901 137.932 133.632 137.139 133.34C136.353 133.04 135.671 132.745 135.095 132.453C134.526 132.153 134.084 131.79 133.77 131.363C133.463 130.937 133.309 130.382 133.309 129.701C133.309 128.66 133.728 127.863 134.567 127.309C135.413 126.748 136.521 126.467 137.891 126.467C138.632 126.467 139.325 126.542 139.969 126.691C140.62 126.834 141.227 127.028 141.788 127.275L141.159 128.769C140.65 128.552 140.107 128.368 139.531 128.219C138.954 128.069 138.367 127.994 137.768 127.994C136.907 127.994 136.244 128.136 135.78 128.421C135.323 128.705 135.095 129.095 135.095 129.589C135.095 129.971 135.2 130.285 135.409 130.532C135.626 130.779 135.971 131.011 136.442 131.229C136.914 131.446 137.535 131.7 138.307 131.992C139.078 132.277 139.744 132.572 140.306 132.879C140.867 133.179 141.298 133.546 141.597 133.98C141.904 134.407 142.058 134.957 142.058 135.631ZM146.909 121.525V130.6C146.909 130.899 146.898 131.266 146.875 131.7C146.853 132.127 146.834 132.505 146.819 132.834H146.898C147.055 132.64 147.284 132.352 147.583 131.97C147.89 131.588 148.148 131.281 148.358 131.049L152.446 126.691H154.636L149.683 131.947L154.995 139H152.749L148.403 133.171L146.909 134.542V139H145.056V121.525H146.909Z" fill="white"/>
<mask id="mask1_70_783" style="mask-type:alpha" maskUnits="userSpaceOnUse" x="160" y="118" width="24" height="24">
<rect x="160" y="118" width="24" height="24" fill="#D9D9D9"/>
</mask>
<g mask="url(#mask1_70_783)">
<path d="M169.55 133.15L178.025 124.675C178.225 124.475 178.463 124.375 178.738 124.375C179.013 124.375 179.25 124.475 179.45 124.675C179.65 124.875 179.75 125.113 179.75 125.388C179.75 125.663 179.65 125.9 179.45 126.1L170.25 135.3C170.05 135.5 169.817 135.6 169.55 135.6C169.284 135.6 169.05 135.5 168.85 135.3L164.55 131C164.35 130.8 164.254 130.562 164.263 130.287C164.271 130.012 164.375 129.775 164.575 129.575C164.775 129.375 165.013 129.275 165.288 129.275C165.563 129.275 165.8 129.375 166 129.575L169.55 133.15Z" fill="white"/>
</g>
</g>
<g filter="url(#filter1_d_70_783)">
<rect x="20" y="180" width="174" height="60" rx="10" fill="white"/>
<path d="M39.2651 204.03C38.3592 204.03 37.5431 204.187 36.8169 204.501C36.0981 204.808 35.4842 205.258 34.9751 205.849C34.4735 206.433 34.0879 207.141 33.8184 207.972C33.5488 208.803 33.4141 209.739 33.4141 210.779C33.4141 212.157 33.6274 213.355 34.0542 214.373C34.4884 215.384 35.1323 216.166 35.9858 216.72C36.8468 217.274 37.9212 217.551 39.209 217.551C39.9427 217.551 40.6315 217.491 41.2754 217.372C41.9268 217.244 42.5594 217.087 43.1733 216.9V218.562C42.5744 218.787 41.9455 218.951 41.2866 219.056C40.6278 219.168 39.8454 219.225 38.9395 219.225C37.2699 219.225 35.8735 218.88 34.7505 218.191C33.6349 217.495 32.7964 216.514 32.2349 215.249C31.6808 213.984 31.4038 212.49 31.4038 210.768C31.4038 209.525 31.576 208.391 31.9204 207.365C32.2723 206.332 32.7814 205.441 33.4478 204.692C34.1216 203.944 34.9451 203.367 35.9185 202.963C36.8993 202.551 38.0223 202.345 39.2876 202.345C40.1187 202.345 40.9198 202.428 41.6909 202.592C42.4621 202.757 43.1584 202.993 43.7798 203.3L43.0161 204.917C42.492 204.677 41.9155 204.472 41.2866 204.299C40.6652 204.12 39.9914 204.03 39.2651 204.03ZM52.0454 206.467C52.2925 206.467 52.5508 206.482 52.8203 206.512C53.0898 206.534 53.3294 206.568 53.5391 206.613L53.3032 208.342C53.1011 208.29 52.8765 208.249 52.6294 208.219C52.3823 208.189 52.1502 208.174 51.9331 208.174C51.439 208.174 50.971 208.275 50.5293 208.477C50.0951 208.672 49.7132 208.956 49.3838 209.331C49.0544 209.697 48.7961 210.143 48.6089 210.667C48.4217 211.184 48.3281 211.76 48.3281 212.396V219H46.4526V206.691H48.0024L48.2046 208.96H48.2832C48.5378 208.503 48.8447 208.088 49.2041 207.713C49.5635 207.332 49.979 207.028 50.4507 206.804C50.9299 206.579 51.4614 206.467 52.0454 206.467ZM60.603 206.467C61.6512 206.467 62.5496 206.699 63.2983 207.163C64.047 207.627 64.6198 208.279 65.0166 209.117C65.4134 209.948 65.6118 210.922 65.6118 212.037V213.194H57.1104C57.1328 214.639 57.4922 215.739 58.1885 216.496C58.8848 217.252 59.8656 217.63 61.1309 217.63C61.9095 217.63 62.5983 217.559 63.1973 217.417C63.7962 217.274 64.4176 217.065 65.0615 216.788V218.427C64.4401 218.704 63.8224 218.906 63.2085 219.034C62.6021 219.161 61.8833 219.225 61.0522 219.225C59.8693 219.225 58.8361 218.985 57.9526 218.506C57.0767 218.019 56.3953 217.308 55.9087 216.372C55.422 215.436 55.1787 214.291 55.1787 212.936C55.1787 211.61 55.3996 210.465 55.8413 209.499C56.2905 208.526 56.9194 207.777 57.728 207.253C58.5441 206.729 59.5024 206.467 60.603 206.467ZM60.5806 207.994C59.5848 207.994 58.7912 208.32 58.1997 208.971C57.6082 209.623 57.2563 210.532 57.144 211.7H63.6577C63.6502 210.966 63.5342 210.323 63.3096 209.769C63.0924 209.207 62.7593 208.773 62.3101 208.466C61.8608 208.151 61.2843 207.994 60.5806 207.994ZM73.3833 206.489C74.8507 206.489 75.9401 206.819 76.6514 207.478C77.3626 208.136 77.7183 209.188 77.7183 210.633V219H76.3594L76 217.181H75.9102C75.5658 217.63 75.2064 218.008 74.832 218.315C74.4577 218.614 74.0234 218.843 73.5293 219C73.0426 219.15 72.4437 219.225 71.7324 219.225C70.9837 219.225 70.3174 219.094 69.7334 218.832C69.1569 218.569 68.7002 218.173 68.3633 217.641C68.0339 217.11 67.8691 216.436 67.8691 215.62C67.8691 214.392 68.3558 213.448 69.3291 212.79C70.3024 212.131 71.7848 211.771 73.7764 211.711L75.8989 211.622V210.869C75.8989 209.806 75.6706 209.061 75.2139 208.634C74.7572 208.208 74.1133 207.994 73.2822 207.994C72.6383 207.994 72.0244 208.088 71.4404 208.275C70.8564 208.462 70.3024 208.683 69.7783 208.938L69.2056 207.522C69.7596 207.238 70.396 206.995 71.1147 206.792C71.8335 206.59 72.5897 206.489 73.3833 206.489ZM75.8765 212.936L74.001 213.014C72.4661 213.074 71.3843 213.325 70.7554 213.767C70.1265 214.208 69.812 214.833 69.812 215.642C69.812 216.346 70.0254 216.866 70.4521 217.203C70.8789 217.54 71.4442 217.708 72.1479 217.708C73.241 217.708 74.1357 217.405 74.832 216.799C75.5283 216.192 75.8765 215.283 75.8765 214.07V212.936ZM85.5347 217.697C85.8416 217.697 86.1561 217.671 86.478 217.619C86.8 217.566 87.062 217.503 87.2642 217.428V218.876C87.047 218.974 86.7438 219.056 86.3545 219.124C85.9727 219.191 85.5983 219.225 85.2314 219.225C84.5801 219.225 83.9886 219.112 83.457 218.888C82.9255 218.656 82.4987 218.266 82.1768 217.72C81.8623 217.173 81.7051 216.417 81.7051 215.451V208.151H79.9531V207.242L81.7163 206.512L82.4575 203.839H83.5806V206.691H87.1855V208.151H83.5806V215.395C83.5806 216.166 83.7565 216.743 84.1084 217.125C84.4678 217.506 84.9432 217.697 85.5347 217.697ZM94.4966 206.467C95.5448 206.467 96.4432 206.699 97.1919 207.163C97.9406 207.627 98.5133 208.279 98.9102 209.117C99.307 209.948 99.5054 210.922 99.5054 212.037V213.194H91.0039C91.0264 214.639 91.3857 215.739 92.082 216.496C92.7783 217.252 93.7591 217.63 95.0244 217.63C95.8031 217.63 96.4919 217.559 97.0908 217.417C97.6898 217.274 98.3112 217.065 98.9551 216.788V218.427C98.3337 218.704 97.716 218.906 97.1021 219.034C96.4956 219.161 95.7769 219.225 94.9458 219.225C93.7629 219.225 92.7297 218.985 91.8462 218.506C90.9702 218.019 90.2889 217.308 89.8022 216.372C89.3156 215.436 89.0723 214.291 89.0723 212.936C89.0723 211.61 89.2931 210.465 89.7349 209.499C90.1841 208.526 90.813 207.777 91.6216 207.253C92.4377 206.729 93.396 206.467 94.4966 206.467ZM94.4741 207.994C93.4784 207.994 92.6847 208.32 92.0933 208.971C91.5018 209.623 91.1499 210.532 91.0376 211.7H97.5513C97.5438 210.966 97.4277 210.323 97.2031 209.769C96.986 209.207 96.6528 208.773 96.2036 208.466C95.7544 208.151 95.1779 207.994 94.4741 207.994ZM113.97 219H112.05V204.266H106.884V202.581H119.114V204.266H113.97V219ZM125.919 206.489C127.387 206.489 128.476 206.819 129.188 207.478C129.899 208.136 130.254 209.188 130.254 210.633V219H128.896L128.536 217.181H128.446C128.102 217.63 127.743 218.008 127.368 218.315C126.994 218.614 126.56 218.843 126.065 219C125.579 219.15 124.98 219.225 124.269 219.225C123.52 219.225 122.854 219.094 122.27 218.832C121.693 218.569 121.236 218.173 120.899 217.641C120.57 217.11 120.405 216.436 120.405 215.62C120.405 214.392 120.892 213.448 121.865 212.79C122.839 212.131 124.321 211.771 126.312 211.711L128.435 211.622V210.869C128.435 209.806 128.207 209.061 127.75 208.634C127.293 208.208 126.649 207.994 125.818 207.994C125.174 207.994 124.561 208.088 123.977 208.275C123.393 208.462 122.839 208.683 122.314 208.938L121.742 207.522C122.296 207.238 122.932 206.995 123.651 206.792C124.37 206.59 125.126 206.489 125.919 206.489ZM128.413 212.936L126.537 213.014C125.002 213.074 123.92 213.325 123.292 213.767C122.663 214.208 122.348 214.833 122.348 215.642C122.348 216.346 122.562 216.866 122.988 217.203C123.415 217.54 123.98 217.708 124.684 217.708C125.777 217.708 126.672 217.405 127.368 216.799C128.064 216.192 128.413 215.283 128.413 214.07V212.936ZM142.058 215.631C142.058 216.417 141.859 217.08 141.462 217.619C141.073 218.15 140.512 218.551 139.778 218.82C139.052 219.09 138.183 219.225 137.172 219.225C136.311 219.225 135.566 219.157 134.938 219.022C134.309 218.888 133.758 218.697 133.287 218.45V216.731C133.788 216.979 134.387 217.203 135.083 217.405C135.78 217.607 136.491 217.708 137.217 217.708C138.28 217.708 139.052 217.536 139.531 217.192C140.01 216.847 140.25 216.38 140.25 215.788C140.25 215.451 140.152 215.155 139.958 214.901C139.77 214.639 139.452 214.388 139.003 214.148C138.554 213.901 137.932 213.632 137.139 213.34C136.353 213.04 135.671 212.745 135.095 212.453C134.526 212.153 134.084 211.79 133.77 211.363C133.463 210.937 133.309 210.382 133.309 209.701C133.309 208.66 133.728 207.863 134.567 207.309C135.413 206.748 136.521 206.467 137.891 206.467C138.632 206.467 139.325 206.542 139.969 206.691C140.62 206.834 141.227 207.028 141.788 207.275L141.159 208.769C140.65 208.552 140.107 208.368 139.531 208.219C138.954 208.069 138.367 207.994 137.768 207.994C136.907 207.994 136.244 208.136 135.78 208.421C135.323 208.705 135.095 209.095 135.095 209.589C135.095 209.971 135.2 210.285 135.409 210.532C135.626 210.779 135.971 211.011 136.442 211.229C136.914 211.446 137.535 211.7 138.307 211.992C139.078 212.277 139.744 212.572 140.306 212.879C140.867 213.179 141.298 213.546 141.597 213.98C141.904 214.407 142.058 214.957 142.058 215.631ZM146.909 201.525V210.6C146.909 210.899 146.898 211.266 146.875 211.7C146.853 212.127 146.834 212.505 146.819 212.834H146.898C147.055 212.64 147.284 212.352 147.583 211.97C147.89 211.588 148.148 211.281 148.358 211.049L152.446 206.691H154.636L149.683 211.947L154.995 219H152.749L148.403 213.171L146.909 214.542V219H145.056V201.525H146.909Z" fill="#4589FF"/>
<mask id="mask2_70_783" style="mask-type:alpha" maskUnits="userSpaceOnUse" x="160" y="198" width="24" height="24">
<rect x="160" y="198" width="24" height="24" fill="#D9D9D9"/>
</mask>
<g mask="url(#mask2_70_783)">
<path d="M169.55 213.15L178.025 204.675C178.225 204.475 178.463 204.375 178.738 204.375C179.013 204.375 179.25 204.475 179.45 204.675C179.65 204.875 179.75 205.113 179.75 205.388C179.75 205.663 179.65 205.9 179.45 206.1L170.25 215.3C170.05 215.5 169.817 215.6 169.55 215.6C169.284 215.6 169.05 215.5 168.85 215.3L164.55 211C164.35 210.8 164.254 210.562 164.263 210.287C164.271 210.012 164.375 209.775 164.575 209.575C164.775 209.375 165.013 209.275 165.288 209.275C165.563 209.275 165.8 209.375 166 209.575L169.55 213.15Z" fill="#4589FF"/>
</g>
</g>
<defs>
<filter id="filter0_d_70_783" x="12" y="96" width="190" height="76" filterUnits="userSpaceOnUse" color-interpolation-filters="sRGB">
<feFlood flood-opacity="0" result="BackgroundImageFix"/>
<feColorMatrix in="SourceAlpha" type="matrix" values="0 0 0 0 0 0 0 0 0 0 0 0 0 0 0 0 0 0 127 0" result="hardAlpha"/>
<feOffset dy="4"/>
<feGaussianBlur stdDeviation="4"/>
<feComposite in2="hardAlpha" operator="out"/>
<feColorMatrix type="matrix" values="0 0 0 0 0 0 0 0 0 0 0 0 0 0 0 0 0 0 0.2 0"/>
<feBlend mode="normal" in2="BackgroundImageFix" result="effect1_dropShadow_70_783"/>
<feBlend mode="normal" in="SourceGraphic" in2="effect1_dropShadow_70_783" result="shape"/>
</filter>
<filter id="filter1_d_70_783" x="12" y="176" width="190" height="76" filterUnits="userSpaceOnUse" color-interpolation-filters="sRGB">
<feFlood flood-opacity="0" result="BackgroundImageFix"/>
<feColorMatrix in="SourceAlpha" type="matrix" values="0 0 0 0 0 0 0 0 0 0 0 0 0 0 0 0 0 0 127 0" result="hardAlpha"/>
<feOffset dy="4"/>
<feGaussianBlur stdDeviation="4"/>
<feComposite in2="hardAlpha" operator="out"/>
<feColorMatrix type="matrix" values="0 0 0 0 0 0 0 0 0 0 0 0 0 0 0 0 0 0 0.2 0"/>
<feBlend mode="normal" in2="BackgroundImageFix" result="effect1_dropShadow_70_783"/>
<feBlend mode="normal" in="SourceGraphic" in2="effect1_dropShadow_70_783" result="shape"/>
</filter>
</defs>
</svg>
