<svg width="480" height="160" viewBox="0 0 480 160" fill="none" xmlns="http://www.w3.org/2000/svg">
<rect x="0.499512" y="0.5" width="479" height="159" rx="4.5" stroke="#9747FF" stroke-dasharray="10 5"/>
<path d="M46.3276 36.6562C46.3276 36.2031 46.4006 35.8411 46.5464 35.5703C46.6922 35.2943 46.8901 35.0938 47.1401 34.9688C47.3953 34.8438 47.6818 34.7812 47.9995 34.7812C48.3172 34.7812 48.6011 34.8438 48.8511 34.9688C49.1063 35.0938 49.3068 35.2943 49.4526 35.5703C49.5985 35.8464 49.6714 36.2083 49.6714 36.6562C49.6714 37.0938 49.5985 37.4531 49.4526 37.7344C49.3068 38.0104 49.1063 38.2135 48.8511 38.3438C48.6011 38.474 48.3172 38.5391 47.9995 38.5391C47.6818 38.5391 47.3953 38.474 47.1401 38.3438C46.8901 38.2135 46.6922 38.0104 46.5464 37.7344C46.4006 37.4583 46.3276 37.099 46.3276 36.6562ZM66.4448 32.0859C65.8146 32.0859 65.2469 32.1953 64.7417 32.4141C64.2417 32.6276 63.8146 32.9401 63.4604 33.3516C63.1115 33.7578 62.8433 34.25 62.6558 34.8281C62.4683 35.4062 62.3745 36.0573 62.3745 36.7812C62.3745 37.7396 62.5229 38.5729 62.8198 39.2812C63.1219 39.9844 63.5698 40.5286 64.1636 40.9141C64.7625 41.2995 65.5099 41.4922 66.4058 41.4922C66.9162 41.4922 67.3953 41.4505 67.8433 41.3672C68.2964 41.2786 68.7365 41.1693 69.1636 41.0391V42.1953C68.7469 42.3516 68.3094 42.4661 67.8511 42.5391C67.3927 42.6172 66.8485 42.6562 66.2183 42.6562C65.0568 42.6562 64.0854 42.4167 63.3042 41.9375C62.5282 41.4531 61.9448 40.7708 61.5542 39.8906C61.1688 39.0104 60.9761 37.9714 60.9761 36.7734C60.9761 35.9089 61.0959 35.1198 61.3354 34.4062C61.5802 33.6875 61.9344 33.0677 62.3979 32.5469C62.8667 32.026 63.4396 31.625 64.1167 31.3438C64.799 31.0573 65.5802 30.9141 66.4604 30.9141C67.0386 30.9141 67.5959 30.9714 68.1323 31.0859C68.6688 31.2005 69.1532 31.3646 69.5854 31.5781L69.0542 32.7031C68.6896 32.5365 68.2886 32.3932 67.8511 32.2734C67.4188 32.1484 66.95 32.0859 66.4448 32.0859ZM78.8276 38.2031C78.8276 38.9062 78.7365 39.5339 78.5542 40.0859C78.3719 40.638 78.1089 41.1042 77.7651 41.4844C77.4214 41.8646 77.0047 42.1562 76.5151 42.3594C76.0308 42.5573 75.4813 42.6562 74.8667 42.6562C74.2938 42.6562 73.7677 42.5573 73.2886 42.3594C72.8146 42.1562 72.4032 41.8646 72.0542 41.4844C71.7104 41.1042 71.4422 40.638 71.2495 40.0859C71.062 39.5339 70.9683 38.9062 70.9683 38.2031C70.9683 37.2656 71.1271 36.4688 71.4448 35.8125C71.7625 35.151 72.2157 34.6484 72.8042 34.3047C73.3979 33.9557 74.1037 33.7812 74.9214 33.7812C75.7026 33.7812 76.3849 33.9557 76.9683 34.3047C77.5568 34.6536 78.0125 35.1589 78.3354 35.8203C78.6636 36.4766 78.8276 37.2708 78.8276 38.2031ZM72.312 38.2031C72.312 38.8906 72.4032 39.487 72.5854 39.9922C72.7677 40.4974 73.049 40.888 73.4292 41.1641C73.8094 41.4401 74.299 41.5781 74.8979 41.5781C75.4917 41.5781 75.9787 41.4401 76.3589 41.1641C76.7443 40.888 77.0282 40.4974 77.2104 39.9922C77.3927 39.487 77.4839 38.8906 77.4839 38.2031C77.4839 37.5208 77.3927 36.9323 77.2104 36.4375C77.0282 35.9375 76.7469 35.5521 76.3667 35.2812C75.9865 35.0104 75.4943 34.875 74.8901 34.875C73.9995 34.875 73.3459 35.1693 72.9292 35.7578C72.5177 36.3464 72.312 37.1615 72.312 38.2031ZM85.1245 33.7812C86.1401 33.7812 86.9084 34.0312 87.4292 34.5312C87.95 35.026 88.2104 35.8229 88.2104 36.9219V42.5H86.9292V37.0078C86.9292 36.2943 86.7651 35.7604 86.437 35.4062C86.1141 35.0521 85.6167 34.875 84.9448 34.875C83.9969 34.875 83.3302 35.1432 82.9448 35.6797C82.5594 36.2161 82.3667 36.9948 82.3667 38.0156V42.5H81.0698V33.9375H82.1167L82.312 35.1719H82.3823C82.5646 34.8698 82.7964 34.6172 83.0776 34.4141C83.3589 34.2057 83.674 34.0495 84.0229 33.9453C84.3719 33.8359 84.7391 33.7812 85.1245 33.7812ZM93.6479 41.5938C93.8615 41.5938 94.0802 41.5755 94.3042 41.5391C94.5282 41.5026 94.7104 41.4583 94.8511 41.4062V42.4141C94.7 42.4818 94.4891 42.5391 94.2183 42.5859C93.9526 42.6328 93.6922 42.6562 93.437 42.6562C92.9839 42.6562 92.5724 42.5781 92.2026 42.4219C91.8328 42.2604 91.536 41.9896 91.312 41.6094C91.0933 41.2292 90.9839 40.7031 90.9839 40.0312V34.9531H89.7651V34.3203L90.9917 33.8125L91.5073 31.9531H92.2886V33.9375H94.7964V34.9531H92.2886V39.9922C92.2886 40.5286 92.411 40.9297 92.6558 41.1953C92.9058 41.4609 93.2365 41.5938 93.6479 41.5938ZM99.7886 33.7969C100.809 33.7969 101.567 34.026 102.062 34.4844C102.557 34.9427 102.804 35.6745 102.804 36.6797V42.5H101.859L101.609 41.2344H101.546C101.307 41.5469 101.057 41.8099 100.796 42.0234C100.536 42.2318 100.234 42.3906 99.8901 42.5C99.5516 42.6042 99.1349 42.6562 98.6401 42.6562C98.1193 42.6562 97.6558 42.5651 97.2495 42.3828C96.8485 42.2005 96.5308 41.9245 96.2964 41.5547C96.0672 41.1849 95.9526 40.7161 95.9526 40.1484C95.9526 39.2943 96.2912 38.638 96.9683 38.1797C97.6453 37.7214 98.6766 37.4714 100.062 37.4297L101.539 37.3672V36.8438C101.539 36.1042 101.38 35.5859 101.062 35.2891C100.744 34.9922 100.296 34.8438 99.7183 34.8438C99.2703 34.8438 98.8433 34.9089 98.437 35.0391C98.0308 35.1693 97.6453 35.3229 97.2808 35.5L96.8823 34.5156C97.2677 34.3177 97.7104 34.1484 98.2104 34.0078C98.7104 33.8672 99.2365 33.7969 99.7886 33.7969ZM101.523 38.2812L100.218 38.3359C99.1506 38.3776 98.3979 38.5521 97.9604 38.8594C97.5229 39.1667 97.3042 39.6016 97.3042 40.1641C97.3042 40.6536 97.4526 41.0156 97.7495 41.25C98.0464 41.4844 98.4396 41.6016 98.9292 41.6016C99.6896 41.6016 100.312 41.3906 100.796 40.9688C101.281 40.5469 101.523 39.9141 101.523 39.0703V38.2812ZM108.906 42.6562C108.135 42.6562 107.455 42.4974 106.867 42.1797C106.278 41.862 105.82 41.3776 105.492 40.7266C105.164 40.0755 105 39.2552 105 38.2656C105 37.2292 105.171 36.3828 105.515 35.7266C105.864 35.0651 106.343 34.5755 106.953 34.2578C107.562 33.9401 108.255 33.7812 109.031 33.7812C109.458 33.7812 109.869 33.8255 110.265 33.9141C110.666 33.9974 110.994 34.1042 111.25 34.2344L110.859 35.3203C110.598 35.2161 110.296 35.1224 109.953 35.0391C109.614 34.9557 109.296 34.9141 109 34.9141C108.406 34.9141 107.911 35.0417 107.515 35.2969C107.125 35.5521 106.83 35.9271 106.632 36.4219C106.44 36.9167 106.343 37.526 106.343 38.25C106.343 38.9427 106.437 39.5339 106.625 40.0234C106.817 40.513 107.101 40.888 107.476 41.1484C107.856 41.4036 108.33 41.5312 108.898 41.5312C109.351 41.5312 109.76 41.4844 110.125 41.3906C110.489 41.2917 110.82 41.1771 111.117 41.0469V42.2031C110.83 42.349 110.51 42.4609 110.156 42.5391C109.807 42.6172 109.39 42.6562 108.906 42.6562ZM115.914 41.5938C116.127 41.5938 116.346 41.5755 116.57 41.5391C116.794 41.5026 116.976 41.4583 117.117 41.4062V42.4141C116.966 42.4818 116.755 42.5391 116.484 42.5859C116.218 42.6328 115.958 42.6562 115.703 42.6562C115.25 42.6562 114.838 42.5781 114.468 42.4219C114.098 42.2604 113.802 41.9896 113.578 41.6094C113.359 41.2292 113.25 40.7031 113.25 40.0312V34.9531H112.031V34.3203L113.257 33.8125L113.773 31.9531H114.554V33.9375H117.062V34.9531H114.554V39.9922C114.554 40.5286 114.677 40.9297 114.921 41.1953C115.171 41.4609 115.502 41.5938 115.914 41.5938ZM124.531 42.5H123.203V31.0781H129.562V32.25H124.531V36.4375H129.257V37.6016H124.531V42.5ZM138.656 38.2031C138.656 38.9062 138.565 39.5339 138.382 40.0859C138.2 40.638 137.937 41.1042 137.593 41.4844C137.25 41.8646 136.833 42.1562 136.343 42.3594C135.859 42.5573 135.309 42.6562 134.695 42.6562C134.122 42.6562 133.596 42.5573 133.117 42.3594C132.643 42.1562 132.231 41.8646 131.882 41.4844C131.539 41.1042 131.27 40.638 131.078 40.0859C130.89 39.5339 130.796 38.9062 130.796 38.2031C130.796 37.2656 130.955 36.4688 131.273 35.8125C131.591 35.151 132.044 34.6484 132.632 34.3047C133.226 33.9557 133.932 33.7812 134.75 33.7812C135.531 33.7812 136.213 33.9557 136.796 34.3047C137.385 34.6536 137.841 35.1589 138.164 35.8203C138.492 36.4766 138.656 37.2708 138.656 38.2031ZM132.14 38.2031C132.14 38.8906 132.231 39.487 132.414 39.9922C132.596 40.4974 132.877 40.888 133.257 41.1641C133.638 41.4401 134.127 41.5781 134.726 41.5781C135.32 41.5781 135.807 41.4401 136.187 41.1641C136.572 40.888 136.856 40.4974 137.039 39.9922C137.221 39.487 137.312 38.8906 137.312 38.2031C137.312 37.5208 137.221 36.9323 137.039 36.4375C136.856 35.9375 136.575 35.5521 136.195 35.2812C135.815 35.0104 135.322 34.875 134.718 34.875C133.828 34.875 133.174 35.1693 132.757 35.7578C132.346 36.3464 132.14 37.1615 132.14 38.2031ZM144.789 33.7812C144.96 33.7812 145.14 33.7917 145.328 33.8125C145.515 33.8281 145.682 33.8516 145.828 33.8828L145.664 35.0859C145.523 35.0495 145.367 35.0208 145.195 35C145.023 34.9792 144.861 34.9688 144.71 34.9688C144.367 34.9688 144.041 35.0391 143.734 35.1797C143.432 35.3151 143.166 35.513 142.937 35.7734C142.708 36.0286 142.528 36.3385 142.398 36.7031C142.268 37.0625 142.203 37.4635 142.203 37.9062V42.5H140.898V33.9375H141.976L142.117 35.5156H142.171C142.348 35.1979 142.562 34.9089 142.812 34.6484C143.062 34.3828 143.351 34.1719 143.679 34.0156C144.013 33.8594 144.382 33.7812 144.789 33.7812ZM156.742 33.7812C157.684 33.7812 158.395 34.0286 158.875 34.5234C159.354 35.013 159.593 35.8021 159.593 36.8906V42.5H158.312V36.9531C158.312 36.2604 158.161 35.7422 157.859 35.3984C157.562 35.0495 157.119 34.875 156.531 34.875C155.703 34.875 155.101 35.1146 154.726 35.5938C154.351 36.0729 154.164 36.7786 154.164 37.7109V42.5H152.875V36.9531C152.875 36.4896 152.807 36.1042 152.671 35.7969C152.541 35.4896 152.343 35.2604 152.078 35.1094C151.817 34.9531 151.486 34.875 151.085 34.875C150.518 34.875 150.062 34.9922 149.718 35.2266C149.375 35.4609 149.125 35.8099 148.968 36.2734C148.817 36.7318 148.742 37.2969 148.742 37.9688V42.5H147.445V33.9375H148.492L148.687 35.1484H148.757C148.929 34.8516 149.145 34.6016 149.406 34.3984C149.666 34.1953 149.958 34.0417 150.281 33.9375C150.604 33.8333 150.947 33.7812 151.312 33.7812C151.963 33.7812 152.507 33.9036 152.945 34.1484C153.388 34.388 153.708 34.7552 153.906 35.25H153.976C154.257 34.7552 154.643 34.388 155.132 34.1484C155.622 33.9036 156.158 33.7812 156.742 33.7812Z" fill="black"/>
<rect x="19.9995" y="64" width="440" height="32" rx="10" fill="#E3EEFF"/>
<path d="M46.3276 80.6562C46.3276 80.2031 46.4006 79.8411 46.5464 79.5703C46.6922 79.2943 46.8901 79.0938 47.1401 78.9688C47.3953 78.8438 47.6818 78.7812 47.9995 78.7812C48.3172 78.7812 48.6011 78.8438 48.8511 78.9688C49.1063 79.0938 49.3068 79.2943 49.4526 79.5703C49.5985 79.8464 49.6714 80.2083 49.6714 80.6562C49.6714 81.0938 49.5985 81.4531 49.4526 81.7344C49.3068 82.0104 49.1063 82.2135 48.8511 82.3438C48.6011 82.474 48.3172 82.5391 47.9995 82.5391C47.6818 82.5391 47.3953 82.474 47.1401 82.3438C46.8901 82.2135 46.6922 82.0104 46.5464 81.7344C46.4006 81.4583 46.3276 81.099 46.3276 80.6562ZM66.4448 76.0859C65.8146 76.0859 65.2469 76.1953 64.7417 76.4141C64.2417 76.6276 63.8146 76.9401 63.4604 77.3516C63.1115 77.7578 62.8433 78.25 62.6558 78.8281C62.4683 79.4062 62.3745 80.0573 62.3745 80.7812C62.3745 81.7396 62.5229 82.5729 62.8198 83.2812C63.1219 83.9844 63.5698 84.5286 64.1636 84.9141C64.7625 85.2995 65.5099 85.4922 66.4058 85.4922C66.9162 85.4922 67.3953 85.4505 67.8433 85.3672C68.2964 85.2786 68.7365 85.1693 69.1636 85.0391V86.1953C68.7469 86.3516 68.3094 86.4661 67.8511 86.5391C67.3927 86.6172 66.8485 86.6562 66.2183 86.6562C65.0568 86.6562 64.0854 86.4167 63.3042 85.9375C62.5282 85.4531 61.9448 84.7708 61.5542 83.8906C61.1688 83.0104 60.9761 81.9714 60.9761 80.7734C60.9761 79.9089 61.0959 79.1198 61.3354 78.4062C61.5802 77.6875 61.9344 77.0677 62.3979 76.5469C62.8667 76.026 63.4396 75.625 64.1167 75.3438C64.799 75.0573 65.5802 74.9141 66.4604 74.9141C67.0386 74.9141 67.5959 74.9714 68.1323 75.0859C68.6688 75.2005 69.1532 75.3646 69.5854 75.5781L69.0542 76.7031C68.6896 76.5365 68.2886 76.3932 67.8511 76.2734C67.4188 76.1484 66.95 76.0859 66.4448 76.0859ZM78.8276 82.2031C78.8276 82.9062 78.7365 83.5339 78.5542 84.0859C78.3719 84.638 78.1089 85.1042 77.7651 85.4844C77.4214 85.8646 77.0047 86.1562 76.5151 86.3594C76.0308 86.5573 75.4813 86.6562 74.8667 86.6562C74.2938 86.6562 73.7677 86.5573 73.2886 86.3594C72.8146 86.1562 72.4032 85.8646 72.0542 85.4844C71.7104 85.1042 71.4422 84.638 71.2495 84.0859C71.062 83.5339 70.9683 82.9062 70.9683 82.2031C70.9683 81.2656 71.1271 80.4688 71.4448 79.8125C71.7625 79.151 72.2157 78.6484 72.8042 78.3047C73.3979 77.9557 74.1037 77.7812 74.9214 77.7812C75.7026 77.7812 76.3849 77.9557 76.9683 78.3047C77.5568 78.6536 78.0125 79.1589 78.3354 79.8203C78.6636 80.4766 78.8276 81.2708 78.8276 82.2031ZM72.312 82.2031C72.312 82.8906 72.4032 83.487 72.5854 83.9922C72.7677 84.4974 73.049 84.888 73.4292 85.1641C73.8094 85.4401 74.299 85.5781 74.8979 85.5781C75.4917 85.5781 75.9787 85.4401 76.3589 85.1641C76.7443 84.888 77.0282 84.4974 77.2104 83.9922C77.3927 83.487 77.4839 82.8906 77.4839 82.2031C77.4839 81.5208 77.3927 80.9323 77.2104 80.4375C77.0282 79.9375 76.7469 79.5521 76.3667 79.2812C75.9865 79.0104 75.4943 78.875 74.8901 78.875C73.9995 78.875 73.3459 79.1693 72.9292 79.7578C72.5177 80.3464 72.312 81.1615 72.312 82.2031ZM85.1245 77.7812C86.1401 77.7812 86.9084 78.0312 87.4292 78.5312C87.95 79.026 88.2104 79.8229 88.2104 80.9219V86.5H86.9292V81.0078C86.9292 80.2943 86.7651 79.7604 86.437 79.4062C86.1141 79.0521 85.6167 78.875 84.9448 78.875C83.9969 78.875 83.3302 79.1432 82.9448 79.6797C82.5594 80.2161 82.3667 80.9948 82.3667 82.0156V86.5H81.0698V77.9375H82.1167L82.312 79.1719H82.3823C82.5646 78.8698 82.7964 78.6172 83.0776 78.4141C83.3589 78.2057 83.674 78.0495 84.0229 77.9453C84.3719 77.8359 84.7391 77.7812 85.1245 77.7812ZM93.6479 85.5938C93.8615 85.5938 94.0802 85.5755 94.3042 85.5391C94.5282 85.5026 94.7104 85.4583 94.8511 85.4062V86.4141C94.7 86.4818 94.4891 86.5391 94.2183 86.5859C93.9526 86.6328 93.6922 86.6562 93.437 86.6562C92.9839 86.6562 92.5724 86.5781 92.2026 86.4219C91.8328 86.2604 91.536 85.9896 91.312 85.6094C91.0933 85.2292 90.9839 84.7031 90.9839 84.0312V78.9531H89.7651V78.3203L90.9917 77.8125L91.5073 75.9531H92.2886V77.9375H94.7964V78.9531H92.2886V83.9922C92.2886 84.5286 92.411 84.9297 92.6558 85.1953C92.9058 85.4609 93.2365 85.5938 93.6479 85.5938ZM99.7886 77.7969C100.809 77.7969 101.567 78.026 102.062 78.4844C102.557 78.9427 102.804 79.6745 102.804 80.6797V86.5H101.859L101.609 85.2344H101.546C101.307 85.5469 101.057 85.8099 100.796 86.0234C100.536 86.2318 100.234 86.3906 99.8901 86.5C99.5516 86.6042 99.1349 86.6562 98.6401 86.6562C98.1193 86.6562 97.6558 86.5651 97.2495 86.3828C96.8485 86.2005 96.5308 85.9245 96.2964 85.5547C96.0672 85.1849 95.9526 84.7161 95.9526 84.1484C95.9526 83.2943 96.2912 82.638 96.9683 82.1797C97.6453 81.7214 98.6766 81.4714 100.062 81.4297L101.539 81.3672V80.8438C101.539 80.1042 101.38 79.5859 101.062 79.2891C100.744 78.9922 100.296 78.8438 99.7183 78.8438C99.2703 78.8438 98.8433 78.9089 98.437 79.0391C98.0308 79.1693 97.6453 79.3229 97.2808 79.5L96.8823 78.5156C97.2677 78.3177 97.7104 78.1484 98.2104 78.0078C98.7104 77.8672 99.2365 77.7969 99.7886 77.7969ZM101.523 82.2812L100.218 82.3359C99.1506 82.3776 98.3979 82.5521 97.9604 82.8594C97.5229 83.1667 97.3042 83.6016 97.3042 84.1641C97.3042 84.6536 97.4526 85.0156 97.7495 85.25C98.0464 85.4844 98.4396 85.6016 98.9292 85.6016C99.6896 85.6016 100.312 85.3906 100.796 84.9688C101.281 84.5469 101.523 83.9141 101.523 83.0703V82.2812ZM108.906 86.6562C108.135 86.6562 107.455 86.4974 106.867 86.1797C106.278 85.862 105.82 85.3776 105.492 84.7266C105.164 84.0755 105 83.2552 105 82.2656C105 81.2292 105.171 80.3828 105.515 79.7266C105.864 79.0651 106.343 78.5755 106.953 78.2578C107.562 77.9401 108.255 77.7812 109.031 77.7812C109.458 77.7812 109.869 77.8255 110.265 77.9141C110.666 77.9974 110.994 78.1042 111.25 78.2344L110.859 79.3203C110.598 79.2161 110.296 79.1224 109.953 79.0391C109.614 78.9557 109.296 78.9141 109 78.9141C108.406 78.9141 107.911 79.0417 107.515 79.2969C107.125 79.5521 106.83 79.9271 106.632 80.4219C106.44 80.9167 106.343 81.526 106.343 82.25C106.343 82.9427 106.437 83.5339 106.625 84.0234C106.817 84.513 107.101 84.888 107.476 85.1484C107.856 85.4036 108.33 85.5312 108.898 85.5312C109.351 85.5312 109.76 85.4844 110.125 85.3906C110.489 85.2917 110.82 85.1771 111.117 85.0469V86.2031C110.83 86.349 110.51 86.4609 110.156 86.5391C109.807 86.6172 109.39 86.6562 108.906 86.6562ZM115.914 85.5938C116.127 85.5938 116.346 85.5755 116.57 85.5391C116.794 85.5026 116.976 85.4583 117.117 85.4062V86.4141C116.966 86.4818 116.755 86.5391 116.484 86.5859C116.218 86.6328 115.958 86.6562 115.703 86.6562C115.25 86.6562 114.838 86.5781 114.468 86.4219C114.098 86.2604 113.802 85.9896 113.578 85.6094C113.359 85.2292 113.25 84.7031 113.25 84.0312V78.9531H112.031V78.3203L113.257 77.8125L113.773 75.9531H114.554V77.9375H117.062V78.9531H114.554V83.9922C114.554 84.5286 114.677 84.9297 114.921 85.1953C115.171 85.4609 115.502 85.5938 115.914 85.5938ZM124.531 86.5H123.203V75.0781H129.562V76.25H124.531V80.4375H129.257V81.6016H124.531V86.5ZM138.656 82.2031C138.656 82.9062 138.565 83.5339 138.382 84.0859C138.2 84.638 137.937 85.1042 137.593 85.4844C137.25 85.8646 136.833 86.1562 136.343 86.3594C135.859 86.5573 135.309 86.6562 134.695 86.6562C134.122 86.6562 133.596 86.5573 133.117 86.3594C132.643 86.1562 132.231 85.8646 131.882 85.4844C131.539 85.1042 131.27 84.638 131.078 84.0859C130.89 83.5339 130.796 82.9062 130.796 82.2031C130.796 81.2656 130.955 80.4688 131.273 79.8125C131.591 79.151 132.044 78.6484 132.632 78.3047C133.226 77.9557 133.932 77.7812 134.75 77.7812C135.531 77.7812 136.213 77.9557 136.796 78.3047C137.385 78.6536 137.841 79.1589 138.164 79.8203C138.492 80.4766 138.656 81.2708 138.656 82.2031ZM132.14 82.2031C132.14 82.8906 132.231 83.487 132.414 83.9922C132.596 84.4974 132.877 84.888 133.257 85.1641C133.638 85.4401 134.127 85.5781 134.726 85.5781C135.32 85.5781 135.807 85.4401 136.187 85.1641C136.572 84.888 136.856 84.4974 137.039 83.9922C137.221 83.487 137.312 82.8906 137.312 82.2031C137.312 81.5208 137.221 80.9323 137.039 80.4375C136.856 79.9375 136.575 79.5521 136.195 79.2812C135.815 79.0104 135.322 78.875 134.718 78.875C133.828 78.875 133.174 79.1693 132.757 79.7578C132.346 80.3464 132.14 81.1615 132.14 82.2031ZM144.789 77.7812C144.96 77.7812 145.14 77.7917 145.328 77.8125C145.515 77.8281 145.682 77.8516 145.828 77.8828L145.664 79.0859C145.523 79.0495 145.367 79.0208 145.195 79C145.023 78.9792 144.861 78.9688 144.71 78.9688C144.367 78.9688 144.041 79.0391 143.734 79.1797C143.432 79.3151 143.166 79.513 142.937 79.7734C142.708 80.0286 142.528 80.3385 142.398 80.7031C142.268 81.0625 142.203 81.4635 142.203 81.9062V86.5H140.898V77.9375H141.976L142.117 79.5156H142.171C142.348 79.1979 142.562 78.9089 142.812 78.6484C143.062 78.3828 143.351 78.1719 143.679 78.0156C144.013 77.8594 144.382 77.7812 144.789 77.7812ZM156.742 77.7812C157.684 77.7812 158.395 78.0286 158.875 78.5234C159.354 79.013 159.593 79.8021 159.593 80.8906V86.5H158.312V80.9531C158.312 80.2604 158.161 79.7422 157.859 79.3984C157.562 79.0495 157.119 78.875 156.531 78.875C155.703 78.875 155.101 79.1146 154.726 79.5938C154.351 80.0729 154.164 80.7786 154.164 81.7109V86.5H152.875V80.9531C152.875 80.4896 152.807 80.1042 152.671 79.7969C152.541 79.4896 152.343 79.2604 152.078 79.1094C151.817 78.9531 151.486 78.875 151.085 78.875C150.518 78.875 150.062 78.9922 149.718 79.2266C149.375 79.4609 149.125 79.8099 148.968 80.2734C148.817 80.7318 148.742 81.2969 148.742 81.9688V86.5H147.445V77.9375H148.492L148.687 79.1484H148.757C148.929 78.8516 149.145 78.6016 149.406 78.3984C149.666 78.1953 149.958 78.0417 150.281 77.9375C150.604 77.8333 150.947 77.7812 151.312 77.7812C151.963 77.7812 152.507 77.9036 152.945 78.1484C153.388 78.388 153.708 78.7552 153.906 79.25H153.976C154.257 78.7552 154.643 78.388 155.132 78.1484C155.622 77.9036 156.158 77.7812 156.742 77.7812Z" fill="black"/>
<mask id="mask0_19423_10967" style="mask-type:alpha" maskUnits="userSpaceOnUse" x="387" y="68" width="25" height="24">
<rect x="388" y="68" width="24" height="24" fill="#D9D9D9"/>
</mask>
<g mask="url(#mask0_19423_10967)">
<path d="M393 87H394.4L403.025 78.375L401.625 76.975L393 85.6V87ZM407.3 76.925L403.05 72.725L404.45 71.325C404.833 70.9417 405.304 70.75 405.862 70.75C406.42 70.75 406.891 70.9417 407.275 71.325L408.675 72.725C409.058 73.1083 409.258 73.5708 409.275 74.1125C409.291 74.6542 409.108 75.1167 408.725 75.5L407.3 76.925ZM405.85 78.4L395.25 89H391V84.75L401.6 74.15L405.85 78.4Z" fill="#4589FF"/>
</g>
<path d="M416 68V92" stroke="#A8A8A8"/>
<mask id="mask1_19423_10967" style="mask-type:alpha" maskUnits="userSpaceOnUse" x="419" y="68" width="25" height="24">
<rect x="420" y="68" width="24" height="24" fill="#D9D9D9"/>
</mask>
<g mask="url(#mask1_19423_10967)">
<path d="M427 89C426.45 89 425.979 88.8042 425.587 88.4125C425.195 88.0208 425 87.55 425 87V74C424.716 74 424.479 73.9042 424.287 73.7125C424.095 73.5208 424 73.2833 424 73C424 72.7167 424.095 72.4792 424.287 72.2875C424.479 72.0958 424.716 72 425 72H429C429 71.7167 429.095 71.4792 429.287 71.2875C429.479 71.0958 429.716 71 430 71H434C434.283 71 434.52 71.0958 434.712 71.2875C434.904 71.4792 435 71.7167 435 72H439C439.283 72 439.52 72.0958 439.712 72.2875C439.904 72.4792 440 72.7167 440 73C440 73.2833 439.904 73.5208 439.712 73.7125C439.52 73.9042 439.283 74 439 74V87C439 87.55 438.804 88.0208 438.412 88.4125C438.02 88.8042 437.55 89 437 89H427ZM427 74V87H437V74H427ZM429 84C429 84.2833 429.095 84.5208 429.287 84.7125C429.479 84.9042 429.716 85 430 85C430.283 85 430.52 84.9042 430.712 84.7125C430.904 84.5208 431 84.2833 431 84V77C431 76.7167 430.904 76.4792 430.712 76.2875C430.52 76.0958 430.283 76 430 76C429.716 76 429.479 76.0958 429.287 76.2875C429.095 76.4792 429 76.7167 429 77V84ZM433 84C433 84.2833 433.095 84.5208 433.287 84.7125C433.479 84.9042 433.716 85 434 85C434.283 85 434.52 84.9042 434.712 84.7125C434.904 84.5208 435 84.2833 435 84V77C435 76.7167 434.904 76.4792 434.712 76.2875C434.52 76.0958 434.283 76 434 76C433.716 76 433.479 76.0958 433.287 76.2875C433.095 76.4792 433 76.7167 433 77V84Z" fill="#4589FF"/>
</g>
<mask id="path-10-inside-1_19423_10967" fill="white">
<path d="M19.9995 108H460V140H19.9995V108Z"/>
</mask>
<path d="M19.9995 108H460V140H19.9995V108Z" fill="white"/>
<path d="M460 139H19.9995V141H460V139Z" fill="#005DFF" mask="url(#path-10-inside-1_19423_10967)"/>
<path d="M42.4448 120.086C41.8146 120.086 41.2469 120.195 40.7417 120.414C40.2417 120.628 39.8146 120.94 39.4604 121.352C39.1115 121.758 38.8433 122.25 38.6558 122.828C38.4683 123.406 38.3745 124.057 38.3745 124.781C38.3745 125.74 38.5229 126.573 38.8198 127.281C39.1219 127.984 39.5698 128.529 40.1636 128.914C40.7625 129.299 41.5099 129.492 42.4058 129.492C42.9162 129.492 43.3953 129.451 43.8433 129.367C44.2964 129.279 44.7365 129.169 45.1636 129.039V130.195C44.7469 130.352 44.3094 130.466 43.8511 130.539C43.3927 130.617 42.8485 130.656 42.2183 130.656C41.0568 130.656 40.0854 130.417 39.3042 129.938C38.5282 129.453 37.9448 128.771 37.5542 127.891C37.1688 127.01 36.9761 125.971 36.9761 124.773C36.9761 123.909 37.0959 123.12 37.3354 122.406C37.5802 121.688 37.9344 121.068 38.3979 120.547C38.8667 120.026 39.4396 119.625 40.1167 119.344C40.799 119.057 41.5802 118.914 42.4604 118.914C43.0386 118.914 43.5959 118.971 44.1323 119.086C44.6688 119.201 45.1532 119.365 45.5854 119.578L45.0542 120.703C44.6896 120.536 44.2886 120.393 43.8511 120.273C43.4188 120.148 42.95 120.086 42.4448 120.086ZM54.8276 126.203C54.8276 126.906 54.7365 127.534 54.5542 128.086C54.3719 128.638 54.1089 129.104 53.7651 129.484C53.4214 129.865 53.0047 130.156 52.5151 130.359C52.0308 130.557 51.4813 130.656 50.8667 130.656C50.2938 130.656 49.7677 130.557 49.2886 130.359C48.8146 130.156 48.4032 129.865 48.0542 129.484C47.7104 129.104 47.4422 128.638 47.2495 128.086C47.062 127.534 46.9683 126.906 46.9683 126.203C46.9683 125.266 47.1271 124.469 47.4448 123.812C47.7625 123.151 48.2157 122.648 48.8042 122.305C49.3979 121.956 50.1037 121.781 50.9214 121.781C51.7026 121.781 52.3849 121.956 52.9683 122.305C53.5568 122.654 54.0125 123.159 54.3354 123.82C54.6636 124.477 54.8276 125.271 54.8276 126.203ZM48.312 126.203C48.312 126.891 48.4032 127.487 48.5854 127.992C48.7677 128.497 49.049 128.888 49.4292 129.164C49.8094 129.44 50.299 129.578 50.8979 129.578C51.4917 129.578 51.9787 129.44 52.3589 129.164C52.7443 128.888 53.0282 128.497 53.2104 127.992C53.3927 127.487 53.4839 126.891 53.4839 126.203C53.4839 125.521 53.3927 124.932 53.2104 124.438C53.0282 123.938 52.7469 123.552 52.3667 123.281C51.9865 123.01 51.4943 122.875 50.8901 122.875C49.9995 122.875 49.3459 123.169 48.9292 123.758C48.5177 124.346 48.312 125.161 48.312 126.203ZM61.1245 121.781C62.1401 121.781 62.9084 122.031 63.4292 122.531C63.95 123.026 64.2104 123.823 64.2104 124.922V130.5H62.9292V125.008C62.9292 124.294 62.7651 123.76 62.437 123.406C62.1141 123.052 61.6167 122.875 60.9448 122.875C59.9969 122.875 59.3302 123.143 58.9448 123.68C58.5594 124.216 58.3667 124.995 58.3667 126.016V130.5H57.0698V121.938H58.1167L58.312 123.172H58.3823C58.5646 122.87 58.7964 122.617 59.0776 122.414C59.3589 122.206 59.674 122.049 60.0229 121.945C60.3719 121.836 60.7391 121.781 61.1245 121.781ZM69.6479 129.594C69.8615 129.594 70.0802 129.576 70.3042 129.539C70.5282 129.503 70.7104 129.458 70.8511 129.406V130.414C70.7 130.482 70.4891 130.539 70.2183 130.586C69.9526 130.633 69.6922 130.656 69.437 130.656C68.9839 130.656 68.5724 130.578 68.2026 130.422C67.8328 130.26 67.536 129.99 67.312 129.609C67.0933 129.229 66.9839 128.703 66.9839 128.031V122.953H65.7651V122.32L66.9917 121.812L67.5073 119.953H68.2886V121.938H70.7964V122.953H68.2886V127.992C68.2886 128.529 68.411 128.93 68.6558 129.195C68.9058 129.461 69.2365 129.594 69.6479 129.594ZM75.7886 121.797C76.8094 121.797 77.5672 122.026 78.062 122.484C78.5568 122.943 78.8042 123.674 78.8042 124.68V130.5H77.8589L77.6089 129.234H77.5464C77.3068 129.547 77.0568 129.81 76.7964 130.023C76.536 130.232 76.2339 130.391 75.8901 130.5C75.5516 130.604 75.1349 130.656 74.6401 130.656C74.1193 130.656 73.6558 130.565 73.2495 130.383C72.8485 130.201 72.5308 129.924 72.2964 129.555C72.0672 129.185 71.9526 128.716 71.9526 128.148C71.9526 127.294 72.2912 126.638 72.9683 126.18C73.6453 125.721 74.6766 125.471 76.062 125.43L77.5386 125.367V124.844C77.5386 124.104 77.3797 123.586 77.062 123.289C76.7443 122.992 76.2964 122.844 75.7183 122.844C75.2703 122.844 74.8433 122.909 74.437 123.039C74.0308 123.169 73.6453 123.323 73.2808 123.5L72.8823 122.516C73.2677 122.318 73.7104 122.148 74.2104 122.008C74.7104 121.867 75.2365 121.797 75.7886 121.797ZM77.5229 126.281L76.2183 126.336C75.1506 126.378 74.3979 126.552 73.9604 126.859C73.5229 127.167 73.3042 127.602 73.3042 128.164C73.3042 128.654 73.4526 129.016 73.7495 129.25C74.0464 129.484 74.4396 129.602 74.9292 129.602C75.6896 129.602 76.312 129.391 76.7964 128.969C77.2808 128.547 77.5229 127.914 77.5229 127.07V126.281ZM84.9058 130.656C84.1349 130.656 83.4552 130.497 82.8667 130.18C82.2782 129.862 81.8198 129.378 81.4917 128.727C81.1636 128.076 80.9995 127.255 80.9995 126.266C80.9995 125.229 81.1714 124.383 81.5151 123.727C81.8641 123.065 82.3433 122.576 82.9526 122.258C83.562 121.94 84.2547 121.781 85.0308 121.781C85.4578 121.781 85.8693 121.826 86.2651 121.914C86.6662 121.997 86.9943 122.104 87.2495 122.234L86.8589 123.32C86.5985 123.216 86.2964 123.122 85.9526 123.039C85.6141 122.956 85.2964 122.914 84.9995 122.914C84.4058 122.914 83.911 123.042 83.5151 123.297C83.1245 123.552 82.8302 123.927 82.6323 124.422C82.4396 124.917 82.3433 125.526 82.3433 126.25C82.3433 126.943 82.437 127.534 82.6245 128.023C82.8172 128.513 83.1011 128.888 83.4761 129.148C83.8563 129.404 84.3302 129.531 84.8979 129.531C85.3511 129.531 85.7599 129.484 86.1245 129.391C86.4891 129.292 86.8198 129.177 87.1167 129.047V130.203C86.8302 130.349 86.5099 130.461 86.1558 130.539C85.8068 130.617 85.3901 130.656 84.9058 130.656ZM91.9136 129.594C92.1271 129.594 92.3459 129.576 92.5698 129.539C92.7938 129.503 92.9761 129.458 93.1167 129.406V130.414C92.9657 130.482 92.7547 130.539 92.4839 130.586C92.2183 130.633 91.9578 130.656 91.7026 130.656C91.2495 130.656 90.8381 130.578 90.4683 130.422C90.0985 130.26 89.8016 129.99 89.5776 129.609C89.3589 129.229 89.2495 128.703 89.2495 128.031V122.953H88.0308V122.32L89.2573 121.812L89.7729 119.953H90.5542V121.938H93.062V122.953H90.5542V127.992C90.5542 128.529 90.6766 128.93 90.9214 129.195C91.1714 129.461 91.5021 129.594 91.9136 129.594ZM100.531 130.5H99.2026V119.078H105.562V120.25H100.531V124.438H105.257V125.602H100.531V130.5ZM114.656 126.203C114.656 126.906 114.565 127.534 114.382 128.086C114.2 128.638 113.937 129.104 113.593 129.484C113.25 129.865 112.833 130.156 112.343 130.359C111.859 130.557 111.309 130.656 110.695 130.656C110.122 130.656 109.596 130.557 109.117 130.359C108.643 130.156 108.231 129.865 107.882 129.484C107.539 129.104 107.27 128.638 107.078 128.086C106.89 127.534 106.796 126.906 106.796 126.203C106.796 125.266 106.955 124.469 107.273 123.812C107.591 123.151 108.044 122.648 108.632 122.305C109.226 121.956 109.932 121.781 110.75 121.781C111.531 121.781 112.213 121.956 112.796 122.305C113.385 122.654 113.841 123.159 114.164 123.82C114.492 124.477 114.656 125.271 114.656 126.203ZM108.14 126.203C108.14 126.891 108.231 127.487 108.414 127.992C108.596 128.497 108.877 128.888 109.257 129.164C109.638 129.44 110.127 129.578 110.726 129.578C111.32 129.578 111.807 129.44 112.187 129.164C112.572 128.888 112.856 128.497 113.039 127.992C113.221 127.487 113.312 126.891 113.312 126.203C113.312 125.521 113.221 124.932 113.039 124.438C112.856 123.938 112.575 123.552 112.195 123.281C111.815 123.01 111.322 122.875 110.718 122.875C109.828 122.875 109.174 123.169 108.757 123.758C108.346 124.346 108.14 125.161 108.14 126.203ZM120.789 121.781C120.96 121.781 121.14 121.792 121.328 121.812C121.515 121.828 121.682 121.852 121.828 121.883L121.664 123.086C121.523 123.049 121.367 123.021 121.195 123C121.023 122.979 120.861 122.969 120.71 122.969C120.367 122.969 120.041 123.039 119.734 123.18C119.432 123.315 119.166 123.513 118.937 123.773C118.708 124.029 118.528 124.339 118.398 124.703C118.268 125.062 118.203 125.464 118.203 125.906V130.5H116.898V121.938H117.976L118.117 123.516H118.171C118.348 123.198 118.562 122.909 118.812 122.648C119.062 122.383 119.351 122.172 119.679 122.016C120.013 121.859 120.382 121.781 120.789 121.781ZM132.742 121.781C133.684 121.781 134.395 122.029 134.875 122.523C135.354 123.013 135.593 123.802 135.593 124.891V130.5H134.312V124.953C134.312 124.26 134.161 123.742 133.859 123.398C133.562 123.049 133.119 122.875 132.531 122.875C131.703 122.875 131.101 123.115 130.726 123.594C130.351 124.073 130.164 124.779 130.164 125.711V130.5H128.875V124.953C128.875 124.49 128.807 124.104 128.671 123.797C128.541 123.49 128.343 123.26 128.078 123.109C127.817 122.953 127.486 122.875 127.085 122.875C126.518 122.875 126.062 122.992 125.718 123.227C125.375 123.461 125.125 123.81 124.968 124.273C124.817 124.732 124.742 125.297 124.742 125.969V130.5H123.445V121.938H124.492L124.687 123.148H124.757C124.929 122.852 125.145 122.602 125.406 122.398C125.666 122.195 125.958 122.042 126.281 121.938C126.604 121.833 126.947 121.781 127.312 121.781C127.963 121.781 128.507 121.904 128.945 122.148C129.388 122.388 129.708 122.755 129.906 123.25H129.976C130.257 122.755 130.643 122.388 131.132 122.148C131.622 121.904 132.158 121.781 132.742 121.781ZM140.734 118.336H141.82V134.375H140.734V118.336Z" fill="black"/>
<mask id="mask2_19423_10967" style="mask-type:alpha" maskUnits="userSpaceOnUse" x="387" y="112" width="25" height="24">
<rect x="388" y="112" width="24" height="24" fill="#D9D9D9"/>
</mask>
<g mask="url(#mask2_19423_10967)">
<path d="M395 133C394.45 133 393.979 132.804 393.587 132.413C393.195 132.021 393 131.55 393 131V118C392.716 118 392.479 117.904 392.287 117.713C392.095 117.521 392 117.283 392 117C392 116.717 392.095 116.479 392.287 116.288C392.479 116.096 392.716 116 393 116H397C397 115.717 397.095 115.479 397.287 115.287C397.479 115.096 397.716 115 398 115H402C402.283 115 402.52 115.096 402.712 115.287C402.904 115.479 403 115.717 403 116H407C407.283 116 407.52 116.096 407.712 116.288C407.904 116.479 408 116.717 408 117C408 117.283 407.904 117.521 407.712 117.713C407.52 117.904 407.283 118 407 118V131C407 131.55 406.804 132.021 406.412 132.413C406.02 132.804 405.55 133 405 133H395ZM395 118V131H405V118H395ZM397 128C397 128.283 397.095 128.521 397.287 128.713C397.479 128.904 397.716 129 398 129C398.283 129 398.52 128.904 398.712 128.713C398.904 128.521 399 128.283 399 128V121C399 120.717 398.904 120.479 398.712 120.287C398.52 120.096 398.283 120 398 120C397.716 120 397.479 120.096 397.287 120.287C397.095 120.479 397 120.717 397 121V128ZM401 128C401 128.283 401.095 128.521 401.287 128.713C401.479 128.904 401.716 129 402 129C402.283 129 402.52 128.904 402.712 128.713C402.904 128.521 403 128.283 403 128V121C403 120.717 402.904 120.479 402.712 120.287C402.52 120.096 402.283 120 402 120C401.716 120 401.479 120.096 401.287 120.287C401.095 120.479 401 120.717 401 121V128Z" fill="#4589FF"/>
</g>
<path d="M416 112V136" stroke="#A8A8A8"/>
<mask id="mask3_19423_10967" style="mask-type:alpha" maskUnits="userSpaceOnUse" x="419" y="112" width="25" height="24">
<rect x="420" y="112" width="24" height="24" fill="#D9D9D9"/>
</mask>
<g mask="url(#mask3_19423_10967)">
<path d="M429.55 127.15L438.025 118.675C438.225 118.475 438.462 118.375 438.737 118.375C439.012 118.375 439.25 118.475 439.45 118.675C439.65 118.875 439.75 119.113 439.75 119.388C439.75 119.663 439.65 119.9 439.45 120.1L430.25 129.3C430.05 129.5 429.816 129.6 429.55 129.6C429.283 129.6 429.05 129.5 428.85 129.3L424.55 125C424.35 124.8 424.254 124.562 424.262 124.287C424.27 124.012 424.375 123.775 424.575 123.575C424.775 123.375 425.012 123.275 425.287 123.275C425.562 123.275 425.8 123.375 426 123.575L429.55 127.15Z" fill="#4589FF"/>
</g>
</svg>
