<svg width="72" height="406" viewBox="0 0 72 406" fill="none" xmlns="http://www.w3.org/2000/svg">
<rect x="0.499512" y="0.5" width="71" height="405" rx="4.5" stroke="#9747FF" stroke-dasharray="10 5"/>
<mask id="mask0_19412_10956" style="mask-type:alpha" maskUnits="userSpaceOnUse" x="23" y="20" width="25" height="24">
<rect x="23.9995" y="20" width="24" height="24" fill="#D9D9D9"/>
</mask>
<g mask="url(#mask0_19412_10956)">
<path d="M30.9995 41C30.4495 41 29.9787 40.8042 29.587 40.4125C29.1953 40.0208 28.9995 39.55 28.9995 39V26C28.7162 26 28.4787 25.9042 28.287 25.7125C28.0953 25.5208 27.9995 25.2833 27.9995 25C27.9995 24.7167 28.0953 24.4792 28.287 24.2875C28.4787 24.0958 28.7162 24 28.9995 24H32.9995C32.9995 23.7167 33.0953 23.4792 33.287 23.2875C33.4787 23.0958 33.7162 23 33.9995 23H37.9995C38.2828 23 38.5203 23.0958 38.712 23.2875C38.9037 23.4792 38.9995 23.7167 38.9995 24H42.9995C43.2828 24 43.5203 24.0958 43.712 24.2875C43.9037 24.4792 43.9995 24.7167 43.9995 25C43.9995 25.2833 43.9037 25.5208 43.712 25.7125C43.5203 25.9042 43.2828 26 42.9995 26V39C42.9995 39.55 42.8037 40.0208 42.412 40.4125C42.0203 40.8042 41.5495 41 40.9995 41H30.9995ZM30.9995 26V39H40.9995V26H30.9995ZM32.9995 36C32.9995 36.2833 33.0953 36.5208 33.287 36.7125C33.4787 36.9042 33.7162 37 33.9995 37C34.2828 37 34.5203 36.9042 34.712 36.7125C34.9037 36.5208 34.9995 36.2833 34.9995 36V29C34.9995 28.7167 34.9037 28.4792 34.712 28.2875C34.5203 28.0958 34.2828 28 33.9995 28C33.7162 28 33.4787 28.0958 33.287 28.2875C33.0953 28.4792 32.9995 28.7167 32.9995 29V36ZM36.9995 36C36.9995 36.2833 37.0953 36.5208 37.287 36.7125C37.4787 36.9042 37.7162 37 37.9995 37C38.2828 37 38.5203 36.9042 38.712 36.7125C38.9037 36.5208 38.9995 36.2833 38.9995 36V29C38.9995 28.7167 38.9037 28.4792 38.712 28.2875C38.5203 28.0958 38.2828 28 37.9995 28C37.7162 28 37.4787 28.0958 37.287 28.2875C37.0953 28.4792 36.9995 28.7167 36.9995 29V36Z" fill="#4589FF"/>
</g>
<rect x="23.9995" y="58" width="24" height="24" rx="12" fill="#D2E3FF"/>
<mask id="mask1_19412_10956" style="mask-type:alpha" maskUnits="userSpaceOnUse" x="23" y="58" width="25" height="24">
<rect x="23.9995" y="58" width="24" height="24" fill="#D9D9D9"/>
</mask>
<g mask="url(#mask1_19412_10956)">
<path d="M30.9995 79C30.4495 79 29.9787 78.8042 29.587 78.4125C29.1953 78.0208 28.9995 77.55 28.9995 77V64C28.7162 64 28.4787 63.9042 28.287 63.7125C28.0953 63.5208 27.9995 63.2833 27.9995 63C27.9995 62.7167 28.0953 62.4792 28.287 62.2875C28.4787 62.0958 28.7162 62 28.9995 62H32.9995C32.9995 61.7167 33.0953 61.4792 33.287 61.2875C33.4787 61.0958 33.7162 61 33.9995 61H37.9995C38.2828 61 38.5203 61.0958 38.712 61.2875C38.9037 61.4792 38.9995 61.7167 38.9995 62H42.9995C43.2828 62 43.5203 62.0958 43.712 62.2875C43.9037 62.4792 43.9995 62.7167 43.9995 63C43.9995 63.2833 43.9037 63.5208 43.712 63.7125C43.5203 63.9042 43.2828 64 42.9995 64V77C42.9995 77.55 42.8037 78.0208 42.412 78.4125C42.0203 78.8042 41.5495 79 40.9995 79H30.9995ZM30.9995 64V77H40.9995V64H30.9995ZM32.9995 74C32.9995 74.2833 33.0953 74.5208 33.287 74.7125C33.4787 74.9042 33.7162 75 33.9995 75C34.2828 75 34.5203 74.9042 34.712 74.7125C34.9037 74.5208 34.9995 74.2833 34.9995 74V67C34.9995 66.7167 34.9037 66.4792 34.712 66.2875C34.5203 66.0958 34.2828 66 33.9995 66C33.7162 66 33.4787 66.0958 33.287 66.2875C33.0953 66.4792 32.9995 66.7167 32.9995 67V74ZM36.9995 74C36.9995 74.2833 37.0953 74.5208 37.287 74.7125C37.4787 74.9042 37.7162 75 37.9995 75C38.2828 75 38.5203 74.9042 38.712 74.7125C38.9037 74.5208 38.9995 74.2833 38.9995 74V67C38.9995 66.7167 38.9037 66.4792 38.712 66.2875C38.5203 66.0958 38.2828 66 37.9995 66C37.7162 66 37.4787 66.0958 37.287 66.2875C37.0953 66.4792 36.9995 66.7167 36.9995 67V74Z" fill="#005DFF"/>
</g>
<mask id="mask2_19412_10956" style="mask-type:alpha" maskUnits="userSpaceOnUse" x="23" y="96" width="25" height="24">
<rect x="23.9995" y="96" width="24" height="24" fill="#D9D9D9"/>
</mask>
<g mask="url(#mask2_19412_10956)">
<path d="M35.9995 109.4L31.0995 114.3C30.9162 114.483 30.6828 114.575 30.3995 114.575C30.1162 114.575 29.8828 114.483 29.6995 114.3C29.5162 114.117 29.4245 113.883 29.4245 113.6C29.4245 113.317 29.5162 113.083 29.6995 112.9L34.5995 108L29.6995 103.1C29.5162 102.917 29.4245 102.683 29.4245 102.4C29.4245 102.117 29.5162 101.883 29.6995 101.7C29.8828 101.517 30.1162 101.425 30.3995 101.425C30.6828 101.425 30.9162 101.517 31.0995 101.7L35.9995 106.6L40.8995 101.7C41.0828 101.517 41.3162 101.425 41.5995 101.425C41.8828 101.425 42.1162 101.517 42.2995 101.7C42.4828 101.883 42.5745 102.117 42.5745 102.4C42.5745 102.683 42.4828 102.917 42.2995 103.1L37.3995 108L42.2995 112.9C42.4828 113.083 42.5745 113.317 42.5745 113.6C42.5745 113.883 42.4828 114.117 42.2995 114.3C42.1162 114.483 41.8828 114.575 41.5995 114.575C41.3162 114.575 41.0828 114.483 40.8995 114.3L35.9995 109.4Z" fill="#4589FF"/>
</g>
<rect x="23.9995" y="134" width="24" height="24" rx="12" fill="#D2E3FF"/>
<mask id="mask3_19412_10956" style="mask-type:alpha" maskUnits="userSpaceOnUse" x="23" y="134" width="25" height="24">
<rect x="23.9995" y="134" width="24" height="24" fill="#D9D9D9"/>
</mask>
<g mask="url(#mask3_19412_10956)">
<path d="M35.9995 147.4L31.0995 152.3C30.9162 152.483 30.6828 152.575 30.3995 152.575C30.1162 152.575 29.8828 152.483 29.6995 152.3C29.5162 152.117 29.4245 151.883 29.4245 151.6C29.4245 151.317 29.5162 151.083 29.6995 150.9L34.5995 146L29.6995 141.1C29.5162 140.917 29.4245 140.683 29.4245 140.4C29.4245 140.117 29.5162 139.883 29.6995 139.7C29.8828 139.517 30.1162 139.425 30.3995 139.425C30.6828 139.425 30.9162 139.517 31.0995 139.7L35.9995 144.6L40.8995 139.7C41.0828 139.517 41.3162 139.425 41.5995 139.425C41.8828 139.425 42.1162 139.517 42.2995 139.7C42.4828 139.883 42.5745 140.117 42.5745 140.4C42.5745 140.683 42.4828 140.917 42.2995 141.1L37.3995 146L42.2995 150.9C42.4828 151.083 42.5745 151.317 42.5745 151.6C42.5745 151.883 42.4828 152.117 42.2995 152.3C42.1162 152.483 41.8828 152.575 41.5995 152.575C41.3162 152.575 41.0828 152.483 40.8995 152.3L35.9995 147.4Z" fill="#005DFF"/>
</g>
<mask id="mask4_19412_10956" style="mask-type:alpha" maskUnits="userSpaceOnUse" x="23" y="172" width="25" height="24">
<rect x="23.9995" y="172" width="24" height="24" fill="#D9D9D9"/>
</mask>
<g mask="url(#mask4_19412_10956)">
<path d="M33.5495 187.15L42.0245 178.675C42.2245 178.475 42.462 178.375 42.737 178.375C43.012 178.375 43.2495 178.475 43.4495 178.675C43.6495 178.875 43.7495 179.113 43.7495 179.388C43.7495 179.663 43.6495 179.9 43.4495 180.1L34.2495 189.3C34.0495 189.5 33.8162 189.6 33.5495 189.6C33.2829 189.6 33.0495 189.5 32.8495 189.3L28.5495 185C28.3495 184.8 28.2537 184.562 28.262 184.287C28.2704 184.012 28.3745 183.775 28.5745 183.575C28.7745 183.375 29.012 183.275 29.287 183.275C29.562 183.275 29.7995 183.375 29.9995 183.575L33.5495 187.15Z" fill="#4589FF"/>
</g>
<rect x="23.9995" y="210" width="24" height="24" rx="12" fill="#D2E3FF"/>
<mask id="mask5_19412_10956" style="mask-type:alpha" maskUnits="userSpaceOnUse" x="23" y="210" width="25" height="24">
<rect x="23.9995" y="210" width="24" height="24" fill="#D9D9D9"/>
</mask>
<g mask="url(#mask5_19412_10956)">
<path d="M33.5495 225.15L42.0245 216.675C42.2245 216.475 42.462 216.375 42.737 216.375C43.012 216.375 43.2495 216.475 43.4495 216.675C43.6495 216.875 43.7495 217.113 43.7495 217.388C43.7495 217.663 43.6495 217.9 43.4495 218.1L34.2495 227.3C34.0495 227.5 33.8162 227.6 33.5495 227.6C33.2829 227.6 33.0495 227.5 32.8495 227.3L28.5495 223C28.3495 222.8 28.2537 222.562 28.262 222.287C28.2704 222.012 28.3745 221.775 28.5745 221.575C28.7745 221.375 29.012 221.275 29.287 221.275C29.562 221.275 29.7995 221.375 29.9995 221.575L33.5495 225.15Z" fill="#005DFF"/>
</g>
<mask id="mask6_19412_10956" style="mask-type:alpha" maskUnits="userSpaceOnUse" x="23" y="248" width="25" height="24">
<rect x="23.9995" y="248" width="24" height="24" fill="#D9D9D9"/>
</mask>
<g mask="url(#mask6_19412_10956)">
<path d="M28.9995 267H30.3995L39.0245 258.375L37.6245 256.975L28.9995 265.6V267ZM43.2995 256.925L39.0495 252.725L40.4495 251.325C40.8328 250.942 41.3037 250.75 41.862 250.75C42.4203 250.75 42.8912 250.942 43.2745 251.325L44.6745 252.725C45.0578 253.108 45.2578 253.571 45.2745 254.112C45.2912 254.654 45.1078 255.117 44.7245 255.5L43.2995 256.925ZM41.8495 258.4L31.2495 269H26.9995V264.75L37.5995 254.15L41.8495 258.4Z" fill="#4589FF"/>
</g>
<rect x="23.9995" y="286" width="24" height="24" rx="12" fill="#D2E3FF"/>
<mask id="mask7_19412_10956" style="mask-type:alpha" maskUnits="userSpaceOnUse" x="23" y="286" width="25" height="24">
<rect x="23.9995" y="286" width="24" height="24" fill="#D9D9D9"/>
</mask>
<g mask="url(#mask7_19412_10956)">
<path d="M28.9995 305H30.3995L39.0245 296.375L37.6245 294.975L28.9995 303.6V305ZM43.2995 294.925L39.0495 290.725L40.4495 289.325C40.8328 288.942 41.3037 288.75 41.862 288.75C42.4203 288.75 42.8912 288.942 43.2745 289.325L44.6745 290.725C45.0578 291.108 45.2578 291.571 45.2745 292.112C45.2912 292.654 45.1078 293.117 44.7245 293.5L43.2995 294.925ZM41.8495 296.4L31.2495 307H26.9995V302.75L37.5995 292.15L41.8495 296.4Z" fill="#005DFF"/>
</g>
<mask id="mask8_19412_10956" style="mask-type:alpha" maskUnits="userSpaceOnUse" x="23" y="324" width="25" height="24">
<rect x="23.9995" y="324" width="24" height="24" fill="#D9D9D9"/>
</mask>
<g mask="url(#mask8_19412_10956)">
<path d="M34.9995 337H29.9995C29.7162 337 29.4787 336.904 29.287 336.713C29.0953 336.521 28.9995 336.283 28.9995 336C28.9995 335.717 29.0953 335.479 29.287 335.287C29.4787 335.096 29.7162 335 29.9995 335H34.9995V330C34.9995 329.717 35.0953 329.479 35.287 329.287C35.4787 329.096 35.7162 329 35.9995 329C36.2828 329 36.5203 329.096 36.712 329.287C36.9037 329.479 36.9995 329.717 36.9995 330V335H41.9995C42.2828 335 42.5203 335.096 42.712 335.287C42.9037 335.479 42.9995 335.717 42.9995 336C42.9995 336.283 42.9037 336.521 42.712 336.713C42.5203 336.904 42.2828 337 41.9995 337H36.9995V342C36.9995 342.283 36.9037 342.521 36.712 342.713C36.5203 342.904 36.2828 343 35.9995 343C35.7162 343 35.4787 342.904 35.287 342.713C35.0953 342.521 34.9995 342.283 34.9995 342V337Z" fill="#4589FF"/>
</g>
<rect x="23.9995" y="362" width="24" height="24" rx="12" fill="#D2E3FF"/>
<mask id="mask9_19412_10956" style="mask-type:alpha" maskUnits="userSpaceOnUse" x="23" y="362" width="25" height="24">
<rect x="23.9995" y="362" width="24" height="24" fill="#D9D9D9"/>
</mask>
<g mask="url(#mask9_19412_10956)">
<path d="M34.9995 375H29.9995C29.7162 375 29.4787 374.904 29.287 374.713C29.0953 374.521 28.9995 374.283 28.9995 374C28.9995 373.717 29.0953 373.479 29.287 373.287C29.4787 373.096 29.7162 373 29.9995 373H34.9995V368C34.9995 367.717 35.0953 367.479 35.287 367.287C35.4787 367.096 35.7162 367 35.9995 367C36.2828 367 36.5203 367.096 36.712 367.287C36.9037 367.479 36.9995 367.717 36.9995 368V373H41.9995C42.2828 373 42.5203 373.096 42.712 373.287C42.9037 373.479 42.9995 373.717 42.9995 374C42.9995 374.283 42.9037 374.521 42.712 374.713C42.5203 374.904 42.2828 375 41.9995 375H36.9995V380C36.9995 380.283 36.9037 380.521 36.712 380.713C36.5203 380.904 36.2828 381 35.9995 381C35.7162 381 35.4787 380.904 35.287 380.713C35.0953 380.521 34.9995 380.283 34.9995 380V375Z" fill="#005DFF"/>
</g>
</svg>
