<svg width="480" height="316" viewBox="0 0 480 316" fill="none" xmlns="http://www.w3.org/2000/svg">
<rect x="0.499512" y="0.5" width="479" height="315" rx="4.5" stroke="#9747FF" stroke-dasharray="10 5"/>
<mask id="path-2-inside-1_19398_10059" fill="white">
<path d="M19.9995 20H460V68H19.9995V20Z"/>
</mask>
<path d="M19.9995 20H460V68H19.9995V20Z" fill="white"/>
<path d="M460 67H19.9995V69H460V67Z" fill="#D1D1D1" mask="url(#path-2-inside-1_19398_10059)"/>
<path d="M45.5088 47.8911C45.5088 48.6951 45.3078 49.3817 44.9058 49.9507C44.5099 50.5135 43.9533 50.9434 43.2358 51.2402C42.5184 51.5371 41.6742 51.6855 40.7031 51.6855C40.1898 51.6855 39.7043 51.6608 39.2466 51.6113C38.7889 51.5618 38.3683 51.4907 37.9849 51.3979C37.6014 51.3052 37.2643 51.1908 36.9736 51.0547V49.5425C37.4375 49.7342 38.0034 49.9136 38.6714 50.0806C39.3394 50.2414 40.0382 50.3218 40.7681 50.3218C41.4484 50.3218 42.0236 50.2321 42.4937 50.0527C42.9637 49.8672 43.3193 49.6043 43.5605 49.2642C43.8079 48.9178 43.9316 48.5034 43.9316 48.021C43.9316 47.5571 43.8296 47.1706 43.6255 46.8613C43.4214 46.5459 43.0812 46.2614 42.605 46.0078C42.1349 45.748 41.4917 45.4728 40.6753 45.1821C40.1001 44.978 39.5929 44.7554 39.1538 44.5142C38.7147 44.2668 38.3467 43.9884 38.0498 43.6792C37.7529 43.37 37.5272 43.0112 37.3726 42.603C37.2241 42.1948 37.1499 41.7279 37.1499 41.2021C37.1499 40.4785 37.3324 39.86 37.6973 39.3467C38.0684 38.8271 38.5786 38.4313 39.228 38.1592C39.8836 37.8809 40.6351 37.7417 41.4824 37.7417C42.2061 37.7417 42.874 37.8097 43.4863 37.9458C44.1048 38.0819 44.6707 38.2643 45.1841 38.4932L44.6924 39.8477C44.2038 39.6436 43.6842 39.4735 43.1338 39.3374C42.5895 39.2013 42.0267 39.1333 41.4453 39.1333C40.8639 39.1333 40.3722 39.2199 39.9702 39.3931C39.5744 39.5601 39.2713 39.7982 39.061 40.1074C38.8507 40.4167 38.7456 40.7847 38.7456 41.2114C38.7456 41.6877 38.8446 42.0835 39.0425 42.3989C39.2466 42.7144 39.5682 42.9958 40.0073 43.2432C40.4526 43.4844 41.0402 43.738 41.77 44.0039C42.5679 44.2946 43.2451 44.6038 43.8018 44.9316C44.3584 45.2533 44.7821 45.6491 45.0728 46.1191C45.3634 46.583 45.5088 47.1737 45.5088 47.8911ZM51.9658 41.1465C52.8317 41.1465 53.5739 41.3382 54.1924 41.7217C54.8109 42.1051 55.284 42.6432 55.6118 43.3359C55.9396 44.0225 56.1035 44.8265 56.1035 45.748V46.7036H49.0806C49.0991 47.8973 49.396 48.8065 49.9712 49.4312C50.5464 50.0558 51.3566 50.3682 52.4019 50.3682C53.0451 50.3682 53.6141 50.3094 54.1089 50.1919C54.6037 50.0744 55.117 49.9012 55.6489 49.6724V51.0269C55.1356 51.2557 54.6253 51.4227 54.1182 51.5278C53.6172 51.633 53.0234 51.6855 52.3369 51.6855C51.3597 51.6855 50.5062 51.4876 49.7764 51.0918C49.0527 50.6898 48.4899 50.1022 48.0879 49.3291C47.6859 48.556 47.4849 47.6097 47.4849 46.4902C47.4849 45.3955 47.6673 44.4492 48.0322 43.6514C48.4033 42.8473 48.9229 42.2288 49.5908 41.7959C50.265 41.363 51.0566 41.1465 51.9658 41.1465ZM51.9473 42.4082C51.1247 42.4082 50.4691 42.6772 49.9805 43.2153C49.4919 43.7534 49.2012 44.5049 49.1084 45.4697H54.4893C54.4831 44.8636 54.3872 44.3317 54.2017 43.874C54.0223 43.4102 53.7471 43.0514 53.376 42.7979C53.0049 42.5381 52.5286 42.4082 51.9473 42.4082ZM60.269 51.5H58.7197V37.0645H60.269V51.5ZM67.4404 41.1465C68.3063 41.1465 69.0485 41.3382 69.667 41.7217C70.2855 42.1051 70.7586 42.6432 71.0864 43.3359C71.4142 44.0225 71.5781 44.8265 71.5781 45.748V46.7036H64.5552C64.5737 47.8973 64.8706 48.8065 65.4458 49.4312C66.021 50.0558 66.8312 50.3682 67.8765 50.3682C68.5197 50.3682 69.0887 50.3094 69.5835 50.1919C70.0783 50.0744 70.5916 49.9012 71.1235 49.6724V51.0269C70.6102 51.2557 70.0999 51.4227 69.5928 51.5278C69.0918 51.633 68.498 51.6855 67.8115 51.6855C66.8343 51.6855 65.9808 51.4876 65.251 51.0918C64.5273 50.6898 63.9645 50.1022 63.5625 49.3291C63.1605 48.556 62.9595 47.6097 62.9595 46.4902C62.9595 45.3955 63.1419 44.4492 63.5068 43.6514C63.8779 42.8473 64.3975 42.2288 65.0654 41.7959C65.7396 41.363 66.5312 41.1465 67.4404 41.1465ZM67.4219 42.4082C66.5993 42.4082 65.9437 42.6772 65.4551 43.2153C64.9665 43.7534 64.6758 44.5049 64.583 45.4697H69.9639C69.9577 44.8636 69.8618 44.3317 69.6763 43.874C69.4969 43.4102 69.2217 43.0514 68.8506 42.7979C68.4795 42.5381 68.0033 42.4082 67.4219 42.4082ZM78.2671 51.6855C77.3517 51.6855 76.5446 51.4969 75.8457 51.1196C75.1468 50.7424 74.6025 50.1672 74.2129 49.394C73.8232 48.6209 73.6284 47.6468 73.6284 46.4717C73.6284 45.2409 73.8325 44.2358 74.2407 43.4565C74.6551 42.6711 75.2241 42.0897 75.9478 41.7124C76.6714 41.3351 77.494 41.1465 78.4155 41.1465C78.9227 41.1465 79.4113 41.1991 79.8813 41.3042C80.3576 41.4032 80.7472 41.5299 81.0503 41.6846L80.5864 42.9741C80.2772 42.8504 79.9185 42.7391 79.5103 42.6401C79.1082 42.5412 78.731 42.4917 78.3784 42.4917C77.6733 42.4917 77.0858 42.6432 76.6157 42.9463C76.1519 43.2493 75.8024 43.6947 75.5674 44.2822C75.3385 44.8698 75.2241 45.5934 75.2241 46.4531C75.2241 47.2757 75.3354 47.9777 75.5581 48.5591C75.7869 49.1405 76.124 49.5858 76.5693 49.895C77.0208 50.1981 77.5837 50.3496 78.2578 50.3496C78.7959 50.3496 79.2814 50.2939 79.7144 50.1826C80.1473 50.0651 80.54 49.929 80.8926 49.7744V51.1475C80.5524 51.3206 80.172 51.4536 79.7515 51.5464C79.3371 51.6392 78.8423 51.6855 78.2671 51.6855ZM86.5889 50.4238C86.8424 50.4238 87.1022 50.4022 87.3682 50.3589C87.6341 50.3156 87.8506 50.263 88.0176 50.2012V51.3979C87.8382 51.4784 87.5877 51.5464 87.2661 51.6021C86.9507 51.6577 86.6414 51.6855 86.3384 51.6855C85.8003 51.6855 85.3117 51.5928 84.8726 51.4072C84.4334 51.2155 84.0809 50.8939 83.8149 50.4424C83.5552 49.9909 83.4253 49.3662 83.4253 48.5684V42.5381H81.978V41.7866L83.4346 41.1836L84.0469 38.9756H84.9746V41.332H87.9526V42.5381H84.9746V48.522C84.9746 49.159 85.12 49.6353 85.4106 49.9507C85.7075 50.2661 86.1003 50.4238 86.5889 50.4238ZM99.0854 51.6855C98.1701 51.6855 97.363 51.4969 96.6641 51.1196C95.9652 50.7424 95.4209 50.1672 95.0312 49.394C94.6416 48.6209 94.4468 47.6468 94.4468 46.4717C94.4468 45.2409 94.6509 44.2358 95.0591 43.4565C95.4735 42.6711 96.0425 42.0897 96.7661 41.7124C97.4897 41.3351 98.3123 41.1465 99.2339 41.1465C99.741 41.1465 100.23 41.1991 100.7 41.3042C101.176 41.4032 101.566 41.5299 101.869 41.6846L101.405 42.9741C101.096 42.8504 100.737 42.7391 100.329 42.6401C99.9266 42.5412 99.5493 42.4917 99.1968 42.4917C98.4917 42.4917 97.9041 42.6432 97.4341 42.9463C96.9702 43.2493 96.6208 43.6947 96.3857 44.2822C96.1569 44.8698 96.0425 45.5934 96.0425 46.4531C96.0425 47.2757 96.1538 47.9777 96.3765 48.5591C96.6053 49.1405 96.9424 49.5858 97.3877 49.895C97.8392 50.1981 98.402 50.3496 99.0762 50.3496C99.6143 50.3496 100.1 50.2939 100.533 50.1826C100.966 50.0651 101.358 49.929 101.711 49.7744V51.1475C101.371 51.3206 100.99 51.4536 100.57 51.5464C100.155 51.6392 99.6606 51.6855 99.0854 51.6855ZM112.89 46.3975C112.89 47.2324 112.782 47.9777 112.565 48.6333C112.349 49.2889 112.037 49.8424 111.628 50.2939C111.22 50.7454 110.725 51.0918 110.144 51.333C109.569 51.568 108.916 51.6855 108.187 51.6855C107.506 51.6855 106.882 51.568 106.312 51.333C105.75 51.0918 105.261 50.7454 104.847 50.2939C104.438 49.8424 104.12 49.2889 103.891 48.6333C103.668 47.9777 103.557 47.2324 103.557 46.3975C103.557 45.2842 103.746 44.3379 104.123 43.5586C104.5 42.7731 105.038 42.1763 105.737 41.7681C106.442 41.3537 107.28 41.1465 108.251 41.1465C109.179 41.1465 109.989 41.3537 110.682 41.7681C111.381 42.1825 111.922 42.7824 112.306 43.5679C112.695 44.3472 112.89 45.2904 112.89 46.3975ZM105.153 46.3975C105.153 47.2139 105.261 47.922 105.478 48.522C105.694 49.1219 106.028 49.5858 106.479 49.9136C106.931 50.2414 107.512 50.4053 108.224 50.4053C108.929 50.4053 109.507 50.2414 109.958 49.9136C110.416 49.5858 110.753 49.1219 110.97 48.522C111.186 47.922 111.294 47.2139 111.294 46.3975C111.294 45.5872 111.186 44.8883 110.97 44.3008C110.753 43.707 110.419 43.2493 109.968 42.9277C109.516 42.6061 108.932 42.4453 108.214 42.4453C107.157 42.4453 106.381 42.7948 105.886 43.4937C105.397 44.1925 105.153 45.1605 105.153 46.3975ZM120.368 41.1465C121.574 41.1465 122.486 41.4434 123.104 42.0371C123.723 42.6247 124.032 43.571 124.032 44.876V51.5H122.511V44.978C122.511 44.1307 122.316 43.4967 121.926 43.0762C121.543 42.6556 120.952 42.4453 120.154 42.4453C119.029 42.4453 118.237 42.7638 117.779 43.4009C117.322 44.0379 117.093 44.9626 117.093 46.1748V51.5H115.553V41.332H116.796L117.028 42.7979H117.111C117.328 42.4391 117.603 42.1392 117.937 41.8979C118.271 41.6506 118.645 41.465 119.06 41.3413C119.474 41.2114 119.91 41.1465 120.368 41.1465ZM130.489 50.4238C130.743 50.4238 131.003 50.4022 131.269 50.3589C131.535 50.3156 131.751 50.263 131.918 50.2012V51.3979C131.739 51.4784 131.488 51.5464 131.167 51.6021C130.851 51.6577 130.542 51.6855 130.239 51.6855C129.701 51.6855 129.212 51.5928 128.773 51.4072C128.334 51.2155 127.981 50.8939 127.715 50.4424C127.456 49.9909 127.326 49.3662 127.326 48.5684V42.5381H125.878V41.7866L127.335 41.1836L127.947 38.9756H128.875V41.332H131.853V42.5381H128.875V48.522C128.875 49.159 129.02 49.6353 129.311 49.9507C129.608 50.2661 130.001 50.4238 130.489 50.4238ZM137.781 41.165C138.993 41.165 139.893 41.4372 140.481 41.9814C141.069 42.5257 141.362 43.3947 141.362 44.5884V51.5H140.24L139.943 49.9971H139.869C139.584 50.3682 139.287 50.6805 138.978 50.9341C138.669 51.1815 138.31 51.3701 137.902 51.5C137.5 51.6237 137.005 51.6855 136.417 51.6855C135.799 51.6855 135.249 51.5773 134.766 51.3608C134.29 51.1444 133.913 50.8166 133.634 50.3774C133.362 49.9383 133.226 49.3817 133.226 48.7075C133.226 47.6932 133.628 46.9139 134.432 46.3696C135.236 45.8254 136.461 45.5285 138.106 45.479L139.859 45.4048V44.7832C139.859 43.9049 139.671 43.2896 139.293 42.937C138.916 42.5845 138.384 42.4082 137.698 42.4082C137.166 42.4082 136.659 42.4855 136.176 42.6401C135.694 42.7948 135.236 42.9772 134.803 43.1875L134.33 42.0186C134.788 41.7835 135.313 41.5825 135.907 41.4155C136.501 41.2485 137.126 41.165 137.781 41.165ZM139.841 46.4902L138.292 46.5552C137.024 46.6047 136.13 46.8118 135.61 47.1768C135.091 47.5417 134.831 48.0581 134.831 48.7261C134.831 49.3075 135.007 49.7373 135.36 50.0156C135.712 50.2939 136.179 50.4331 136.761 50.4331C137.664 50.4331 138.403 50.1826 138.978 49.6816C139.553 49.1807 139.841 48.4292 139.841 47.4272V46.4902ZM148.608 51.6855C147.693 51.6855 146.885 51.4969 146.187 51.1196C145.488 50.7424 144.943 50.1672 144.554 49.394C144.164 48.6209 143.969 47.6468 143.969 46.4717C143.969 45.2409 144.173 44.2358 144.582 43.4565C144.996 42.6711 145.565 42.0897 146.289 41.7124C147.012 41.3351 147.835 41.1465 148.756 41.1465C149.264 41.1465 149.752 41.1991 150.222 41.3042C150.698 41.4032 151.088 41.5299 151.391 41.6846L150.927 42.9741C150.618 42.8504 150.259 42.7391 149.851 42.6401C149.449 42.5412 149.072 42.4917 148.719 42.4917C148.014 42.4917 147.427 42.6432 146.957 42.9463C146.493 43.2493 146.143 43.6947 145.908 44.2822C145.679 44.8698 145.565 45.5934 145.565 46.4531C145.565 47.2757 145.676 47.9777 145.899 48.5591C146.128 49.1405 146.465 49.5858 146.91 49.895C147.362 50.1981 147.924 50.3496 148.599 50.3496C149.137 50.3496 149.622 50.2939 150.055 50.1826C150.488 50.0651 150.881 49.929 151.233 49.7744V51.1475C150.893 51.3206 150.513 51.4536 150.092 51.5464C149.678 51.6392 149.183 51.6855 148.608 51.6855ZM156.93 50.4238C157.183 50.4238 157.443 50.4022 157.709 50.3589C157.975 50.3156 158.191 50.263 158.358 50.2012V51.3979C158.179 51.4784 157.929 51.5464 157.607 51.6021C157.292 51.6577 156.982 51.6855 156.679 51.6855C156.141 51.6855 155.653 51.5928 155.213 51.4072C154.774 51.2155 154.422 50.8939 154.156 50.4424C153.896 49.9909 153.766 49.3662 153.766 48.5684V42.5381H152.319V41.7866L153.775 41.1836L154.388 38.9756H155.315V41.332H158.293V42.5381H155.315V48.522C155.315 49.159 155.461 49.6353 155.751 49.9507C156.048 50.2661 156.441 50.4238 156.93 50.4238ZM166.996 48.7168C166.996 49.3662 166.832 49.9136 166.504 50.3589C166.182 50.798 165.718 51.1289 165.112 51.3516C164.512 51.5742 163.795 51.6855 162.96 51.6855C162.249 51.6855 161.633 51.6299 161.114 51.5186C160.594 51.4072 160.14 51.2495 159.75 51.0454V49.626C160.164 49.8301 160.659 50.0156 161.234 50.1826C161.81 50.3496 162.397 50.4331 162.997 50.4331C163.875 50.4331 164.512 50.2909 164.908 50.0063C165.304 49.7218 165.502 49.3353 165.502 48.8467C165.502 48.5684 165.422 48.3241 165.261 48.1138C165.106 47.8973 164.843 47.6901 164.472 47.4922C164.101 47.2881 163.588 47.0654 162.932 46.8242C162.283 46.5768 161.72 46.3325 161.244 46.0913C160.774 45.8439 160.409 45.5439 160.149 45.1914C159.895 44.8389 159.769 44.3812 159.769 43.8184C159.769 42.9587 160.115 42.3 160.808 41.8423C161.507 41.3784 162.422 41.1465 163.554 41.1465C164.166 41.1465 164.738 41.2083 165.27 41.332C165.808 41.4495 166.309 41.6104 166.773 41.8145L166.253 43.0483C165.833 42.869 165.384 42.7174 164.908 42.5938C164.432 42.4701 163.946 42.4082 163.452 42.4082C162.74 42.4082 162.193 42.5257 161.81 42.7607C161.432 42.9958 161.244 43.3174 161.244 43.7256C161.244 44.041 161.33 44.3008 161.503 44.5049C161.683 44.709 161.967 44.9007 162.357 45.0801C162.747 45.2594 163.26 45.4697 163.897 45.7109C164.534 45.946 165.084 46.1903 165.548 46.4438C166.012 46.6912 166.368 46.9943 166.615 47.353C166.869 47.7056 166.996 48.1602 166.996 48.7168ZM177.692 50.4238C177.946 50.4238 178.206 50.4022 178.472 50.3589C178.738 50.3156 178.954 50.263 179.121 50.2012V51.3979C178.942 51.4784 178.691 51.5464 178.37 51.6021C178.054 51.6577 177.745 51.6855 177.442 51.6855C176.904 51.6855 176.415 51.5928 175.976 51.4072C175.537 51.2155 175.184 50.8939 174.918 50.4424C174.659 49.9909 174.529 49.3662 174.529 48.5684V42.5381H173.082V41.7866L174.538 41.1836L175.15 38.9756H176.078V41.332H179.056V42.5381H176.078V48.522C176.078 49.159 176.223 49.6353 176.514 49.9507C176.811 50.2661 177.204 50.4238 177.692 50.4238ZM189.948 46.3975C189.948 47.2324 189.84 47.9777 189.623 48.6333C189.407 49.2889 189.094 49.8424 188.686 50.2939C188.278 50.7454 187.783 51.0918 187.202 51.333C186.626 51.568 185.974 51.6855 185.244 51.6855C184.564 51.6855 183.939 51.568 183.37 51.333C182.807 51.0918 182.319 50.7454 181.904 50.2939C181.496 49.8424 181.178 49.2889 180.949 48.6333C180.726 47.9777 180.615 47.2324 180.615 46.3975C180.615 45.2842 180.803 44.3379 181.181 43.5586C181.558 42.7731 182.096 42.1763 182.795 41.7681C183.5 41.3537 184.338 41.1465 185.309 41.1465C186.237 41.1465 187.047 41.3537 187.74 41.7681C188.439 42.1825 188.98 42.7824 189.363 43.5679C189.753 44.3472 189.948 45.2904 189.948 46.3975ZM182.21 46.3975C182.21 47.2139 182.319 47.922 182.535 48.522C182.752 49.1219 183.086 49.5858 183.537 49.9136C183.989 50.2414 184.57 50.4053 185.281 50.4053C185.986 50.4053 186.565 50.2414 187.016 49.9136C187.474 49.5858 187.811 49.1219 188.027 48.522C188.244 47.922 188.352 47.2139 188.352 46.3975C188.352 45.5872 188.244 44.8883 188.027 44.3008C187.811 43.707 187.477 43.2493 187.025 42.9277C186.574 42.6061 185.989 42.4453 185.272 42.4453C184.214 42.4453 183.438 42.7948 182.943 43.4937C182.455 44.1925 182.21 45.1605 182.21 46.3975ZM201.35 41.165C202.562 41.165 203.462 41.4372 204.049 41.9814C204.637 42.5257 204.931 43.3947 204.931 44.5884V51.5H203.808L203.511 49.9971H203.437C203.153 50.3682 202.856 50.6805 202.546 50.9341C202.237 51.1815 201.878 51.3701 201.47 51.5C201.068 51.6237 200.573 51.6855 199.986 51.6855C199.367 51.6855 198.817 51.5773 198.334 51.3608C197.858 51.1444 197.481 50.8166 197.203 50.3774C196.931 49.9383 196.794 49.3817 196.794 48.7075C196.794 47.6932 197.196 46.9139 198 46.3696C198.805 45.8254 200.029 45.5285 201.674 45.479L203.428 45.4048V44.7832C203.428 43.9049 203.239 43.2896 202.862 42.937C202.485 42.5845 201.953 42.4082 201.266 42.4082C200.734 42.4082 200.227 42.4855 199.745 42.6401C199.262 42.7948 198.805 42.9772 198.372 43.1875L197.898 42.0186C198.356 41.7835 198.882 41.5825 199.476 41.4155C200.069 41.2485 200.694 41.165 201.35 41.165ZM203.409 46.4902L201.86 46.5552C200.592 46.6047 199.698 46.8118 199.179 47.1768C198.659 47.5417 198.399 48.0581 198.399 48.7261C198.399 49.3075 198.576 49.7373 198.928 50.0156C199.281 50.2939 199.748 50.4331 200.329 50.4331C201.232 50.4331 201.971 50.1826 202.546 49.6816C203.122 49.1807 203.409 48.4292 203.409 47.4272V46.4902ZM214.681 48.7168C214.681 49.3662 214.517 49.9136 214.189 50.3589C213.868 50.798 213.404 51.1289 212.798 51.3516C212.198 51.5742 211.48 51.6855 210.646 51.6855C209.934 51.6855 209.319 51.6299 208.799 51.5186C208.28 51.4072 207.825 51.2495 207.436 51.0454V49.626C207.85 49.8301 208.345 50.0156 208.92 50.1826C209.495 50.3496 210.083 50.4331 210.683 50.4331C211.561 50.4331 212.198 50.2909 212.594 50.0063C212.99 49.7218 213.188 49.3353 213.188 48.8467C213.188 48.5684 213.107 48.3241 212.946 48.1138C212.792 47.8973 212.529 47.6901 212.158 47.4922C211.787 47.2881 211.273 47.0654 210.618 46.8242C209.968 46.5768 209.405 46.3325 208.929 46.0913C208.459 45.8439 208.094 45.5439 207.834 45.1914C207.581 44.8389 207.454 44.3812 207.454 43.8184C207.454 42.9587 207.8 42.3 208.493 41.8423C209.192 41.3784 210.107 41.1465 211.239 41.1465C211.852 41.1465 212.424 41.2083 212.956 41.332C213.494 41.4495 213.995 41.6104 214.458 41.8145L213.939 43.0483C213.518 42.869 213.07 42.7174 212.594 42.5938C212.118 42.4701 211.632 42.4082 211.137 42.4082C210.426 42.4082 209.879 42.5257 209.495 42.7607C209.118 42.9958 208.929 43.3174 208.929 43.7256C208.929 44.041 209.016 44.3008 209.189 44.5049C209.368 44.709 209.653 44.9007 210.042 45.0801C210.432 45.2594 210.945 45.4697 211.583 45.7109C212.22 45.946 212.77 46.1903 213.234 46.4438C213.698 46.6912 214.053 46.9943 214.301 47.353C214.554 47.7056 214.681 48.1602 214.681 48.7168ZM223.736 48.7168C223.736 49.3662 223.572 49.9136 223.244 50.3589C222.923 50.798 222.459 51.1289 221.853 51.3516C221.253 51.5742 220.535 51.6855 219.7 51.6855C218.989 51.6855 218.374 51.6299 217.854 51.5186C217.334 51.4072 216.88 51.2495 216.49 51.0454V49.626C216.905 49.8301 217.399 50.0156 217.975 50.1826C218.55 50.3496 219.137 50.4331 219.737 50.4331C220.616 50.4331 221.253 50.2909 221.648 50.0063C222.044 49.7218 222.242 49.3353 222.242 48.8467C222.242 48.5684 222.162 48.3241 222.001 48.1138C221.846 47.8973 221.583 47.6901 221.212 47.4922C220.841 47.2881 220.328 47.0654 219.672 46.8242C219.023 46.5768 218.46 46.3325 217.984 46.0913C217.514 45.8439 217.149 45.5439 216.889 45.1914C216.636 44.8389 216.509 44.3812 216.509 43.8184C216.509 42.9587 216.855 42.3 217.548 41.8423C218.247 41.3784 219.162 41.1465 220.294 41.1465C220.906 41.1465 221.478 41.2083 222.01 41.332C222.548 41.4495 223.049 41.6104 223.513 41.8145L222.994 43.0483C222.573 42.869 222.125 42.7174 221.648 42.5938C221.172 42.4701 220.687 42.4082 220.192 42.4082C219.481 42.4082 218.933 42.5257 218.55 42.7607C218.173 42.9958 217.984 43.3174 217.984 43.7256C217.984 44.041 218.07 44.3008 218.244 44.5049C218.423 44.709 218.708 44.9007 219.097 45.0801C219.487 45.2594 220 45.4697 220.637 45.7109C221.274 45.946 221.825 46.1903 222.289 46.4438C222.752 46.6912 223.108 46.9943 223.355 47.353C223.609 47.7056 223.736 48.1602 223.736 48.7168ZM227.753 41.332V51.5H226.213V41.332H227.753ZM227.001 37.5283C227.255 37.5283 227.472 37.6118 227.651 37.7788C227.836 37.9396 227.929 38.1932 227.929 38.5396C227.929 38.8797 227.836 39.1333 227.651 39.3003C227.472 39.4673 227.255 39.5508 227.001 39.5508C226.736 39.5508 226.513 39.4673 226.333 39.3003C226.16 39.1333 226.074 38.8797 226.074 38.5396C226.074 38.1932 226.16 37.9396 226.333 37.7788C226.513 37.6118 226.736 37.5283 227.001 37.5283ZM233.857 56.0645C232.521 56.0645 231.492 55.814 230.768 55.313C230.044 54.8182 229.683 54.1224 229.683 53.2256C229.683 52.5885 229.884 52.0443 230.286 51.5928C230.694 51.1413 231.257 50.8413 231.974 50.6929C231.708 50.5692 231.479 50.3836 231.288 50.1362C231.102 49.8888 231.009 49.6043 231.009 49.2827C231.009 48.9116 231.111 48.5869 231.315 48.3086C231.526 48.0241 231.844 47.752 232.271 47.4922C231.739 47.2757 231.306 46.9108 230.972 46.3975C230.644 45.8779 230.48 45.2749 230.48 44.5884C230.48 43.8586 230.632 43.237 230.935 42.7236C231.238 42.2041 231.677 41.8083 232.252 41.5361C232.828 41.264 233.523 41.1279 234.34 41.1279C234.519 41.1279 234.699 41.1372 234.878 41.1558C235.063 41.1681 235.24 41.1898 235.407 41.2207C235.574 41.2454 235.719 41.2764 235.843 41.3135H239.331V42.3062L237.457 42.5381C237.643 42.7793 237.797 43.07 237.921 43.4102C238.045 43.7503 238.106 44.1276 238.106 44.542C238.106 45.5563 237.763 46.3634 237.077 46.9634C236.39 47.5571 235.447 47.854 234.247 47.854C233.963 47.854 233.672 47.8293 233.375 47.7798C233.072 47.9468 232.84 48.1323 232.679 48.3364C232.525 48.5405 232.447 48.7756 232.447 49.0415C232.447 49.2394 232.506 49.3971 232.624 49.5146C232.747 49.6322 232.924 49.7188 233.152 49.7744C233.381 49.8239 233.656 49.8486 233.978 49.8486H235.769C236.876 49.8486 237.723 50.0806 238.311 50.5444C238.904 51.0083 239.201 51.6855 239.201 52.5762C239.201 53.7018 238.743 54.5646 237.828 55.1646C236.913 55.7645 235.589 56.0645 233.857 56.0645ZM233.904 54.8584C234.745 54.8584 235.441 54.7718 235.991 54.5986C236.548 54.4316 236.962 54.1873 237.234 53.8657C237.513 53.5503 237.652 53.173 237.652 52.7339C237.652 52.3257 237.559 52.0164 237.374 51.8062C237.188 51.6021 236.916 51.466 236.557 51.3979C236.198 51.3237 235.759 51.2866 235.24 51.2866H233.477C233.019 51.2866 232.62 51.3577 232.28 51.5C231.94 51.6423 231.677 51.8525 231.492 52.1309C231.312 52.4092 231.223 52.7555 231.223 53.1699C231.223 53.7204 231.455 54.1379 231.918 54.4224C232.382 54.7131 233.044 54.8584 233.904 54.8584ZM234.303 46.7314C235.039 46.7314 235.592 46.5459 235.963 46.1748C236.334 45.8037 236.52 45.2625 236.52 44.5513C236.52 43.7905 236.331 43.2215 235.954 42.8442C235.577 42.4608 235.02 42.269 234.284 42.269C233.579 42.269 233.035 42.467 232.651 42.8628C232.274 43.2524 232.085 43.8245 232.085 44.5791C232.085 45.2718 232.277 45.8037 232.661 46.1748C233.044 46.5459 233.591 46.7314 234.303 46.7314ZM246.15 41.1465C247.356 41.1465 248.268 41.4434 248.887 42.0371C249.505 42.6247 249.814 43.571 249.814 44.876V51.5H248.293V44.978C248.293 44.1307 248.098 43.4967 247.708 43.0762C247.325 42.6556 246.734 42.4453 245.937 42.4453C244.811 42.4453 244.019 42.7638 243.562 43.4009C243.104 44.0379 242.875 44.9626 242.875 46.1748V51.5H241.335V41.332H242.578L242.81 42.7979H242.894C243.11 42.4391 243.385 42.1392 243.719 41.8979C244.053 41.6506 244.427 41.465 244.842 41.3413C245.256 41.2114 245.692 41.1465 246.15 41.1465Z" fill="black"/>
<mask id="mask0_19398_10059" style="mask-type:alpha" maskUnits="userSpaceOnUse" x="419" y="32" width="25" height="24">
<rect x="420" y="32" width="24" height="24" fill="#D9D9D9"/>
</mask>
<g mask="url(#mask0_19398_10059)">
<path d="M431.299 46.3L428.699 43.7C428.383 43.3833 428.312 43.0208 428.487 42.6125C428.662 42.2042 428.974 42 429.424 42H434.574C435.024 42 435.337 42.2042 435.512 42.6125C435.687 43.0208 435.616 43.3833 435.299 43.7L432.699 46.3C432.599 46.4 432.491 46.475 432.374 46.525C432.258 46.575 432.133 46.6 431.999 46.6C431.866 46.6 431.741 46.575 431.624 46.525C431.508 46.475 431.399 46.4 431.299 46.3Z" fill="#4589FF"/>
</g>
<mask id="path-7-inside-2_19398_10059" fill="white">
<path d="M19.9995 96H460V144H19.9995V96Z"/>
</mask>
<path d="M19.9995 96H460V144H19.9995V96Z" fill="white"/>
<path d="M460 143H19.9995V145H460V143Z" fill="#4589FF" mask="url(#path-7-inside-2_19398_10059)"/>
<path d="M45.5088 123.891C45.5088 124.695 45.3078 125.382 44.9058 125.951C44.5099 126.514 43.9533 126.943 43.2358 127.24C42.5184 127.537 41.6742 127.686 40.7031 127.686C40.1898 127.686 39.7043 127.661 39.2466 127.611C38.7889 127.562 38.3683 127.491 37.9849 127.398C37.6014 127.305 37.2643 127.191 36.9736 127.055V125.542C37.4375 125.734 38.0034 125.914 38.6714 126.081C39.3394 126.241 40.0382 126.322 40.7681 126.322C41.4484 126.322 42.0236 126.232 42.4937 126.053C42.9637 125.867 43.3193 125.604 43.5605 125.264C43.8079 124.918 43.9316 124.503 43.9316 124.021C43.9316 123.557 43.8296 123.171 43.6255 122.861C43.4214 122.546 43.0812 122.261 42.605 122.008C42.1349 121.748 41.4917 121.473 40.6753 121.182C40.1001 120.978 39.5929 120.755 39.1538 120.514C38.7147 120.267 38.3467 119.988 38.0498 119.679C37.7529 119.37 37.5272 119.011 37.3726 118.603C37.2241 118.195 37.1499 117.728 37.1499 117.202C37.1499 116.479 37.3324 115.86 37.6973 115.347C38.0684 114.827 38.5786 114.431 39.228 114.159C39.8836 113.881 40.6351 113.742 41.4824 113.742C42.2061 113.742 42.874 113.81 43.4863 113.946C44.1048 114.082 44.6707 114.264 45.1841 114.493L44.6924 115.848C44.2038 115.644 43.6842 115.473 43.1338 115.337C42.5895 115.201 42.0267 115.133 41.4453 115.133C40.8639 115.133 40.3722 115.22 39.9702 115.393C39.5744 115.56 39.2713 115.798 39.061 116.107C38.8507 116.417 38.7456 116.785 38.7456 117.211C38.7456 117.688 38.8446 118.083 39.0425 118.399C39.2466 118.714 39.5682 118.996 40.0073 119.243C40.4526 119.484 41.0402 119.738 41.77 120.004C42.5679 120.295 43.2451 120.604 43.8018 120.932C44.3584 121.253 44.7821 121.649 45.0728 122.119C45.3634 122.583 45.5088 123.174 45.5088 123.891ZM51.9658 117.146C52.8317 117.146 53.5739 117.338 54.1924 117.722C54.8109 118.105 55.284 118.643 55.6118 119.336C55.9396 120.022 56.1035 120.826 56.1035 121.748V122.704H49.0806C49.0991 123.897 49.396 124.806 49.9712 125.431C50.5464 126.056 51.3566 126.368 52.4019 126.368C53.0451 126.368 53.6141 126.309 54.1089 126.192C54.6037 126.074 55.117 125.901 55.6489 125.672V127.027C55.1356 127.256 54.6253 127.423 54.1182 127.528C53.6172 127.633 53.0234 127.686 52.3369 127.686C51.3597 127.686 50.5062 127.488 49.7764 127.092C49.0527 126.69 48.4899 126.102 48.0879 125.329C47.6859 124.556 47.4849 123.61 47.4849 122.49C47.4849 121.396 47.6673 120.449 48.0322 119.651C48.4033 118.847 48.9229 118.229 49.5908 117.796C50.265 117.363 51.0566 117.146 51.9658 117.146ZM51.9473 118.408C51.1247 118.408 50.4691 118.677 49.9805 119.215C49.4919 119.753 49.2012 120.505 49.1084 121.47H54.4893C54.4831 120.864 54.3872 120.332 54.2017 119.874C54.0223 119.41 53.7471 119.051 53.376 118.798C53.0049 118.538 52.5286 118.408 51.9473 118.408ZM60.269 127.5H58.7197V113.064H60.269V127.5ZM67.4404 117.146C68.3063 117.146 69.0485 117.338 69.667 117.722C70.2855 118.105 70.7586 118.643 71.0864 119.336C71.4142 120.022 71.5781 120.826 71.5781 121.748V122.704H64.5552C64.5737 123.897 64.8706 124.806 65.4458 125.431C66.021 126.056 66.8312 126.368 67.8765 126.368C68.5197 126.368 69.0887 126.309 69.5835 126.192C70.0783 126.074 70.5916 125.901 71.1235 125.672V127.027C70.6102 127.256 70.0999 127.423 69.5928 127.528C69.0918 127.633 68.498 127.686 67.8115 127.686C66.8343 127.686 65.9808 127.488 65.251 127.092C64.5273 126.69 63.9645 126.102 63.5625 125.329C63.1605 124.556 62.9595 123.61 62.9595 122.49C62.9595 121.396 63.1419 120.449 63.5068 119.651C63.8779 118.847 64.3975 118.229 65.0654 117.796C65.7396 117.363 66.5312 117.146 67.4404 117.146ZM67.4219 118.408C66.5993 118.408 65.9437 118.677 65.4551 119.215C64.9665 119.753 64.6758 120.505 64.583 121.47H69.9639C69.9577 120.864 69.8618 120.332 69.6763 119.874C69.4969 119.41 69.2217 119.051 68.8506 118.798C68.4795 118.538 68.0033 118.408 67.4219 118.408ZM78.2671 127.686C77.3517 127.686 76.5446 127.497 75.8457 127.12C75.1468 126.742 74.6025 126.167 74.2129 125.394C73.8232 124.621 73.6284 123.647 73.6284 122.472C73.6284 121.241 73.8325 120.236 74.2407 119.457C74.6551 118.671 75.2241 118.09 75.9478 117.712C76.6714 117.335 77.494 117.146 78.4155 117.146C78.9227 117.146 79.4113 117.199 79.8813 117.304C80.3576 117.403 80.7472 117.53 81.0503 117.685L80.5864 118.974C80.2772 118.85 79.9185 118.739 79.5103 118.64C79.1082 118.541 78.731 118.492 78.3784 118.492C77.6733 118.492 77.0858 118.643 76.6157 118.946C76.1519 119.249 75.8024 119.695 75.5674 120.282C75.3385 120.87 75.2241 121.593 75.2241 122.453C75.2241 123.276 75.3354 123.978 75.5581 124.559C75.7869 125.14 76.124 125.586 76.5693 125.895C77.0208 126.198 77.5837 126.35 78.2578 126.35C78.7959 126.35 79.2814 126.294 79.7144 126.183C80.1473 126.065 80.54 125.929 80.8926 125.774V127.147C80.5524 127.321 80.172 127.454 79.7515 127.546C79.3371 127.639 78.8423 127.686 78.2671 127.686ZM86.5889 126.424C86.8424 126.424 87.1022 126.402 87.3682 126.359C87.6341 126.316 87.8506 126.263 88.0176 126.201V127.398C87.8382 127.478 87.5877 127.546 87.2661 127.602C86.9507 127.658 86.6414 127.686 86.3384 127.686C85.8003 127.686 85.3117 127.593 84.8726 127.407C84.4334 127.215 84.0809 126.894 83.8149 126.442C83.5552 125.991 83.4253 125.366 83.4253 124.568V118.538H81.978V117.787L83.4346 117.184L84.0469 114.976H84.9746V117.332H87.9526V118.538H84.9746V124.522C84.9746 125.159 85.12 125.635 85.4106 125.951C85.7075 126.266 86.1003 126.424 86.5889 126.424ZM99.0854 127.686C98.1701 127.686 97.363 127.497 96.6641 127.12C95.9652 126.742 95.4209 126.167 95.0312 125.394C94.6416 124.621 94.4468 123.647 94.4468 122.472C94.4468 121.241 94.6509 120.236 95.0591 119.457C95.4735 118.671 96.0425 118.09 96.7661 117.712C97.4897 117.335 98.3123 117.146 99.2339 117.146C99.741 117.146 100.23 117.199 100.7 117.304C101.176 117.403 101.566 117.53 101.869 117.685L101.405 118.974C101.096 118.85 100.737 118.739 100.329 118.64C99.9266 118.541 99.5493 118.492 99.1968 118.492C98.4917 118.492 97.9041 118.643 97.4341 118.946C96.9702 119.249 96.6208 119.695 96.3857 120.282C96.1569 120.87 96.0425 121.593 96.0425 122.453C96.0425 123.276 96.1538 123.978 96.3765 124.559C96.6053 125.14 96.9424 125.586 97.3877 125.895C97.8392 126.198 98.402 126.35 99.0762 126.35C99.6143 126.35 100.1 126.294 100.533 126.183C100.966 126.065 101.358 125.929 101.711 125.774V127.147C101.371 127.321 100.99 127.454 100.57 127.546C100.155 127.639 99.6606 127.686 99.0854 127.686ZM112.89 122.397C112.89 123.232 112.782 123.978 112.565 124.633C112.349 125.289 112.037 125.842 111.628 126.294C111.22 126.745 110.725 127.092 110.144 127.333C109.569 127.568 108.916 127.686 108.187 127.686C107.506 127.686 106.882 127.568 106.312 127.333C105.75 127.092 105.261 126.745 104.847 126.294C104.438 125.842 104.12 125.289 103.891 124.633C103.668 123.978 103.557 123.232 103.557 122.397C103.557 121.284 103.746 120.338 104.123 119.559C104.5 118.773 105.038 118.176 105.737 117.768C106.442 117.354 107.28 117.146 108.251 117.146C109.179 117.146 109.989 117.354 110.682 117.768C111.381 118.182 111.922 118.782 112.306 119.568C112.695 120.347 112.89 121.29 112.89 122.397ZM105.153 122.397C105.153 123.214 105.261 123.922 105.478 124.522C105.694 125.122 106.028 125.586 106.479 125.914C106.931 126.241 107.512 126.405 108.224 126.405C108.929 126.405 109.507 126.241 109.958 125.914C110.416 125.586 110.753 125.122 110.97 124.522C111.186 123.922 111.294 123.214 111.294 122.397C111.294 121.587 111.186 120.888 110.97 120.301C110.753 119.707 110.419 119.249 109.968 118.928C109.516 118.606 108.932 118.445 108.214 118.445C107.157 118.445 106.381 118.795 105.886 119.494C105.397 120.193 105.153 121.16 105.153 122.397ZM120.368 117.146C121.574 117.146 122.486 117.443 123.104 118.037C123.723 118.625 124.032 119.571 124.032 120.876V127.5H122.511V120.978C122.511 120.131 122.316 119.497 121.926 119.076C121.543 118.656 120.952 118.445 120.154 118.445C119.029 118.445 118.237 118.764 117.779 119.401C117.322 120.038 117.093 120.963 117.093 122.175V127.5H115.553V117.332H116.796L117.028 118.798H117.111C117.328 118.439 117.603 118.139 117.937 117.898C118.271 117.651 118.645 117.465 119.06 117.341C119.474 117.211 119.91 117.146 120.368 117.146ZM130.489 126.424C130.743 126.424 131.003 126.402 131.269 126.359C131.535 126.316 131.751 126.263 131.918 126.201V127.398C131.739 127.478 131.488 127.546 131.167 127.602C130.851 127.658 130.542 127.686 130.239 127.686C129.701 127.686 129.212 127.593 128.773 127.407C128.334 127.215 127.981 126.894 127.715 126.442C127.456 125.991 127.326 125.366 127.326 124.568V118.538H125.878V117.787L127.335 117.184L127.947 114.976H128.875V117.332H131.853V118.538H128.875V124.522C128.875 125.159 129.02 125.635 129.311 125.951C129.608 126.266 130.001 126.424 130.489 126.424ZM137.781 117.165C138.993 117.165 139.893 117.437 140.481 117.981C141.069 118.526 141.362 119.395 141.362 120.588V127.5H140.24L139.943 125.997H139.869C139.584 126.368 139.287 126.681 138.978 126.934C138.669 127.181 138.31 127.37 137.902 127.5C137.5 127.624 137.005 127.686 136.417 127.686C135.799 127.686 135.249 127.577 134.766 127.361C134.29 127.144 133.913 126.817 133.634 126.377C133.362 125.938 133.226 125.382 133.226 124.708C133.226 123.693 133.628 122.914 134.432 122.37C135.236 121.825 136.461 121.528 138.106 121.479L139.859 121.405V120.783C139.859 119.905 139.671 119.29 139.293 118.937C138.916 118.584 138.384 118.408 137.698 118.408C137.166 118.408 136.659 118.486 136.176 118.64C135.694 118.795 135.236 118.977 134.803 119.188L134.33 118.019C134.788 117.784 135.313 117.583 135.907 117.416C136.501 117.249 137.126 117.165 137.781 117.165ZM139.841 122.49L138.292 122.555C137.024 122.605 136.13 122.812 135.61 123.177C135.091 123.542 134.831 124.058 134.831 124.726C134.831 125.307 135.007 125.737 135.36 126.016C135.712 126.294 136.179 126.433 136.761 126.433C137.664 126.433 138.403 126.183 138.978 125.682C139.553 125.181 139.841 124.429 139.841 123.427V122.49ZM148.608 127.686C147.693 127.686 146.885 127.497 146.187 127.12C145.488 126.742 144.943 126.167 144.554 125.394C144.164 124.621 143.969 123.647 143.969 122.472C143.969 121.241 144.173 120.236 144.582 119.457C144.996 118.671 145.565 118.09 146.289 117.712C147.012 117.335 147.835 117.146 148.756 117.146C149.264 117.146 149.752 117.199 150.222 117.304C150.698 117.403 151.088 117.53 151.391 117.685L150.927 118.974C150.618 118.85 150.259 118.739 149.851 118.64C149.449 118.541 149.072 118.492 148.719 118.492C148.014 118.492 147.427 118.643 146.957 118.946C146.493 119.249 146.143 119.695 145.908 120.282C145.679 120.87 145.565 121.593 145.565 122.453C145.565 123.276 145.676 123.978 145.899 124.559C146.128 125.14 146.465 125.586 146.91 125.895C147.362 126.198 147.924 126.35 148.599 126.35C149.137 126.35 149.622 126.294 150.055 126.183C150.488 126.065 150.881 125.929 151.233 125.774V127.147C150.893 127.321 150.513 127.454 150.092 127.546C149.678 127.639 149.183 127.686 148.608 127.686ZM156.93 126.424C157.183 126.424 157.443 126.402 157.709 126.359C157.975 126.316 158.191 126.263 158.358 126.201V127.398C158.179 127.478 157.929 127.546 157.607 127.602C157.292 127.658 156.982 127.686 156.679 127.686C156.141 127.686 155.653 127.593 155.213 127.407C154.774 127.215 154.422 126.894 154.156 126.442C153.896 125.991 153.766 125.366 153.766 124.568V118.538H152.319V117.787L153.775 117.184L154.388 114.976H155.315V117.332H158.293V118.538H155.315V124.522C155.315 125.159 155.461 125.635 155.751 125.951C156.048 126.266 156.441 126.424 156.93 126.424ZM166.996 124.717C166.996 125.366 166.832 125.914 166.504 126.359C166.182 126.798 165.718 127.129 165.112 127.352C164.512 127.574 163.795 127.686 162.96 127.686C162.249 127.686 161.633 127.63 161.114 127.519C160.594 127.407 160.14 127.25 159.75 127.045V125.626C160.164 125.83 160.659 126.016 161.234 126.183C161.81 126.35 162.397 126.433 162.997 126.433C163.875 126.433 164.512 126.291 164.908 126.006C165.304 125.722 165.502 125.335 165.502 124.847C165.502 124.568 165.422 124.324 165.261 124.114C165.106 123.897 164.843 123.69 164.472 123.492C164.101 123.288 163.588 123.065 162.932 122.824C162.283 122.577 161.72 122.333 161.244 122.091C160.774 121.844 160.409 121.544 160.149 121.191C159.895 120.839 159.769 120.381 159.769 119.818C159.769 118.959 160.115 118.3 160.808 117.842C161.507 117.378 162.422 117.146 163.554 117.146C164.166 117.146 164.738 117.208 165.27 117.332C165.808 117.45 166.309 117.61 166.773 117.814L166.253 119.048C165.833 118.869 165.384 118.717 164.908 118.594C164.432 118.47 163.946 118.408 163.452 118.408C162.74 118.408 162.193 118.526 161.81 118.761C161.432 118.996 161.244 119.317 161.244 119.726C161.244 120.041 161.33 120.301 161.503 120.505C161.683 120.709 161.967 120.901 162.357 121.08C162.747 121.259 163.26 121.47 163.897 121.711C164.534 121.946 165.084 122.19 165.548 122.444C166.012 122.691 166.368 122.994 166.615 123.353C166.869 123.706 166.996 124.16 166.996 124.717ZM177.692 126.424C177.946 126.424 178.206 126.402 178.472 126.359C178.738 126.316 178.954 126.263 179.121 126.201V127.398C178.942 127.478 178.691 127.546 178.37 127.602C178.054 127.658 177.745 127.686 177.442 127.686C176.904 127.686 176.415 127.593 175.976 127.407C175.537 127.215 175.184 126.894 174.918 126.442C174.659 125.991 174.529 125.366 174.529 124.568V118.538H173.082V117.787L174.538 117.184L175.15 114.976H176.078V117.332H179.056V118.538H176.078V124.522C176.078 125.159 176.223 125.635 176.514 125.951C176.811 126.266 177.204 126.424 177.692 126.424ZM189.948 122.397C189.948 123.232 189.84 123.978 189.623 124.633C189.407 125.289 189.094 125.842 188.686 126.294C188.278 126.745 187.783 127.092 187.202 127.333C186.626 127.568 185.974 127.686 185.244 127.686C184.564 127.686 183.939 127.568 183.37 127.333C182.807 127.092 182.319 126.745 181.904 126.294C181.496 125.842 181.178 125.289 180.949 124.633C180.726 123.978 180.615 123.232 180.615 122.397C180.615 121.284 180.803 120.338 181.181 119.559C181.558 118.773 182.096 118.176 182.795 117.768C183.5 117.354 184.338 117.146 185.309 117.146C186.237 117.146 187.047 117.354 187.74 117.768C188.439 118.182 188.98 118.782 189.363 119.568C189.753 120.347 189.948 121.29 189.948 122.397ZM182.21 122.397C182.21 123.214 182.319 123.922 182.535 124.522C182.752 125.122 183.086 125.586 183.537 125.914C183.989 126.241 184.57 126.405 185.281 126.405C185.986 126.405 186.565 126.241 187.016 125.914C187.474 125.586 187.811 125.122 188.027 124.522C188.244 123.922 188.352 123.214 188.352 122.397C188.352 121.587 188.244 120.888 188.027 120.301C187.811 119.707 187.477 119.249 187.025 118.928C186.574 118.606 185.989 118.445 185.272 118.445C184.214 118.445 183.438 118.795 182.943 119.494C182.455 120.193 182.21 121.16 182.21 122.397ZM201.35 117.165C202.562 117.165 203.462 117.437 204.049 117.981C204.637 118.526 204.931 119.395 204.931 120.588V127.5H203.808L203.511 125.997H203.437C203.153 126.368 202.856 126.681 202.546 126.934C202.237 127.181 201.878 127.37 201.47 127.5C201.068 127.624 200.573 127.686 199.986 127.686C199.367 127.686 198.817 127.577 198.334 127.361C197.858 127.144 197.481 126.817 197.203 126.377C196.931 125.938 196.794 125.382 196.794 124.708C196.794 123.693 197.196 122.914 198 122.37C198.805 121.825 200.029 121.528 201.674 121.479L203.428 121.405V120.783C203.428 119.905 203.239 119.29 202.862 118.937C202.485 118.584 201.953 118.408 201.266 118.408C200.734 118.408 200.227 118.486 199.745 118.64C199.262 118.795 198.805 118.977 198.372 119.188L197.898 118.019C198.356 117.784 198.882 117.583 199.476 117.416C200.069 117.249 200.694 117.165 201.35 117.165ZM203.409 122.49L201.86 122.555C200.592 122.605 199.698 122.812 199.179 123.177C198.659 123.542 198.399 124.058 198.399 124.726C198.399 125.307 198.576 125.737 198.928 126.016C199.281 126.294 199.748 126.433 200.329 126.433C201.232 126.433 201.971 126.183 202.546 125.682C203.122 125.181 203.409 124.429 203.409 123.427V122.49ZM214.681 124.717C214.681 125.366 214.517 125.914 214.189 126.359C213.868 126.798 213.404 127.129 212.798 127.352C212.198 127.574 211.48 127.686 210.646 127.686C209.934 127.686 209.319 127.63 208.799 127.519C208.28 127.407 207.825 127.25 207.436 127.045V125.626C207.85 125.83 208.345 126.016 208.92 126.183C209.495 126.35 210.083 126.433 210.683 126.433C211.561 126.433 212.198 126.291 212.594 126.006C212.99 125.722 213.188 125.335 213.188 124.847C213.188 124.568 213.107 124.324 212.946 124.114C212.792 123.897 212.529 123.69 212.158 123.492C211.787 123.288 211.273 123.065 210.618 122.824C209.968 122.577 209.405 122.333 208.929 122.091C208.459 121.844 208.094 121.544 207.834 121.191C207.581 120.839 207.454 120.381 207.454 119.818C207.454 118.959 207.8 118.3 208.493 117.842C209.192 117.378 210.107 117.146 211.239 117.146C211.852 117.146 212.424 117.208 212.956 117.332C213.494 117.45 213.995 117.61 214.458 117.814L213.939 119.048C213.518 118.869 213.07 118.717 212.594 118.594C212.118 118.47 211.632 118.408 211.137 118.408C210.426 118.408 209.879 118.526 209.495 118.761C209.118 118.996 208.929 119.317 208.929 119.726C208.929 120.041 209.016 120.301 209.189 120.505C209.368 120.709 209.653 120.901 210.042 121.08C210.432 121.259 210.945 121.47 211.583 121.711C212.22 121.946 212.77 122.19 213.234 122.444C213.698 122.691 214.053 122.994 214.301 123.353C214.554 123.706 214.681 124.16 214.681 124.717ZM223.736 124.717C223.736 125.366 223.572 125.914 223.244 126.359C222.923 126.798 222.459 127.129 221.853 127.352C221.253 127.574 220.535 127.686 219.7 127.686C218.989 127.686 218.374 127.63 217.854 127.519C217.334 127.407 216.88 127.25 216.49 127.045V125.626C216.905 125.83 217.399 126.016 217.975 126.183C218.55 126.35 219.137 126.433 219.737 126.433C220.616 126.433 221.253 126.291 221.648 126.006C222.044 125.722 222.242 125.335 222.242 124.847C222.242 124.568 222.162 124.324 222.001 124.114C221.846 123.897 221.583 123.69 221.212 123.492C220.841 123.288 220.328 123.065 219.672 122.824C219.023 122.577 218.46 122.333 217.984 122.091C217.514 121.844 217.149 121.544 216.889 121.191C216.636 120.839 216.509 120.381 216.509 119.818C216.509 118.959 216.855 118.3 217.548 117.842C218.247 117.378 219.162 117.146 220.294 117.146C220.906 117.146 221.478 117.208 222.01 117.332C222.548 117.45 223.049 117.61 223.513 117.814L222.994 119.048C222.573 118.869 222.125 118.717 221.648 118.594C221.172 118.47 220.687 118.408 220.192 118.408C219.481 118.408 218.933 118.526 218.55 118.761C218.173 118.996 217.984 119.317 217.984 119.726C217.984 120.041 218.07 120.301 218.244 120.505C218.423 120.709 218.708 120.901 219.097 121.08C219.487 121.259 220 121.47 220.637 121.711C221.274 121.946 221.825 122.19 222.289 122.444C222.752 122.691 223.108 122.994 223.355 123.353C223.609 123.706 223.736 124.16 223.736 124.717ZM227.753 117.332V127.5H226.213V117.332H227.753ZM227.001 113.528C227.255 113.528 227.472 113.612 227.651 113.779C227.836 113.94 227.929 114.193 227.929 114.54C227.929 114.88 227.836 115.133 227.651 115.3C227.472 115.467 227.255 115.551 227.001 115.551C226.736 115.551 226.513 115.467 226.333 115.3C226.16 115.133 226.074 114.88 226.074 114.54C226.074 114.193 226.16 113.94 226.333 113.779C226.513 113.612 226.736 113.528 227.001 113.528ZM233.857 132.064C232.521 132.064 231.492 131.814 230.768 131.313C230.044 130.818 229.683 130.122 229.683 129.226C229.683 128.589 229.884 128.044 230.286 127.593C230.694 127.141 231.257 126.841 231.974 126.693C231.708 126.569 231.479 126.384 231.288 126.136C231.102 125.889 231.009 125.604 231.009 125.283C231.009 124.912 231.111 124.587 231.315 124.309C231.526 124.024 231.844 123.752 232.271 123.492C231.739 123.276 231.306 122.911 230.972 122.397C230.644 121.878 230.48 121.275 230.48 120.588C230.48 119.859 230.632 119.237 230.935 118.724C231.238 118.204 231.677 117.808 232.252 117.536C232.828 117.264 233.523 117.128 234.34 117.128C234.519 117.128 234.699 117.137 234.878 117.156C235.063 117.168 235.24 117.19 235.407 117.221C235.574 117.245 235.719 117.276 235.843 117.313H239.331V118.306L237.457 118.538C237.643 118.779 237.797 119.07 237.921 119.41C238.045 119.75 238.106 120.128 238.106 120.542C238.106 121.556 237.763 122.363 237.077 122.963C236.39 123.557 235.447 123.854 234.247 123.854C233.963 123.854 233.672 123.829 233.375 123.78C233.072 123.947 232.84 124.132 232.679 124.336C232.525 124.541 232.447 124.776 232.447 125.042C232.447 125.239 232.506 125.397 232.624 125.515C232.747 125.632 232.924 125.719 233.152 125.774C233.381 125.824 233.656 125.849 233.978 125.849H235.769C236.876 125.849 237.723 126.081 238.311 126.544C238.904 127.008 239.201 127.686 239.201 128.576C239.201 129.702 238.743 130.565 237.828 131.165C236.913 131.764 235.589 132.064 233.857 132.064ZM233.904 130.858C234.745 130.858 235.441 130.772 235.991 130.599C236.548 130.432 236.962 130.187 237.234 129.866C237.513 129.55 237.652 129.173 237.652 128.734C237.652 128.326 237.559 128.016 237.374 127.806C237.188 127.602 236.916 127.466 236.557 127.398C236.198 127.324 235.759 127.287 235.24 127.287H233.477C233.019 127.287 232.62 127.358 232.28 127.5C231.94 127.642 231.677 127.853 231.492 128.131C231.312 128.409 231.223 128.756 231.223 129.17C231.223 129.72 231.455 130.138 231.918 130.422C232.382 130.713 233.044 130.858 233.904 130.858ZM234.303 122.731C235.039 122.731 235.592 122.546 235.963 122.175C236.334 121.804 236.52 121.263 236.52 120.551C236.52 119.791 236.331 119.222 235.954 118.844C235.577 118.461 235.02 118.269 234.284 118.269C233.579 118.269 233.035 118.467 232.651 118.863C232.274 119.252 232.085 119.825 232.085 120.579C232.085 121.272 232.277 121.804 232.661 122.175C233.044 122.546 233.591 122.731 234.303 122.731ZM246.15 117.146C247.356 117.146 248.268 117.443 248.887 118.037C249.505 118.625 249.814 119.571 249.814 120.876V127.5H248.293V120.978C248.293 120.131 248.098 119.497 247.708 119.076C247.325 118.656 246.734 118.445 245.937 118.445C244.811 118.445 244.019 118.764 243.562 119.401C243.104 120.038 242.875 120.963 242.875 122.175V127.5H241.335V117.332H242.578L242.81 118.798H242.894C243.11 118.439 243.385 118.139 243.719 117.898C244.053 117.651 244.427 117.465 244.842 117.341C245.256 117.211 245.692 117.146 246.15 117.146Z" fill="black"/>
<mask id="mask1_19398_10059" style="mask-type:alpha" maskUnits="userSpaceOnUse" x="419" y="108" width="25" height="24">
<rect x="420" y="108" width="24" height="24" fill="#D9D9D9"/>
</mask>
<g mask="url(#mask1_19398_10059)">
<path d="M431.299 122.3L428.699 119.7C428.383 119.383 428.312 119.021 428.487 118.613C428.662 118.204 428.974 118 429.424 118H434.574C435.024 118 435.337 118.204 435.512 118.613C435.687 119.021 435.616 119.383 435.299 119.7L432.699 122.3C432.599 122.4 432.491 122.475 432.374 122.525C432.258 122.575 432.133 122.6 431.999 122.6C431.866 122.6 431.741 122.575 431.624 122.525C431.508 122.475 431.399 122.4 431.299 122.3Z" fill="#4589FF"/>
</g>
<mask id="path-12-inside-3_19398_10059" fill="white">
<path d="M19.9995 172H460V220H19.9995V172Z"/>
</mask>
<path d="M19.9995 172H460V220H19.9995V172Z" fill="white"/>
<path d="M460 219H19.9995V221H460V219Z" fill="#005DFF" mask="url(#path-12-inside-3_19398_10059)"/>
<path d="M40.564 189.055H41.8535V208.102H40.564V189.055Z" fill="black"/>
<mask id="mask2_19398_10059" style="mask-type:alpha" maskUnits="userSpaceOnUse" x="419" y="184" width="25" height="24">
<rect x="420" y="184" width="24" height="24" fill="#D9D9D9"/>
</mask>
<g mask="url(#mask2_19398_10059)">
<path d="M432.7 194.3L435.3 196.9C435.616 197.217 435.687 197.579 435.512 197.988C435.337 198.396 435.025 198.6 434.575 198.6H429.425C428.975 198.6 428.662 198.396 428.487 197.988C428.312 197.579 428.383 197.217 428.7 196.9L431.3 194.3C431.4 194.2 431.508 194.125 431.625 194.075C431.741 194.025 431.866 194 432 194C432.133 194 432.258 194.025 432.375 194.075C432.491 194.125 432.6 194.2 432.7 194.3Z" fill="#4589FF"/>
</g>
<mask id="path-17-inside-4_19398_10059" fill="white">
<path d="M19.9995 248H460V296H19.9995V248Z"/>
</mask>
<path d="M19.9995 248H460V296H19.9995V248Z" fill="white"/>
<path d="M460 295H19.9995V297H460V295Z" fill="#005DFF" mask="url(#path-17-inside-4_19398_10059)"/>
<path d="M46.3623 279.5L44.6924 275.195H39.2559L37.5952 279.5H35.9995L41.3062 265.881H42.7256L47.9951 279.5H46.3623ZM44.2192 273.794L42.6328 269.518C42.5957 269.406 42.5339 269.224 42.4473 268.97C42.3669 268.717 42.2834 268.454 42.1968 268.182C42.1102 267.91 42.0391 267.69 41.9834 267.523C41.9215 267.777 41.8535 268.03 41.7793 268.284C41.7113 268.531 41.6432 268.763 41.5752 268.979C41.5072 269.19 41.4484 269.369 41.3989 269.518L39.7847 273.794H44.2192ZM54.4614 269.146C55.6675 269.146 56.5798 269.443 57.1982 270.037C57.8167 270.625 58.126 271.571 58.126 272.876V279.5H56.6045V272.978C56.6045 272.131 56.4097 271.497 56.02 271.076C55.6366 270.656 55.0459 270.445 54.248 270.445C53.1224 270.445 52.3307 270.764 51.873 271.401C51.4154 272.038 51.1865 272.963 51.1865 274.175V279.5H49.6465V269.332H50.8896L51.1216 270.798H51.2051C51.4215 270.439 51.6968 270.139 52.0308 269.898C52.3647 269.651 52.7389 269.465 53.1533 269.341C53.5677 269.211 54.0037 269.146 54.4614 269.146ZM64.2397 265.055H65.5293V284.102H64.2397V265.055Z" fill="black"/>
<mask id="mask3_19398_10059" style="mask-type:alpha" maskUnits="userSpaceOnUse" x="419" y="260" width="25" height="24">
<rect x="420" y="260" width="24" height="24" fill="#D9D9D9"/>
</mask>
<g mask="url(#mask3_19398_10059)">
<path d="M432.7 270.3L435.3 272.9C435.616 273.217 435.687 273.579 435.512 273.987C435.337 274.396 435.025 274.6 434.575 274.6H429.425C428.975 274.6 428.662 274.396 428.487 273.987C428.312 273.579 428.383 273.217 428.7 272.9L431.3 270.3C431.4 270.2 431.508 270.125 431.625 270.075C431.741 270.025 431.866 270 432 270C432.133 270 432.258 270.025 432.375 270.075C432.491 270.125 432.6 270.2 432.7 270.3Z" fill="#4589FF"/>
</g>
</svg>
