<svg width="480" height="452" viewBox="0 0 480 452" fill="none" xmlns="http://www.w3.org/2000/svg">
<rect x="0.499512" y="0.5" width="479" height="451" rx="4.5" stroke="#9747FF" stroke-dasharray="10 5"/>
<mask id="path-2-inside-1_88_1226" fill="white">
<path d="M19.9995 20H460V84H19.9995V20Z"/>
</mask>
<path d="M19.9995 20H460V84H19.9995V20Z" fill="white"/>
<path d="M460 83H19.9995V85H460V83Z" fill="#D1D1D1" mask="url(#path-2-inside-1_88_1226)"/>
<path d="M51.8433 64H39.1245V41.1562H51.8433V43.5H41.7808V50.8906H51.2651V53.2031H41.7808V61.6562H51.8433V64ZM64.6245 46.5625C66.6558 46.5625 68.1922 47.0625 69.2339 48.0625C70.2756 49.0521 70.7964 50.6458 70.7964 52.8438V64H68.2339V53.0156C68.2339 51.5885 67.9058 50.5208 67.2495 49.8125C66.6037 49.1042 65.6089 48.75 64.2651 48.75C62.3693 48.75 61.036 49.2865 60.2651 50.3594C59.4943 51.4323 59.1089 52.9896 59.1089 55.0312V64H56.5151V46.875H58.6089L58.9995 49.3438H59.1401C59.5047 48.7396 59.9683 48.2344 60.5308 47.8281C61.0933 47.4115 61.7235 47.099 62.4214 46.8906C63.1193 46.6719 63.8537 46.5625 64.6245 46.5625ZM81.6714 62.1875C82.0985 62.1875 82.536 62.151 82.9839 62.0781C83.4318 62.0052 83.7964 61.9167 84.0776 61.8125V63.8281C83.7756 63.9635 83.3537 64.0781 82.812 64.1719C82.2808 64.2656 81.7599 64.3125 81.2495 64.3125C80.3433 64.3125 79.5203 64.1562 78.7808 63.8438C78.0412 63.5208 77.4474 62.9792 76.9995 62.2188C76.562 61.4583 76.3433 60.4062 76.3433 59.0625V48.9062H73.9058V47.6406L76.3589 46.625L77.3901 42.9062H78.9526V46.875H83.9683V48.9062H78.9526V58.9844C78.9526 60.0573 79.1974 60.8594 79.687 61.3906C80.187 61.9219 80.8485 62.1875 81.6714 62.1875ZM94.1401 46.5625C95.5985 46.5625 96.8485 46.8854 97.8901 47.5312C98.9318 48.1771 99.7287 49.0833 100.281 50.25C100.833 51.4062 101.109 52.7604 101.109 54.3125V55.9219H89.2808C89.312 57.9323 89.812 59.4635 90.7808 60.5156C91.7495 61.5677 93.1141 62.0938 94.8745 62.0938C95.9578 62.0938 96.9162 61.9948 97.7495 61.7969C98.5828 61.599 99.4474 61.3073 100.343 60.9219V63.2031C99.4787 63.5885 98.6193 63.8698 97.7651 64.0469C96.9214 64.224 95.9214 64.3125 94.7651 64.3125C93.1193 64.3125 91.6818 63.9792 90.4526 63.3125C89.2339 62.6354 88.286 61.6458 87.6089 60.3438C86.9318 59.0417 86.5933 57.4479 86.5933 55.5625C86.5933 53.7188 86.9006 52.125 87.5151 50.7812C88.1401 49.4271 89.0151 48.3854 90.1401 47.6562C91.2756 46.9271 92.6089 46.5625 94.1401 46.5625ZM94.1089 48.6875C92.7235 48.6875 91.6193 49.1406 90.7964 50.0469C89.9735 50.9531 89.4839 52.2188 89.3276 53.8438H98.3901C98.3797 52.8229 98.2183 51.9271 97.9058 51.1562C97.6037 50.375 97.1401 49.7708 96.5151 49.3438C95.8901 48.9062 95.0881 48.6875 94.1089 48.6875ZM113.296 46.5625C113.64 46.5625 114 46.5833 114.375 46.625C114.75 46.6562 115.083 46.7031 115.375 46.7656L115.046 49.1719C114.765 49.099 114.453 49.0417 114.109 49C113.765 48.9583 113.442 48.9375 113.14 48.9375C112.453 48.9375 111.802 49.0781 111.187 49.3594C110.583 49.6302 110.052 50.026 109.593 50.5469C109.135 51.0573 108.776 51.6771 108.515 52.4062C108.255 53.125 108.125 53.9271 108.125 54.8125V64H105.515V46.875H107.671L107.953 50.0312H108.062C108.416 49.3958 108.843 48.8177 109.343 48.2969C109.843 47.7656 110.421 47.3438 111.078 47.0312C111.744 46.7188 112.484 46.5625 113.296 46.5625ZM133.328 46.5938C135.369 46.5938 136.885 47.0521 137.875 47.9688C138.864 48.8854 139.359 50.349 139.359 52.3594V64H137.468L136.968 61.4688H136.843C136.364 62.0938 135.864 62.6198 135.343 63.0469C134.822 63.4635 134.218 63.7812 133.531 64C132.854 64.2083 132.02 64.3125 131.031 64.3125C129.989 64.3125 129.062 64.1302 128.25 63.7656C127.447 63.401 126.812 62.849 126.343 62.1094C125.885 61.3698 125.656 60.4323 125.656 59.2969C125.656 57.5885 126.333 56.276 127.687 55.3594C129.041 54.4427 131.104 53.9427 133.875 53.8594L136.828 53.7344V52.6875C136.828 51.2083 136.51 50.1719 135.875 49.5781C135.239 48.9844 134.343 48.6875 133.187 48.6875C132.291 48.6875 131.437 48.8177 130.625 49.0781C129.812 49.3385 129.041 49.6458 128.312 50L127.515 48.0312C128.286 47.6354 129.171 47.2969 130.171 47.0156C131.171 46.7344 132.223 46.5938 133.328 46.5938ZM136.796 55.5625L134.187 55.6719C132.052 55.7552 130.546 56.1042 129.671 56.7188C128.796 57.3333 128.359 58.2031 128.359 59.3281C128.359 60.3073 128.656 61.0312 129.25 61.5C129.843 61.9688 130.63 62.2031 131.609 62.2031C133.13 62.2031 134.375 61.7812 135.343 60.9375C136.312 60.0938 136.796 58.8281 136.796 57.1406V55.5625ZM158.546 62.1875C158.973 62.1875 159.411 62.151 159.859 62.0781C160.307 62.0052 160.671 61.9167 160.953 61.8125V63.8281C160.651 63.9635 160.229 64.0781 159.687 64.1719C159.156 64.2656 158.635 64.3125 158.125 64.3125C157.218 64.3125 156.395 64.1562 155.656 63.8438C154.916 63.5208 154.322 62.9792 153.875 62.2188C153.437 61.4583 153.218 60.4062 153.218 59.0625V48.9062H150.781V47.6406L153.234 46.625L154.265 42.9062H155.828V46.875H160.843V48.9062H155.828V58.9844C155.828 60.0573 156.072 60.8594 156.562 61.3906C157.062 61.9219 157.723 62.1875 158.546 62.1875ZM167.015 46.875V64H164.421V46.875H167.015ZM165.75 40.4688C166.177 40.4688 166.541 40.6094 166.843 40.8906C167.156 41.1615 167.312 41.5885 167.312 42.1719C167.312 42.7448 167.156 43.1719 166.843 43.4531C166.541 43.7344 166.177 43.875 165.75 43.875C165.302 43.875 164.927 43.7344 164.625 43.4531C164.333 43.1719 164.187 42.7448 164.187 42.1719C164.187 41.5885 164.333 41.1615 164.625 40.8906C164.927 40.6094 165.302 40.4688 165.75 40.4688ZM178.046 62.1875C178.473 62.1875 178.911 62.151 179.359 62.0781C179.807 62.0052 180.171 61.9167 180.453 61.8125V63.8281C180.151 63.9635 179.729 64.0781 179.187 64.1719C178.656 64.2656 178.135 64.3125 177.625 64.3125C176.718 64.3125 175.895 64.1562 175.156 63.8438C174.416 63.5208 173.822 62.9792 173.375 62.2188C172.937 61.4583 172.718 60.4062 172.718 59.0625V48.9062H170.281V47.6406L172.734 46.625L173.765 42.9062H175.328V46.875H180.343V48.9062H175.328V58.9844C175.328 60.0573 175.572 60.8594 176.062 61.3906C176.562 61.9219 177.223 62.1875 178.046 62.1875ZM186.531 64H183.921V39.6875H186.531V64ZM198.609 46.5625C200.067 46.5625 201.317 46.8854 202.359 47.5312C203.401 48.1771 204.197 49.0833 204.75 50.25C205.302 51.4062 205.578 52.7604 205.578 54.3125V55.9219H193.75C193.781 57.9323 194.281 59.4635 195.25 60.5156C196.218 61.5677 197.583 62.0938 199.343 62.0938C200.427 62.0938 201.385 61.9948 202.218 61.7969C203.052 61.599 203.916 61.3073 204.812 60.9219V63.2031C203.947 63.5885 203.088 63.8698 202.234 64.0469C201.39 64.224 200.39 64.3125 199.234 64.3125C197.588 64.3125 196.151 63.9792 194.921 63.3125C193.703 62.6354 192.755 61.6458 192.078 60.3438C191.401 59.0417 191.062 57.4479 191.062 55.5625C191.062 53.7188 191.369 52.125 191.984 50.7812C192.609 49.4271 193.484 48.3854 194.609 47.6562C195.744 46.9271 197.078 46.5625 198.609 46.5625ZM198.578 48.6875C197.192 48.6875 196.088 49.1406 195.265 50.0469C194.442 50.9531 193.953 52.2188 193.796 53.8438H202.859C202.848 52.8229 202.687 51.9271 202.375 51.1562C202.072 50.375 201.609 49.7708 200.984 49.3438C200.359 48.9062 199.557 48.6875 198.578 48.6875Z" fill="#D1D1D1"/>
<mask id="path-5-inside-2_88_1226" fill="white">
<path d="M19.9995 129H460V193H19.9995V129Z"/>
</mask>
<path d="M19.9995 129H460V193H19.9995V129Z" fill="white"/>
<path d="M460 192H19.9995V194H460V192Z" fill="#E60026" mask="url(#path-5-inside-2_88_1226)"/>
<path d="M51.8433 173H39.1245V150.156H51.8433V152.5H41.7808V159.891H51.2651V162.203H41.7808V170.656H51.8433V173ZM64.6245 155.562C66.6558 155.562 68.1922 156.062 69.2339 157.062C70.2756 158.052 70.7964 159.646 70.7964 161.844V173H68.2339V162.016C68.2339 160.589 67.9058 159.521 67.2495 158.812C66.6037 158.104 65.6089 157.75 64.2651 157.75C62.3693 157.75 61.036 158.286 60.2651 159.359C59.4943 160.432 59.1089 161.99 59.1089 164.031V173H56.5151V155.875H58.6089L58.9995 158.344H59.1401C59.5047 157.74 59.9683 157.234 60.5308 156.828C61.0933 156.411 61.7235 156.099 62.4214 155.891C63.1193 155.672 63.8537 155.562 64.6245 155.562ZM81.6714 171.188C82.0985 171.188 82.536 171.151 82.9839 171.078C83.4318 171.005 83.7964 170.917 84.0776 170.812V172.828C83.7756 172.964 83.3537 173.078 82.812 173.172C82.2808 173.266 81.7599 173.312 81.2495 173.312C80.3433 173.312 79.5203 173.156 78.7808 172.844C78.0412 172.521 77.4474 171.979 76.9995 171.219C76.562 170.458 76.3433 169.406 76.3433 168.062V157.906H73.9058V156.641L76.3589 155.625L77.3901 151.906H78.9526V155.875H83.9683V157.906H78.9526V167.984C78.9526 169.057 79.1974 169.859 79.687 170.391C80.187 170.922 80.8485 171.188 81.6714 171.188ZM94.1401 155.562C95.5985 155.562 96.8485 155.885 97.8901 156.531C98.9318 157.177 99.7287 158.083 100.281 159.25C100.833 160.406 101.109 161.76 101.109 163.312V164.922H89.2808C89.312 166.932 89.812 168.464 90.7808 169.516C91.7495 170.568 93.1141 171.094 94.8745 171.094C95.9578 171.094 96.9162 170.995 97.7495 170.797C98.5828 170.599 99.4474 170.307 100.343 169.922V172.203C99.4787 172.589 98.6193 172.87 97.7651 173.047C96.9214 173.224 95.9214 173.312 94.7651 173.312C93.1193 173.312 91.6818 172.979 90.4526 172.312C89.2339 171.635 88.286 170.646 87.6089 169.344C86.9318 168.042 86.5933 166.448 86.5933 164.562C86.5933 162.719 86.9006 161.125 87.5151 159.781C88.1401 158.427 89.0151 157.385 90.1401 156.656C91.2756 155.927 92.6089 155.562 94.1401 155.562ZM94.1089 157.688C92.7235 157.688 91.6193 158.141 90.7964 159.047C89.9735 159.953 89.4839 161.219 89.3276 162.844H98.3901C98.3797 161.823 98.2183 160.927 97.9058 160.156C97.6037 159.375 97.1401 158.771 96.5151 158.344C95.8901 157.906 95.0881 157.688 94.1089 157.688ZM113.296 155.562C113.64 155.562 114 155.583 114.375 155.625C114.75 155.656 115.083 155.703 115.375 155.766L115.046 158.172C114.765 158.099 114.453 158.042 114.109 158C113.765 157.958 113.442 157.938 113.14 157.938C112.453 157.938 111.802 158.078 111.187 158.359C110.583 158.63 110.052 159.026 109.593 159.547C109.135 160.057 108.776 160.677 108.515 161.406C108.255 162.125 108.125 162.927 108.125 163.812V173H105.515V155.875H107.671L107.953 159.031H108.062C108.416 158.396 108.843 157.818 109.343 157.297C109.843 156.766 110.421 156.344 111.078 156.031C111.744 155.719 112.484 155.562 113.296 155.562ZM133.328 155.594C135.369 155.594 136.885 156.052 137.875 156.969C138.864 157.885 139.359 159.349 139.359 161.359V173H137.468L136.968 170.469H136.843C136.364 171.094 135.864 171.62 135.343 172.047C134.822 172.464 134.218 172.781 133.531 173C132.854 173.208 132.02 173.312 131.031 173.312C129.989 173.312 129.062 173.13 128.25 172.766C127.447 172.401 126.812 171.849 126.343 171.109C125.885 170.37 125.656 169.432 125.656 168.297C125.656 166.589 126.333 165.276 127.687 164.359C129.041 163.443 131.104 162.943 133.875 162.859L136.828 162.734V161.688C136.828 160.208 136.51 159.172 135.875 158.578C135.239 157.984 134.343 157.688 133.187 157.688C132.291 157.688 131.437 157.818 130.625 158.078C129.812 158.339 129.041 158.646 128.312 159L127.515 157.031C128.286 156.635 129.171 156.297 130.171 156.016C131.171 155.734 132.223 155.594 133.328 155.594ZM136.796 164.562L134.187 164.672C132.052 164.755 130.546 165.104 129.671 165.719C128.796 166.333 128.359 167.203 128.359 168.328C128.359 169.307 128.656 170.031 129.25 170.5C129.843 170.969 130.63 171.203 131.609 171.203C133.13 171.203 134.375 170.781 135.343 169.938C136.312 169.094 136.796 167.828 136.796 166.141V164.562ZM158.546 171.188C158.973 171.188 159.411 171.151 159.859 171.078C160.307 171.005 160.671 170.917 160.953 170.812V172.828C160.651 172.964 160.229 173.078 159.687 173.172C159.156 173.266 158.635 173.312 158.125 173.312C157.218 173.312 156.395 173.156 155.656 172.844C154.916 172.521 154.322 171.979 153.875 171.219C153.437 170.458 153.218 169.406 153.218 168.062V157.906H150.781V156.641L153.234 155.625L154.265 151.906H155.828V155.875H160.843V157.906H155.828V167.984C155.828 169.057 156.072 169.859 156.562 170.391C157.062 170.922 157.723 171.188 158.546 171.188ZM167.015 155.875V173H164.421V155.875H167.015ZM165.75 149.469C166.177 149.469 166.541 149.609 166.843 149.891C167.156 150.161 167.312 150.589 167.312 151.172C167.312 151.745 167.156 152.172 166.843 152.453C166.541 152.734 166.177 152.875 165.75 152.875C165.302 152.875 164.927 152.734 164.625 152.453C164.333 152.172 164.187 151.745 164.187 151.172C164.187 150.589 164.333 150.161 164.625 149.891C164.927 149.609 165.302 149.469 165.75 149.469ZM178.046 171.188C178.473 171.188 178.911 171.151 179.359 171.078C179.807 171.005 180.171 170.917 180.453 170.812V172.828C180.151 172.964 179.729 173.078 179.187 173.172C178.656 173.266 178.135 173.312 177.625 173.312C176.718 173.312 175.895 173.156 175.156 172.844C174.416 172.521 173.822 171.979 173.375 171.219C172.937 170.458 172.718 169.406 172.718 168.062V157.906H170.281V156.641L172.734 155.625L173.765 151.906H175.328V155.875H180.343V157.906H175.328V167.984C175.328 169.057 175.572 169.859 176.062 170.391C176.562 170.922 177.223 171.188 178.046 171.188ZM186.531 173H183.921V148.688H186.531V173ZM198.609 155.562C200.067 155.562 201.317 155.885 202.359 156.531C203.401 157.177 204.197 158.083 204.75 159.25C205.302 160.406 205.578 161.76 205.578 163.312V164.922H193.75C193.781 166.932 194.281 168.464 195.25 169.516C196.218 170.568 197.583 171.094 199.343 171.094C200.427 171.094 201.385 170.995 202.218 170.797C203.052 170.599 203.916 170.307 204.812 169.922V172.203C203.947 172.589 203.088 172.87 202.234 173.047C201.39 173.224 200.39 173.312 199.234 173.312C197.588 173.312 196.151 172.979 194.921 172.312C193.703 171.635 192.755 170.646 192.078 169.344C191.401 168.042 191.062 166.448 191.062 164.562C191.062 162.719 191.369 161.125 191.984 159.781C192.609 158.427 193.484 157.385 194.609 156.656C195.744 155.927 197.078 155.562 198.609 155.562ZM198.578 157.688C197.192 157.688 196.088 158.141 195.265 159.047C194.442 159.953 193.953 161.219 193.796 162.844H202.859C202.848 161.823 202.687 160.927 202.375 160.156C202.072 159.375 201.609 158.771 200.984 158.344C200.359 157.906 199.557 157.688 198.578 157.688Z" fill="#D1D1D1"/>
<path d="M20.6756 201.912V200.818H28.312V201.912H25.1103V211H23.8774V201.912H20.6756ZM31.2291 206.406V211H30.0558V200.818H31.2291V204.557H31.3285C31.5075 204.162 31.776 203.849 32.1339 203.617C32.4952 203.382 32.9758 203.264 33.5757 203.264C34.096 203.264 34.5518 203.369 34.9429 203.577C35.334 203.783 35.6372 204.099 35.8527 204.527C36.0714 204.951 36.1808 205.491 36.1808 206.148V211H35.0075V206.227C35.0075 205.621 34.8501 205.152 34.5352 204.82C34.2236 204.486 33.7911 204.318 33.2376 204.318C32.8531 204.318 32.5084 204.399 32.2035 204.562C31.9019 204.724 31.6633 204.961 31.4876 205.273C31.3153 205.584 31.2291 205.962 31.2291 206.406ZM38.3273 211V203.364H39.5006V211H38.3273ZM38.9239 202.091C38.6952 202.091 38.498 202.013 38.3323 201.857C38.1698 201.701 38.0886 201.514 38.0886 201.295C38.0886 201.077 38.1698 200.889 38.3323 200.734C38.498 200.578 38.6952 200.5 38.9239 200.5C39.1526 200.5 39.3481 200.578 39.5105 200.734C39.6762 200.889 39.7591 201.077 39.7591 201.295C39.7591 201.514 39.6762 201.701 39.5105 201.857C39.3481 202.013 39.1526 202.091 38.9239 202.091ZM47.0586 205.074L46.0047 205.372C45.9384 205.196 45.8406 205.026 45.7113 204.86C45.5854 204.691 45.413 204.552 45.1943 204.442C44.9755 204.333 44.6955 204.278 44.3541 204.278C43.8868 204.278 43.4973 204.386 43.1858 204.602C42.8775 204.814 42.7234 205.084 42.7234 205.412C42.7234 205.704 42.8295 205.934 43.0416 206.103C43.2537 206.272 43.5852 206.413 44.0359 206.526L45.1694 206.804C45.8522 206.97 46.361 207.223 46.6957 207.565C47.0305 207.903 47.1978 208.339 47.1978 208.872C47.1978 209.31 47.0719 209.701 46.82 210.045C46.5714 210.39 46.2234 210.662 45.776 210.861C45.3285 211.06 44.8082 211.159 44.2149 211.159C43.436 211.159 42.7914 210.99 42.2809 210.652C41.7705 210.314 41.4474 209.82 41.3115 209.17L42.4251 208.892C42.5312 209.303 42.7317 209.611 43.0267 209.817C43.325 210.022 43.7144 210.125 44.195 210.125C44.7419 210.125 45.1761 210.009 45.4976 209.777C45.8224 209.542 45.9848 209.26 45.9848 208.932C45.9848 208.667 45.892 208.445 45.7064 208.266C45.5208 208.083 45.2357 207.947 44.8513 207.858L43.5785 207.56C42.8792 207.394 42.3655 207.137 42.0373 206.789C41.7125 206.438 41.5501 205.999 41.5501 205.472C41.5501 205.041 41.6711 204.66 41.913 204.328C42.1583 203.997 42.4914 203.737 42.9123 203.548C43.3366 203.359 43.8172 203.264 44.3541 203.264C45.1098 203.264 45.7031 203.43 46.1339 203.761C46.5681 204.093 46.8763 204.53 47.0586 205.074ZM56.3021 203.364V204.358H52.1856V203.364H56.3021ZM53.4185 211V202.31C53.4185 201.872 53.5213 201.508 53.7268 201.216C53.9323 200.924 54.1991 200.705 54.5272 200.56C54.8553 200.414 55.2017 200.341 55.5663 200.341C55.8546 200.341 56.0899 200.364 56.2722 200.411C56.4545 200.457 56.5904 200.5 56.6799 200.54L56.3418 201.554C56.2822 201.534 56.1993 201.509 56.0933 201.479C55.9905 201.45 55.8546 201.435 55.6856 201.435C55.2978 201.435 55.0177 201.532 54.8454 201.728C54.6764 201.924 54.5918 202.21 54.5918 202.588V211H53.4185ZM57.9464 211V203.364H59.1197V211H57.9464ZM58.543 202.091C58.3143 202.091 58.1171 202.013 57.9514 201.857C57.789 201.701 57.7078 201.514 57.7078 201.295C57.7078 201.077 57.789 200.889 57.9514 200.734C58.1171 200.578 58.3143 200.5 58.543 200.5C58.7717 200.5 58.9673 200.578 59.1297 200.734C59.2954 200.889 59.3782 201.077 59.3782 201.295C59.3782 201.514 59.2954 201.701 59.1297 201.857C58.9673 202.013 58.7717 202.091 58.543 202.091ZM64.4704 211.159C63.7346 211.159 63.0999 210.997 62.5663 210.672C62.036 210.344 61.6266 209.886 61.3383 209.3C61.0533 208.71 60.9107 208.024 60.9107 207.241C60.9107 206.459 61.0533 205.77 61.3383 205.173C61.6266 204.573 62.0277 204.106 62.5414 203.771C63.0585 203.433 63.6617 203.264 64.3511 203.264C64.7488 203.264 65.1416 203.33 65.5293 203.463C65.9171 203.596 66.2701 203.811 66.5883 204.109C66.9065 204.404 67.16 204.795 67.3489 205.283C67.5379 205.77 67.6323 206.37 67.6323 207.082V207.58H61.746V206.565H66.4391C66.4391 206.134 66.353 205.75 66.1806 205.412C66.0116 205.074 65.7696 204.807 65.4548 204.612C65.1432 204.416 64.7753 204.318 64.3511 204.318C63.8837 204.318 63.4794 204.434 63.138 204.666C62.7999 204.895 62.5398 205.193 62.3575 205.561C62.1752 205.929 62.084 206.323 62.084 206.744V207.42C62.084 207.997 62.1835 208.486 62.3823 208.887C62.5845 209.285 62.8646 209.588 63.2225 209.797C63.5805 210.002 63.9964 210.105 64.4704 210.105C64.7786 210.105 65.057 210.062 65.3056 209.976C65.5575 209.886 65.7746 209.754 65.9569 209.578C66.1392 209.399 66.2801 209.177 66.3795 208.912L67.513 209.23C67.3937 209.615 67.1932 209.953 66.9114 210.244C66.6297 210.533 66.2817 210.758 65.8674 210.92C65.4531 211.08 64.9874 211.159 64.4704 211.159ZM70.5904 200.818V211H69.4171V200.818H70.5904ZM75.6229 211.159C74.9866 211.159 74.4248 210.998 73.9375 210.677C73.4503 210.352 73.0692 209.895 72.7941 209.305C72.519 208.711 72.3814 208.01 72.3814 207.202C72.3814 206.4 72.519 205.704 72.7941 205.114C73.0692 204.524 73.452 204.068 73.9425 203.746C74.433 203.425 74.9998 203.264 75.6428 203.264C76.14 203.264 76.5327 203.347 76.8211 203.513C77.1127 203.675 77.3348 203.861 77.4873 204.07C77.643 204.275 77.764 204.444 77.8502 204.577H77.9496V200.818H79.1229V211H77.9894V209.827H77.8502C77.764 209.966 77.6414 210.142 77.4823 210.354C77.3232 210.562 77.0962 210.75 76.8012 210.915C76.5062 211.078 76.1134 211.159 75.6229 211.159ZM75.782 210.105C76.2526 210.105 76.6504 209.982 76.9752 209.737C77.3 209.489 77.5469 209.146 77.716 208.708C77.885 208.267 77.9695 207.759 77.9695 207.182C77.9695 206.612 77.8866 206.113 77.7209 205.685C77.5552 205.254 77.3099 204.92 76.9851 204.681C76.6603 204.439 76.2593 204.318 75.782 204.318C75.2848 204.318 74.8705 204.446 74.5391 204.701C74.211 204.953 73.9641 205.296 73.7983 205.73C73.6359 206.161 73.5547 206.645 73.5547 207.182C73.5547 207.725 73.6376 208.219 73.8033 208.663C73.9723 209.104 74.2209 209.455 74.5491 209.717C74.8805 209.976 75.2915 210.105 75.782 210.105ZM85.3722 211V203.364H86.5455V211H85.3722ZM85.9688 202.091C85.7401 202.091 85.5429 202.013 85.3772 201.857C85.2148 201.701 85.1336 201.514 85.1336 201.295C85.1336 201.077 85.2148 200.889 85.3772 200.734C85.5429 200.578 85.7401 200.5 85.9688 200.5C86.1975 200.5 86.393 200.578 86.5554 200.734C86.7212 200.889 86.804 201.077 86.804 201.295C86.804 201.514 86.7212 201.701 86.5554 201.857C86.393 202.013 86.1975 202.091 85.9688 202.091ZM94.1036 205.074L93.0496 205.372C92.9833 205.196 92.8855 205.026 92.7563 204.86C92.6303 204.691 92.458 204.552 92.2392 204.442C92.0205 204.333 91.7404 204.278 91.399 204.278C90.9317 204.278 90.5422 204.386 90.2307 204.602C89.9225 204.814 89.7683 205.084 89.7683 205.412C89.7683 205.704 89.8744 205.934 90.0865 206.103C90.2986 206.272 90.6301 206.413 91.0808 206.526L92.2144 206.804C92.8971 206.97 93.4059 207.223 93.7406 207.565C94.0754 207.903 94.2428 208.339 94.2428 208.872C94.2428 209.31 94.1168 209.701 93.8649 210.045C93.6163 210.39 93.2683 210.662 92.8209 210.861C92.3734 211.06 91.8531 211.159 91.2598 211.159C90.4809 211.159 89.8363 210.99 89.3259 210.652C88.8154 210.314 88.4923 209.82 88.3564 209.17L89.47 208.892C89.5761 209.303 89.7766 209.611 90.0716 209.817C90.3699 210.022 90.7593 210.125 91.2399 210.125C91.7868 210.125 92.221 210.009 92.5425 209.777C92.8673 209.542 93.0297 209.26 93.0297 208.932C93.0297 208.667 92.9369 208.445 92.7513 208.266C92.5657 208.083 92.2806 207.947 91.8962 207.858L90.6234 207.56C89.9241 207.394 89.4104 207.137 89.0823 206.789C88.7574 206.438 88.595 205.999 88.595 205.472C88.595 205.041 88.716 204.66 88.958 204.328C89.2032 203.997 89.5363 203.737 89.9573 203.548C90.3815 203.359 90.8621 203.264 91.399 203.264C92.1547 203.264 92.748 203.43 93.1788 203.761C93.613 204.093 93.9213 204.53 94.1036 205.074ZM99.9464 211V203.364H101.08V204.517H101.159C101.299 204.139 101.551 203.833 101.915 203.597C102.28 203.362 102.691 203.244 103.148 203.244C103.234 203.244 103.342 203.246 103.471 203.249C103.601 203.253 103.698 203.258 103.765 203.264V204.457C103.725 204.447 103.634 204.433 103.491 204.413C103.352 204.389 103.204 204.378 103.049 204.378C102.677 204.378 102.346 204.456 102.054 204.612C101.766 204.764 101.537 204.976 101.368 205.248C101.203 205.516 101.12 205.823 101.12 206.168V211H99.9464ZM108.125 211.159C107.389 211.159 106.754 210.997 106.221 210.672C105.69 210.344 105.281 209.886 104.993 209.3C104.708 208.71 104.565 208.024 104.565 207.241C104.565 206.459 104.708 205.77 104.993 205.173C105.281 204.573 105.682 204.106 106.196 203.771C106.713 203.433 107.316 203.264 108.005 203.264C108.403 203.264 108.796 203.33 109.184 203.463C109.571 203.596 109.924 203.811 110.243 204.109C110.561 204.404 110.814 204.795 111.003 205.283C111.192 205.77 111.287 206.37 111.287 207.082V207.58H105.4V206.565H110.093C110.093 206.134 110.007 205.75 109.835 205.412C109.666 205.074 109.424 204.807 109.109 204.612C108.798 204.416 108.43 204.318 108.005 204.318C107.538 204.318 107.134 204.434 106.792 204.666C106.454 204.895 106.194 205.193 106.012 205.561C105.829 205.929 105.738 206.323 105.738 206.744V207.42C105.738 207.997 105.838 208.486 106.037 208.887C106.239 209.285 106.519 209.588 106.877 209.797C107.235 210.002 107.651 210.105 108.125 210.105C108.433 210.105 108.711 210.062 108.96 209.976C109.212 209.886 109.429 209.754 109.611 209.578C109.793 209.399 109.934 209.177 110.034 208.912L111.167 209.23C111.048 209.615 110.847 209.953 110.566 210.244C110.284 210.533 109.936 210.758 109.522 210.92C109.107 211.08 108.642 211.159 108.125 211.159ZM118.282 213.864V209.827H118.182C118.096 209.966 117.973 210.142 117.814 210.354C117.655 210.562 117.428 210.75 117.133 210.915C116.838 211.078 116.445 211.159 115.955 211.159C115.319 211.159 114.757 210.998 114.27 210.677C113.782 210.352 113.401 209.895 113.126 209.305C112.851 208.711 112.713 208.01 112.713 207.202C112.713 206.4 112.851 205.704 113.126 205.114C113.401 204.524 113.784 204.068 114.275 203.746C114.765 203.425 115.332 203.264 115.975 203.264C116.472 203.264 116.865 203.347 117.153 203.513C117.445 203.675 117.667 203.861 117.819 204.07C117.975 204.275 118.096 204.444 118.182 204.577H118.321V203.364H119.455V213.864H118.282ZM116.114 210.105C116.585 210.105 116.982 209.982 117.307 209.737C117.632 209.489 117.879 209.146 118.048 208.708C118.217 208.267 118.302 207.759 118.302 207.182C118.302 206.612 118.219 206.113 118.053 205.685C117.887 205.254 117.642 204.92 117.317 204.681C116.992 204.439 116.591 204.318 116.114 204.318C115.617 204.318 115.203 204.446 114.871 204.701C114.543 204.953 114.296 205.296 114.13 205.73C113.968 206.161 113.887 206.645 113.887 207.182C113.887 207.725 113.97 208.219 114.135 208.663C114.304 209.104 114.553 209.455 114.881 209.717C115.213 209.976 115.624 210.105 116.114 210.105ZM126.415 207.878V203.364H127.588V211H126.415V209.707H126.336C126.157 210.095 125.878 210.425 125.5 210.697C125.123 210.965 124.645 211.099 124.069 211.099C123.591 211.099 123.167 210.995 122.796 210.786C122.425 210.574 122.133 210.256 121.921 209.832C121.709 209.404 121.603 208.866 121.603 208.216V203.364H122.776V208.136C122.776 208.693 122.932 209.137 123.243 209.469C123.558 209.8 123.959 209.966 124.446 209.966C124.738 209.966 125.035 209.891 125.336 209.742C125.641 209.593 125.896 209.364 126.102 209.056C126.311 208.748 126.415 208.355 126.415 207.878ZM129.737 211V203.364H130.911V211H129.737ZM130.334 202.091C130.105 202.091 129.908 202.013 129.742 201.857C129.58 201.701 129.499 201.514 129.499 201.295C129.499 201.077 129.58 200.889 129.742 200.734C129.908 200.578 130.105 200.5 130.334 200.5C130.563 200.5 130.758 200.578 130.921 200.734C131.086 200.889 131.169 201.077 131.169 201.295C131.169 201.514 131.086 201.701 130.921 201.857C130.758 202.013 130.563 202.091 130.334 202.091ZM133.06 211V203.364H134.193V204.517H134.273C134.412 204.139 134.664 203.833 135.028 203.597C135.393 203.362 135.804 203.244 136.261 203.244C136.348 203.244 136.455 203.246 136.585 203.249C136.714 203.253 136.812 203.258 136.878 203.264V204.457C136.838 204.447 136.747 204.433 136.604 204.413C136.465 204.389 136.318 204.378 136.162 204.378C135.791 204.378 135.459 204.456 135.168 204.612C134.879 204.764 134.651 204.976 134.482 205.248C134.316 205.516 134.233 205.823 134.233 206.168V211H133.06ZM141.238 211.159C140.502 211.159 139.867 210.997 139.334 210.672C138.804 210.344 138.394 209.886 138.106 209.3C137.821 208.71 137.678 208.024 137.678 207.241C137.678 206.459 137.821 205.77 138.106 205.173C138.394 204.573 138.795 204.106 139.309 203.771C139.826 203.433 140.429 203.264 141.119 203.264C141.516 203.264 141.909 203.33 142.297 203.463C142.685 203.596 143.038 203.811 143.356 204.109C143.674 204.404 143.928 204.795 144.117 205.283C144.305 205.77 144.4 206.37 144.4 207.082V207.58H138.514V206.565H143.207C143.207 206.134 143.121 205.75 142.948 205.412C142.779 205.074 142.537 204.807 142.222 204.612C141.911 204.416 141.543 204.318 141.119 204.318C140.651 204.318 140.247 204.434 139.906 204.666C139.568 204.895 139.307 205.193 139.125 205.561C138.943 205.929 138.852 206.323 138.852 206.744V207.42C138.852 207.997 138.951 208.486 139.15 208.887C139.352 209.285 139.632 209.588 139.99 209.797C140.348 210.002 140.764 210.105 141.238 210.105C141.546 210.105 141.825 210.062 142.073 209.976C142.325 209.886 142.542 209.754 142.724 209.578C142.907 209.399 143.048 209.177 143.147 208.912L144.281 209.23C144.161 209.615 143.961 209.953 143.679 210.244C143.397 210.533 143.049 210.758 142.635 210.92C142.221 211.08 141.755 211.159 141.238 211.159ZM149.068 211.159C148.432 211.159 147.87 210.998 147.383 210.677C146.896 210.352 146.514 209.895 146.239 209.305C145.964 208.711 145.827 208.01 145.827 207.202C145.827 206.4 145.964 205.704 146.239 205.114C146.514 204.524 146.897 204.068 147.388 203.746C147.878 203.425 148.445 203.264 149.088 203.264C149.585 203.264 149.978 203.347 150.266 203.513C150.558 203.675 150.78 203.861 150.933 204.07C151.088 204.275 151.209 204.444 151.295 204.577H151.395V200.818H152.568V211H151.435V209.827H151.295C151.209 209.966 151.087 210.142 150.928 210.354C150.769 210.562 150.541 210.75 150.246 210.915C149.952 211.078 149.559 211.159 149.068 211.159ZM149.227 210.105C149.698 210.105 150.096 209.982 150.42 209.737C150.745 209.489 150.992 209.146 151.161 208.708C151.33 208.267 151.415 207.759 151.415 207.182C151.415 206.612 151.332 206.113 151.166 205.685C151.001 205.254 150.755 204.92 150.43 204.681C150.106 204.439 149.705 204.318 149.227 204.318C148.73 204.318 148.316 204.446 147.984 204.701C147.656 204.953 147.409 205.296 147.244 205.73C147.081 206.161 147 206.645 147 207.182C147 207.725 147.083 208.219 147.249 208.663C147.418 209.104 147.666 209.455 147.994 209.717C148.326 209.976 148.737 210.105 149.227 210.105Z" fill="#E60026"/>
<mask id="path-9-inside-3_88_1226" fill="white">
<path d="M19.9995 238H460V302H19.9995V238Z"/>
</mask>
<path d="M19.9995 238H460V302H19.9995V238Z" fill="white"/>
<path d="M460 301H19.9995V303H460V301Z" fill="#005DFF" mask="url(#path-9-inside-3_88_1226)"/>
<path d="M48.7339 262.016C47.6401 262.016 46.661 262.214 45.7964 262.609C44.9422 263.005 44.2183 263.578 43.6245 264.328C43.0308 265.068 42.5776 265.969 42.2651 267.031C41.9526 268.083 41.7964 269.271 41.7964 270.594C41.7964 272.365 42.0464 273.891 42.5464 275.172C43.0464 276.443 43.8068 277.422 44.8276 278.109C45.8485 278.786 47.1401 279.125 48.7026 279.125C49.6714 279.125 50.6141 279.031 51.5308 278.844C52.4474 278.656 53.3953 278.401 54.3745 278.078V281.266C53.4474 281.63 52.5099 281.896 51.562 282.062C50.6141 282.229 49.5203 282.312 48.2808 282.312C45.9474 282.312 44.0099 281.828 42.4683 280.859C40.937 279.891 39.7912 278.526 39.0308 276.766C38.2808 275.005 37.9058 272.943 37.9058 270.578C37.9058 268.849 38.1453 267.266 38.6245 265.828C39.1037 264.391 39.8016 263.151 40.7183 262.109C41.6349 261.057 42.7651 260.25 44.1089 259.688C45.4631 259.115 47.0099 258.828 48.7495 258.828C49.8953 258.828 51.0203 258.958 52.1245 259.219C53.2391 259.469 54.2703 259.828 55.2183 260.297L53.9058 263.391C53.1141 263.016 52.286 262.693 51.4214 262.422C50.5568 262.151 49.661 262.016 48.7339 262.016ZM74.2183 273.312C74.2183 274.75 74.0308 276.026 73.6558 277.141C73.2808 278.255 72.7339 279.198 72.0151 279.969C71.2964 280.729 70.4318 281.312 69.4214 281.719C68.411 282.115 67.2703 282.312 65.9995 282.312C64.812 282.312 63.7235 282.115 62.7339 281.719C61.7443 281.312 60.8849 280.729 60.1558 279.969C59.437 279.198 58.8797 278.255 58.4839 277.141C58.0881 276.026 57.8901 274.75 57.8901 273.312C57.8901 271.406 58.2183 269.792 58.8745 268.469C59.5412 267.135 60.4891 266.12 61.7183 265.422C62.9474 264.724 64.411 264.375 66.1089 264.375C67.7026 264.375 69.1089 264.724 70.3276 265.422C71.5464 266.12 72.4995 267.135 73.187 268.469C73.8745 269.802 74.2183 271.417 74.2183 273.312ZM61.6714 273.312C61.6714 274.573 61.8224 275.651 62.1245 276.547C62.437 277.443 62.9162 278.13 63.562 278.609C64.2078 279.078 65.0412 279.312 66.062 279.312C67.0828 279.312 67.9162 279.078 68.562 278.609C69.2078 278.13 69.6818 277.443 69.9839 276.547C70.286 275.651 70.437 274.573 70.437 273.312C70.437 272.052 70.286 270.984 69.9839 270.109C69.6818 269.224 69.2078 268.552 68.562 268.094C67.9162 267.625 67.0776 267.391 66.0464 267.391C64.5256 267.391 63.4162 267.901 62.7183 268.922C62.0203 269.943 61.6714 271.406 61.6714 273.312ZM87.4526 264.375C89.4006 264.375 90.9162 264.88 91.9995 265.891C93.0933 266.891 93.6401 268.5 93.6401 270.719V282H89.9683V271.406C89.9683 270.062 89.6922 269.057 89.1401 268.391C88.5881 267.714 87.7339 267.375 86.5776 267.375C84.9006 267.375 83.7339 267.891 83.0776 268.922C82.4318 269.953 82.1089 271.448 82.1089 273.406V282H78.437V264.703H81.2964L81.812 267.047H82.0151C82.3901 266.443 82.8537 265.948 83.4058 265.562C83.9683 265.167 84.5933 264.87 85.2808 264.672C85.9787 264.474 86.7026 264.375 87.4526 264.375ZM105.218 279.344C105.697 279.344 106.171 279.302 106.64 279.219C107.109 279.125 107.536 279.016 107.921 278.891V281.672C107.515 281.849 106.989 282 106.343 282.125C105.697 282.25 105.026 282.312 104.328 282.312C103.348 282.312 102.468 282.151 101.687 281.828C100.906 281.495 100.286 280.927 99.8276 280.125C99.3693 279.323 99.1401 278.214 99.1401 276.797V267.5H96.7808V265.859L99.312 264.562L100.515 260.859H102.828V264.703H107.781V267.5H102.828V276.75C102.828 277.625 103.046 278.276 103.484 278.703C103.921 279.13 104.5 279.344 105.218 279.344ZM118.218 264.375C120.406 264.375 122.057 264.859 123.171 265.828C124.296 266.797 124.859 268.307 124.859 270.359V282H122.25L121.546 279.547H121.421C120.932 280.172 120.427 280.688 119.906 281.094C119.385 281.5 118.781 281.802 118.093 282C117.416 282.208 116.588 282.312 115.609 282.312C114.578 282.312 113.656 282.125 112.843 281.75C112.031 281.365 111.39 280.781 110.921 280C110.453 279.219 110.218 278.229 110.218 277.031C110.218 275.25 110.88 273.911 112.203 273.016C113.536 272.12 115.546 271.625 118.234 271.531L121.234 271.422V270.516C121.234 269.318 120.953 268.464 120.39 267.953C119.838 267.443 119.057 267.188 118.046 267.188C117.182 267.188 116.343 267.312 115.531 267.562C114.718 267.812 113.927 268.12 113.156 268.484L111.968 265.891C112.812 265.443 113.77 265.078 114.843 264.797C115.927 264.516 117.052 264.375 118.218 264.375ZM121.218 273.734L118.984 273.812C117.151 273.875 115.864 274.188 115.125 274.75C114.385 275.312 114.015 276.083 114.015 277.062C114.015 277.917 114.27 278.542 114.781 278.938C115.291 279.323 115.963 279.516 116.796 279.516C118.067 279.516 119.119 279.156 119.953 278.438C120.796 277.708 121.218 276.641 121.218 275.234V273.734ZM136.968 282.312C135.333 282.312 133.916 281.995 132.718 281.359C131.52 280.724 130.598 279.75 129.953 278.438C129.307 277.125 128.984 275.458 128.984 273.438C128.984 271.333 129.338 269.615 130.046 268.281C130.755 266.948 131.734 265.964 132.984 265.328C134.244 264.693 135.687 264.375 137.312 264.375C138.343 264.375 139.276 264.479 140.109 264.688C140.953 264.885 141.666 265.13 142.25 265.422L141.156 268.359C140.52 268.099 139.869 267.88 139.203 267.703C138.536 267.526 137.895 267.438 137.281 267.438C136.27 267.438 135.427 267.661 134.75 268.109C134.083 268.557 133.583 269.224 133.25 270.109C132.927 270.995 132.765 272.094 132.765 273.406C132.765 274.677 132.932 275.75 133.265 276.625C133.598 277.49 134.093 278.146 134.75 278.594C135.406 279.031 136.213 279.25 137.171 279.25C138.119 279.25 138.968 279.135 139.718 278.906C140.468 278.677 141.177 278.38 141.843 278.016V281.203C141.187 281.578 140.484 281.854 139.734 282.031C138.984 282.219 138.062 282.312 136.968 282.312ZM152.343 279.344C152.822 279.344 153.296 279.302 153.765 279.219C154.234 279.125 154.661 279.016 155.046 278.891V281.672C154.64 281.849 154.114 282 153.468 282.125C152.822 282.25 152.151 282.312 151.453 282.312C150.473 282.312 149.593 282.151 148.812 281.828C148.031 281.495 147.411 280.927 146.953 280.125C146.494 279.323 146.265 278.214 146.265 276.797V267.5H143.906V265.859L146.437 264.562L147.64 260.859H149.953V264.703H154.906V267.5H149.953V276.75C149.953 277.625 150.171 278.276 150.609 278.703C151.046 279.13 151.625 279.344 152.343 279.344ZM170.968 282H167.25V259.156H180.156V262.312H170.968V269.438H179.562V272.578H170.968V282ZM199.25 273.312C199.25 274.75 199.062 276.026 198.687 277.141C198.312 278.255 197.765 279.198 197.046 279.969C196.328 280.729 195.463 281.312 194.453 281.719C193.442 282.115 192.302 282.312 191.031 282.312C189.843 282.312 188.755 282.115 187.765 281.719C186.776 281.312 185.916 280.729 185.187 279.969C184.468 279.198 183.911 278.255 183.515 277.141C183.119 276.026 182.921 274.75 182.921 273.312C182.921 271.406 183.25 269.792 183.906 268.469C184.572 267.135 185.52 266.12 186.75 265.422C187.979 264.724 189.442 264.375 191.14 264.375C192.734 264.375 194.14 264.724 195.359 265.422C196.578 266.12 197.531 267.135 198.218 268.469C198.906 269.802 199.25 271.417 199.25 273.312ZM186.703 273.312C186.703 274.573 186.854 275.651 187.156 276.547C187.468 277.443 187.947 278.13 188.593 278.609C189.239 279.078 190.072 279.312 191.093 279.312C192.114 279.312 192.947 279.078 193.593 278.609C194.239 278.13 194.713 277.443 195.015 276.547C195.317 275.651 195.468 274.573 195.468 273.312C195.468 272.052 195.317 270.984 195.015 270.109C194.713 269.224 194.239 268.552 193.593 268.094C192.947 267.625 192.109 267.391 191.078 267.391C189.557 267.391 188.447 267.901 187.75 268.922C187.052 269.943 186.703 271.406 186.703 273.312ZM212.234 264.375C212.526 264.375 212.843 264.391 213.187 264.422C213.531 264.453 213.828 264.495 214.078 264.547L213.734 267.984C213.515 267.922 213.244 267.875 212.921 267.844C212.609 267.812 212.328 267.797 212.078 267.797C211.421 267.797 210.796 267.906 210.203 268.125C209.609 268.333 209.083 268.656 208.625 269.094C208.166 269.521 207.807 270.057 207.546 270.703C207.286 271.349 207.156 272.099 207.156 272.953V282H203.468V264.703H206.343L206.843 267.75H207.015C207.359 267.135 207.786 266.573 208.296 266.062C208.807 265.552 209.39 265.146 210.046 264.844C210.713 264.531 211.442 264.375 212.234 264.375ZM236.828 264.375C238.765 264.375 240.223 264.875 241.203 265.875C242.192 266.875 242.687 268.479 242.687 270.688V282H239.015V271.344C239.015 270.031 238.76 269.042 238.25 268.375C237.739 267.708 236.963 267.375 235.921 267.375C234.463 267.375 233.411 267.844 232.765 268.781C232.13 269.708 231.812 271.057 231.812 272.828V282H228.14V271.344C228.14 270.469 228.026 269.74 227.796 269.156C227.578 268.562 227.239 268.12 226.781 267.828C226.322 267.526 225.744 267.375 225.046 267.375C224.036 267.375 223.229 267.604 222.625 268.062C222.031 268.521 221.604 269.198 221.343 270.094C221.083 270.979 220.953 272.068 220.953 273.359V282H217.281V264.703H220.14L220.656 267.031H220.859C221.213 266.427 221.651 265.932 222.171 265.547C222.703 265.151 223.291 264.859 223.937 264.672C224.583 264.474 225.255 264.375 225.953 264.375C227.244 264.375 228.333 264.604 229.218 265.062C230.104 265.51 230.765 266.198 231.203 267.125H231.484C232.026 266.188 232.781 265.495 233.75 265.047C234.718 264.599 235.744 264.375 236.828 264.375ZM263.328 258.812C264.505 258.812 265.536 259.005 266.421 259.391C267.317 259.776 268.015 260.339 268.515 261.078C269.015 261.807 269.265 262.698 269.265 263.75C269.265 265.156 268.828 266.344 267.953 267.312C267.078 268.281 265.973 269.146 264.64 269.906L270.031 275.156C270.541 274.458 270.963 273.693 271.296 272.859C271.63 272.016 271.916 271.13 272.156 270.203H275.953C275.63 271.495 275.182 272.771 274.609 274.031C274.036 275.281 273.312 276.427 272.437 277.469L277.078 282H272.375L270.062 279.734C269.416 280.255 268.723 280.708 267.984 281.094C267.255 281.479 266.458 281.781 265.593 282C264.729 282.208 263.776 282.312 262.734 282.312C261.14 282.312 259.765 282.057 258.609 281.547C257.453 281.036 256.562 280.307 255.937 279.359C255.322 278.401 255.015 277.266 255.015 275.953C255.015 274.859 255.197 273.922 255.562 273.141C255.937 272.349 256.468 271.656 257.156 271.062C257.843 270.458 258.666 269.885 259.625 269.344C259.104 268.75 258.651 268.172 258.265 267.609C257.88 267.047 257.583 266.469 257.375 265.875C257.177 265.271 257.078 264.625 257.078 263.938C257.078 262.875 257.338 261.964 257.859 261.203C258.38 260.432 259.109 259.844 260.046 259.438C260.984 259.021 262.078 258.812 263.328 258.812ZM261.796 271.578C261.192 271.964 260.671 272.354 260.234 272.75C259.796 273.135 259.458 273.562 259.218 274.031C258.989 274.5 258.875 275.047 258.875 275.672C258.875 276.745 259.25 277.594 260 278.219C260.76 278.844 261.739 279.156 262.937 279.156C263.989 279.156 264.911 279 265.703 278.688C266.505 278.365 267.203 277.964 267.796 277.484L261.796 271.578ZM263.265 261.719C262.526 261.719 261.885 261.911 261.343 262.297C260.812 262.682 260.546 263.281 260.546 264.094C260.546 264.75 260.718 265.37 261.062 265.953C261.416 266.526 261.906 267.146 262.531 267.812C263.625 267.208 264.437 266.615 264.968 266.031C265.51 265.448 265.781 264.771 265.781 264C265.781 263.271 265.536 262.708 265.046 262.312C264.557 261.917 263.963 261.719 263.265 261.719ZM288.468 282V259.156H292.218V282H288.468ZM317.421 264.375C319.359 264.375 320.817 264.875 321.796 265.875C322.786 266.875 323.281 268.479 323.281 270.688V282H319.609V271.344C319.609 270.031 319.354 269.042 318.843 268.375C318.333 267.708 317.557 267.375 316.515 267.375C315.057 267.375 314.005 267.844 313.359 268.781C312.723 269.708 312.406 271.057 312.406 272.828V282H308.734V271.344C308.734 270.469 308.619 269.74 308.39 269.156C308.171 268.562 307.833 268.12 307.375 267.828C306.916 267.526 306.338 267.375 305.64 267.375C304.63 267.375 303.822 267.604 303.218 268.062C302.625 268.521 302.197 269.198 301.937 270.094C301.677 270.979 301.546 272.068 301.546 273.359V282H297.875V264.703H300.734L301.25 267.031H301.453C301.807 266.427 302.244 265.932 302.765 265.547C303.296 265.151 303.885 264.859 304.531 264.672C305.177 264.474 305.848 264.375 306.546 264.375C307.838 264.375 308.927 264.604 309.812 265.062C310.697 265.51 311.359 266.198 311.796 267.125H312.078C312.619 266.188 313.375 265.495 314.343 265.047C315.312 264.599 316.338 264.375 317.421 264.375ZM337.281 264.375C339.333 264.375 340.979 265.125 342.218 266.625C343.468 268.125 344.093 270.354 344.093 273.312C344.093 275.271 343.802 276.922 343.218 278.266C342.645 279.599 341.838 280.609 340.796 281.297C339.765 281.974 338.562 282.312 337.187 282.312C336.312 282.312 335.552 282.198 334.906 281.969C334.26 281.74 333.708 281.443 333.25 281.078C332.791 280.703 332.406 280.297 332.093 279.859H331.875C331.927 280.276 331.973 280.74 332.015 281.25C332.067 281.75 332.093 282.208 332.093 282.625V289.672H328.406V264.703H331.406L331.921 267.094H332.093C332.416 266.604 332.807 266.151 333.265 265.734C333.734 265.318 334.296 264.99 334.953 264.75C335.619 264.5 336.395 264.375 337.281 264.375ZM336.296 267.375C335.286 267.375 334.473 267.578 333.859 267.984C333.255 268.38 332.812 268.979 332.531 269.781C332.26 270.583 332.114 271.589 332.093 272.797V273.312C332.093 274.594 332.223 275.682 332.484 276.578C332.755 277.464 333.197 278.141 333.812 278.609C334.437 279.068 335.281 279.297 336.343 279.297C337.239 279.297 337.979 279.052 338.562 278.562C339.156 278.073 339.598 277.375 339.89 276.469C340.182 275.562 340.328 274.495 340.328 273.266C340.328 271.401 339.994 269.953 339.328 268.922C338.671 267.891 337.661 267.375 336.296 267.375ZM357.109 264.375C357.401 264.375 357.718 264.391 358.062 264.422C358.406 264.453 358.703 264.495 358.953 264.547L358.609 267.984C358.39 267.922 358.119 267.875 357.796 267.844C357.484 267.812 357.203 267.797 356.953 267.797C356.296 267.797 355.671 267.906 355.078 268.125C354.484 268.333 353.958 268.656 353.5 269.094C353.041 269.521 352.682 270.057 352.421 270.703C352.161 271.349 352.031 272.099 352.031 272.953V282H348.343V264.703H351.218L351.718 267.75H351.89C352.234 267.135 352.661 266.573 353.171 266.062C353.682 265.552 354.265 265.146 354.921 264.844C355.588 264.531 356.317 264.375 357.109 264.375ZM365.828 264.703V282H362.156V264.703H365.828ZM364.015 258.078C364.578 258.078 365.062 258.229 365.468 258.531C365.885 258.833 366.093 259.354 366.093 260.094C366.093 260.823 365.885 261.344 365.468 261.656C365.062 261.958 364.578 262.109 364.015 262.109C363.432 262.109 362.937 261.958 362.531 261.656C362.135 261.344 361.937 260.823 361.937 260.094C361.937 259.354 362.135 258.833 362.531 258.531C362.937 258.229 363.432 258.078 364.015 258.078ZM380.109 264.375C382.057 264.375 383.572 264.88 384.656 265.891C385.75 266.891 386.296 268.5 386.296 270.719V282H382.625V271.406C382.625 270.062 382.348 269.057 381.796 268.391C381.244 267.714 380.39 267.375 379.234 267.375C377.557 267.375 376.39 267.891 375.734 268.922C375.088 269.953 374.765 271.448 374.765 273.406V282H371.093V264.703H373.953L374.468 267.047H374.671C375.046 266.443 375.51 265.948 376.062 265.562C376.625 265.167 377.25 264.87 377.937 264.672C378.635 264.474 379.359 264.375 380.109 264.375ZM397.875 279.344C398.354 279.344 398.828 279.302 399.296 279.219C399.765 279.125 400.192 279.016 400.578 278.891V281.672C400.171 281.849 399.645 282 399 282.125C398.354 282.25 397.682 282.312 396.984 282.312C396.005 282.312 395.125 282.151 394.343 281.828C393.562 281.495 392.942 280.927 392.484 280.125C392.026 279.323 391.796 278.214 391.796 276.797V267.5H389.437V265.859L391.968 264.562L393.171 260.859H395.484V264.703H400.437V267.5H395.484V276.75C395.484 277.625 395.703 278.276 396.14 278.703C396.578 279.13 397.156 279.344 397.875 279.344ZM408.875 257.719H411.671V289.5H408.875V257.719Z" fill="black"/>
<mask id="path-12-inside-4_88_1226" fill="white">
<path d="M19.9995 347H460V411H19.9995V347Z"/>
</mask>
<path d="M19.9995 347H460V411H19.9995V347Z" fill="white"/>
<path d="M460 410H19.9995V412H460V410Z" fill="#D1D1D1" mask="url(#path-12-inside-4_88_1226)"/>
<path d="M48.7339 371.016C47.6401 371.016 46.661 371.214 45.7964 371.609C44.9422 372.005 44.2183 372.578 43.6245 373.328C43.0308 374.068 42.5776 374.969 42.2651 376.031C41.9526 377.083 41.7964 378.271 41.7964 379.594C41.7964 381.365 42.0464 382.891 42.5464 384.172C43.0464 385.443 43.8068 386.422 44.8276 387.109C45.8485 387.786 47.1401 388.125 48.7026 388.125C49.6714 388.125 50.6141 388.031 51.5308 387.844C52.4474 387.656 53.3953 387.401 54.3745 387.078V390.266C53.4474 390.63 52.5099 390.896 51.562 391.062C50.6141 391.229 49.5203 391.312 48.2808 391.312C45.9474 391.312 44.0099 390.828 42.4683 389.859C40.937 388.891 39.7912 387.526 39.0308 385.766C38.2808 384.005 37.9058 381.943 37.9058 379.578C37.9058 377.849 38.1453 376.266 38.6245 374.828C39.1037 373.391 39.8016 372.151 40.7183 371.109C41.6349 370.057 42.7651 369.25 44.1089 368.688C45.4631 368.115 47.0099 367.828 48.7495 367.828C49.8953 367.828 51.0203 367.958 52.1245 368.219C53.2391 368.469 54.2703 368.828 55.2183 369.297L53.9058 372.391C53.1141 372.016 52.286 371.693 51.4214 371.422C50.5568 371.151 49.661 371.016 48.7339 371.016ZM74.2183 382.312C74.2183 383.75 74.0308 385.026 73.6558 386.141C73.2808 387.255 72.7339 388.198 72.0151 388.969C71.2964 389.729 70.4318 390.312 69.4214 390.719C68.411 391.115 67.2703 391.312 65.9995 391.312C64.812 391.312 63.7235 391.115 62.7339 390.719C61.7443 390.312 60.8849 389.729 60.1558 388.969C59.437 388.198 58.8797 387.255 58.4839 386.141C58.0881 385.026 57.8901 383.75 57.8901 382.312C57.8901 380.406 58.2183 378.792 58.8745 377.469C59.5412 376.135 60.4891 375.12 61.7183 374.422C62.9474 373.724 64.411 373.375 66.1089 373.375C67.7026 373.375 69.1089 373.724 70.3276 374.422C71.5464 375.12 72.4995 376.135 73.187 377.469C73.8745 378.802 74.2183 380.417 74.2183 382.312ZM61.6714 382.312C61.6714 383.573 61.8224 384.651 62.1245 385.547C62.437 386.443 62.9162 387.13 63.562 387.609C64.2078 388.078 65.0412 388.312 66.062 388.312C67.0828 388.312 67.9162 388.078 68.562 387.609C69.2078 387.13 69.6818 386.443 69.9839 385.547C70.286 384.651 70.437 383.573 70.437 382.312C70.437 381.052 70.286 379.984 69.9839 379.109C69.6818 378.224 69.2078 377.552 68.562 377.094C67.9162 376.625 67.0776 376.391 66.0464 376.391C64.5256 376.391 63.4162 376.901 62.7183 377.922C62.0203 378.943 61.6714 380.406 61.6714 382.312ZM87.4526 373.375C89.4006 373.375 90.9162 373.88 91.9995 374.891C93.0933 375.891 93.6401 377.5 93.6401 379.719V391H89.9683V380.406C89.9683 379.062 89.6922 378.057 89.1401 377.391C88.5881 376.714 87.7339 376.375 86.5776 376.375C84.9006 376.375 83.7339 376.891 83.0776 377.922C82.4318 378.953 82.1089 380.448 82.1089 382.406V391H78.437V373.703H81.2964L81.812 376.047H82.0151C82.3901 375.443 82.8537 374.948 83.4058 374.562C83.9683 374.167 84.5933 373.87 85.2808 373.672C85.9787 373.474 86.7026 373.375 87.4526 373.375ZM105.218 388.344C105.697 388.344 106.171 388.302 106.64 388.219C107.109 388.125 107.536 388.016 107.921 387.891V390.672C107.515 390.849 106.989 391 106.343 391.125C105.697 391.25 105.026 391.312 104.328 391.312C103.348 391.312 102.468 391.151 101.687 390.828C100.906 390.495 100.286 389.927 99.8276 389.125C99.3693 388.323 99.1401 387.214 99.1401 385.797V376.5H96.7808V374.859L99.312 373.562L100.515 369.859H102.828V373.703H107.781V376.5H102.828V385.75C102.828 386.625 103.046 387.276 103.484 387.703C103.921 388.13 104.5 388.344 105.218 388.344ZM118.218 373.375C120.406 373.375 122.057 373.859 123.171 374.828C124.296 375.797 124.859 377.307 124.859 379.359V391H122.25L121.546 388.547H121.421C120.932 389.172 120.427 389.688 119.906 390.094C119.385 390.5 118.781 390.802 118.093 391C117.416 391.208 116.588 391.312 115.609 391.312C114.578 391.312 113.656 391.125 112.843 390.75C112.031 390.365 111.39 389.781 110.921 389C110.453 388.219 110.218 387.229 110.218 386.031C110.218 384.25 110.88 382.911 112.203 382.016C113.536 381.12 115.546 380.625 118.234 380.531L121.234 380.422V379.516C121.234 378.318 120.953 377.464 120.39 376.953C119.838 376.443 119.057 376.188 118.046 376.188C117.182 376.188 116.343 376.312 115.531 376.562C114.718 376.812 113.927 377.12 113.156 377.484L111.968 374.891C112.812 374.443 113.77 374.078 114.843 373.797C115.927 373.516 117.052 373.375 118.218 373.375ZM121.218 382.734L118.984 382.812C117.151 382.875 115.864 383.188 115.125 383.75C114.385 384.312 114.015 385.083 114.015 386.062C114.015 386.917 114.27 387.542 114.781 387.938C115.291 388.323 115.963 388.516 116.796 388.516C118.067 388.516 119.119 388.156 119.953 387.438C120.796 386.708 121.218 385.641 121.218 384.234V382.734ZM136.968 391.312C135.333 391.312 133.916 390.995 132.718 390.359C131.52 389.724 130.598 388.75 129.953 387.438C129.307 386.125 128.984 384.458 128.984 382.438C128.984 380.333 129.338 378.615 130.046 377.281C130.755 375.948 131.734 374.964 132.984 374.328C134.244 373.693 135.687 373.375 137.312 373.375C138.343 373.375 139.276 373.479 140.109 373.688C140.953 373.885 141.666 374.13 142.25 374.422L141.156 377.359C140.52 377.099 139.869 376.88 139.203 376.703C138.536 376.526 137.895 376.438 137.281 376.438C136.27 376.438 135.427 376.661 134.75 377.109C134.083 377.557 133.583 378.224 133.25 379.109C132.927 379.995 132.765 381.094 132.765 382.406C132.765 383.677 132.932 384.75 133.265 385.625C133.598 386.49 134.093 387.146 134.75 387.594C135.406 388.031 136.213 388.25 137.171 388.25C138.119 388.25 138.968 388.135 139.718 387.906C140.468 387.677 141.177 387.38 141.843 387.016V390.203C141.187 390.578 140.484 390.854 139.734 391.031C138.984 391.219 138.062 391.312 136.968 391.312ZM152.343 388.344C152.822 388.344 153.296 388.302 153.765 388.219C154.234 388.125 154.661 388.016 155.046 387.891V390.672C154.64 390.849 154.114 391 153.468 391.125C152.822 391.25 152.151 391.312 151.453 391.312C150.473 391.312 149.593 391.151 148.812 390.828C148.031 390.495 147.411 389.927 146.953 389.125C146.494 388.323 146.265 387.214 146.265 385.797V376.5H143.906V374.859L146.437 373.562L147.64 369.859H149.953V373.703H154.906V376.5H149.953V385.75C149.953 386.625 150.171 387.276 150.609 387.703C151.046 388.13 151.625 388.344 152.343 388.344ZM170.968 391H167.25V368.156H180.156V371.312H170.968V378.438H179.562V381.578H170.968V391ZM199.25 382.312C199.25 383.75 199.062 385.026 198.687 386.141C198.312 387.255 197.765 388.198 197.046 388.969C196.328 389.729 195.463 390.312 194.453 390.719C193.442 391.115 192.302 391.312 191.031 391.312C189.843 391.312 188.755 391.115 187.765 390.719C186.776 390.312 185.916 389.729 185.187 388.969C184.468 388.198 183.911 387.255 183.515 386.141C183.119 385.026 182.921 383.75 182.921 382.312C182.921 380.406 183.25 378.792 183.906 377.469C184.572 376.135 185.52 375.12 186.75 374.422C187.979 373.724 189.442 373.375 191.14 373.375C192.734 373.375 194.14 373.724 195.359 374.422C196.578 375.12 197.531 376.135 198.218 377.469C198.906 378.802 199.25 380.417 199.25 382.312ZM186.703 382.312C186.703 383.573 186.854 384.651 187.156 385.547C187.468 386.443 187.947 387.13 188.593 387.609C189.239 388.078 190.072 388.312 191.093 388.312C192.114 388.312 192.947 388.078 193.593 387.609C194.239 387.13 194.713 386.443 195.015 385.547C195.317 384.651 195.468 383.573 195.468 382.312C195.468 381.052 195.317 379.984 195.015 379.109C194.713 378.224 194.239 377.552 193.593 377.094C192.947 376.625 192.109 376.391 191.078 376.391C189.557 376.391 188.447 376.901 187.75 377.922C187.052 378.943 186.703 380.406 186.703 382.312ZM212.234 373.375C212.526 373.375 212.843 373.391 213.187 373.422C213.531 373.453 213.828 373.495 214.078 373.547L213.734 376.984C213.515 376.922 213.244 376.875 212.921 376.844C212.609 376.812 212.328 376.797 212.078 376.797C211.421 376.797 210.796 376.906 210.203 377.125C209.609 377.333 209.083 377.656 208.625 378.094C208.166 378.521 207.807 379.057 207.546 379.703C207.286 380.349 207.156 381.099 207.156 381.953V391H203.468V373.703H206.343L206.843 376.75H207.015C207.359 376.135 207.786 375.573 208.296 375.062C208.807 374.552 209.39 374.146 210.046 373.844C210.713 373.531 211.442 373.375 212.234 373.375ZM236.828 373.375C238.765 373.375 240.223 373.875 241.203 374.875C242.192 375.875 242.687 377.479 242.687 379.688V391H239.015V380.344C239.015 379.031 238.76 378.042 238.25 377.375C237.739 376.708 236.963 376.375 235.921 376.375C234.463 376.375 233.411 376.844 232.765 377.781C232.13 378.708 231.812 380.057 231.812 381.828V391H228.14V380.344C228.14 379.469 228.026 378.74 227.796 378.156C227.578 377.562 227.239 377.12 226.781 376.828C226.322 376.526 225.744 376.375 225.046 376.375C224.036 376.375 223.229 376.604 222.625 377.062C222.031 377.521 221.604 378.198 221.343 379.094C221.083 379.979 220.953 381.068 220.953 382.359V391H217.281V373.703H220.14L220.656 376.031H220.859C221.213 375.427 221.651 374.932 222.171 374.547C222.703 374.151 223.291 373.859 223.937 373.672C224.583 373.474 225.255 373.375 225.953 373.375C227.244 373.375 228.333 373.604 229.218 374.062C230.104 374.51 230.765 375.198 231.203 376.125H231.484C232.026 375.188 232.781 374.495 233.75 374.047C234.718 373.599 235.744 373.375 236.828 373.375ZM263.328 367.812C264.505 367.812 265.536 368.005 266.421 368.391C267.317 368.776 268.015 369.339 268.515 370.078C269.015 370.807 269.265 371.698 269.265 372.75C269.265 374.156 268.828 375.344 267.953 376.312C267.078 377.281 265.973 378.146 264.64 378.906L270.031 384.156C270.541 383.458 270.963 382.693 271.296 381.859C271.63 381.016 271.916 380.13 272.156 379.203H275.953C275.63 380.495 275.182 381.771 274.609 383.031C274.036 384.281 273.312 385.427 272.437 386.469L277.078 391H272.375L270.062 388.734C269.416 389.255 268.723 389.708 267.984 390.094C267.255 390.479 266.458 390.781 265.593 391C264.729 391.208 263.776 391.312 262.734 391.312C261.14 391.312 259.765 391.057 258.609 390.547C257.453 390.036 256.562 389.307 255.937 388.359C255.322 387.401 255.015 386.266 255.015 384.953C255.015 383.859 255.197 382.922 255.562 382.141C255.937 381.349 256.468 380.656 257.156 380.062C257.843 379.458 258.666 378.885 259.625 378.344C259.104 377.75 258.651 377.172 258.265 376.609C257.88 376.047 257.583 375.469 257.375 374.875C257.177 374.271 257.078 373.625 257.078 372.938C257.078 371.875 257.338 370.964 257.859 370.203C258.38 369.432 259.109 368.844 260.046 368.438C260.984 368.021 262.078 367.812 263.328 367.812ZM261.796 380.578C261.192 380.964 260.671 381.354 260.234 381.75C259.796 382.135 259.458 382.562 259.218 383.031C258.989 383.5 258.875 384.047 258.875 384.672C258.875 385.745 259.25 386.594 260 387.219C260.76 387.844 261.739 388.156 262.937 388.156C263.989 388.156 264.911 388 265.703 387.688C266.505 387.365 267.203 386.964 267.796 386.484L261.796 380.578ZM263.265 370.719C262.526 370.719 261.885 370.911 261.343 371.297C260.812 371.682 260.546 372.281 260.546 373.094C260.546 373.75 260.718 374.37 261.062 374.953C261.416 375.526 261.906 376.146 262.531 376.812C263.625 376.208 264.437 375.615 264.968 375.031C265.51 374.448 265.781 373.771 265.781 373C265.781 372.271 265.536 371.708 265.046 371.312C264.557 370.917 263.963 370.719 263.265 370.719ZM288.468 391V368.156H292.218V391H288.468ZM317.421 373.375C319.359 373.375 320.817 373.875 321.796 374.875C322.786 375.875 323.281 377.479 323.281 379.688V391H319.609V380.344C319.609 379.031 319.354 378.042 318.843 377.375C318.333 376.708 317.557 376.375 316.515 376.375C315.057 376.375 314.005 376.844 313.359 377.781C312.723 378.708 312.406 380.057 312.406 381.828V391H308.734V380.344C308.734 379.469 308.619 378.74 308.39 378.156C308.171 377.562 307.833 377.12 307.375 376.828C306.916 376.526 306.338 376.375 305.64 376.375C304.63 376.375 303.822 376.604 303.218 377.062C302.625 377.521 302.197 378.198 301.937 379.094C301.677 379.979 301.546 381.068 301.546 382.359V391H297.875V373.703H300.734L301.25 376.031H301.453C301.807 375.427 302.244 374.932 302.765 374.547C303.296 374.151 303.885 373.859 304.531 373.672C305.177 373.474 305.848 373.375 306.546 373.375C307.838 373.375 308.927 373.604 309.812 374.062C310.697 374.51 311.359 375.198 311.796 376.125H312.078C312.619 375.188 313.375 374.495 314.343 374.047C315.312 373.599 316.338 373.375 317.421 373.375ZM337.281 373.375C339.333 373.375 340.979 374.125 342.218 375.625C343.468 377.125 344.093 379.354 344.093 382.312C344.093 384.271 343.802 385.922 343.218 387.266C342.645 388.599 341.838 389.609 340.796 390.297C339.765 390.974 338.562 391.312 337.187 391.312C336.312 391.312 335.552 391.198 334.906 390.969C334.26 390.74 333.708 390.443 333.25 390.078C332.791 389.703 332.406 389.297 332.093 388.859H331.875C331.927 389.276 331.973 389.74 332.015 390.25C332.067 390.75 332.093 391.208 332.093 391.625V398.672H328.406V373.703H331.406L331.921 376.094H332.093C332.416 375.604 332.807 375.151 333.265 374.734C333.734 374.318 334.296 373.99 334.953 373.75C335.619 373.5 336.395 373.375 337.281 373.375ZM336.296 376.375C335.286 376.375 334.473 376.578 333.859 376.984C333.255 377.38 332.812 377.979 332.531 378.781C332.26 379.583 332.114 380.589 332.093 381.797V382.312C332.093 383.594 332.223 384.682 332.484 385.578C332.755 386.464 333.197 387.141 333.812 387.609C334.437 388.068 335.281 388.297 336.343 388.297C337.239 388.297 337.979 388.052 338.562 387.562C339.156 387.073 339.598 386.375 339.89 385.469C340.182 384.562 340.328 383.495 340.328 382.266C340.328 380.401 339.994 378.953 339.328 377.922C338.671 376.891 337.661 376.375 336.296 376.375ZM357.109 373.375C357.401 373.375 357.718 373.391 358.062 373.422C358.406 373.453 358.703 373.495 358.953 373.547L358.609 376.984C358.39 376.922 358.119 376.875 357.796 376.844C357.484 376.812 357.203 376.797 356.953 376.797C356.296 376.797 355.671 376.906 355.078 377.125C354.484 377.333 353.958 377.656 353.5 378.094C353.041 378.521 352.682 379.057 352.421 379.703C352.161 380.349 352.031 381.099 352.031 381.953V391H348.343V373.703H351.218L351.718 376.75H351.89C352.234 376.135 352.661 375.573 353.171 375.062C353.682 374.552 354.265 374.146 354.921 373.844C355.588 373.531 356.317 373.375 357.109 373.375ZM365.828 373.703V391H362.156V373.703H365.828ZM364.015 367.078C364.578 367.078 365.062 367.229 365.468 367.531C365.885 367.833 366.093 368.354 366.093 369.094C366.093 369.823 365.885 370.344 365.468 370.656C365.062 370.958 364.578 371.109 364.015 371.109C363.432 371.109 362.937 370.958 362.531 370.656C362.135 370.344 361.937 369.823 361.937 369.094C361.937 368.354 362.135 367.833 362.531 367.531C362.937 367.229 363.432 367.078 364.015 367.078ZM380.109 373.375C382.057 373.375 383.572 373.88 384.656 374.891C385.75 375.891 386.296 377.5 386.296 379.719V391H382.625V380.406C382.625 379.062 382.348 378.057 381.796 377.391C381.244 376.714 380.39 376.375 379.234 376.375C377.557 376.375 376.39 376.891 375.734 377.922C375.088 378.953 374.765 380.448 374.765 382.406V391H371.093V373.703H373.953L374.468 376.047H374.671C375.046 375.443 375.51 374.948 376.062 374.562C376.625 374.167 377.25 373.87 377.937 373.672C378.635 373.474 379.359 373.375 380.109 373.375ZM397.875 388.344C398.354 388.344 398.828 388.302 399.296 388.219C399.765 388.125 400.192 388.016 400.578 387.891V390.672C400.171 390.849 399.645 391 399 391.125C398.354 391.25 397.682 391.312 396.984 391.312C396.005 391.312 395.125 391.151 394.343 390.828C393.562 390.495 392.942 389.927 392.484 389.125C392.026 388.323 391.796 387.214 391.796 385.797V376.5H389.437V374.859L391.968 373.562L393.171 369.859H395.484V373.703H400.437V376.5H395.484V385.75C395.484 386.625 395.703 387.276 396.14 387.703C396.578 388.13 397.156 388.344 397.875 388.344Z" fill="black"/>
</svg>
