<svg xmlns="http://www.w3.org/2000/svg" viewBox="0 0 214 86">
  <rect x="20" y="20" width="174" height="60" rx="10" fill="#4589FF"/>
<rect x="20" y="20" width="174" height="60" rx="10" fill="#4589FF"/>
<path d="M39.2651 44.0298C38.3592 44.0298 37.5431 44.187 36.8169 44.5015C36.0981 44.8084 35.4842 45.2576 34.9751 45.8491C34.4735 46.4331 34.0879 47.1406 33.8184 47.9717C33.5488 48.8027 33.4141 49.7386 33.4141 50.7793C33.4141 52.1569 33.6274 53.3548 34.0542 54.373C34.4884 55.3838 35.1323 56.1662 35.9858 56.7202C36.8468 57.2743 37.9212 57.5513 39.209 57.5513C39.9427 57.5513 40.6315 57.4914 41.2754 57.3716C41.9268 57.2443 42.5594 57.0871 43.1733 56.8999V58.562C42.5744 58.7866 41.9455 58.9513 41.2866 59.0562C40.6278 59.1685 39.8454 59.2246 38.9395 59.2246C37.2699 59.2246 35.8735 58.8802 34.7505 58.1914C33.6349 57.4951 32.7964 56.5143 32.2349 55.249C31.6808 53.9837 31.4038 52.4901 31.4038 50.7681C31.4038 49.5252 31.576 48.391 31.9204 47.3652C32.2723 46.332 32.7814 45.4411 33.4478 44.6924C34.1216 43.9437 34.9451 43.3672 35.9185 42.9629C36.8993 42.5511 38.0223 42.3452 39.2876 42.3452C40.1187 42.3452 40.9198 42.4276 41.6909 42.5923C42.4621 42.757 43.1584 42.9928 43.7798 43.2998L43.0161 44.917C42.492 44.6774 41.9155 44.4715 41.2866 44.2993C40.6652 44.1196 39.9914 44.0298 39.2651 44.0298ZM52.0454 46.4668C52.2925 46.4668 52.5508 46.4818 52.8203 46.5117C53.0898 46.5342 53.3294 46.5679 53.5391 46.6128L53.3032 48.3423C53.1011 48.2899 52.8765 48.2487 52.6294 48.2188C52.3823 48.1888 52.1502 48.1738 51.9331 48.1738C51.439 48.1738 50.971 48.2749 50.5293 48.4771C50.0951 48.6717 49.7132 48.9562 49.3838 49.3306C49.0544 49.6974 48.7961 50.1429 48.6089 50.667C48.4217 51.1836 48.3281 51.7601 48.3281 52.3965V59H46.4526V46.6914H48.0024L48.2046 48.96H48.2832C48.5378 48.5033 48.8447 48.0877 49.2041 47.7134C49.5635 47.3315 49.979 47.0283 50.4507 46.8037C50.9299 46.5791 51.4614 46.4668 52.0454 46.4668ZM60.603 46.4668C61.6512 46.4668 62.5496 46.6989 63.2983 47.1631C64.047 47.6273 64.6198 48.2786 65.0166 49.1172C65.4134 49.9482 65.6118 50.9215 65.6118 52.0371V53.1938H57.1104C57.1328 54.6388 57.4922 55.7394 58.1885 56.4956C58.8848 57.2518 59.8656 57.6299 61.1309 57.6299C61.9095 57.6299 62.5983 57.5588 63.1973 57.4165C63.7962 57.2743 64.4176 57.0646 65.0615 56.7876V58.4272C64.4401 58.7043 63.8224 58.9064 63.2085 59.0337C62.6021 59.161 61.8833 59.2246 61.0522 59.2246C59.8693 59.2246 58.8361 58.985 57.9526 58.5059C57.0767 58.0192 56.3953 57.3079 55.9087 56.3721C55.422 55.4362 55.1787 54.2907 55.1787 52.9355C55.1787 51.6104 55.3996 50.4648 55.8413 49.499C56.2905 48.5257 56.9194 47.777 57.728 47.2529C58.5441 46.7288 59.5024 46.4668 60.603 46.4668ZM60.5806 47.9941C59.5848 47.9941 58.7912 48.3198 58.1997 48.9712C57.6082 49.6226 57.2563 50.5322 57.144 51.7002H63.6577C63.6502 50.9665 63.5342 50.3226 63.3096 49.7686C63.0924 49.207 62.7593 48.7728 62.3101 48.4658C61.8608 48.1514 61.2843 47.9941 60.5806 47.9941ZM73.3833 46.4893C74.8507 46.4893 75.9401 46.8187 76.6514 47.4775C77.3626 48.1364 77.7183 49.1883 77.7183 50.6333V59H76.3594L76 57.1807H75.9102C75.5658 57.6299 75.2064 58.008 74.832 58.3149C74.4577 58.6144 74.0234 58.8428 73.5293 59C73.0426 59.1497 72.4437 59.2246 71.7324 59.2246C70.9837 59.2246 70.3174 59.0936 69.7334 58.8315C69.1569 58.5695 68.7002 58.1727 68.3633 57.6411C68.0339 57.1095 67.8691 56.4357 67.8691 55.6196C67.8691 54.3918 68.3558 53.4484 69.3291 52.7896C70.3024 52.1307 71.7848 51.7713 73.7764 51.7114L75.8989 51.6216V50.8691C75.8989 49.806 75.6706 49.061 75.2139 48.6343C74.7572 48.2075 74.1133 47.9941 73.2822 47.9941C72.6383 47.9941 72.0244 48.0877 71.4404 48.2749C70.8564 48.4621 70.3024 48.6829 69.7783 48.9375L69.2056 47.5225C69.7596 47.238 70.396 46.9946 71.1147 46.7925C71.8335 46.5903 72.5897 46.4893 73.3833 46.4893ZM75.8765 52.9355L74.001 53.0142C72.4661 53.0741 71.3843 53.3249 70.7554 53.7666C70.1265 54.2083 69.812 54.8335 69.812 55.6421C69.812 56.3459 70.0254 56.8662 70.4521 57.2031C70.8789 57.54 71.4442 57.7085 72.1479 57.7085C73.241 57.7085 74.1357 57.4053 74.832 56.7988C75.5283 56.1924 75.8765 55.2827 75.8765 54.0698V52.9355ZM85.5347 57.6973C85.8416 57.6973 86.1561 57.6711 86.478 57.6187C86.8 57.5662 87.062 57.5026 87.2642 57.4277V58.8765C87.047 58.9738 86.7438 59.0562 86.3545 59.1235C85.9727 59.1909 85.5983 59.2246 85.2314 59.2246C84.5801 59.2246 83.9886 59.1123 83.457 58.8877C82.9255 58.6556 82.4987 58.2663 82.1768 57.7197C81.8623 57.1732 81.7051 56.417 81.7051 55.4512V48.1514H79.9531V47.2417L81.7163 46.5117L82.4575 43.8389H83.5806V46.6914H87.1855V48.1514H83.5806V55.395C83.5806 56.1662 83.7565 56.7427 84.1084 57.1245C84.4678 57.5063 84.9432 57.6973 85.5347 57.6973ZM94.4966 46.4668C95.5448 46.4668 96.4432 46.6989 97.1919 47.1631C97.9406 47.6273 98.5133 48.2786 98.9102 49.1172C99.307 49.9482 99.5054 50.9215 99.5054 52.0371V53.1938H91.0039C91.0264 54.6388 91.3857 55.7394 92.082 56.4956C92.7783 57.2518 93.7591 57.6299 95.0244 57.6299C95.8031 57.6299 96.4919 57.5588 97.0908 57.4165C97.6898 57.2743 98.3112 57.0646 98.9551 56.7876V58.4272C98.3337 58.7043 97.716 58.9064 97.1021 59.0337C96.4956 59.161 95.7769 59.2246 94.9458 59.2246C93.7629 59.2246 92.7297 58.985 91.8462 58.5059C90.9702 58.0192 90.2889 57.3079 89.8022 56.3721C89.3156 55.4362 89.0723 54.2907 89.0723 52.9355C89.0723 51.6104 89.2931 50.4648 89.7349 49.499C90.1841 48.5257 90.813 47.777 91.6216 47.2529C92.4377 46.7288 93.396 46.4668 94.4966 46.4668ZM94.4741 47.9941C93.4784 47.9941 92.6847 48.3198 92.0933 48.9712C91.5018 49.6226 91.1499 50.5322 91.0376 51.7002H97.5513C97.5438 50.9665 97.4277 50.3226 97.2031 49.7686C96.986 49.207 96.6528 48.7728 96.2036 48.4658C95.7544 48.1514 95.1779 47.9941 94.4741 47.9941ZM113.97 59H112.05V44.2656H106.884V42.5811H119.114V44.2656H113.97V59ZM125.919 46.4893C127.387 46.4893 128.476 46.8187 129.188 47.4775C129.899 48.1364 130.254 49.1883 130.254 50.6333V59H128.896L128.536 57.1807H128.446C128.102 57.6299 127.743 58.008 127.368 58.3149C126.994 58.6144 126.56 58.8428 126.065 59C125.579 59.1497 124.98 59.2246 124.269 59.2246C123.52 59.2246 122.854 59.0936 122.27 58.8315C121.693 58.5695 121.236 58.1727 120.899 57.6411C120.57 57.1095 120.405 56.4357 120.405 55.6196C120.405 54.3918 120.892 53.4484 121.865 52.7896C122.839 52.1307 124.321 51.7713 126.312 51.7114L128.435 51.6216V50.8691C128.435 49.806 128.207 49.061 127.75 48.6343C127.293 48.2075 126.649 47.9941 125.818 47.9941C125.174 47.9941 124.561 48.0877 123.977 48.2749C123.393 48.4621 122.839 48.6829 122.314 48.9375L121.742 47.5225C122.296 47.238 122.932 46.9946 123.651 46.7925C124.37 46.5903 125.126 46.4893 125.919 46.4893ZM128.413 52.9355L126.537 53.0142C125.002 53.0741 123.92 53.3249 123.292 53.7666C122.663 54.2083 122.348 54.8335 122.348 55.6421C122.348 56.3459 122.562 56.8662 122.988 57.2031C123.415 57.54 123.98 57.7085 124.684 57.7085C125.777 57.7085 126.672 57.4053 127.368 56.7988C128.064 56.1924 128.413 55.2827 128.413 54.0698V52.9355ZM142.058 55.6309C142.058 56.417 141.859 57.0796 141.462 57.6187C141.073 58.1502 140.512 58.5508 139.778 58.8203C139.052 59.0898 138.183 59.2246 137.172 59.2246C136.311 59.2246 135.566 59.1572 134.938 59.0225C134.309 58.8877 133.758 58.6968 133.287 58.4497V56.7314C133.788 56.9785 134.387 57.2031 135.083 57.4053C135.78 57.6074 136.491 57.7085 137.217 57.7085C138.28 57.7085 139.052 57.5363 139.531 57.1919C140.01 56.8475 140.25 56.3796 140.25 55.7881C140.25 55.4512 140.152 55.1554 139.958 54.9009C139.77 54.6388 139.452 54.388 139.003 54.1484C138.554 53.9014 137.932 53.6318 137.139 53.3398C136.353 53.0404 135.671 52.7446 135.095 52.4526C134.526 52.1532 134.084 51.79 133.77 51.3633C133.463 50.9365 133.309 50.3825 133.309 49.7012C133.309 48.6605 133.728 47.8631 134.567 47.3091C135.413 46.7476 136.521 46.4668 137.891 46.4668C138.632 46.4668 139.325 46.5417 139.969 46.6914C140.62 46.8337 141.227 47.0283 141.788 47.2754L141.159 48.769C140.65 48.5519 140.107 48.3685 139.531 48.2188C138.954 48.069 138.367 47.9941 137.768 47.9941C136.907 47.9941 136.244 48.1364 135.78 48.4209C135.323 48.7054 135.095 49.0947 135.095 49.5889C135.095 49.9707 135.2 50.2852 135.409 50.5322C135.626 50.7793 135.971 51.0114 136.442 51.2285C136.914 51.4456 137.535 51.7002 138.307 51.9922C139.078 52.2767 139.744 52.5724 140.306 52.8794C140.867 53.1789 141.298 53.5457 141.597 53.98C141.904 54.4067 142.058 54.957 142.058 55.6309ZM146.909 41.5254V50.5996C146.909 50.8991 146.898 51.266 146.875 51.7002C146.853 52.127 146.834 52.505 146.819 52.8345H146.898C147.055 52.6398 147.284 52.3516 147.583 51.9697C147.89 51.5879 148.148 51.2809 148.358 51.0488L152.446 46.6914H154.636L149.683 51.9473L154.995 59H152.749L148.403 53.1714L146.909 54.5415V59H145.056V41.5254H146.909Z" fill="white"/>
<mask id="mask0_70_783" style="mask-type:alpha" maskUnits="userSpaceOnUse" x="160" y="38" width="24" height="24">
<rect x="160" y="38" width="24" height="24" fill="#D9D9D9"/>
</mask>
<g mask="url(#mask0_70_783)">
<path d="M169.55 53.15L178.025 44.675C178.225 44.475 178.463 44.375 178.738 44.375C179.013 44.375 179.25 44.475 179.45 44.675C179.65 44.875 179.75 45.1125 179.75 45.3875C179.75 45.6625 179.65 45.9 179.45 46.1L170.25 55.3C170.05 55.5 169.817 55.6 169.55 55.6C169.284 55.6 169.05 55.5 168.85 55.3L164.55 51C164.35 50.8 164.254 50.5625 164.263 50.2875C164.271 50.0125 164.375 49.775 164.575 49.575C164.775 49.375 165.013 49.275 165.288 49.275C165.563 49.275 165.8 49.375 166 49.575L169.55 53.15Z" fill="white"/>
</g>
</svg>