<svg width="42" height="42" viewBox="0 0 42 42" fill="none" xmlns="http://www.w3.org/2000/svg">
<rect width="42" height="42" rx="21" fill="white"/>
<circle cx="21" cy="21" r="20" fill="#00BEE8" stroke="white" stroke-width="2"/>
<path d="M17.6655 18.4545C17.6143 18.0227 17.407 17.6875 17.0433 17.4489C16.6797 17.2102 16.2337 17.0909 15.7053 17.0909C15.3189 17.0909 14.9808 17.1534 14.6911 17.2784C14.4041 17.4034 14.1797 17.5753 14.0178 17.794C13.8587 18.0128 13.7791 18.2614 13.7791 18.5398C13.7791 18.7727 13.8345 18.973 13.9453 19.1406C14.0589 19.3054 14.2038 19.4432 14.38 19.554C14.5561 19.6619 14.7408 19.7514 14.9339 19.8224C15.1271 19.8906 15.3047 19.946 15.4666 19.9886L16.353 20.2273C16.5803 20.2869 16.8331 20.3693 17.1115 20.4744C17.3928 20.5795 17.6612 20.723 17.9169 20.9048C18.1754 21.0838 18.3885 21.3139 18.5561 21.5952C18.7237 21.8764 18.8075 22.2216 18.8075 22.6307C18.8075 23.1023 18.6839 23.5284 18.4368 23.9091C18.1925 24.2898 17.8345 24.5923 17.3629 24.8168C16.8942 25.0412 16.3246 25.1534 15.6541 25.1534C15.0291 25.1534 14.4879 25.0526 14.0305 24.8509C13.576 24.6491 13.218 24.3679 12.9567 24.0071C12.6982 23.6463 12.5518 23.2273 12.5178 22.75H13.6087C13.6371 23.0795 13.7479 23.3523 13.9411 23.5682C14.1371 23.7812 14.3842 23.9403 14.6825 24.0455C14.9837 24.1477 15.3075 24.1989 15.6541 24.1989C16.0575 24.1989 16.4197 24.1335 16.7408 24.0028C17.0618 23.8693 17.3161 23.6847 17.5036 23.4489C17.6911 23.2102 17.7848 22.9318 17.7848 22.6136C17.7848 22.3239 17.7038 22.0881 17.5419 21.9062C17.38 21.7244 17.1669 21.5767 16.9027 21.4631C16.6385 21.3494 16.353 21.25 16.0462 21.1648L14.9723 20.858C14.2905 20.6619 13.7507 20.3821 13.353 20.0185C12.9553 19.6548 12.7564 19.179 12.7564 18.5909C12.7564 18.1023 12.8885 17.6761 13.1527 17.3125C13.4197 16.946 13.7777 16.6619 14.2266 16.4602C14.6783 16.2557 15.1825 16.1534 15.7393 16.1534C16.3018 16.1534 16.8018 16.2543 17.2393 16.456C17.6768 16.6548 18.0234 16.9276 18.2791 17.2741C18.5376 17.6207 18.674 18.0142 18.6882 18.4545H17.6655ZM20.5451 16.2727H21.8065L24.7724 23.517H24.8746L27.8406 16.2727H29.1019V25H28.1133V18.3693H28.0281L25.3008 25H24.3462L21.619 18.3693H21.5337V25H20.5451V16.2727Z" fill="white"/>
</svg>
