<svg width="24" height="25" viewBox="0 0 24 25" fill="none" xmlns="http://www.w3.org/2000/svg">
<mask id="mask0_68923_3158" style="mask-type:alpha" maskUnits="userSpaceOnUse" x="0" y="0" width="24" height="25">
<rect y="0.48291" width="24" height="24" fill="#D9D9D9"/>
</mask>
<g mask="url(#mask0_68923_3158)">
<path d="M9.55 15.6329L18.025 7.15791C18.225 6.95791 18.4625 6.85791 18.7375 6.85791C19.0125 6.85791 19.25 6.95791 19.45 7.15791C19.65 7.35791 19.75 7.59541 19.75 7.87041C19.75 8.14541 19.65 8.38291 19.45 8.58291L10.25 17.7829C10.05 17.9829 9.81667 18.0829 9.55 18.0829C9.28333 18.0829 9.05 17.9829 8.85 17.7829L4.55 13.4829C4.35 13.2829 4.25417 13.0454 4.2625 12.7704C4.27083 12.4954 4.375 12.2579 4.575 12.0579C4.775 11.8579 5.0125 11.7579 5.2875 11.7579C5.5625 11.7579 5.8 11.8579 6 12.0579L9.55 15.6329Z" fill="white"/>
</g>
</svg>
