<svg width="186" height="40" viewBox="0 0 186 40" fill="none" xmlns="http://www.w3.org/2000/svg">
<mask id="mask0_55413_8869" style="mask-type:alpha" maskUnits="userSpaceOnUse" x="30" y="8" width="24" height="24">
<rect x="30" y="8" width="24" height="24" fill="#D9D9D9"/>
</mask>
<g mask="url(#mask0_55413_8869)">
<path d="M43.2222 31C42.8759 31 42.5856 30.8829 42.3514 30.6486C42.1171 30.4144 42 30.1241 42 29.7778C42 29.4315 42.1171 29.1412 42.3514 28.9069C42.5856 28.6727 42.8759 28.5556 43.2222 28.5556H50.5556V11.4444H43.2222C42.8759 11.4444 42.5856 11.3273 42.3514 11.0931C42.1171 10.8588 42 10.5685 42 10.2222C42 9.87593 42.1171 9.58565 42.3514 9.35139C42.5856 9.11713 42.8759 9 43.2222 9H50.5556C51.2278 9 51.8032 9.23935 52.2819 9.71806C52.7606 10.1968 53 10.7722 53 11.4444V28.5556C53 29.2278 52.7606 29.8032 52.2819 30.2819C51.8032 30.7606 51.2278 31 50.5556 31H43.2222ZM40.9917 21.2222H32.2222C31.8759 21.2222 31.5856 21.1051 31.3514 20.8708C31.1171 20.6366 31 20.3463 31 20C31 19.6537 31.1171 19.3634 31.3514 19.1292C31.5856 18.8949 31.8759 18.7778 32.2222 18.7778H40.9917L38.7 16.4861C38.4759 16.262 38.3639 15.987 38.3639 15.6611C38.3639 15.3352 38.4759 15.05 38.7 14.8056C38.9241 14.5611 39.2093 14.4338 39.5556 14.4236C39.9019 14.4134 40.1972 14.5306 40.4417 14.775L44.8111 19.1444C45.0556 19.3889 45.1778 19.6741 45.1778 20C45.1778 20.3259 45.0556 20.6111 44.8111 20.8556L40.4417 25.225C40.1972 25.4694 39.9069 25.5866 39.5708 25.5764C39.2347 25.5662 38.9444 25.4389 38.7 25.1944C38.4759 24.95 38.369 24.6597 38.3792 24.3236C38.3894 23.9875 38.5065 23.7074 38.7306 23.4833L40.9917 21.2222Z" fill="#42526E"/>
</g>
<path d="M63.5625 26.5V15.0781H64.8906V25.3125H69.9609V26.5H63.5625ZM79.1094 22.2031C79.1094 22.9062 79.0182 23.5339 78.8359 24.0859C78.6536 24.638 78.3906 25.1042 78.0469 25.4844C77.7031 25.8646 77.2865 26.1562 76.7969 26.3594C76.3125 26.5573 75.763 26.6562 75.1484 26.6562C74.5755 26.6562 74.0495 26.5573 73.5703 26.3594C73.0964 26.1562 72.6849 25.8646 72.3359 25.4844C71.9922 25.1042 71.724 24.638 71.5312 24.0859C71.3438 23.5339 71.25 22.9062 71.25 22.2031C71.25 21.2656 71.4089 20.4688 71.7266 19.8125C72.0443 19.151 72.4974 18.6484 73.0859 18.3047C73.6797 17.9557 74.3854 17.7812 75.2031 17.7812C75.9844 17.7812 76.6667 17.9557 77.25 18.3047C77.8385 18.6536 78.2943 19.1589 78.6172 19.8203C78.9453 20.4766 79.1094 21.2708 79.1094 22.2031ZM72.5938 22.2031C72.5938 22.8906 72.6849 23.487 72.8672 23.9922C73.0495 24.4974 73.3307 24.888 73.7109 25.1641C74.0911 25.4401 74.5807 25.5781 75.1797 25.5781C75.7734 25.5781 76.2604 25.4401 76.6406 25.1641C77.026 24.888 77.3099 24.4974 77.4922 23.9922C77.6745 23.487 77.7656 22.8906 77.7656 22.2031C77.7656 21.5208 77.6745 20.9323 77.4922 20.4375C77.3099 19.9375 77.0286 19.5521 76.6484 19.2812C76.2682 19.0104 75.776 18.875 75.1719 18.875C74.2812 18.875 73.6276 19.1693 73.2109 19.7578C72.7995 20.3464 72.5938 21.1615 72.5938 22.2031ZM83.7422 30.3438C82.6172 30.3438 81.75 30.1328 81.1406 29.7109C80.5312 29.2943 80.2266 28.7083 80.2266 27.9531C80.2266 27.4167 80.3958 26.9583 80.7344 26.5781C81.0781 26.1979 81.5521 25.9453 82.1562 25.8203C81.9323 25.7161 81.7396 25.5599 81.5781 25.3516C81.4219 25.1432 81.3438 24.9036 81.3438 24.6328C81.3438 24.3203 81.4297 24.0469 81.6016 23.8125C81.7786 23.5729 82.0469 23.3438 82.4062 23.125C81.9583 22.9427 81.5938 22.6354 81.3125 22.2031C81.0365 21.7656 80.8984 21.2578 80.8984 20.6797C80.8984 20.0651 81.026 19.5417 81.2812 19.1094C81.5365 18.6719 81.9062 18.3385 82.3906 18.1094C82.875 17.8802 83.4609 17.7656 84.1484 17.7656C84.2995 17.7656 84.4505 17.7734 84.6016 17.7891C84.7578 17.7995 84.9062 17.8177 85.0469 17.8438C85.1875 17.8646 85.3099 17.8906 85.4141 17.9219H88.3516V18.7578L86.7734 18.9531C86.9297 19.1562 87.0599 19.401 87.1641 19.6875C87.2682 19.974 87.3203 20.2917 87.3203 20.6406C87.3203 21.4948 87.0312 22.1745 86.4531 22.6797C85.875 23.1797 85.0807 23.4297 84.0703 23.4297C83.8307 23.4297 83.5859 23.4089 83.3359 23.3672C83.0807 23.5078 82.8854 23.6641 82.75 23.8359C82.6198 24.0078 82.5547 24.2057 82.5547 24.4297C82.5547 24.5964 82.6042 24.7292 82.7031 24.8281C82.8073 24.9271 82.9557 25 83.1484 25.0469C83.3411 25.0885 83.5729 25.1094 83.8438 25.1094H85.3516C86.2839 25.1094 86.9974 25.3047 87.4922 25.6953C87.9922 26.0859 88.2422 26.6562 88.2422 27.4062C88.2422 28.3542 87.8568 29.0807 87.0859 29.5859C86.3151 30.0911 85.2005 30.3438 83.7422 30.3438ZM83.7812 29.3281C84.4896 29.3281 85.0755 29.2552 85.5391 29.1094C86.0078 28.9688 86.3568 28.763 86.5859 28.4922C86.8203 28.2266 86.9375 27.9089 86.9375 27.5391C86.9375 27.1953 86.8594 26.9349 86.7031 26.7578C86.5469 26.5859 86.3177 26.4714 86.0156 26.4141C85.7135 26.3516 85.3438 26.3203 84.9062 26.3203H83.4219C83.0365 26.3203 82.7005 26.3802 82.4141 26.5C82.1276 26.6198 81.9062 26.7969 81.75 27.0312C81.599 27.2656 81.5234 27.5573 81.5234 27.9062C81.5234 28.3698 81.7188 28.7214 82.1094 28.9609C82.5 29.2057 83.0573 29.3281 83.7812 29.3281ZM84.1172 22.4844C84.737 22.4844 85.2031 22.3281 85.5156 22.0156C85.8281 21.7031 85.9844 21.2474 85.9844 20.6484C85.9844 20.0078 85.8255 19.5286 85.5078 19.2109C85.1901 18.888 84.7214 18.7266 84.1016 18.7266C83.5078 18.7266 83.0495 18.8932 82.7266 19.2266C82.4089 19.5547 82.25 20.0365 82.25 20.6719C82.25 21.2552 82.4115 21.7031 82.7344 22.0156C83.0573 22.3281 83.5182 22.4844 84.1172 22.4844ZM94.3906 26.5V15.0781H95.7188V26.5H94.3906ZM102.719 17.7812C103.734 17.7812 104.503 18.0312 105.023 18.5312C105.544 19.026 105.805 19.8229 105.805 20.9219V26.5H104.523V21.0078C104.523 20.2943 104.359 19.7604 104.031 19.4062C103.708 19.0521 103.211 18.875 102.539 18.875C101.591 18.875 100.924 19.1432 100.539 19.6797C100.154 20.2161 99.9609 20.9948 99.9609 22.0156V26.5H98.6641V17.9375H99.7109L99.9062 19.1719H99.9766C100.159 18.8698 100.391 18.6172 100.672 18.4141C100.953 18.2057 101.268 18.0495 101.617 17.9453C101.966 17.8359 102.333 17.7812 102.719 17.7812Z" fill="#42526E"/>
</svg>
